<?xml version="1.0" encoding="utf-8"?>
<!-- Generator: Adobe Illustrator 27.7.0, SVG Export Plug-In . SVG Version: 6.00 Build 0)  -->
<svg version="1.1" id="Warstwa_1" xmlns="http://www.w3.org/2000/svg" xmlns:xlink="http://www.w3.org/1999/xlink" x="0px" y="0px"
	 viewBox="0 0 841.89 595.28" style="enable-background:new 0 0 841.89 595.28;" xml:space="preserve">
<style type="text/css">
	.st0{fill:#991B1D;}
	.st1{fill:#EB8C0F;}
	.st2{fill:#FFFFFF;}
</style>
<g>
	<g>
		<g>
			<g>
				<path class="st0" d="M74.29,328.81v-51.39h13.82c18.31,0,28.01,8.53,28.01,25.36c0,17.13-10,26.02-27.72,26.02H74.29z
					 M102.52,302.93c0-8.9-4.63-13.45-14.19-13.45v27.27C97.89,316.75,102.52,312.05,102.52,302.93z"/>
				<path class="st0" d="M148.77,275.66c36.32,0,35.43,54.7,0.07,54.7C113.48,330.35,112.45,275.66,148.77,275.66z M148.7,316.24
					h0.29c9.19,0,13.6-4.56,13.6-13.38c0-8.67-4.34-13.09-13.75-13.09c-9.19,0-13.75,4.41-13.75,13.09
					C135.1,311.68,139.29,316.24,148.7,316.24z"/>
				<path class="st0" d="M183.48,277.42h17.13c4.56,0,8.45,1.25,11.32,3.53c6.18,4.71,6.1,15.95-0.44,20.29
					c8.01,2.06,9.41,9.26,9.41,12.86c0,9.78-7.35,14.78-16.98,14.7h-20.44V277.42z M200.83,318.66h0.44c4.19,0,6.1-1.99,6.1-5.81
					c0-3.97-1.99-6.03-6.03-6.03h-0.44c-4.19,0-6.18,1.99-6.18,5.88C194.73,316.61,196.78,318.66,200.83,318.66z M199.73,297.05
					h0.37c3.38,0,5-1.62,5-4.78c0-3.16-1.62-4.85-5-4.85h-0.29c-3.46,0-5,1.62-5,4.78C194.8,295.43,196.42,297.05,199.73,297.05z"/>
				<path class="st0" d="M241.78,318.81v10H228.4v-51.39h16.91c7.65,0,20.51,1.32,20.51,16.91c0,14.85-11.17,17.13-15.29,17.57
					c3.97,8.53,10,8.6,10.44,0.59H272c0,2.72-0.59,5.37-1.62,7.87c-2.43,5.81-7.35,9.12-13.45,9.12
					C251.41,329.47,246.34,325.87,241.78,318.81z M246.19,301.02h0.44c4.48,0,6.54-2.06,6.54-6.18c0-4.19-2.13-6.32-6.47-6.32h-0.44
					c-4.48,0-6.54,2.06-6.54,6.18C239.72,298.89,241.86,301.02,246.19,301.02z"/>
				<path class="st0" d="M278.11,277.42h28.16v12.06h-11.98c-2.21,0-3.23,1.25-3.23,3.68c0,2.5,1.1,3.75,3.16,3.75h11.32v12.06
					h-11.25c-2.28,0-3.38,1.32-3.38,3.82c0,2.65,1.1,3.97,3.31,3.97h12.06v12.06h-28.16V277.42z"/>
				<path class="st0" d="M528.57,277.42h15.88c8.75,0,21.54,1.32,21.54,16.91c0,15.81-12.87,17.79-18.23,17.79h-5.81v16.69h-13.38
					V277.42z M546.36,301.02h0.44c4.48,0,6.54-2.06,6.54-6.18c0-4.19-2.28-6.32-6.47-6.32h-0.44c-4.48,0-6.54,2.06-6.54,6.18
					C539.89,298.89,542.02,301.02,546.36,301.02z"/>
				<path class="st0" d="M586.65,318.81v10h-13.38v-51.39h16.91c7.65,0,20.51,1.32,20.51,16.91c0,14.85-11.17,17.13-15.29,17.57
					c3.97,8.53,10,8.6,10.44,0.59h11.03c0,2.72-0.59,5.37-1.62,7.87c-2.43,5.81-7.35,9.12-13.45,9.12
					C596.28,329.47,591.21,325.87,586.65,318.81z M591.06,301.02h0.44c4.48,0,6.54-2.06,6.54-6.18c0-4.19-2.13-6.32-6.47-6.32h-0.44
					c-4.48,0-6.54,2.06-6.54,6.18C584.59,298.89,586.73,301.02,591.06,301.02z"/>
				<path class="st0" d="M622.98,277.42h28.16v12.06h-11.98c-2.21,0-3.24,1.25-3.24,3.68c0,2.5,1.1,3.75,3.16,3.75h11.32v12.06
					h-11.25c-2.28,0-3.38,1.32-3.38,3.82c0,2.65,1.1,3.97,3.31,3.97h12.06v12.06h-28.16V277.42z"/>
				<path class="st0" d="M658.27,303c0-18.23,17.57-33.08,37.79-24.19v14.85c-10.07-7.87-23.89-3.46-23.89,9.34
					c0,13.38,13.82,17.06,23.89,9.78v14.48C675.84,336.53,658.27,320.5,658.27,303z"/>
				<path class="st0" d="M704.81,277.42h13.53v39.26h14.63v12.13h-28.16V277.42z"/>
				<path class="st0" d="M739.44,277.42h28.16v12.06h-11.98c-2.21,0-3.24,1.25-3.24,3.68c0,2.5,1.1,3.75,3.16,3.75h11.32v12.06
					h-11.25c-2.28,0-3.38,1.32-3.38,3.82c0,2.65,1.1,3.97,3.31,3.97h12.06v12.06h-28.16V277.42z"/>
			</g>
		</g>
	</g>
	<g>
		<g>
			<g>
				<path class="st1" d="M438.63,265.46c0.39-0.03,0.79-0.05,1.18-0.07c1.06-0.04,1.6-0.4,2.15-1.25c3.07-4.77,7-8.67,11.93-11.5
					c2.13-1.22,4.37-2.22,6.74-3.41c-8.2-3.97-16.7-5.19-25.5-4.13c-4.03,0.48-7.89,1.34-11.53,2.62
					C429.75,252.55,434.89,258.53,438.63,265.46z"/>
				<path class="st1" d="M520.96,291.63c-0.97-13.42-7.32-23.86-18.08-31.58c-11.71-8.4-24.66-11.79-38.93-8.1
					c-10.33,2.68-18.81,10.54-22.3,20.13c0.5,1.32,0.97,2.66,1.37,4.03c1.32,4.5,2.04,9.04,2.2,13.56
					c3.78-2.06,7.41-4.36,10.33-7.68c1.02-1.16,2.23-2.17,3.35-3.24c7.06-6.74,15.04-9.81,24.64-5.97
					c14.04,5.61,19.99,16.88,15.44,31.62c-0.69,2.23-1.65,4.38-2.51,6.63c0.15,0.12,0.31,0.25,0.47,0.38
					c5.61,4.46,7.19,11.54,3.93,17.55c-3.25,5.99-10.34,8.7-17.03,6.2c-4.24-1.59-8.3-3.67-12.46-5.48
					c-0.69-0.3-1.53-0.53-2.26-0.45c-11.69,1.26-22.83-0.59-33.46-5.57c-3.7,5.81-8.39,11.12-13.91,15.7
					c15.89,9.76,33.48,12.75,51.95,9.92c16.6-2.55,29.73-10.98,38.81-25.25C518.78,314.17,521.81,303.38,520.96,291.63z"/>
			</g>
			<g>
				<g>
					<path class="st1" d="M434.85,265.23c-6.68-11.68-16.93-18.34-29.96-20.65c-14.19-2.51-27.34,0.04-38.6,9.54
						c-11.02,9.3-14.9,25.66-8.37,38.06c1.39,2.65,3.04,5.12,5.28,7.25c0.29-0.29,0.5-0.45,0.65-0.66c3.22-4.3,6.37-8.64,7.85-13.93
						c0.42-1.49,1.07-2.92,1.62-4.37c3.45-9.13,9.31-15.35,19.63-16.04c15.09-1.02,25.32,6.57,27.6,21.83
						c0.35,2.31,0.41,4.67,0.61,7.06c0.19,0.05,0.39,0.1,0.59,0.14c6.98,1.6,11.47,7.29,11.13,14.12
						c-0.34,6.8-5.55,12.32-12.67,12.96c-4.51,0.41-9.07,0.28-13.61,0.45c-0.76,0.03-1.61,0.18-2.24,0.57
						c-10.14,6.29-21.16,9.45-33.09,9.46c-0.74,0-1.56,0.28-2.21,0.65c-4.04,2.3-7.95,4.85-12.08,6.95
						c-6.08,3.08-13.33,1.16-17.24-4.23c-3.94-5.44-3.37-12.65,1.47-17.65c0.76-0.79,0.76-1.29,0.19-2.18
						c-2.14-3.32-3.66-6.92-4.5-10.77c-1.02-4.64-1.16-9.28,0.72-13.75c2.53-6.04,7-10.32,12.72-13.34c0.94-0.5,1.27-1.05,1.4-2.06
						c0.7-5.62,2.56-10.85,5.78-15.53c1.39-2.02,2.98-3.89,4.6-5.99c-9.11-0.03-17.3,2.55-24.78,7.31
						c-10.09,6.42-17.46,15.05-20.48,26.82c-2.76,10.75-1.35,21.22,3.31,31.19c8.78,18.8,23.53,29.94,44.11,32.55
						c19.23,2.43,36.98-2.46,52.9-13.33c13.87-9.48,22.05-22.76,24.07-39.55C442.65,286.49,440.71,275.46,434.85,265.23z"/>
					<path class="st1" d="M389.03,268.59c-3.26,0.81-5.86,2.56-8.02,5.07c-2.63,3.06-4.34,6.62-5.71,10.38
						c-0.86,2.37-1.51,4.83-2.55,7.11c-3.45,7.57-8.95,13.57-15.09,19.01c-3.34,2.96-7.11,5.26-11.28,6.99
						c-4.99,2.06-7.06,7.87-5.03,13.31c1.81,4.84,7.39,7.3,12.87,5.8c1.84-0.86,3.73-1.63,5.5-2.61
						c10.7-5.94,19.32-14.16,26.31-24.13c4.67-6.67,8.14-13.88,9.03-22.11c0.68-6.3-0.45-12.25-3.61-17.81
						C390.86,268.5,390.23,268.29,389.03,268.59z"/>
					<path class="st1" d="M387.2,313.64c0.59,0.22,0.97,0.39,1.37,0.52c5.86,1.79,11.84,3.02,17.96,3.48
						c5.41,0.41,10.82,0.54,16.09-1.07c4.78-1.46,7.82-6.77,6.73-11.55c-1.26-5.52-6.07-9.26-11.24-8.34
						c-6.55,1.18-12.91,0.3-19.27-1.1c-0.61-0.13-1.22-0.26-1.92-0.41C394.77,301.92,391.41,307.88,387.2,313.64z"/>
				</g>
				<path class="st2" d="M335.82,280.88h0.04c1.32,0,1.95-0.65,1.95-1.92c0-1.24-0.62-1.87-1.97-1.87c-1.32,0-1.97,0.63-1.97,1.87
					C333.87,280.23,334.47,280.88,335.82,280.88z"/>
				<path class="st2" d="M323.09,288.38h0.04c1.32,0,1.95-0.65,1.95-1.92c0-1.24-0.62-1.87-1.97-1.87c-1.32,0-1.97,0.63-1.97,1.87
					C321.14,287.72,321.74,288.38,323.09,288.38z"/>
				<path class="st2" d="M342.82,265.83l0.03,0.03c1.05,0.79,1.95,0.65,2.71-0.36c0.75-0.99,0.63-1.87-0.45-2.68
					c-1.05-0.79-1.95-0.68-2.7,0.32C341.66,264.14,341.75,265.02,342.82,265.83z"/>
				<path class="st2" d="M336.74,270.11l0.02,0c0.75,0.08,1.15-0.25,1.23-0.97c0.08-0.71-0.24-1.11-1.01-1.19
					c-0.75-0.08-1.17,0.24-1.24,0.95C335.66,269.61,335.96,270.03,336.74,270.11z"/>
				<path class="st2" d="M328.66,278.63l0.02,0c0.75,0.08,1.15-0.25,1.23-0.97c0.08-0.71-0.24-1.11-1.01-1.19
					c-0.75-0.08-1.17,0.24-1.24,0.95C327.59,278.13,327.89,278.54,328.66,278.63z"/>
				<path class="st2" d="M332.05,293.13l0.01-0.02c0.38-0.65,0.25-1.16-0.38-1.53c-0.62-0.36-1.11-0.24-1.5,0.43
					c-0.38,0.65-0.26,1.16,0.35,1.52C331.15,293.9,331.65,293.8,332.05,293.13z"/>
				<path class="st2" d="M323.27,305.22l0.02,0c0.75-0.12,1.05-0.55,0.93-1.27c-0.11-0.71-0.53-1.01-1.29-0.88
					c-0.75,0.12-1.06,0.54-0.95,1.25C322.11,305.03,322.51,305.35,323.27,305.22z"/>
				<path class="st2" d="M344.8,273.22l0.01,0.02c0.34,0.68,0.84,0.83,1.49,0.5c0.64-0.32,0.8-0.81,0.45-1.5
					c-0.34-0.68-0.84-0.85-1.47-0.52C344.63,272.05,344.45,272.53,344.8,273.22z"/>
				<path class="st2" d="M384.65,290.27h0.04c1.32,0,1.95-0.65,1.95-1.92c0-1.24-0.62-1.87-1.97-1.87c-1.32,0-1.97,0.63-1.97,1.87
					C382.7,289.62,383.3,290.27,384.65,290.27z"/>
				<path class="st2" d="M375.36,312.16l0.03,0.03c1.05,0.79,1.95,0.65,2.71-0.36c0.75-0.99,0.63-1.87-0.45-2.68
					c-1.05-0.79-1.95-0.68-2.7,0.32C374.19,310.47,374.28,311.35,375.36,312.16z"/>
				<path class="st2" d="M397.03,337.02l-0.03,0.03c-0.89,0.97-0.84,1.87,0.09,2.73c0.91,0.84,1.8,0.81,2.71-0.18
					c0.89-0.97,0.87-1.88-0.04-2.72C398.83,336.03,397.95,336.03,397.03,337.02z"/>
				<path class="st2" d="M380.37,338.77l0.03,0.03c1.05,0.79,1.95,0.65,2.71-0.36c0.75-0.99,0.63-1.87-0.45-2.68
					c-1.05-0.79-1.95-0.68-2.7,0.32C379.2,337.08,379.29,337.96,380.37,338.77z"/>
				<path class="st2" d="M377.51,295.23l0,0.02c-0.15,0.74,0.15,1.17,0.86,1.32c0.7,0.14,1.13-0.14,1.28-0.9
					c0.15-0.74-0.13-1.18-0.83-1.32C378.1,294.21,377.66,294.47,377.51,295.23z"/>
				<path class="st2" d="M399.16,307.89l0.04-0.01c1.29-0.27,1.78-1.03,1.52-2.27c-0.25-1.22-0.99-1.71-2.31-1.44
					c-1.29,0.27-1.8,1.02-1.55,2.23C397.12,307.64,397.84,308.16,399.16,307.89z"/>
				<path class="st2" d="M404.73,312.39l0.01,0.02c0.39,0.65,0.9,0.76,1.52,0.39c0.61-0.37,0.74-0.87,0.33-1.53
					c-0.39-0.65-0.9-0.78-1.51-0.41C404.46,311.24,404.32,311.73,404.73,312.39z"/>
				<path class="st2" d="M397.47,331.41l0.01,0.02c0.39,0.65,0.9,0.76,1.52,0.39c0.61-0.37,0.74-0.87,0.33-1.53
					c-0.39-0.65-0.9-0.78-1.51-0.41C397.21,330.25,397.07,330.74,397.47,331.41z"/>
				<path class="st2" d="M412.32,303.26l0.02,0.01c0.73,0.2,1.18-0.07,1.37-0.77c0.19-0.69-0.06-1.13-0.81-1.34
					c-0.73-0.2-1.19,0.06-1.38,0.75C411.34,302.6,411.57,303.05,412.32,303.26z"/>
				<path class="st2" d="M372.94,346.2l0.02,0.01c0.73,0.2,1.18-0.07,1.37-0.77c0.19-0.69-0.06-1.13-0.81-1.34
					c-0.73-0.2-1.19,0.06-1.38,0.75C371.95,345.54,372.19,346,372.94,346.2z"/>
				<path class="st2" d="M409.95,334.23l0.02,0.01c0.73,0.2,1.18-0.07,1.37-0.77c0.19-0.69-0.06-1.13-0.81-1.34
					c-0.73-0.2-1.19,0.06-1.38,0.75C408.97,333.58,409.2,334.03,409.95,334.23z"/>
				<path class="st2" d="M367.2,263.96l0.03,0.03c1.05,0.79,1.95,0.65,2.71-0.36c0.75-0.99,0.63-1.87-0.45-2.68
					c-1.05-0.79-1.95-0.68-2.7,0.32C366.04,262.27,366.13,263.15,367.2,263.96z"/>
				<path class="st2" d="M384.85,260.92l0.04-0.01c1.31-0.16,1.86-0.88,1.71-2.13c-0.15-1.23-0.84-1.79-2.18-1.63
					c-1.31,0.16-1.88,0.86-1.73,2.1C382.84,260.51,383.52,261.08,384.85,260.92z"/>
				<path class="st2" d="M400.23,252.27l0.04,0.01c1.26,0.39,2.05-0.05,2.42-1.26c0.36-1.19-0.04-1.97-1.33-2.37
					c-1.26-0.39-2.07,0.03-2.43,1.21C398.56,251.08,398.94,251.88,400.23,252.27z"/>
				<path class="st2" d="M414.06,263.36l0.04,0.01c1.26,0.39,2.05-0.05,2.42-1.26c0.36-1.19-0.04-1.97-1.33-2.37
					c-1.26-0.39-2.07,0.03-2.43,1.21C412.38,262.16,412.77,262.96,414.06,263.36z"/>
				<path class="st2" d="M363.05,275.78l-0.04-0.01c-1.23-0.46-2.05-0.07-2.5,1.11c-0.43,1.16-0.07,1.97,1.19,2.44
					c1.23,0.46,2.07,0.1,2.5-1.07C364.65,277.07,364.31,276.25,363.05,275.78z"/>
				<path class="st2" d="M368.14,271.33l0.01,0.02c0.34,0.68,0.84,0.83,1.49,0.5c0.64-0.32,0.8-0.81,0.45-1.5
					c-0.34-0.68-0.84-0.85-1.47-0.52C367.97,270.16,367.79,270.64,368.14,271.33z"/>
				<path class="st2" d="M389.39,251.91l-0.01-0.02c-0.45-0.61-0.97-0.68-1.55-0.25c-0.58,0.42-0.66,0.93-0.2,1.55
					c0.45,0.61,0.96,0.7,1.54,0.27C389.75,253.03,389.85,252.53,389.39,251.91z"/>
				<path class="st2" d="M379.12,251.75l-0.02-0.01c-0.72-0.23-1.18,0.02-1.4,0.72c-0.21,0.68,0.02,1.14,0.76,1.37
					c0.72,0.23,1.19-0.01,1.4-0.69C380.07,252.45,379.86,251.99,379.12,251.75z"/>
				<path class="st2" d="M424.63,273.93l-0.02,0.01c-0.67,0.34-0.83,0.84-0.5,1.49c0.33,0.64,0.81,0.8,1.5,0.44
					c0.67-0.34,0.84-0.84,0.52-1.48C425.8,273.76,425.32,273.58,424.63,273.93z"/>
				<path class="st2" d="M427.26,265.88l-0.01-0.02c-0.33-0.68-0.82-0.85-1.48-0.53c-0.64,0.31-0.82,0.79-0.48,1.49
					c0.33,0.68,0.82,0.86,1.46,0.56C427.4,267.05,427.59,266.58,427.26,265.88z"/>
				<path class="st2" d="M412.44,253.25l-0.01-0.02c-0.34-0.68-0.84-0.83-1.49-0.5c-0.64,0.32-0.8,0.81-0.45,1.5
					c0.34,0.68,0.84,0.85,1.47,0.52C412.62,254.42,412.79,253.94,412.44,253.25z"/>
				<path class="st2" d="M383.17,301.61l-0.02-0.01c-0.68-0.34-1.17-0.17-1.5,0.48c-0.32,0.64-0.16,1.12,0.53,1.47
					c0.68,0.34,1.18,0.18,1.5-0.46C384,302.45,383.86,301.96,383.17,301.61z"/>
				<path class="st2" d="M387.56,342.58l-0.02,0.01c-0.61,0.44-0.69,0.96-0.26,1.55c0.42,0.58,0.92,0.67,1.55,0.21
					c0.61-0.44,0.71-0.96,0.29-1.54C388.69,342.23,388.19,342.13,387.56,342.58z"/>
				<path class="st2" d="M367.37,309.76l-0.02-0.01c-0.63-0.43-1.14-0.32-1.55,0.28c-0.4,0.59-0.31,1.09,0.33,1.53
					c0.63,0.43,1.14,0.34,1.54-0.25C368.09,310.7,368.01,310.2,367.37,309.76z"/>
				<path class="st2" d="M362.53,318.28l-0.02,0c-0.75-0.11-1.16,0.21-1.27,0.93c-0.1,0.71,0.2,1.12,0.97,1.23
					c0.75,0.11,1.17-0.2,1.27-0.91C363.59,318.81,363.3,318.39,362.53,318.28z"/>
			</g>
		</g>
		<path class="st1" d="M473.82,302.21c-4.87,5.16-10.48,9.07-16.77,12.44c0.43,0.46,0.71,0.78,1.01,1.06
			c4.51,4.15,9.37,7.85,14.68,10.91c4.7,2.7,9.52,5.17,14.97,6c4.94,0.75,9.98-2.71,11.07-7.5c1.26-5.52-1.46-10.98-6.52-12.38
			c-6.41-1.77-11.77-5.32-16.9-9.33C474.88,303.02,474.38,302.64,473.82,302.21z"/>
		<path class="st1" d="M479.96,276.78c-0.09-1.25-0.56-1.71-1.77-1.96c-3.29-0.68-6.39-0.22-9.42,1.1c-3.7,1.62-6.78,4.09-9.63,6.88
			c-1.8,1.76-3.45,3.7-5.37,5.31c-2.67,2.22-5.54,4.05-8.55,5.58c-0.31,8.55-2.59,16.93-6.52,24.64c6.63-1.79,12.99-4.47,19.11-7.91
			c7.1-3.99,13.35-8.99,17.71-16.03C478.85,289.01,480.41,283.16,479.96,276.78z"/>
		<g>
			<path class="st2" d="M438.11,256.02l0.02,0.01c0.64,0.4,1.15,0.27,1.53-0.35c0.38-0.61,0.27-1.1-0.39-1.51
				c-0.64-0.4-1.15-0.29-1.53,0.32C437.35,255.11,437.45,255.61,438.11,256.02z"/>
			<path class="st2" d="M442.93,250.01l0,0.02c0.02,0.76,0.4,1.11,1.13,1.1c0.71-0.02,1.07-0.38,1.05-1.16
				c-0.02-0.76-0.39-1.12-1.1-1.11C443.28,248.88,442.91,249.24,442.93,250.01z"/>
			<path class="st2" d="M465.39,296.47l0.04,0.02c1.19,0.57,2.04,0.25,2.59-0.88c0.54-1.12,0.25-1.96-0.96-2.54
				c-1.19-0.57-2.05-0.28-2.59,0.84C463.92,295.04,464.17,295.89,465.39,296.47z"/>
			<path class="st2" d="M454.05,301.95l0.02,0.04c0.61,1.17,1.48,1.43,2.6,0.84c1.1-0.57,1.38-1.42,0.75-2.61
				c-0.61-1.17-1.47-1.46-2.57-0.88C453.73,299.92,453.43,300.75,454.05,301.95z"/>
			<path class="st2" d="M468.37,286.49l0,0.02c0.02,0.76,0.4,1.11,1.13,1.1c0.71-0.02,1.07-0.38,1.05-1.16
				c-0.02-0.76-0.39-1.12-1.1-1.11C468.72,285.36,468.36,285.72,468.37,286.49z"/>
			<path class="st2" d="M455.96,293.08l-0.01,0.02c-0.46,0.6-0.38,1.12,0.2,1.56c0.57,0.43,1.08,0.37,1.54-0.25
				c0.46-0.6,0.39-1.12-0.18-1.55C456.93,292.41,456.43,292.46,455.96,293.08z"/>
			<path class="st2" d="M471.45,319.09l0.04,0.01c1.28,0.32,2.05-0.16,2.35-1.39c0.3-1.21-0.15-1.97-1.46-2.3
				c-1.28-0.32-2.06,0.14-2.36,1.34C469.72,317.99,470.14,318.76,471.45,319.09z"/>
			<path class="st2" d="M478.39,314.15l-0.01,0.02c-0.46,0.6-0.38,1.12,0.2,1.56c0.57,0.43,1.08,0.37,1.54-0.25
				c0.46-0.6,0.39-1.12-0.18-1.55C479.36,313.48,478.86,313.53,478.39,314.15z"/>
			<path class="st2" d="M484.61,322.71l0.02,0.01c0.72,0.23,1.18-0.02,1.4-0.71c0.22-0.68-0.01-1.14-0.75-1.37
				c-0.72-0.23-1.19,0-1.41,0.68C483.65,322.01,483.87,322.47,484.61,322.71z"/>
			<path class="st2" d="M466.55,259.22l0.02,0.04c0.61,1.17,1.48,1.43,2.6,0.84c1.1-0.57,1.38-1.42,0.76-2.61
				c-0.61-1.17-1.47-1.46-2.57-0.88C466.23,257.19,465.93,258.02,466.55,259.22z"/>
			<path class="st2" d="M485.71,259.74l0.03,0.03c0.97,0.89,1.87,0.84,2.73-0.09c0.84-0.91,0.81-1.8-0.18-2.71
				c-0.97-0.89-1.88-0.87-2.72,0.04C484.72,257.94,484.72,258.83,485.71,259.74z"/>
			<path class="st2" d="M510.6,285.97l0.03,0.03c0.97,0.89,1.87,0.84,2.73-0.09c0.84-0.91,0.81-1.8-0.18-2.71
				c-0.97-0.89-1.88-0.87-2.72,0.04C509.61,284.17,509.61,285.05,510.6,285.97z"/>
			<path class="st2" d="M495.69,270.03l-0.03,0.03c-0.87,0.99-0.8,1.89,0.15,2.73c0.93,0.82,1.82,0.77,2.71-0.24
				c0.87-0.99,0.83-1.89-0.1-2.72C497.47,269,496.58,269.02,495.69,270.03z"/>
			<path class="st2" d="M453.84,272.07l-0.03-0.03c-0.91-0.95-1.82-0.95-2.73-0.08c-0.9,0.86-0.92,1.75,0.01,2.72
				c0.91,0.95,1.82,0.98,2.72,0.12C454.72,273.92,454.77,273.04,453.84,272.07z"/>
			<path class="st2" d="M455.37,265.47l0,0.02c0.02,0.76,0.4,1.11,1.13,1.1c0.71-0.02,1.07-0.38,1.05-1.16
				c-0.02-0.76-0.39-1.12-1.1-1.11C455.72,264.34,455.36,264.7,455.37,265.47z"/>
			<path class="st2" d="M469.11,266.46l-0.02-0.01c-0.73-0.2-1.18,0.07-1.37,0.77c-0.19,0.69,0.06,1.13,0.81,1.34
				c0.73,0.2,1.19-0.06,1.37-0.75C470.1,267.12,469.86,266.66,469.11,266.46z"/>
			<path class="st2" d="M483.83,264.98l0-0.02c-0.14-0.74-0.58-1.03-1.29-0.9c-0.7,0.13-0.99,0.55-0.85,1.31
				c0.14,0.74,0.57,1.05,1.27,0.91C483.67,266.15,483.97,265.74,483.83,264.98z"/>
			<path class="st2" d="M499.07,263.24l-0.02,0c-0.76,0.02-1.11,0.4-1.09,1.13c0.02,0.71,0.38,1.07,1.16,1.05
				c0.76-0.02,1.12-0.39,1.11-1.11C500.2,263.58,499.85,263.22,499.07,263.24z"/>
			<path class="st2" d="M505.86,303.05l-0.02,0c-0.76,0.02-1.11,0.4-1.09,1.13c0.02,0.71,0.38,1.07,1.16,1.05
				c0.76-0.02,1.12-0.39,1.11-1.11C506.99,303.4,506.63,303.04,505.86,303.05z"/>
			<path class="st2" d="M507.7,291.39l-0.02-0.02c-0.59-0.47-1.11-0.41-1.56,0.16c-0.45,0.56-0.4,1.06,0.21,1.55
				c0.59,0.47,1.11,0.43,1.56-0.13C508.34,292.39,508.3,291.88,507.7,291.39z"/>
			<path class="st2" d="M517.29,295.47l0-0.02c0-0.76-0.37-1.12-1.1-1.12c-0.71,0-1.08,0.36-1.08,1.13c0,0.76,0.36,1.13,1.08,1.13
				C516.92,296.59,517.29,296.25,517.29,295.47z"/>
			<path class="st2" d="M508.89,273.35l0-0.02c-0.02-0.76-0.4-1.11-1.13-1.1c-0.71,0.02-1.07,0.38-1.05,1.16
				c0.02,0.76,0.39,1.12,1.1,1.11C508.54,274.48,508.9,274.13,508.89,273.35z"/>
			<path class="st2" d="M460.26,344.84l0.02,0.04c0.64,1.15,1.52,1.38,2.62,0.77c1.09-0.6,1.34-1.45,0.68-2.63
				c-0.64-1.15-1.51-1.41-2.6-0.81C459.89,342.82,459.61,343.66,460.26,344.84z"/>
			<path class="st2" d="M437.21,341.04l0.04,0.01c1.3,0.2,2.02-0.36,2.21-1.61c0.18-1.23-0.34-1.95-1.67-2.15
				c-1.3-0.2-2.04,0.33-2.23,1.56C435.38,340.1,435.88,340.84,437.21,341.04z"/>
			<path class="st2" d="M448.33,336.78l0.03,0.03c1.04,0.81,1.94,0.68,2.71-0.32c0.76-0.98,0.66-1.86-0.4-2.69
				c-1.04-0.81-1.94-0.71-2.7,0.27C447.19,335.07,447.26,335.96,448.33,336.78z"/>
			<path class="st2" d="M458.14,337.31l0.02,0.01c0.72,0.23,1.18-0.02,1.4-0.71c0.22-0.68-0.01-1.14-0.75-1.37
				c-0.72-0.23-1.19,0-1.41,0.68C457.18,336.62,457.4,337.08,458.14,337.31z"/>
			<path class="st2" d="M446.09,346.12l0.02,0c0.76,0.06,1.15-0.29,1.2-1.02c0.05-0.71-0.28-1.1-1.05-1.16
				c-0.76-0.06-1.16,0.28-1.21,0.99C445,345.66,445.32,346.06,446.09,346.12z"/>
			<path class="st2" d="M470.39,340.18l0.02-0.01c0.7-0.29,0.9-0.77,0.62-1.44c-0.27-0.66-0.74-0.86-1.46-0.57
				c-0.7,0.29-0.91,0.76-0.64,1.43C469.21,340.26,469.67,340.47,470.39,340.18z"/>
		</g>
	</g>
</g>
</svg>
