<?xml version="1.0" encoding="utf-8"?>
<!-- Generator: Adobe Illustrator 27.7.0, SVG Export Plug-In . SVG Version: 6.00 Build 0)  -->
<svg version="1.1" id="Warstwa_1" xmlns="http://www.w3.org/2000/svg" xmlns:xlink="http://www.w3.org/1999/xlink" x="0px" y="0px"
	 viewBox="0 0 841.89 595.28" style="enable-background:new 0 0 841.89 595.28;" xml:space="preserve">
<style type="text/css">
	.st0{fill:#991B1D;}
	.st1{fill:#EB8C0F;}
	.st2{fill:#FFFFFF;}
</style>
<g>
	<g>
		<g>
			<g>
				<path class="st0" d="M148.52,404.29v-55.92h15.04c19.92,0,30.48,9.28,30.48,27.6c0,18.64-10.88,28.32-30.16,28.32H148.52z
					 M179.24,376.13c0-9.68-5.04-14.64-15.44-14.64v29.68C174.2,391.17,179.24,386.05,179.24,376.13z"/>
				<path class="st0" d="M229.55,346.45c39.52,0,38.56,59.52,0.08,59.52C191.15,405.97,190.03,346.45,229.55,346.45z M229.48,390.61
					h0.32c10,0,14.8-4.96,14.8-14.56c0-9.44-4.72-14.24-14.96-14.24c-10,0-14.96,4.8-14.96,14.24
					C214.67,385.65,219.23,390.61,229.48,390.61z"/>
				<path class="st0" d="M267.31,348.37h18.64c4.96,0,9.2,1.36,12.32,3.84c6.72,5.12,6.64,17.36-0.48,22.08
					c8.72,2.24,10.24,10.08,10.24,14c0,10.64-8,16.08-18.48,16h-22.24V348.37z M286.19,393.25h0.48c4.56,0,6.64-2.16,6.64-6.32
					c0-4.32-2.16-6.56-6.56-6.56h-0.48c-4.56,0-6.72,2.16-6.72,6.4S281.79,393.25,286.19,393.25z M284.99,369.73h0.4
					c3.68,0,5.44-1.76,5.44-5.2c0-3.44-1.76-5.28-5.44-5.28h-0.32c-3.76,0-5.44,1.76-5.44,5.2
					C279.63,367.97,281.39,369.73,284.99,369.73z"/>
				<path class="st0" d="M330.75,393.41v10.88h-14.56v-55.92h18.4c8.32,0,22.32,1.44,22.32,18.4c0,16.16-12.16,18.64-16.64,19.12
					c4.32,9.28,10.88,9.36,11.36,0.64h12c0,2.96-0.64,5.84-1.76,8.56c-2.64,6.32-8,9.92-14.64,9.92
					C341.23,405.01,335.71,401.09,330.75,393.41z M335.55,374.05h0.48c4.88,0,7.12-2.24,7.12-6.72c0-4.56-2.32-6.88-7.04-6.88h-0.48
					c-4.88,0-7.12,2.24-7.12,6.72C328.51,371.73,330.83,374.05,335.55,374.05z"/>
				<path class="st0" d="M370.27,348.37h30.64v13.12h-13.04c-2.4,0-3.52,1.36-3.52,4c0,2.72,1.2,4.08,3.44,4.08h12.32v13.12h-12.24
					c-2.48,0-3.68,1.44-3.68,4.16c0,2.88,1.2,4.32,3.6,4.32h13.12v13.12h-30.64V348.37z"/>
				<path class="st0" d="M433.3,348.37h17.28c9.52,0,23.44,1.44,23.44,18.4c0,17.2-14,19.36-19.84,19.36h-6.32v18.16H433.3V348.37z
					 M452.66,374.05h0.48c4.88,0,7.12-2.24,7.12-6.72c0-4.56-2.48-6.88-7.04-6.88h-0.48c-4.88,0-7.12,2.24-7.12,6.72
					C445.62,371.73,447.94,374.05,452.66,374.05z"/>
				<path class="st0" d="M496.5,393.41v10.88h-14.56v-55.92h18.4c8.32,0,22.32,1.44,22.32,18.4c0,16.16-12.16,18.64-16.64,19.12
					c4.32,9.28,10.88,9.36,11.36,0.64h12c0,2.96-0.64,5.84-1.76,8.56c-2.64,6.32-8,9.92-14.64,9.92
					C506.98,405.01,501.46,401.09,496.5,393.41z M501.3,374.05h0.48c4.88,0,7.12-2.24,7.12-6.72c0-4.56-2.32-6.88-7.04-6.88h-0.48
					c-4.88,0-7.12,2.24-7.12,6.72C494.26,371.73,496.58,374.05,501.3,374.05z"/>
				<path class="st0" d="M536.02,348.37h30.64v13.12h-13.04c-2.4,0-3.52,1.36-3.52,4c0,2.72,1.2,4.08,3.44,4.08h12.32v13.12h-12.24
					c-2.48,0-3.68,1.44-3.68,4.16c0,2.88,1.2,4.32,3.6,4.32h13.12v13.12h-30.64V348.37z"/>
				<path class="st0" d="M574.42,376.21c0-19.84,19.12-36,41.12-26.32v16.16c-10.96-8.56-26-3.76-26,10.16
					c0,14.56,15.04,18.56,26,10.64v15.76C593.54,412.69,574.42,395.25,574.42,376.21z"/>
				<path class="st0" d="M625.05,348.37h14.72v42.72h15.92v13.2h-30.64V348.37z"/>
				<path class="st0" d="M662.73,348.37h30.64v13.12h-13.04c-2.4,0-3.52,1.36-3.52,4c0,2.72,1.2,4.08,3.44,4.08h12.32v13.12h-12.24
					c-2.48,0-3.68,1.44-3.68,4.16c0,2.88,1.2,4.32,3.6,4.32h13.12v13.12h-30.64V348.37z"/>
			</g>
		</g>
	</g>
	<g>
		<g>
			<g>
				<path class="st1" d="M442.44,217.2c0.5-0.04,1.01-0.06,1.51-0.08c1.36-0.05,2.05-0.51,2.75-1.6
					c3.93-6.11,8.97-11.11,15.28-14.73c2.72-1.56,5.6-2.84,8.64-4.37c-10.5-5.08-21.39-6.64-32.66-5.29
					c-5.16,0.62-10.1,1.72-14.77,3.35C431.06,200.67,437.65,208.32,442.44,217.2z"/>
				<path class="st1" d="M547.89,250.72c-1.24-17.19-9.38-30.56-23.15-40.45c-15-10.76-31.59-15.1-49.86-10.37
					c-13.24,3.43-24.1,13.5-28.57,25.79c0.64,1.69,1.24,3.4,1.76,5.16c1.69,5.76,2.61,11.58,2.82,17.37
					c4.85-2.64,9.49-5.58,13.23-9.84c1.31-1.49,2.85-2.78,4.29-4.15c9.04-8.64,19.26-12.56,31.56-7.65
					c17.99,7.19,25.6,21.62,19.78,40.5c-0.88,2.86-2.11,5.62-3.21,8.49c0.19,0.15,0.39,0.33,0.6,0.49
					c7.18,5.71,9.21,14.78,5.03,22.47c-4.16,7.67-13.24,11.14-21.82,7.94c-5.44-2.03-10.63-4.7-15.96-7.02
					c-0.89-0.39-1.96-0.68-2.9-0.58c-14.98,1.62-29.25-0.76-42.86-7.14c-4.74,7.44-10.75,14.24-17.82,20.1
					c20.36,12.5,42.89,16.33,66.55,12.7c21.27-3.26,38.08-14.07,49.71-32.34C545.1,279.59,548.97,265.78,547.89,250.72z"/>
			</g>
			<g>
				<g>
					<path class="st1" d="M437.6,216.91c-8.56-14.96-21.68-23.49-38.37-26.45c-18.18-3.21-35.01,0.05-49.44,12.22
						c-14.11,11.91-19.08,32.86-10.72,48.75c1.79,3.39,3.89,6.55,6.77,9.29c0.37-0.37,0.64-0.58,0.84-0.84
						c4.13-5.51,8.16-11.06,10.06-17.84c0.54-1.91,1.37-3.74,2.07-5.6c4.42-11.7,11.93-19.66,25.14-20.55
						c19.33-1.3,32.43,8.41,35.35,27.96c0.44,2.96,0.52,5.98,0.78,9.04c0.24,0.06,0.5,0.12,0.76,0.18
						c8.94,2.04,14.7,9.34,14.26,18.08c-0.43,8.71-7.11,15.78-16.23,16.6c-5.78,0.52-11.62,0.36-17.43,0.58
						c-0.97,0.04-2.06,0.23-2.87,0.73c-12.99,8.06-27.1,12.1-42.39,12.12c-0.95,0-2,0.35-2.84,0.83c-5.18,2.94-10.18,6.21-15.48,8.9
						c-7.78,3.94-17.08,1.49-22.08-5.42c-5.04-6.97-4.31-16.21,1.88-22.61c0.97-1.01,0.98-1.66,0.25-2.79
						c-2.74-4.25-4.68-8.86-5.77-13.8c-1.3-5.94-1.48-11.89,0.92-17.61c3.25-7.74,8.97-13.22,16.29-17.09
						c1.2-0.63,1.63-1.35,1.79-2.64c0.9-7.2,3.28-13.9,7.41-19.89c1.78-2.58,3.82-4.99,5.9-7.67c-11.67-0.04-22.16,3.26-31.74,9.36
						c-12.92,8.22-22.37,19.28-26.23,34.36c-3.53,13.76-1.73,27.18,4.23,39.95c11.25,24.08,30.14,38.35,56.5,41.69
						c24.63,3.11,47.37-3.14,67.75-17.08c17.76-12.14,28.24-29.15,30.83-50.66C447.58,244.15,445.1,230.02,437.6,216.91z"/>
					<path class="st1" d="M378.91,221.21c-4.17,1.04-7.51,3.28-10.27,6.49c-3.37,3.91-5.56,8.49-7.31,13.29
						c-1.1,3.03-1.93,6.18-3.26,9.1c-4.42,9.69-11.46,17.38-19.32,24.35c-4.28,3.8-9.1,6.74-14.45,8.95
						c-6.39,2.64-9.05,10.08-6.44,17.05c2.32,6.2,9.47,9.35,16.49,7.43c2.35-1.11,4.78-2.09,7.05-3.34
						c13.7-7.6,24.75-18.14,33.7-30.91c5.98-8.54,10.43-17.78,11.57-28.32c0.87-8.07-0.58-15.7-4.62-22.81
						C381.25,221.1,380.45,220.83,378.91,221.21z"/>
					<path class="st1" d="M376.56,278.91c0.75,0.29,1.25,0.5,1.76,0.66c7.51,2.29,15.17,3.87,23,4.46
						c6.93,0.52,13.86,0.69,20.61-1.37c6.12-1.87,10.02-8.67,8.62-14.8c-1.61-7.08-7.78-11.87-14.39-10.68
						c-8.39,1.51-16.53,0.38-24.68-1.41c-0.78-0.17-1.56-0.33-2.46-0.52C386.26,263.91,381.96,271.54,376.56,278.91z"/>
				</g>
				<path class="st2" d="M310.75,236.96h0.05c1.69,0,2.49-0.84,2.49-2.45c0-1.59-0.8-2.4-2.52-2.4c-1.69,0-2.52,0.81-2.52,2.4
					C308.26,236.12,309.03,236.96,310.75,236.96z"/>
				<path class="st2" d="M294.45,246.56h0.05c1.69,0,2.49-0.84,2.49-2.45c0-1.59-0.8-2.4-2.52-2.4c-1.69,0-2.52,0.81-2.52,2.4
					C291.95,245.72,292.72,246.56,294.45,246.56z"/>
				<path class="st2" d="M319.73,217.68l0.04,0.03c1.35,1.01,2.5,0.83,3.47-0.46c0.96-1.27,0.81-2.4-0.58-3.43
					c-1.35-1.01-2.5-0.87-3.46,0.41C318.23,215.52,318.34,216.65,319.73,217.68z"/>
				<path class="st2" d="M311.93,223.16l0.03,0c0.96,0.1,1.48-0.32,1.58-1.25c0.1-0.91-0.31-1.42-1.29-1.53
					c-0.96-0.1-1.49,0.31-1.59,1.22C310.55,222.53,310.94,223.05,311.93,223.16z"/>
				<path class="st2" d="M301.59,234.07l0.03,0c0.96,0.1,1.48-0.32,1.58-1.25c0.1-0.91-0.31-1.42-1.29-1.53
					c-0.96-0.1-1.49,0.31-1.59,1.22C300.21,233.44,300.6,233.96,301.59,234.07z"/>
				<path class="st2" d="M305.92,252.64l0.02-0.03c0.49-0.84,0.32-1.48-0.49-1.95c-0.79-0.47-1.42-0.31-1.93,0.55
					c-0.49,0.84-0.34,1.49,0.45,1.95C304.78,253.64,305.42,253.5,305.92,252.64z"/>
				<path class="st2" d="M294.68,268.13l0.03,0c0.96-0.16,1.34-0.71,1.19-1.62c-0.15-0.9-0.67-1.29-1.65-1.13
					c-0.96,0.16-1.36,0.69-1.21,1.6C293.19,267.89,293.7,268.29,294.68,268.13z"/>
				<path class="st2" d="M322.25,227.14l0.01,0.03c0.44,0.87,1.08,1.06,1.91,0.64c0.82-0.41,1.03-1.03,0.58-1.92
					c-0.44-0.87-1.07-1.08-1.89-0.67C322.04,225.64,321.81,226.26,322.25,227.14z"/>
				<path class="st2" d="M373.29,248.99h0.05c1.69,0,2.49-0.84,2.49-2.45c0-1.59-0.8-2.4-2.52-2.4c-1.69,0-2.52,0.81-2.52,2.4
					C370.8,248.15,371.57,248.99,373.29,248.99z"/>
				<path class="st2" d="M361.4,277.02l0.04,0.03c1.35,1.01,2.5,0.83,3.47-0.47c0.96-1.27,0.8-2.4-0.58-3.43
					c-1.35-1.01-2.5-0.87-3.46,0.41C359.9,274.85,360.02,275.98,361.4,277.02z"/>
				<path class="st2" d="M389.16,308.86l-0.04,0.04c-1.14,1.24-1.08,2.4,0.11,3.5c1.17,1.08,2.3,1.04,3.47-0.23
					c1.14-1.24,1.12-2.4-0.05-3.48C391.46,307.6,390.33,307.59,389.16,308.86z"/>
				<path class="st2" d="M367.81,311.11l0.04,0.03c1.35,1.01,2.5,0.83,3.47-0.47c0.96-1.27,0.8-2.4-0.58-3.43
					c-1.35-1.01-2.5-0.87-3.46,0.41C366.32,308.94,366.43,310.07,367.81,311.11z"/>
				<path class="st2" d="M364.15,255.34l-0.01,0.03c-0.19,0.95,0.19,1.5,1.1,1.69c0.9,0.18,1.44-0.17,1.64-1.15
					c0.19-0.95-0.17-1.51-1.07-1.7C364.91,254.03,364.35,254.36,364.15,255.34z"/>
				<path class="st2" d="M391.88,271.55l0.05-0.01c1.65-0.34,2.28-1.32,1.95-2.91c-0.32-1.56-1.26-2.19-2.95-1.84
					c-1.65,0.34-2.31,1.3-1.99,2.86C389.27,271.24,390.19,271.9,391.88,271.55z"/>
				<path class="st2" d="M399.01,277.32l0.02,0.03c0.5,0.83,1.16,0.98,1.95,0.49c0.78-0.48,0.94-1.11,0.43-1.96
					c-0.5-0.83-1.15-1-1.93-0.52C398.68,275.84,398.5,276.47,399.01,277.32z"/>
				<path class="st2" d="M389.72,301.67l0.02,0.03c0.5,0.83,1.16,0.98,1.95,0.49c0.78-0.48,0.94-1.11,0.43-1.96
					c-0.5-0.83-1.15-1-1.93-0.52C389.39,300.2,389.21,300.82,389.72,301.67z"/>
				<path class="st2" d="M408.74,265.61l0.03,0.01c0.94,0.25,1.51-0.09,1.75-0.99c0.24-0.88-0.08-1.45-1.04-1.71
					c-0.94-0.25-1.52,0.07-1.76,0.95C407.48,264.78,407.78,265.36,408.74,265.61z"/>
				<path class="st2" d="M358.29,320.62l0.03,0.01c0.94,0.25,1.51-0.09,1.75-0.99c0.24-0.88-0.08-1.45-1.04-1.71
					c-0.94-0.25-1.52,0.07-1.76,0.95C357.03,319.78,357.34,320.36,358.29,320.62z"/>
				<path class="st2" d="M405.7,305.29l0.03,0.01c0.94,0.25,1.51-0.09,1.75-0.99c0.24-0.88-0.08-1.45-1.04-1.71
					c-0.94-0.25-1.52,0.07-1.76,0.95C404.44,304.45,404.74,305.03,405.7,305.29z"/>
				<path class="st2" d="M350.95,215.28l0.04,0.03c1.35,1.01,2.5,0.83,3.47-0.46c0.96-1.27,0.81-2.4-0.58-3.43
					c-1.35-1.01-2.5-0.87-3.46,0.41C349.46,213.12,349.57,214.25,350.95,215.28z"/>
				<path class="st2" d="M373.56,211.39l0.05-0.01c1.67-0.2,2.38-1.13,2.18-2.73c-0.19-1.58-1.08-2.29-2.79-2.08
					c-1.67,0.2-2.41,1.1-2.22,2.68C370.98,210.86,371.85,211.6,373.56,211.39z"/>
				<path class="st2" d="M393.25,200.31l0.05,0.02c1.61,0.49,2.63-0.07,3.1-1.62c0.47-1.52-0.06-2.53-1.71-3.03
					c-1.61-0.49-2.65,0.03-3.11,1.56C391.11,198.78,391.6,199.81,393.25,200.31z"/>
				<path class="st2" d="M410.96,214.51l0.05,0.02c1.61,0.49,2.63-0.07,3.1-1.62c0.47-1.52-0.06-2.53-1.71-3.03
					c-1.61-0.49-2.65,0.03-3.11,1.56C408.82,212.98,409.31,214.01,410.96,214.51z"/>
				<path class="st2" d="M345.63,230.42l-0.05-0.02c-1.58-0.59-2.63-0.09-3.2,1.43c-0.56,1.49-0.09,2.53,1.52,3.13
					c1.58,0.59,2.65,0.12,3.2-1.37C347.68,232.08,347.25,231.03,345.63,230.42z"/>
				<path class="st2" d="M352.15,224.73l0.01,0.03c0.44,0.87,1.08,1.06,1.91,0.64c0.82-0.41,1.03-1.03,0.58-1.92
					c-0.44-0.87-1.07-1.08-1.89-0.67C351.93,223.23,351.7,223.84,352.15,224.73z"/>
				<path class="st2" d="M379.37,199.85l-0.02-0.02c-0.58-0.78-1.24-0.87-1.99-0.32c-0.74,0.54-0.84,1.19-0.25,1.99
					c0.58,0.78,1.24,0.89,1.97,0.35C379.83,201.29,379.95,200.65,379.37,199.85z"/>
				<path class="st2" d="M366.21,199.65l-0.03-0.01c-0.93-0.29-1.51,0.03-1.79,0.92c-0.27,0.87,0.03,1.45,0.97,1.75
					c0.93,0.29,1.52-0.01,1.8-0.89C367.44,200.54,367.16,199.95,366.21,199.65z"/>
				<path class="st2" d="M424.51,228.06l-0.03,0.01c-0.86,0.44-1.06,1.08-0.64,1.91c0.42,0.82,1.04,1.02,1.92,0.57
					c0.86-0.44,1.08-1.07,0.66-1.89C426.01,227.83,425.39,227.6,424.51,228.06z"/>
				<path class="st2" d="M427.87,217.74l-0.01-0.03c-0.42-0.87-1.05-1.09-1.89-0.69c-0.83,0.4-1.05,1.01-0.62,1.91
					c0.42,0.87,1.05,1.11,1.87,0.71C428.06,219.25,428.3,218.64,427.87,217.74z"/>
				<path class="st2" d="M408.9,201.56l-0.01-0.03c-0.44-0.87-1.08-1.06-1.91-0.64c-0.82,0.41-1.03,1.03-0.58,1.92
					c0.44,0.87,1.07,1.08,1.89,0.67C409.12,203.06,409.35,202.45,408.9,201.56z"/>
				<path class="st2" d="M371.4,263.51l-0.03-0.01c-0.87-0.44-1.5-0.21-1.92,0.62c-0.41,0.82-0.21,1.44,0.68,1.89
					c0.87,0.44,1.51,0.24,1.92-0.58C372.47,264.58,372.29,263.95,371.4,263.51z"/>
				<path class="st2" d="M377.02,315.98L377,316c-0.79,0.57-0.88,1.23-0.34,1.99c0.54,0.74,1.18,0.85,1.98,0.27
					c0.79-0.57,0.9-1.23,0.37-1.97C378.47,315.53,377.83,315.4,377.02,315.98z"/>
				<path class="st2" d="M351.17,273.95l-0.03-0.02c-0.8-0.55-1.46-0.41-1.98,0.36c-0.52,0.76-0.4,1.4,0.42,1.96
					c0.8,0.55,1.46,0.43,1.98-0.32C352.08,275.16,351.99,274.51,351.17,273.95z"/>
				<path class="st2" d="M344.97,284.86l-0.03,0c-0.96-0.14-1.49,0.27-1.62,1.19c-0.13,0.91,0.26,1.43,1.24,1.57
					c0.96,0.14,1.5-0.26,1.63-1.16C346.32,285.54,345.95,285,344.97,284.86z"/>
			</g>
		</g>
		<path class="st1" d="M487.51,264.27c-6.24,6.61-13.42,11.62-21.47,15.94c0.56,0.58,0.9,0.99,1.3,1.36
			c5.78,5.32,12,10.05,18.81,13.97c6.02,3.46,12.2,6.62,19.17,7.68c6.33,0.96,12.78-3.48,14.18-9.61
			c1.61-7.08-1.88-14.06-8.36-15.85c-8.21-2.27-15.07-6.81-21.64-11.95C488.87,265.31,488.23,264.83,487.51,264.27z"/>
		<path class="st1" d="M495.38,231.71c-0.11-1.6-0.72-2.19-2.27-2.51c-4.21-0.87-8.19-0.29-12.06,1.41
			c-4.73,2.07-8.68,5.24-12.34,8.82c-2.31,2.25-4.41,4.74-6.88,6.8c-3.42,2.85-7.09,5.18-10.95,7.15
			c-0.4,10.96-3.31,21.69-8.35,31.56c8.49-2.3,16.64-5.72,24.47-10.13c9.09-5.11,17.1-11.52,22.68-20.53
			C493.95,247.37,495.95,239.87,495.38,231.71z"/>
		<g>
			<path class="st2" d="M441.77,205.11l0.03,0.02c0.82,0.51,1.47,0.35,1.96-0.44c0.48-0.78,0.34-1.41-0.5-1.94
				c-0.82-0.51-1.48-0.37-1.96,0.41C440.81,203.95,440.93,204.59,441.77,205.11z"/>
			<path class="st2" d="M447.94,197.42l0,0.03c0.02,0.97,0.51,1.43,1.44,1.41c0.92-0.02,1.37-0.49,1.35-1.48
				c-0.02-0.97-0.5-1.44-1.41-1.42C448.39,195.97,447.92,196.42,447.94,197.42z"/>
			<path class="st2" d="M476.71,256.92l0.05,0.02c1.52,0.73,2.61,0.33,3.31-1.13c0.69-1.43,0.32-2.51-1.23-3.26
				c-1.52-0.73-2.62-0.36-3.31,1.07C474.83,255.09,475.16,256.18,476.71,256.92z"/>
			<path class="st2" d="M462.19,263.94l0.02,0.05c0.78,1.5,1.89,1.83,3.33,1.08c1.41-0.73,1.76-1.81,0.97-3.35
				c-0.78-1.5-1.88-1.86-3.29-1.13C461.78,261.34,461.39,262.41,462.19,263.94z"/>
			<path class="st2" d="M480.53,244.15l0,0.03c0.02,0.97,0.51,1.43,1.44,1.41c0.92-0.02,1.37-0.49,1.35-1.48
				c-0.02-0.97-0.5-1.44-1.41-1.42C480.98,242.7,480.51,243.15,480.53,244.15z"/>
			<path class="st2" d="M464.63,252.58l-0.02,0.02c-0.58,0.77-0.48,1.44,0.26,2c0.73,0.55,1.38,0.47,1.98-0.32
				c0.58-0.77,0.5-1.44-0.23-1.99C465.88,251.72,465.23,251.78,464.63,252.58z"/>
			<path class="st2" d="M484.47,285.9l0.05,0.01c1.64,0.41,2.62-0.21,3.02-1.78c0.39-1.54-0.19-2.52-1.87-2.94
				c-1.64-0.41-2.64,0.17-3.03,1.72C482.25,284.48,482.8,285.48,484.47,285.9z"/>
			<path class="st2" d="M493.36,279.57l-0.02,0.02c-0.58,0.77-0.48,1.44,0.26,2c0.73,0.55,1.38,0.47,1.98-0.32
				c0.58-0.77,0.5-1.44-0.23-1.99C494.61,278.71,493.96,278.78,493.36,279.57z"/>
			<path class="st2" d="M501.33,290.53l0.03,0.01c0.92,0.29,1.51-0.02,1.8-0.91c0.28-0.87-0.02-1.45-0.96-1.76
				c-0.92-0.29-1.52,0-1.8,0.88C500.1,289.63,500.38,290.23,501.33,290.53z"/>
			<path class="st2" d="M478.2,209.21l0.02,0.05c0.78,1.5,1.89,1.83,3.33,1.08c1.41-0.73,1.76-1.81,0.97-3.34
				c-0.78-1.5-1.88-1.86-3.29-1.13C477.79,206.61,477.4,207.68,478.2,209.21z"/>
			<path class="st2" d="M502.74,209.88l0.04,0.04c1.24,1.14,2.4,1.08,3.5-0.11c1.08-1.17,1.04-2.3-0.23-3.47
				c-1.24-1.14-2.4-1.11-3.48,0.05C501.47,207.57,501.47,208.71,502.74,209.88z"/>
			<path class="st2" d="M534.62,243.47l0.04,0.04c1.24,1.14,2.4,1.08,3.5-0.11c1.08-1.17,1.04-2.3-0.23-3.47
				c-1.24-1.14-2.4-1.11-3.48,0.05C533.36,241.16,533.35,242.3,534.62,243.47z"/>
			<path class="st2" d="M515.53,223.06l-0.04,0.04c-1.11,1.26-1.02,2.42,0.19,3.49c1.19,1.05,2.33,0.99,3.47-0.3
				c1.11-1.26,1.06-2.43-0.13-3.48C517.8,221.74,516.67,221.77,515.53,223.06z"/>
			<path class="st2" d="M461.92,225.67l-0.04-0.04c-1.17-1.21-2.33-1.22-3.5-0.1c-1.15,1.1-1.18,2.24,0.02,3.48
				c1.17,1.21,2.33,1.26,3.48,0.15C463.05,228.04,463.12,226.91,461.92,225.67z"/>
			<path class="st2" d="M463.88,217.22l0,0.03c0.02,0.97,0.51,1.43,1.44,1.41c0.92-0.02,1.37-0.49,1.35-1.48
				c-0.02-0.97-0.5-1.44-1.41-1.42C464.33,215.77,463.86,216.23,463.88,217.22z"/>
			<path class="st2" d="M481.48,218.49l-0.03-0.01c-0.94-0.25-1.51,0.09-1.75,0.99c-0.24,0.88,0.08,1.45,1.04,1.71
				c0.94,0.25,1.52-0.07,1.76-0.96C482.74,219.33,482.44,218.75,481.48,218.49z"/>
			<path class="st2" d="M500.33,216.59l-0.01-0.03c-0.18-0.95-0.74-1.32-1.66-1.15c-0.9,0.17-1.27,0.71-1.09,1.68
				c0.18,0.95,0.73,1.34,1.63,1.17C500.12,218.09,500.51,217.56,500.33,216.59z"/>
			<path class="st2" d="M519.86,214.36l-0.03,0c-0.97,0.02-1.42,0.52-1.4,1.45c0.02,0.92,0.49,1.37,1.49,1.34
				c0.97-0.02,1.44-0.5,1.42-1.42C521.3,214.8,520.85,214.33,519.86,214.36z"/>
			<path class="st2" d="M528.55,265.36l-0.03,0c-0.97,0.02-1.42,0.52-1.4,1.45c0.02,0.92,0.49,1.37,1.48,1.34
				c0.97-0.02,1.44-0.5,1.42-1.42C529.99,265.8,529.54,265.33,528.55,265.36z"/>
			<path class="st2" d="M530.91,250.42l-0.02-0.02c-0.76-0.61-1.42-0.53-2,0.2c-0.57,0.71-0.51,1.36,0.26,1.99
				c0.76,0.61,1.42,0.55,2-0.17C531.72,251.69,531.68,251.04,530.91,250.42z"/>
			<path class="st2" d="M543.2,255.65l0-0.03c0-0.97-0.48-1.44-1.41-1.44c-0.92,0-1.38,0.46-1.38,1.45c0,0.97,0.46,1.45,1.38,1.45
				C542.71,257.08,543.2,256.64,543.2,255.65z"/>
			<path class="st2" d="M532.43,227.32l0-0.03c-0.02-0.97-0.51-1.43-1.44-1.41c-0.92,0.02-1.37,0.49-1.35,1.48
				c0.02,0.97,0.5,1.44,1.41,1.42C531.98,228.76,532.45,228.31,532.43,227.32z"/>
			<path class="st2" d="M470.15,318.88l0.03,0.05c0.82,1.47,1.94,1.77,3.36,0.99c1.39-0.77,1.71-1.86,0.87-3.37
				c-0.82-1.47-1.93-1.81-3.32-1.04C469.67,316.29,469.31,317.37,470.15,318.88z"/>
			<path class="st2" d="M440.62,314.01l0.05,0.01c1.67,0.25,2.59-0.46,2.83-2.06c0.24-1.57-0.43-2.49-2.14-2.75
				c-1.67-0.25-2.61,0.42-2.85,2C438.27,312.81,438.91,313.75,440.62,314.01z"/>
			<path class="st2" d="M454.86,308.56l0.04,0.03c1.33,1.04,2.48,0.87,3.48-0.4c0.98-1.26,0.85-2.38-0.52-3.44
				c-1.33-1.04-2.49-0.91-3.46,0.35C453.4,306.37,453.5,307.5,454.86,308.56z"/>
			<path class="st2" d="M467.42,309.24l0.03,0.01c0.92,0.29,1.51-0.02,1.8-0.91c0.28-0.87-0.02-1.45-0.96-1.76
				c-0.92-0.29-1.52,0-1.8,0.88C466.2,308.35,466.48,308.94,467.42,309.24z"/>
			<path class="st2" d="M451.99,320.51l0.03,0c0.97,0.07,1.47-0.37,1.54-1.3c0.07-0.91-0.35-1.41-1.34-1.48
				c-0.97-0.07-1.48,0.36-1.55,1.27C450.6,319.93,451,320.44,451.99,320.51z"/>
			<path class="st2" d="M483.12,312.91l0.03-0.01c0.9-0.37,1.15-0.99,0.8-1.85c-0.35-0.85-0.95-1.11-1.86-0.73
				c-0.9,0.37-1.17,0.98-0.82,1.83C481.61,313.01,482.2,313.29,483.12,312.91z"/>
		</g>
	</g>
</g>
</svg>
