<?xml version="1.0" encoding="utf-8"?>
<!-- Generator: Adobe Illustrator 27.7.0, SVG Export Plug-In . SVG Version: 6.00 Build 0)  -->
<svg version="1.1" id="Warstwa_1" xmlns="http://www.w3.org/2000/svg" xmlns:xlink="http://www.w3.org/1999/xlink" x="0px" y="0px"
	 viewBox="0 0 841.89 401.04" style="enable-background:new 0 0 841.89 401.04;" xml:space="preserve">
<style type="text/css">
	.st0{fill:#FFFFFF;}
</style>
<g>
	<g>
		<g>
			<g>
				<path class="st0" d="M52.49,347.24v-74.55h20.05c26.56,0,40.63,12.37,40.63,36.79c0,24.85-14.5,37.75-40.21,37.75H52.49z
					 M93.45,309.7c0-12.9-6.72-19.52-20.58-19.52v39.57C86.73,329.75,93.45,322.92,93.45,309.7z"/>
				<path class="st0" d="M160.52,270.13c52.68,0,51.4,79.35,0.11,79.35C109.33,349.48,107.84,270.13,160.52,270.13z M160.42,329
					h0.43c13.33,0,19.73-6.61,19.73-19.41c0-12.58-6.29-18.98-19.94-18.98c-13.33,0-19.94,6.4-19.94,18.98
					C140.69,322.39,146.77,329,160.42,329z"/>
				<path class="st0" d="M210.85,272.69h24.85c6.61,0,12.26,1.81,16.42,5.12c8.96,6.83,8.85,23.14-0.64,29.43
					c11.63,2.99,13.65,13.44,13.65,18.66c0,14.18-10.66,21.44-24.64,21.33h-29.65V272.69z M236.02,332.52h0.64
					c6.08,0,8.85-2.88,8.85-8.43c0-5.76-2.88-8.75-8.74-8.75h-0.64c-6.08,0-8.96,2.88-8.96,8.53
					C227.17,329.53,230.16,332.52,236.02,332.52z M234.42,301.17h0.53c4.91,0,7.25-2.35,7.25-6.93c0-4.59-2.35-7.04-7.25-7.04h-0.43
					c-5.01,0-7.25,2.35-7.25,6.93C227.28,298.82,229.62,301.17,234.42,301.17z"/>
				<path class="st0" d="M295.42,332.73v14.5h-19.41v-74.55h24.53c11.09,0,29.75,1.92,29.75,24.53c0,21.54-16.21,24.85-22.18,25.49
					c5.76,12.37,14.5,12.48,15.14,0.85h16c0,3.95-0.85,7.79-2.35,11.41c-3.52,8.43-10.66,13.22-19.52,13.22
					C309.39,348.2,302.03,342.97,295.42,332.73z M301.82,306.93h0.64c6.51,0,9.49-2.99,9.49-8.96c0-6.08-3.09-9.17-9.39-9.17h-0.64
					c-6.51,0-9.49,2.99-9.49,8.96C292.44,303.83,295.53,306.93,301.82,306.93z"/>
				<path class="st0" d="M348.1,272.69h40.85v17.49h-17.38c-3.2,0-4.69,1.81-4.69,5.33c0,3.63,1.6,5.44,4.59,5.44h16.42v17.49
					h-16.32c-3.31,0-4.91,1.92-4.91,5.55c0,3.84,1.6,5.76,4.8,5.76h17.49v17.49H348.1V272.69z"/>
				<path class="st0" d="M432.13,272.69h23.04c12.69,0,31.25,1.92,31.25,24.53c0,22.93-18.66,25.81-26.45,25.81h-8.42v24.21h-19.41
					V272.69z M457.94,306.93h0.64c6.51,0,9.49-2.99,9.49-8.96c0-6.08-3.31-9.17-9.39-9.17h-0.64c-6.51,0-9.49,2.99-9.49,8.96
					C448.56,303.83,451.65,306.93,457.94,306.93z"/>
				<path class="st0" d="M516.38,332.73v14.5h-19.41v-74.55h24.53c11.09,0,29.75,1.92,29.75,24.53c0,21.54-16.21,24.85-22.18,25.49
					c5.76,12.37,14.5,12.48,15.14,0.85h16c0,3.95-0.85,7.79-2.35,11.41c-3.52,8.43-10.66,13.22-19.52,13.22
					C530.35,348.2,522.99,342.97,516.38,332.73z M522.78,306.93h0.64c6.51,0,9.49-2.99,9.49-8.96c0-6.08-3.09-9.17-9.39-9.17h-0.64
					c-6.51,0-9.49,2.99-9.49,8.96C513.39,303.83,516.49,306.93,522.78,306.93z"/>
				<path class="st0" d="M569.06,272.69h40.85v17.49h-17.38c-3.2,0-4.69,1.81-4.69,5.33c0,3.63,1.6,5.44,4.59,5.44h16.42v17.49
					h-16.32c-3.31,0-4.91,1.92-4.91,5.55c0,3.84,1.6,5.76,4.8,5.76h17.49v17.49h-40.85V272.69z"/>
				<path class="st0" d="M620.24,309.8c0-26.45,25.49-47.99,54.82-35.09v21.54c-14.61-11.41-34.66-5.01-34.66,13.54
					c0,19.41,20.05,24.74,34.66,14.18V345C645.73,358.44,620.24,335.19,620.24,309.8z"/>
				<path class="st0" d="M687.75,272.69h19.62v56.95h21.22v17.6h-40.85V272.69z"/>
				<path class="st0" d="M737.98,272.69h40.85v17.49h-17.38c-3.2,0-4.69,1.81-4.69,5.33c0,3.63,1.6,5.44,4.59,5.44h16.42v17.49
					h-16.32c-3.31,0-4.91,1.92-4.91,5.55c0,3.84,1.6,5.76,4.8,5.76h17.49v17.49h-40.85V272.69z"/>
			</g>
		</g>
	</g>
	<g>
		<path class="st0" d="M584.88,142.52c-1.66-22.92-12.5-40.74-30.87-53.92c-19.99-14.35-42.11-20.14-66.47-13.83
			c-17.65,4.57-32.12,18-38.08,34.37c0.85,2.25,1.66,4.54,2.35,6.88c2.25,7.68,3.48,15.44,3.76,23.15
			c6.46-3.53,12.65-7.44,17.63-13.11c1.75-1.99,3.8-3.7,5.72-5.54c12.06-11.51,25.67-16.75,42.07-10.2
			c23.98,9.58,34.13,28.82,26.36,53.99c-1.18,3.81-2.82,7.49-4.28,11.32c0.25,0.21,0.52,0.43,0.8,0.66
			c9.57,7.62,12.28,19.7,6.71,29.96c-5.55,10.22-17.65,14.86-29.08,10.58c-7.25-2.71-14.17-6.27-21.28-9.36
			c-1.19-0.52-2.61-0.91-3.87-0.78c-19.96,2.16-38.99-1.01-57.13-9.51c-6.32,9.91-14.32,18.99-23.75,26.8
			c27.14,16.67,57.17,21.77,88.71,16.94c28.35-4.35,50.76-18.75,66.27-43.11C581.17,181.01,586.33,162.6,584.88,142.52z
			 M470.23,113.79c-1.53,1.47-3.08,1.42-4.64-0.2c-1.6-1.66-1.55-3.17-0.02-4.64c1.55-1.5,3.11-1.49,4.66,0.13l0.05,0.05
			C471.88,110.78,471.78,112.29,470.23,113.79z M474.82,99.78c-1.24,0.03-1.9-0.58-1.92-1.87l0-0.04c-0.03-1.32,0.6-1.93,1.84-1.95
			c1.22-0.03,1.85,0.6,1.88,1.9C476.65,99.13,476.04,99.75,474.82,99.78z M497.72,101.87c-0.32,1.18-1.1,1.61-2.35,1.27
			c-1.28-0.34-1.71-1.1-1.39-2.28c0.32-1.2,1.09-1.66,2.34-1.32l0.04,0.01C497.64,99.9,498.04,100.67,497.72,101.87z M496.45,88.69
			c-1.91,0.99-3.4,0.55-4.44-1.44l-0.03-0.06c-1.06-2.04-0.54-3.47,1.37-4.46c1.88-0.98,3.35-0.49,4.39,1.51
			C498.8,86.28,498.33,87.72,496.45,88.69z M519.99,99.25c-1.2,0.23-1.93-0.29-2.17-1.56c-0.25-1.3,0.25-2.02,1.45-2.24
			c1.22-0.23,1.97,0.26,2.21,1.53l0.01,0.04C521.73,98.32,521.21,99.02,519.99,99.25z M529.41,87.98c-1.46,1.59-3.01,1.67-4.66,0.15
			l-0.05-0.05c-1.69-1.56-1.69-3.07-0.23-4.66c1.44-1.56,2.99-1.6,4.64-0.07C530.8,84.91,530.85,86.42,529.41,87.98z M546.57,109.96
			c-1.52,1.73-3.03,1.81-4.62,0.41c-1.62-1.43-1.74-2.97-0.26-4.66l0.05-0.05c1.52-1.73,3.04-1.76,4.65-0.33
			C547.99,106.72,548.06,108.27,546.57,109.96z M547.59,97.77c-1.32,0.03-1.95-0.57-1.98-1.79c-0.03-1.24,0.57-1.9,1.87-1.93l0.04,0
			c1.32-0.03,1.93,0.59,1.96,1.83C549.5,97.1,548.88,97.74,547.59,97.77z M445.73,224.16c-0.32,2.13-1.55,3.08-3.78,2.74l-0.07-0.01
			c-2.28-0.34-3.12-1.6-2.8-3.73c0.32-2.1,1.58-3,3.8-2.66C445.16,220.84,446.05,222.06,445.73,224.16z M457.09,235.56l-0.04,0
			c-1.32-0.1-1.86-0.78-1.77-2.02c0.09-1.22,0.78-1.79,2.07-1.69c1.32,0.1,1.88,0.76,1.79,1.98
			C459.04,235.07,458.38,235.66,457.09,235.56z M465.56,219.13c-1.33,1.7-2.86,1.92-4.63,0.54l-0.06-0.04
			c-1.82-1.41-1.94-2.92-0.61-4.62c1.3-1.67,2.85-1.84,4.62-0.46C466.69,215.96,466.86,217.46,465.56,219.13z M480.05,219.33
			c-0.38,1.18-1.16,1.61-2.39,1.21l-0.04-0.01c-1.26-0.4-1.63-1.19-1.25-2.37c0.37-1.16,1.17-1.56,2.4-1.17
			C480.03,217.39,480.42,218.17,480.05,219.33z M485.76,234.76c-1.89,1.05-3.38,0.65-4.48-1.32l-0.03-0.06
			c-1.12-2.01-0.64-3.45,1.24-4.5c1.85-1.03,3.34-0.58,4.43,1.38C488.04,232.28,487.61,233.73,485.76,234.76z M498.58,225.41
			l-0.04,0.02c-1.23,0.5-2.01,0.13-2.48-1.02c-0.46-1.13-0.1-1.95,1.1-2.43c1.23-0.5,2.03-0.16,2.49,0.98
			C500.11,224.1,499.77,224.92,498.58,225.41z M559.17,165.76c-1.32,0.03-1.95-0.57-1.98-1.79c-0.03-1.24,0.57-1.9,1.87-1.93l0.04,0
			c1.32-0.03,1.93,0.59,1.96,1.83C561.09,165.09,560.46,165.73,559.17,165.76z M562.55,144.79c-0.77,0.95-1.65,1.03-2.66,0.22
			c-1.03-0.83-1.12-1.7-0.35-2.65c0.78-0.97,1.66-1.08,2.67-0.27l0.03,0.03C563.28,142.95,563.33,143.82,562.55,144.79z
			 M562.43,113.28c-1.22,0.03-1.85-0.6-1.88-1.9c-0.03-1.32,0.58-1.95,1.8-1.97c1.24-0.03,1.9,0.58,1.92,1.87l0,0.04
			C564.3,112.65,563.67,113.25,562.43,113.28z M571.91,132.76c-1.46,1.59-3.01,1.67-4.66,0.15l-0.05-0.05
			c-1.69-1.56-1.69-3.07-0.23-4.66c1.44-1.56,2.99-1.6,4.64-0.07C573.3,129.69,573.35,131.2,571.91,132.76z M578.63,149.09
			c0,1.32-0.64,1.91-1.88,1.91c-1.22,0-1.84-0.64-1.84-1.94c0-1.32,0.62-1.93,1.84-1.93c1.24,0,1.88,0.62,1.88,1.92V149.09z"/>
		<path class="st0" d="M386.71,62.21c-24.23-4.28-46.67,0.07-65.91,16.29c-18.81,15.87-25.44,43.81-14.29,64.98
			c2.38,4.52,5.19,8.74,9.02,12.39c0.5-0.5,0.85-0.78,1.11-1.12c5.5-7.34,10.87-14.75,13.41-23.79c0.72-2.55,1.83-4.99,2.76-7.47
			c5.89-15.6,15.9-26.21,33.52-27.4c25.76-1.74,43.23,11.22,47.13,37.27c0.59,3.95,0.7,7.97,1.04,12.06
			c0.32,0.08,0.66,0.16,1.01,0.24c11.92,2.73,19.59,12.45,19.01,24.11c-0.58,11.61-9.48,21.03-21.64,22.13
			c-7.7,0.7-15.49,0.48-23.23,0.77c-1.29,0.05-2.75,0.31-3.82,0.97c-17.31,10.74-36.13,16.13-56.5,16.16
			c-1.27,0-2.66,0.47-3.78,1.11c-6.9,3.92-13.57,8.28-20.63,11.86c-10.37,5.25-22.77,1.98-29.44-7.23
			c-6.72-9.29-5.75-21.61,2.51-30.14c1.3-1.34,1.3-2.21,0.33-3.72c-3.65-5.66-6.24-11.81-7.69-18.4
			c-1.74-7.92-1.98-15.84,1.22-23.47c4.33-10.31,11.96-17.62,21.72-22.78c1.6-0.85,2.17-1.79,2.38-3.51
			c1.2-9.6,4.37-18.52,9.88-26.51c2.37-3.44,5.09-6.65,7.86-10.23c-15.55-0.05-29.54,4.35-42.31,12.48
			c-17.22,10.96-29.81,25.7-34.97,45.8c-4.71,18.35-2.31,36.24,5.64,53.25c15,32.1,40.17,51.13,75.32,55.57
			c32.83,4.15,63.14-4.19,90.32-22.77c23.68-16.19,37.65-38.87,41.1-67.54c2.38-19.8-0.93-38.64-10.92-56.11
			C426.46,77.51,408.96,66.14,386.71,62.21z M317.23,119.69c-0.74,1.99-2.16,2.61-4.27,1.82c-2.16-0.8-2.77-2.19-2.03-4.17
			c0.75-2.02,2.15-2.69,4.26-1.9l0.07,0.03C317.42,116.27,317.99,117.67,317.23,119.69z M326.51,108.77
			c-1.11,0.56-1.96,0.3-2.54-0.86l-0.02-0.04c-0.6-1.18-0.29-2,0.82-2.56c1.09-0.55,1.93-0.26,2.52,0.89
			C327.88,107.39,327.6,108.22,326.51,108.77z M327.04,94.71c-1.3,1.73-2.83,1.97-4.62,0.62l-0.06-0.04
			c-1.84-1.38-1.99-2.89-0.69-4.61c1.27-1.7,2.81-1.89,4.61-0.54C328.11,91.51,328.31,93.01,327.04,94.71z M343.96,76.81
			c-0.36,1.17-1.16,1.57-2.4,1.18c-1.26-0.39-1.66-1.17-1.3-2.33c0.37-1.18,1.15-1.61,2.39-1.23l0.04,0.01
			C343.96,74.84,344.33,75.63,343.96,76.81z M352.56,90.09l-0.07,0.01c-2.28,0.27-3.44-0.71-3.69-2.85
			c-0.25-2.11,0.73-3.31,2.96-3.58c2.28-0.27,3.47,0.67,3.72,2.78C355.73,88.58,354.79,89.82,352.56,90.09z M359.85,77.37
			c-0.98,0.72-1.86,0.58-2.63-0.46c-0.79-1.07-0.65-1.93,0.33-2.65c1-0.74,1.88-0.62,2.65,0.42l0.02,0.03
			C361.02,75.77,360.85,76.63,359.85,77.37z M382.95,73.2c-0.63,2.06-1.99,2.81-4.14,2.15l-0.07-0.02c-2.2-0.67-2.85-2.04-2.22-4.1
			c0.62-2.03,2-2.73,4.15-2.07C382.87,69.83,383.57,71.17,382.95,73.2z M398.78,79.55c-1.09,0.55-1.93,0.26-2.52-0.89
			c-0.6-1.18-0.32-2.01,0.77-2.56c1.11-0.56,1.96-0.3,2.54,0.86l0.02,0.04C400.2,78.17,399.89,78.99,398.78,79.55z M406.56,92.12
			c-0.63,2.06-1.99,2.81-4.14,2.15l-0.07-0.02c-2.2-0.67-2.85-2.04-2.22-4.1c0.62-2.03,2-2.73,4.15-2.07
			C406.48,88.75,407.18,90.09,406.56,92.12z M422.08,115.63c-1.18,0.6-2,0.33-2.56-0.76c-0.56-1.11-0.3-1.96,0.85-2.55l0.04-0.02
			c1.18-0.6,2-0.3,2.56,0.81C423.52,114.2,423.24,115.05,422.08,115.63z M424.02,101.1c-1.1,0.53-1.94,0.22-2.5-0.95
			c-0.57-1.19-0.28-2.01,0.83-2.54c1.12-0.54,1.97-0.25,2.52,0.91l0.02,0.04C425.46,99.76,425.14,100.56,424.02,101.1z
			 M247.39,165.73l-0.04,0.01c-1.31,0.21-1.99-0.33-2.19-1.55c-0.2-1.2,0.34-1.92,1.61-2.13c1.31-0.21,2.01,0.3,2.2,1.51
			C249.17,164.79,248.66,165.52,247.39,165.73z M247.1,136.97h-0.07c-2.3,0-3.33-1.11-3.33-3.27c0-2.12,1.11-3.2,3.36-3.2
			c2.3,0,3.36,1.08,3.36,3.2C250.43,135.86,249.35,136.97,247.1,136.97z M256.59,120.33l-0.04,0c-1.32-0.14-1.83-0.84-1.7-2.08
			c0.13-1.21,0.84-1.76,2.12-1.62c1.32,0.14,1.86,0.83,1.72,2.04C258.56,119.9,257.88,120.47,256.59,120.33z M262.34,145.05
			l-0.02,0.04c-0.67,1.14-1.52,1.32-2.59,0.69c-1.05-0.62-1.26-1.49-0.6-2.6c0.67-1.14,1.52-1.35,2.57-0.73
			C262.77,143.08,263,143.94,262.34,145.05z M287.43,109.43c0.6,1.18,0.32,2.01-0.77,2.56c-1.11,0.56-1.96,0.3-2.54-0.86l-0.02-0.04
			c-0.6-1.18-0.29-2,0.82-2.56C286,107.98,286.85,108.27,287.43,109.43z M280.03,93.87c1.27-1.7,2.81-1.89,4.61-0.54
			c1.84,1.38,2.04,2.88,0.77,4.58c-1.3,1.73-2.83,1.97-4.62,0.62l-0.06-0.04C278.89,97.1,278.74,95.6,280.03,93.87z M270.75,102.08
			c1.32,0.14,1.86,0.83,1.72,2.04c-0.13,1.23-0.82,1.8-2.11,1.66l-0.04,0c-1.32-0.14-1.83-0.84-1.7-2.08
			C268.76,102.49,269.47,101.94,270.75,102.08z M268.77,124.18c-2.3,0-3.33-1.11-3.33-3.27c0-2.12,1.11-3.2,3.36-3.2
			c2.3,0,3.36,1.08,3.36,3.2c0,2.16-1.08,3.27-3.33,3.27H268.77z M334.52,234.4c-0.32,1.2-1.09,1.66-2.34,1.32l-0.04-0.01
			c-1.28-0.35-1.68-1.12-1.36-2.32c0.32-1.18,1.1-1.61,2.35-1.27C334.41,232.46,334.84,233.22,334.52,234.4z M374.65,207.83
			c1.04-0.63,1.91-0.41,2.58,0.7c0.69,1.13,0.47,1.98-0.57,2.61c-1.06,0.64-1.93,0.45-2.6-0.66l-0.02-0.04
			C373.35,209.31,373.59,208.48,374.65,207.83z M349.51,222.45c-1.29,1.73-2.83,1.97-4.62,0.62l-0.06-0.04
			c-1.84-1.38-1.99-2.89-0.7-4.61c1.27-1.7,2.81-1.89,4.61-0.54C350.59,219.25,350.79,220.75,349.51,222.45z M359.27,232.56
			c-1.07,0.77-1.93,0.63-2.65-0.36c-0.73-1.01-0.6-1.89,0.45-2.65l0.03-0.02c1.07-0.77,1.93-0.6,2.65,0.41
			C360.47,230.92,360.32,231.8,359.27,232.56z M378.02,224.44c-1.56,1.69-3.07,1.74-4.63,0.3c-1.59-1.46-1.67-3.01-0.15-4.66
			l0.05-0.05c1.56-1.69,3.07-1.69,4.66-0.23C379.5,221.24,379.54,222.79,378.02,224.44z M397.72,213.96
			c-0.32,1.2-1.09,1.66-2.34,1.32l-0.04-0.01c-1.28-0.35-1.68-1.12-1.36-2.32c0.32-1.18,1.1-1.61,2.35-1.27
			C397.61,212.03,398.04,212.78,397.72,213.96z"/>
		<path class="st0" d="M514.89,117.18c-0.15-2.13-0.95-2.92-3.02-3.35c-5.61-1.16-10.92-0.38-16.08,1.88
			c-6.31,2.76-11.58,6.99-16.45,11.75c-3.07,3-5.88,6.32-9.17,9.06c-4.55,3.8-9.46,6.91-14.6,9.53
			c-0.53,14.6-4.42,28.91-11.13,42.07c11.32-3.06,22.18-7.63,32.62-13.51c12.12-6.82,22.79-15.35,30.24-27.36
			C512.99,138.05,515.64,128.06,514.89,117.18z M475.11,161.65c-1.91,1-3.4,0.55-4.44-1.44l-0.03-0.06
			c-1.06-2.04-0.55-3.47,1.37-4.46c1.88-0.98,3.35-0.49,4.39,1.51C477.46,159.23,477,160.67,475.11,161.65z M476.86,147.26
			c-0.8,1.06-1.66,1.17-2.64,0.43c-0.99-0.75-1.13-1.63-0.35-2.66l0.02-0.03c0.8-1.06,1.67-1.14,2.66-0.39
			C477.53,145.34,477.64,146.23,476.86,147.26z M494.48,149.31c-0.93,1.94-2.39,2.48-4.41,1.51l-0.06-0.03
			c-2.07-1-2.52-2.44-1.58-4.39c0.92-1.91,2.39-2.4,4.42-1.43C494.91,145.97,495.4,147.4,494.48,149.31z M497.02,135.67
			c-1.24,0.03-1.9-0.58-1.92-1.87l0-0.04c-0.03-1.32,0.6-1.93,1.84-1.95c1.22-0.03,1.85,0.6,1.88,1.9
			C498.84,135.02,498.24,135.65,497.02,135.67z"/>
		<path class="st0" d="M359.62,103.19c-5.56,1.38-10.01,4.38-13.69,8.65c-4.49,5.22-7.41,11.31-9.75,17.72
			c-1.47,4.04-2.57,8.24-4.35,12.13c-5.9,12.92-15.27,23.17-25.76,32.47c-5.71,5.06-12.14,8.99-19.26,11.93
			c-8.52,3.52-12.06,13.43-8.58,22.73c3.09,8.26,12.62,12.47,21.98,9.9c3.14-1.48,6.37-2.78,9.39-4.46
			c18.26-10.13,32.99-24.18,44.92-41.21c7.98-11.39,13.91-23.7,15.42-37.75c1.16-10.76-0.77-20.92-6.16-30.4
			C362.74,103.04,361.67,102.68,359.62,103.19z M316,190.17c-0.17,1.21-0.9,1.73-2.18,1.55c-1.31-0.19-1.83-0.89-1.65-2.1
			c0.18-1.23,0.88-1.78,2.16-1.59l0.04,0.01C315.69,188.22,316.18,188.94,316,190.17z M323.16,176.12
			c-0.69,1.01-1.57,1.16-2.64,0.43c-1.09-0.75-1.25-1.6-0.56-2.61c0.7-1.03,1.57-1.2,2.64-0.48l0.03,0.02
			C323.74,174.23,323.86,175.1,323.16,176.12z M340.96,177c-1.29,1.73-2.83,1.97-4.62,0.62l-0.06-0.04
			c-1.84-1.38-1.99-2.89-0.7-4.61c1.27-1.7,2.81-1.89,4.61-0.54C342.03,173.81,342.23,175.31,340.96,177z M343.6,149.44
			c-0.26,1.3-0.99,1.77-2.19,1.53c-1.22-0.25-1.72-0.98-1.47-2.25l0.01-0.04c0.26-1.3,1.01-1.75,2.22-1.5
			C343.37,147.42,343.85,148.17,343.6,149.44z M350.48,162.11c-0.55,1.09-1.4,1.36-2.55,0.78c-1.18-0.59-1.45-1.42-0.9-2.51
			c0.56-1.11,1.4-1.4,2.55-0.82l0.04,0.02C350.8,160.16,351.04,161,350.48,162.11z M352.21,140.21h-0.07c-2.3,0-3.33-1.11-3.33-3.27
			c0-2.12,1.11-3.2,3.36-3.2c2.3,0,3.36,1.08,3.36,3.2C355.54,139.1,354.46,140.21,352.21,140.21z"/>
		<path class="st0" d="M409.29,151.15c-11.18,2.01-22.04,0.51-32.9-1.88c-1.04-0.23-2.08-0.44-3.27-0.69
			c-3.69,11.54-9.43,21.7-16.62,31.54c1.01,0.38,1.66,0.67,2.34,0.88c10.01,3.06,20.22,5.16,30.66,5.94
			c9.23,0.69,18.48,0.92,27.48-1.82c8.16-2.49,13.36-11.55,11.5-19.73C426.32,155.95,418.11,149.56,409.29,151.15z M376.98,170.28
			l-0.07,0.01c-2.25,0.46-3.48-0.42-3.92-2.54c-0.43-2.08,0.45-3.36,2.65-3.81c2.25-0.46,3.51,0.38,3.94,2.46
			C380.01,168.52,379.18,169.83,376.98,170.28z M389.05,178.67c-1.06,0.64-1.93,0.45-2.6-0.66l-0.02-0.04
			c-0.69-1.13-0.45-1.97,0.62-2.61c1.04-0.63,1.91-0.41,2.58,0.7C390.3,177.19,390.09,178.04,389.05,178.67z M401.77,161.07
			c-0.32,1.2-1.09,1.66-2.34,1.32l-0.04-0.01c-1.28-0.35-1.68-1.12-1.36-2.32c0.32-1.18,1.1-1.61,2.35-1.27
			C401.66,159.13,402.09,159.89,401.77,161.07z"/>
		<path class="st0" d="M535.89,178.56c-10.95-3.03-20.09-9.08-28.85-15.94c-0.84-0.65-1.68-1.3-2.65-2.04
			c-8.32,8.81-17.89,15.49-28.63,21.24c0.74,0.78,1.21,1.32,1.73,1.81c7.7,7.09,16,13.4,25.07,18.62
			c8.02,4.62,16.26,8.83,25.56,10.24c8.44,1.28,17.04-4.64,18.9-12.81C549.17,190.26,544.53,180.95,535.89,178.56z M504.43,187.07
			c-0.52,2.09-1.84,2.91-4.02,2.37l-0.07-0.02c-2.23-0.56-2.96-1.89-2.43-3.98c0.51-2.06,1.86-2.83,4.04-2.29
			C504.18,183.71,504.95,185.01,504.43,187.07z M515.16,183.24c-0.8,1.06-1.66,1.17-2.64,0.43c-0.99-0.75-1.13-1.63-0.35-2.66
			l0.03-0.03c0.8-1.06,1.67-1.14,2.66-0.39C515.83,181.33,515.93,182.21,515.16,183.24z M525.25,194.39
			c-0.38,1.18-1.16,1.61-2.39,1.21l-0.04-0.01c-1.26-0.4-1.63-1.19-1.25-2.37c0.37-1.16,1.17-1.56,2.4-1.17
			C525.22,192.45,525.62,193.23,525.25,194.39z"/>
		<path class="st0" d="M470.37,75.96c3.63-2.08,7.47-3.79,11.51-5.82c-14-6.77-28.51-8.86-43.54-7.06
			c-6.88,0.82-13.47,2.29-19.69,4.47c10.5,8.25,19.28,18.45,25.66,30.29c0.67-0.05,1.34-0.09,2.02-0.11
			c1.81-0.07,2.73-0.68,3.67-2.14C455.23,87.46,461.95,80.78,470.37,75.96z M446.07,81.16c-0.65,1.05-1.52,1.27-2.62,0.59
			l-0.04-0.02c-1.12-0.7-1.29-1.55-0.63-2.61c0.64-1.04,1.52-1.23,2.61-0.54C446.53,79.27,446.72,80.12,446.07,81.16z M453.57,73.38
			c-1.24,0.03-1.9-0.58-1.92-1.87l0-0.04c-0.03-1.32,0.6-1.93,1.84-1.95c1.22-0.03,1.85,0.6,1.88,1.9
			C455.4,72.73,454.79,73.35,453.57,73.38z"/>
	</g>
</g>
</svg>
