<?xml version="1.0" encoding="utf-8"?>
<!-- Generator: Adobe Illustrator 27.7.0, SVG Export Plug-In . SVG Version: 6.00 Build 0)  -->
<svg version="1.1" id="Warstwa_1" xmlns="http://www.w3.org/2000/svg" xmlns:xlink="http://www.w3.org/1999/xlink" x="0px" y="0px"
	 viewBox="0 0 15.55 15.56" style="enable-background:new 0 0 15.55 15.56;" xml:space="preserve">
<style type="text/css">
	.st0{clip-path:url(#SVGID_00000150787896852261413200000015874201108027795646_);fill:#971D25;}
	.st1{clip-path:url(#SVGID_00000150787896852261413200000015874201108027795646_);fill:#FFFFFF;}
</style>
<g>
	<defs>
		<rect id="SVGID_1_" y="0" width="15.56" height="15.56"/>
	</defs>
	<clipPath id="SVGID_00000155859961648634101350000007760612094304945333_">
		<use xlink:href="#SVGID_1_"  style="overflow:visible;"/>
	</clipPath>
	<path style="clip-path:url(#SVGID_00000155859961648634101350000007760612094304945333_);fill:#971D25;" d="M11.62,15.56H8.98
		l-1.2-0.4l-1.19,0.4H3.94C1.76,15.56,0,13.79,0,11.62V3.94C0,1.76,1.76,0,3.94,0h7.68c2.17,0,3.94,1.76,3.94,3.94v7.68
		C15.55,13.79,13.79,15.56,11.62,15.56"/>
	<path style="clip-path:url(#SVGID_00000155859961648634101350000007760612094304945333_);fill:#FFFFFF;" d="M6.58,6.09v1.69H4.63
		V10h1.95v5.56h2.4V10h1.79l0.34-2.22H8.98V6.34c0-0.61,0.3-1.2,1.25-1.2h0.97V3.25c0,0-0.88-0.15-1.72-0.15
		C7.72,3.1,6.58,4.16,6.58,6.09"/>
</g>
</svg>
