<?xml version="1.0" encoding="utf-8"?>
<!-- Generator: Adobe Illustrator 27.7.0, SVG Export Plug-In . SVG Version: 6.00 Build 0)  -->
<svg version="1.1" id="Tryb_izolacji" xmlns="http://www.w3.org/2000/svg" xmlns:xlink="http://www.w3.org/1999/xlink" x="0px"
	 y="0px" viewBox="0 0 907.06 204.81" style="enable-background:new 0 0 907.06 204.81;" xml:space="preserve">
<style type="text/css">
	.st0{opacity:0.2;}
	.st1{fill:#EB8D11;}
</style>
<g class="st0">
	<g>
		<g>
			<path class="st1" d="M346.53,86.79l-0.13,0c-3.98,0-5.89,1.97-5.89,5.79c0,3.75,1.88,5.66,5.95,5.66c3.98,0,5.95-1.91,5.95-5.66
				C352.42,88.76,350.6,86.79,346.53,86.79z"/>
		</g>
		<g>
			<path class="st1" d="M370.33,86.79l-0.13,0c-3.98,0-5.89,1.97-5.89,5.79c0,3.75,1.88,5.66,5.95,5.66c3.98,0,5.95-1.91,5.95-5.66
				C376.21,88.76,374.4,86.79,370.33,86.79z"/>
		</g>
		<g>
			<path class="st1" d="M417.92,86.79l-0.13,0c-3.98,0-5.89,1.97-5.89,5.79c0,3.75,1.88,5.66,5.95,5.66c3.98,0,5.95-1.91,5.95-5.66
				C423.81,88.76,422,86.79,417.92,86.79z"/>
		</g>
		<g>
			<path class="st1" d="M441.72,86.79l-0.13,0c-3.98,0-5.89,1.97-5.89,5.79c0,3.75,1.88,5.66,5.95,5.66c3.98,0,5.95-1.91,5.95-5.66
				C447.61,88.76,445.79,86.79,441.72,86.79z"/>
		</g>
		<g>
			<path class="st1" d="M338.79,106.36l-0.09-0.09c-2.72-2.9-5.47-2.94-8.25-0.32c-2.74,2.57-2.84,5.25-0.05,8.21
				c2.72,2.9,5.47,3.03,8.2,0.46C341.38,112,341.58,109.33,338.79,106.36z"/>
		</g>
		<g>
			<path class="st1" d="M386.92,106.36l-0.09-0.09c-2.72-2.9-5.47-2.94-8.25-0.32c-2.74,2.57-2.84,5.25-0.05,8.21
				c2.72,2.9,5.47,3.03,8.2,0.46C389.51,112,389.71,109.33,386.92,106.36z"/>
		</g>
		<g>
			<path class="st1" d="M410.45,106.36l-0.09-0.09c-2.72-2.9-5.47-2.94-8.25-0.32c-2.74,2.57-2.84,5.25-0.05,8.21
				c2.72,2.9,5.47,3.03,8.2,0.46C413.04,112,413.24,109.33,410.45,106.36z"/>
		</g>
		<g>
			<path class="st1" d="M457.5,106.36l-0.09-0.09c-2.72-2.9-5.47-2.94-8.25-0.32c-2.74,2.57-2.84,5.25-0.05,8.21
				c2.72,2.9,5.47,3.03,8.2,0.46C460.09,112,460.29,109.33,457.5,106.36z"/>
		</g>
		<g>
			<path class="st1" d="M227.01,86.79l-0.13,0c-3.98,0-5.89,1.97-5.89,5.79c0,3.75,1.88,5.66,5.95,5.66c3.98,0,5.95-1.91,5.95-5.66
				C232.9,88.76,231.09,86.79,227.01,86.79z"/>
		</g>
		<g>
			<path class="st1" d="M251.23,88.45l-0.09,0c-2.82,0-4.18,1.4-4.18,4.11c0,2.66,1.33,4.02,4.22,4.02c2.82,0,4.22-1.35,4.22-4.02
				C255.41,89.85,254.12,88.45,251.23,88.45z"/>
		</g>
		<g>
			<path class="st1" d="M322.05,88.45l-0.09,0c-2.82,0-4.18,1.4-4.18,4.11c0,2.66,1.33,4.02,4.22,4.02c2.82,0,4.22-1.35,4.22-4.02
				C326.23,89.85,324.94,88.45,322.05,88.45z"/>
		</g>
		<g>
			<path class="st1" d="M394.69,88.45l-0.09,0c-2.82,0-4.18,1.4-4.18,4.11c0,2.66,1.33,4.02,4.22,4.02c2.82,0,4.22-1.35,4.22-4.02
				C398.87,89.85,397.58,88.45,394.69,88.45z"/>
		</g>
		<g>
			<path class="st1" d="M290.26,107.59l-0.06-0.07c-1.87-2.12-3.81-2.21-5.85-0.41c-2,1.76-2.13,3.66-0.22,5.83
				c1.87,2.12,3.81,2.27,5.81,0.51C291.97,111.65,292.17,109.76,290.26,107.59z"/>
		</g>
		<g>
			<path class="st1" d="M361.72,107.59l-0.06-0.07c-1.87-2.12-3.81-2.21-5.85-0.41c-2,1.76-2.13,3.66-0.22,5.83
				c1.87,2.12,3.81,2.27,5.81,0.51C363.43,111.65,363.63,109.76,361.72,107.59z"/>
		</g>
		<g>
			<path class="st1" d="M432.5,107.59l-0.06-0.07c-1.87-2.12-3.81-2.21-5.85-0.41c-2,1.76-2.13,3.66-0.22,5.83
				c1.87,2.12,3.81,2.27,5.81,0.51C434.21,111.65,434.41,109.76,432.5,107.59z"/>
		</g>
		<g>
			<path class="st1" d="M274.61,86.79l-0.13,0c-3.98,0-5.89,1.97-5.89,5.79c0,3.75,1.88,5.66,5.95,5.66c3.98,0,5.95-1.91,5.95-5.66
				C280.49,88.76,278.68,86.79,274.61,86.79z"/>
		</g>
		<g>
			<path class="st1" d="M298.4,86.79l-0.13,0c-3.98,0-5.89,1.97-5.89,5.79c0,3.75,1.88,5.66,5.95,5.66c3.98,0,5.95-1.91,5.95-5.66
				C304.29,88.76,302.48,86.79,298.4,86.79z"/>
		</g>
		<g>
			<path class="st1" d="M243.06,106.36l-0.09-0.09c-2.72-2.9-5.47-2.94-8.25-0.32c-2.74,2.57-2.84,5.25-0.05,8.21
				c2.72,2.9,5.47,3.03,8.2,0.46C245.66,112,245.85,109.33,243.06,106.36z"/>
		</g>
		<g>
			<path class="st1" d="M267.13,106.36l-0.09-0.09c-2.72-2.9-5.47-2.94-8.25-0.32c-2.74,2.57-2.84,5.25-0.05,8.21
				c2.72,2.9,5.47,3.03,8.2,0.46C269.72,112,269.92,109.33,267.13,106.36z"/>
		</g>
		<g>
			<path class="st1" d="M314.73,106.36l-0.09-0.09c-2.72-2.9-5.47-2.94-8.25-0.32c-2.74,2.57-2.84,5.25-0.05,8.21
				c2.72,2.9,5.47,3.03,8.2,0.46C317.32,112,317.51,109.33,314.73,106.36z"/>
		</g>
	</g>
	<g>
		<g>
			<path class="st1" d="M558.54,66.2l-0.11,0.07c-3.41,2.05-4.02,4.73-2.05,8c1.94,3.22,4.53,3.88,8.02,1.78
				c3.41-2.05,4.11-4.71,2.17-7.92C564.6,64.86,562.03,64.1,558.54,66.2z"/>
		</g>
		<g>
			<path class="st1" d="M586.78,84.87l-0.12-0.04c-3.79-1.22-6.21,0.08-7.38,3.71c-1.15,3.57,0.05,5.97,3.93,7.21
				c3.79,1.22,6.25,0,7.4-3.57C591.78,88.55,590.66,86.12,586.78,84.87z"/>
		</g>
		<g>
			<path class="st1" d="M632.63,86.79l-0.13,0c-3.98,0-5.89,1.97-5.89,5.79c0,3.75,1.88,5.66,5.95,5.66c3.98,0,5.95-1.91,5.95-5.66
				C638.52,88.76,636.7,86.79,632.63,86.79z"/>
		</g>
		<g>
			<path class="st1" d="M656.43,86.79l-0.13,0c-3.98,0-5.89,1.97-5.89,5.79c0,3.75,1.88,5.66,5.95,5.66c3.98,0,5.95-1.91,5.95-5.66
				C662.31,88.76,660.5,86.79,656.43,86.79z"/>
		</g>
		<g>
			<path class="st1" d="M554.03,101.96l-0.09-0.09c-2.72-2.9-5.47-2.94-8.25-0.32c-2.74,2.57-2.84,5.25-0.05,8.21
				c2.72,2.9,5.47,3.03,8.2,0.46C556.62,107.6,556.82,104.93,554.03,101.96z"/>
		</g>
		<g>
			<path class="st1" d="M601.63,106.36l-0.09-0.09c-2.72-2.9-5.47-2.94-8.25-0.32c-2.74,2.57-2.84,5.25-0.05,8.21
				c2.72,2.9,5.47,3.03,8.2,0.46C604.22,112,604.41,109.33,601.63,106.36z"/>
		</g>
		<g>
			<path class="st1" d="M625.15,106.36l-0.09-0.09c-2.72-2.9-5.47-2.94-8.25-0.32c-2.74,2.57-2.84,5.25-0.05,8.21
				c2.72,2.9,5.47,3.03,8.2,0.46C627.75,112,627.94,109.33,625.15,106.36z"/>
		</g>
		<g>
			<path class="st1" d="M672.21,106.36l-0.09-0.09c-2.72-2.9-5.47-2.94-8.25-0.32c-2.74,2.57-2.84,5.25-0.05,8.21
				c2.72,2.9,5.47,3.03,8.2,0.46C674.8,112,675,109.33,672.21,106.36z"/>
		</g>
		<g>
			<path class="st1" d="M465.94,88.45l-0.09,0c-2.82,0-4.18,1.4-4.18,4.11c0,2.66,1.33,4.02,4.22,4.02c2.82,0,4.22-1.35,4.22-4.02
				C470.12,89.85,468.83,88.45,465.94,88.45z"/>
		</g>
		<g>
			<path class="st1" d="M536.54,77.32h-0.09c-2.82,0-4.18,1.4-4.18,4.11c0,2.66,1.33,4.02,4.22,4.02c2.82,0,4.22-1.35,4.22-4.02
				C540.72,78.72,539.43,77.32,536.54,77.32z"/>
		</g>
		<g>
			<path class="st1" d="M609.4,84.39l-0.09,0c-2.82,0-4.18,1.4-4.18,4.11c0,2.66,1.33,4.02,4.22,4.02c2.82,0,4.22-1.35,4.22-4.02
				C613.58,85.79,612.29,84.39,609.4,84.39z"/>
		</g>
		<g>
			<path class="st1" d="M504.96,107.59l-0.06-0.07c-1.87-2.12-3.81-2.21-5.85-0.41c-2,1.76-2.13,3.66-0.22,5.83
				c1.87,2.12,3.81,2.27,5.81,0.51C506.68,111.65,506.87,109.76,504.96,107.59z"/>
		</g>
		<g>
			<path class="st1" d="M564.53,89.86l-0.06-0.07c-1.87-2.12-3.81-2.21-5.85-0.41c-2,1.76-2.13,3.66-0.22,5.83
				c1.87,2.12,3.81,2.27,5.81,0.51C566.24,93.92,566.44,92.03,564.53,89.86z"/>
		</g>
		<g>
			<path class="st1" d="M588.95,54.71l-0.02-0.09c-0.56-2.77-2.21-3.81-4.86-3.27c-2.61,0.53-3.67,2.11-3.09,4.94
				c0.56,2.77,2.17,3.87,4.78,3.33C588.42,59.08,589.53,57.54,588.95,54.71z"/>
		</g>
		<g>
			<path class="st1" d="M622.86,58.14l-0.02-0.09c-0.56-2.77-2.21-3.81-4.86-3.27c-2.61,0.53-3.67,2.11-3.09,4.94
				c0.56,2.77,2.17,3.87,4.78,3.33C622.33,62.51,623.44,60.97,622.86,58.14z"/>
		</g>
		<g>
			<path class="st1" d="M600.08,23.98l0.07-0.06c2.11-1.88,2.18-3.83,0.38-5.85c-1.78-1.99-3.67-2.11-5.83-0.18
				c-2.11,1.88-2.25,3.82-0.47,5.81C596.04,25.72,597.93,25.9,600.08,23.98z"/>
		</g>
		<g>
			<path class="st1" d="M547.58,48.62l-0.02-0.09c-0.56-2.77-2.21-3.81-4.86-3.27c-2.61,0.53-3.67,2.11-3.09,4.94
				c0.56,2.77,2.17,3.87,4.78,3.33C547.05,52.99,548.16,51.45,547.58,48.62z"/>
		</g>
		<g>
			<path class="st1" d="M647.21,107.59l-0.06-0.07c-1.87-2.12-3.81-2.21-5.85-0.41c-2,1.76-2.13,3.66-0.22,5.83
				c1.87,2.12,3.81,2.27,5.81,0.51C648.92,111.65,649.12,109.76,647.21,107.59z"/>
		</g>
		<g>
			<path class="st1" d="M489.31,86.79l-0.13,0c-3.98,0-5.89,1.97-5.89,5.79c0,3.75,1.88,5.66,5.95,5.66c3.98,0,5.95-1.91,5.95-5.66
				C495.2,88.76,493.39,86.79,489.31,86.79z"/>
		</g>
		<g>
			<path class="st1" d="M513.75,81.65l-0.13,0c-3.98,0-5.89,1.97-5.89,5.79c0,3.75,1.88,5.66,5.95,5.66c3.98,0,5.95-1.91,5.95-5.66
				C519.64,83.62,517.82,81.65,513.75,81.65z"/>
		</g>
		<g>
			<path class="st1" d="M481.84,106.36l-0.09-0.09c-2.72-2.9-5.47-2.94-8.25-0.32c-2.74,2.57-2.84,5.25-0.05,8.21
				c2.72,2.9,5.47,3.03,8.2,0.46C484.43,112,484.63,109.33,481.84,106.36z"/>
		</g>
		<g>
			<path class="st1" d="M530.07,101.96l-0.09-0.09c-2.72-2.9-5.47-2.94-8.25-0.32c-2.74,2.57-2.84,5.25-0.05,8.21
				c2.72,2.9,5.47,3.03,8.2,0.46C532.66,107.6,532.86,104.93,530.07,101.96z"/>
		</g>
	</g>
	<g>
		<g>
			<path class="st1" d="M346.53,123.39l-0.13,0c-3.98,0-5.89,1.97-5.89,5.79c0,3.75,1.88,5.66,5.95,5.66c3.98,0,5.95-1.91,5.95-5.66
				C352.42,125.36,350.6,123.39,346.53,123.39z"/>
		</g>
		<g>
			<path class="st1" d="M370.33,123.39l-0.13,0c-3.98,0-5.89,1.97-5.89,5.79c0,3.75,1.88,5.66,5.95,5.66c3.98,0,5.95-1.91,5.95-5.66
				C376.21,125.36,374.4,123.39,370.33,123.39z"/>
		</g>
		<g>
			<path class="st1" d="M417.92,123.39l-0.13,0c-3.98,0-5.89,1.97-5.89,5.79c0,3.75,1.88,5.66,5.95,5.66c3.98,0,5.95-1.91,5.95-5.66
				C423.81,125.36,422,123.39,417.92,123.39z"/>
		</g>
		<g>
			<path class="st1" d="M441.72,123.39l-0.13,0c-3.98,0-5.89,1.97-5.89,5.79c0,3.75,1.88,5.66,5.95,5.66c3.98,0,5.95-1.91,5.95-5.66
				C447.61,125.36,445.79,123.39,441.72,123.39z"/>
		</g>
		<g>
			<path class="st1" d="M338.79,142.96l-0.09-0.09c-2.72-2.9-5.47-2.94-8.25-0.32c-2.74,2.57-2.84,5.25-0.05,8.21
				c2.72,2.9,5.47,3.03,8.2,0.46C341.38,148.6,341.58,145.93,338.79,142.96z"/>
		</g>
		<g>
			<path class="st1" d="M386.92,142.96l-0.09-0.09c-2.72-2.9-5.47-2.94-8.25-0.32c-2.74,2.57-2.84,5.25-0.05,8.21
				c2.72,2.9,5.47,3.03,8.2,0.46C389.51,148.6,389.71,145.93,386.92,142.96z"/>
		</g>
		<g>
			<path class="st1" d="M410.45,142.96l-0.09-0.09c-2.72-2.9-5.47-2.94-8.25-0.32c-2.74,2.57-2.84,5.25-0.05,8.21
				c2.72,2.9,5.47,3.03,8.2,0.46C413.04,148.6,413.24,145.93,410.45,142.96z"/>
		</g>
		<g>
			<path class="st1" d="M457.5,142.96l-0.09-0.09c-2.72-2.9-5.47-2.94-8.25-0.32c-2.74,2.57-2.84,5.25-0.05,8.21
				c2.72,2.9,5.47,3.03,8.2,0.46C460.09,148.6,460.29,145.93,457.5,142.96z"/>
		</g>
		<g>
			<path class="st1" d="M227.01,123.39l-0.13,0c-3.98,0-5.89,1.97-5.89,5.79c0,3.75,1.88,5.66,5.95,5.66c3.98,0,5.95-1.91,5.95-5.66
				C232.9,125.36,231.09,123.39,227.01,123.39z"/>
		</g>
		<g>
			<path class="st1" d="M251.23,125.05l-0.09,0c-2.82,0-4.18,1.4-4.18,4.11c0,2.66,1.33,4.02,4.22,4.02c2.82,0,4.22-1.35,4.22-4.02
				C255.41,126.45,254.12,125.05,251.23,125.05z"/>
		</g>
		<g>
			<path class="st1" d="M322.05,125.05l-0.09,0c-2.82,0-4.18,1.4-4.18,4.11c0,2.66,1.33,4.02,4.22,4.02c2.82,0,4.22-1.35,4.22-4.02
				C326.23,126.45,324.94,125.05,322.05,125.05z"/>
		</g>
		<g>
			<path class="st1" d="M394.69,125.05l-0.09,0c-2.82,0-4.18,1.4-4.18,4.11c0,2.66,1.33,4.02,4.22,4.02c2.82,0,4.22-1.35,4.22-4.02
				C398.87,126.45,397.58,125.05,394.69,125.05z"/>
		</g>
		<g>
			<path class="st1" d="M290.26,144.19l-0.06-0.07c-1.87-2.12-3.81-2.21-5.85-0.41c-2,1.76-2.13,3.66-0.22,5.83
				c1.87,2.12,3.81,2.27,5.81,0.51C291.97,148.25,292.17,146.36,290.26,144.19z"/>
		</g>
		<g>
			<path class="st1" d="M361.72,144.19l-0.06-0.07c-1.87-2.12-3.81-2.21-5.85-0.41c-2,1.76-2.13,3.66-0.22,5.83
				c1.87,2.12,3.81,2.27,5.81,0.51C363.43,148.25,363.63,146.36,361.72,144.19z"/>
		</g>
		<g>
			<path class="st1" d="M432.5,144.19l-0.06-0.07c-1.87-2.12-3.81-2.21-5.85-0.41c-2,1.76-2.13,3.66-0.22,5.83
				c1.87,2.12,3.81,2.27,5.81,0.51C434.21,148.25,434.41,146.36,432.5,144.19z"/>
		</g>
		<g>
			<path class="st1" d="M274.61,123.39l-0.13,0c-3.98,0-5.89,1.97-5.89,5.79c0,3.75,1.88,5.66,5.95,5.66c3.98,0,5.95-1.91,5.95-5.66
				C280.49,125.36,278.68,123.39,274.61,123.39z"/>
		</g>
		<g>
			<path class="st1" d="M298.4,123.39l-0.13,0c-3.98,0-5.89,1.97-5.89,5.79c0,3.75,1.88,5.66,5.95,5.66c3.98,0,5.95-1.91,5.95-5.66
				C304.29,125.36,302.48,123.39,298.4,123.39z"/>
		</g>
		<g>
			<path class="st1" d="M243.06,142.96l-0.09-0.09c-2.72-2.9-5.47-2.94-8.25-0.32c-2.74,2.57-2.84,5.25-0.05,8.21
				c2.72,2.9,5.47,3.03,8.2,0.46C245.66,148.6,245.85,145.93,243.06,142.96z"/>
		</g>
		<g>
			<path class="st1" d="M267.13,142.96l-0.09-0.09c-2.72-2.9-5.47-2.94-8.25-0.32c-2.74,2.57-2.84,5.25-0.05,8.21
				c2.72,2.9,5.47,3.03,8.2,0.46C269.72,148.6,269.92,145.93,267.13,142.96z"/>
		</g>
		<g>
			<path class="st1" d="M314.73,142.96l-0.09-0.09c-2.72-2.9-5.47-2.94-8.25-0.32c-2.74,2.57-2.84,5.25-0.05,8.21
				c2.72,2.9,5.47,3.03,8.2,0.46C317.32,148.6,317.51,145.93,314.73,142.96z"/>
		</g>
	</g>
	<g>
		<g>
			<path class="st1" d="M561.76,112.86l-0.09,0.08c-2.97,2.65-3.08,5.39-0.54,8.24c2.5,2.8,5.17,2.98,8.21,0.27
				c2.97-2.65,3.17-5.38,0.67-8.19C567.47,110.42,564.8,110.15,561.76,112.86z"/>
		</g>
		<g>
			<path class="st1" d="M584.1,123.97l-0.13,0c-3.98,0-5.89,1.97-5.89,5.79c0,3.75,1.88,5.66,5.95,5.66c3.98,0,5.95-1.91,5.95-5.66
				C589.99,125.94,588.17,123.97,584.1,123.97z"/>
		</g>
		<g>
			<path class="st1" d="M632.63,123.39l-0.13,0c-3.98,0-5.89,1.97-5.89,5.79c0,3.75,1.88,5.66,5.95,5.66c3.98,0,5.95-1.91,5.95-5.66
				C638.52,125.36,636.7,123.39,632.63,123.39z"/>
		</g>
		<g>
			<path class="st1" d="M656.43,123.39l-0.13,0c-3.98,0-5.89,1.97-5.89,5.79c0,3.75,1.88,5.66,5.95,5.66c3.98,0,5.95-1.91,5.95-5.66
				C662.31,125.36,660.5,123.39,656.43,123.39z"/>
		</g>
		<g>
			<path class="st1" d="M553.49,142.96l-0.09-0.09c-2.72-2.9-5.47-2.94-8.25-0.32c-2.74,2.57-2.84,5.25-0.05,8.21
				c2.72,2.9,5.47,3.03,8.2,0.46C556.09,148.6,556.28,145.93,553.49,142.96z"/>
		</g>
		<g>
			<path class="st1" d="M601.63,142.96l-0.09-0.09c-2.72-2.9-5.47-2.94-8.25-0.32c-2.74,2.57-2.84,5.25-0.05,8.21
				c2.72,2.9,5.47,3.03,8.2,0.46C604.22,148.6,604.41,145.93,601.63,142.96z"/>
		</g>
		<g>
			<path class="st1" d="M625.15,142.96l-0.09-0.09c-2.72-2.9-5.47-2.94-8.25-0.32c-2.74,2.57-2.84,5.25-0.05,8.21
				c2.72,2.9,5.47,3.03,8.2,0.46C627.75,148.6,627.94,145.93,625.15,142.96z"/>
		</g>
		<g>
			<path class="st1" d="M672.21,142.96l-0.09-0.09c-2.72-2.9-5.47-2.94-8.25-0.32c-2.74,2.57-2.84,5.25-0.05,8.21
				c2.72,2.9,5.47,3.03,8.2,0.46C674.8,148.6,675,145.93,672.21,142.96z"/>
		</g>
		<g>
			<path class="st1" d="M465.94,125.05l-0.09,0c-2.82,0-4.18,1.4-4.18,4.11c0,2.66,1.33,4.02,4.22,4.02c2.82,0,4.22-1.35,4.22-4.02
				C470.12,126.45,468.83,125.05,465.94,125.05z"/>
		</g>
		<g>
			<path class="st1" d="M536.76,125.05l-0.09,0c-2.82,0-4.18,1.4-4.18,4.11c0,2.66,1.33,4.02,4.22,4.02c2.82,0,4.22-1.35,4.22-4.02
				C540.94,126.45,539.65,125.05,536.76,125.05z"/>
		</g>
		<g>
			<path class="st1" d="M609.4,125.05l-0.09,0c-2.82,0-4.18,1.4-4.18,4.11c0,2.66,1.33,4.02,4.22,4.02c2.82,0,4.22-1.35,4.22-4.02
				C613.58,126.45,612.29,125.05,609.4,125.05z"/>
		</g>
		<g>
			<path class="st1" d="M504.96,144.19l-0.06-0.07c-1.87-2.12-3.81-2.21-5.85-0.41c-2,1.76-2.13,3.66-0.22,5.83
				c1.87,2.12,3.81,2.27,5.81,0.51C506.68,148.25,506.87,146.36,504.96,144.19z"/>
		</g>
		<g>
			<path class="st1" d="M576.42,144.19l-0.06-0.07c-1.87-2.12-3.81-2.21-5.85-0.41c-2,1.76-2.13,3.66-0.22,5.83
				c1.87,2.12,3.81,2.27,5.81,0.51C578.14,148.25,578.34,146.36,576.42,144.19z"/>
		</g>
		<g>
			<path class="st1" d="M647.21,144.19l-0.06-0.07c-1.87-2.12-3.81-2.21-5.85-0.41c-2,1.76-2.13,3.66-0.22,5.83
				c1.87,2.12,3.81,2.27,5.81,0.51C648.92,148.25,649.12,146.36,647.21,144.19z"/>
		</g>
		<g>
			<path class="st1" d="M489.31,123.39l-0.13,0c-3.98,0-5.89,1.97-5.89,5.79c0,3.75,1.88,5.66,5.95,5.66c3.98,0,5.95-1.91,5.95-5.66
				C495.2,125.36,493.39,123.39,489.31,123.39z"/>
		</g>
		<g>
			<path class="st1" d="M513.11,123.39l-0.13,0c-3.98,0-5.89,1.97-5.89,5.79c0,3.75,1.88,5.66,5.95,5.66c3.98,0,5.95-1.91,5.95-5.66
				C519,125.36,517.18,123.39,513.11,123.39z"/>
		</g>
		<g>
			<path class="st1" d="M481.84,142.96l-0.09-0.09c-2.72-2.9-5.47-2.94-8.25-0.32c-2.74,2.57-2.84,5.25-0.05,8.21
				c2.72,2.9,5.47,3.03,8.2,0.46C484.43,148.6,484.63,145.93,481.84,142.96z"/>
		</g>
		<g>
			<path class="st1" d="M529.43,142.96l-0.09-0.09c-2.72-2.9-5.47-2.94-8.25-0.32c-2.74,2.57-2.84,5.25-0.05,8.21
				c2.72,2.9,5.47,3.03,8.2,0.46C532.02,148.6,532.22,145.93,529.43,142.96z"/>
		</g>
	</g>
	<g>
		<g>
			<path class="st1" d="M346.53,158.59h-0.13c-3.98,0-5.89,1.97-5.89,5.79c0,3.75,1.88,5.66,5.95,5.66c3.98,0,5.95-1.91,5.95-5.66
				C352.42,160.57,350.6,158.59,346.53,158.59z"/>
		</g>
		<g>
			<path class="st1" d="M370.33,158.59h-0.13c-3.98,0-5.89,1.97-5.89,5.79c0,3.75,1.88,5.66,5.95,5.66c3.98,0,5.95-1.91,5.95-5.66
				C376.21,160.57,374.4,158.59,370.33,158.59z"/>
		</g>
		<g>
			<path class="st1" d="M417.92,158.59h-0.13c-3.98,0-5.89,1.97-5.89,5.79c0,3.75,1.88,5.66,5.95,5.66c3.98,0,5.95-1.91,5.95-5.66
				C423.81,160.57,422,158.59,417.92,158.59z"/>
		</g>
		<g>
			<path class="st1" d="M441.72,158.59h-0.13c-3.98,0-5.89,1.97-5.89,5.79c0,3.75,1.88,5.66,5.95,5.66c3.98,0,5.95-1.91,5.95-5.66
				C447.61,160.57,445.79,158.59,441.72,158.59z"/>
		</g>
		<g>
			<path class="st1" d="M338.79,178.17l-0.09-0.09c-2.72-2.9-5.47-2.94-8.25-0.32c-2.74,2.57-2.84,5.25-0.05,8.21
				c2.72,2.9,5.47,3.03,8.2,0.46C341.38,183.81,341.58,181.13,338.79,178.17z"/>
		</g>
		<g>
			<path class="st1" d="M386.92,178.17l-0.09-0.09c-2.72-2.9-5.47-2.94-8.25-0.32c-2.74,2.57-2.84,5.25-0.05,8.21
				c2.72,2.9,5.47,3.03,8.2,0.46C389.51,183.81,389.71,181.13,386.92,178.17z"/>
		</g>
		<g>
			<path class="st1" d="M410.45,178.17l-0.09-0.09c-2.72-2.9-5.47-2.94-8.25-0.32c-2.74,2.57-2.84,5.25-0.05,8.21
				c2.72,2.9,5.47,3.03,8.2,0.46C413.04,183.81,413.24,181.13,410.45,178.17z"/>
		</g>
		<g>
			<path class="st1" d="M457.5,178.17l-0.09-0.09c-2.72-2.9-5.47-2.94-8.25-0.32c-2.74,2.57-2.84,5.25-0.05,8.21
				c2.72,2.9,5.47,3.03,8.2,0.46C460.09,183.81,460.29,181.13,457.5,178.17z"/>
		</g>
		<g>
			<path class="st1" d="M227.01,158.59h-0.13c-3.98,0-5.89,1.97-5.89,5.79c0,3.75,1.88,5.66,5.95,5.66c3.98,0,5.95-1.91,5.95-5.66
				C232.9,160.57,231.09,158.59,227.01,158.59z"/>
		</g>
		<g>
			<path class="st1" d="M251.23,160.25l-0.09,0c-2.82,0-4.18,1.4-4.18,4.11c0,2.66,1.33,4.02,4.22,4.02c2.82,0,4.22-1.35,4.22-4.02
				C255.41,161.65,254.12,160.25,251.23,160.25z"/>
		</g>
		<g>
			<path class="st1" d="M322.05,160.25l-0.09,0c-2.82,0-4.18,1.4-4.18,4.11c0,2.66,1.33,4.02,4.22,4.02c2.82,0,4.22-1.35,4.22-4.02
				C326.23,161.65,324.94,160.25,322.05,160.25z"/>
		</g>
		<g>
			<path class="st1" d="M394.69,160.25l-0.09,0c-2.82,0-4.18,1.4-4.18,4.11c0,2.66,1.33,4.02,4.22,4.02c2.82,0,4.22-1.35,4.22-4.02
				C398.87,161.65,397.58,160.25,394.69,160.25z"/>
		</g>
		<g>
			<path class="st1" d="M290.26,179.39l-0.06-0.07c-1.87-2.12-3.81-2.21-5.85-0.41c-2,1.76-2.13,3.66-0.22,5.83
				c1.87,2.12,3.81,2.27,5.81,0.51C291.97,183.45,292.17,181.56,290.26,179.39z"/>
		</g>
		<g>
			<path class="st1" d="M361.72,179.39l-0.06-0.07c-1.87-2.12-3.81-2.21-5.85-0.41c-2,1.76-2.13,3.66-0.22,5.83
				c1.87,2.12,3.81,2.27,5.81,0.51C363.43,183.45,363.63,181.56,361.72,179.39z"/>
		</g>
		<g>
			<path class="st1" d="M432.5,179.39l-0.06-0.07c-1.87-2.12-3.81-2.21-5.85-0.41c-2,1.76-2.13,3.66-0.22,5.83
				c1.87,2.12,3.81,2.27,5.81,0.51C434.21,183.45,434.41,181.56,432.5,179.39z"/>
		</g>
		<g>
			<path class="st1" d="M274.61,158.59h-0.13c-3.98,0-5.89,1.97-5.89,5.79c0,3.75,1.88,5.66,5.95,5.66c3.98,0,5.95-1.91,5.95-5.66
				C280.49,160.57,278.68,158.59,274.61,158.59z"/>
		</g>
		<g>
			<path class="st1" d="M298.4,158.59h-0.13c-3.98,0-5.89,1.97-5.89,5.79c0,3.75,1.88,5.66,5.95,5.66c3.98,0,5.95-1.91,5.95-5.66
				C304.29,160.57,302.48,158.59,298.4,158.59z"/>
		</g>
		<g>
			<path class="st1" d="M243.06,178.17l-0.09-0.09c-2.72-2.9-5.47-2.94-8.25-0.32c-2.74,2.57-2.84,5.25-0.05,8.21
				c2.72,2.9,5.47,3.03,8.2,0.46C245.66,183.81,245.85,181.13,243.06,178.17z"/>
		</g>
		<g>
			<path class="st1" d="M267.13,178.17l-0.09-0.09c-2.72-2.9-5.47-2.94-8.25-0.32c-2.74,2.57-2.84,5.25-0.05,8.21
				c2.72,2.9,5.47,3.03,8.2,0.46C269.72,183.81,269.92,181.13,267.13,178.17z"/>
		</g>
		<g>
			<path class="st1" d="M314.73,178.17l-0.09-0.09c-2.72-2.9-5.47-2.94-8.25-0.32c-2.74,2.57-2.84,5.25-0.05,8.21
				c2.72,2.9,5.47,3.03,8.2,0.46C317.32,183.81,317.51,181.13,314.73,178.17z"/>
		</g>
	</g>
	<g>
		<g>
			<path class="st1" d="M775.3,86.79l-0.13,0c-3.98,0-5.89,1.97-5.89,5.79c0,3.75,1.88,5.66,5.95,5.66c3.98,0,5.95-1.91,5.95-5.66
				C781.18,88.76,779.37,86.79,775.3,86.79z"/>
		</g>
		<g>
			<path class="st1" d="M799.09,86.79l-0.13,0c-3.98,0-5.89,1.97-5.89,5.79c0,3.75,1.88,5.66,5.95,5.66c3.98,0,5.95-1.91,5.95-5.66
				C804.98,88.76,803.17,86.79,799.09,86.79z"/>
		</g>
		<g>
			<path class="st1" d="M846.69,86.79l-0.13,0c-3.98,0-5.89,1.97-5.89,5.79c0,3.75,1.88,5.66,5.95,5.66c3.98,0,5.95-1.91,5.95-5.66
				C852.57,88.76,850.76,86.79,846.69,86.79z"/>
		</g>
		<g>
			<path class="st1" d="M870.48,86.79l-0.13,0c-3.98,0-5.89,1.97-5.89,5.79c0,3.75,1.88,5.66,5.95,5.66c3.98,0,5.95-1.91,5.95-5.66
				C876.37,88.76,874.56,86.79,870.48,86.79z"/>
		</g>
		<g>
			<path class="st1" d="M767.55,106.36l-0.09-0.09c-2.72-2.9-5.47-2.94-8.25-0.32c-2.74,2.57-2.84,5.25-0.05,8.21
				c2.72,2.9,5.47,3.03,8.2,0.46C770.14,112,770.34,109.33,767.55,106.36z"/>
		</g>
		<g>
			<path class="st1" d="M815.68,106.36l-0.09-0.09c-2.72-2.9-5.47-2.94-8.25-0.32c-2.74,2.57-2.84,5.25-0.05,8.21
				c2.72,2.9,5.47,3.03,8.2,0.46C818.28,112,818.47,109.33,815.68,106.36z"/>
		</g>
		<g>
			<path class="st1" d="M839.21,106.36l-0.09-0.09c-2.72-2.9-5.47-2.94-8.25-0.32c-2.74,2.57-2.84,5.25-0.05,8.21
				c2.72,2.9,5.47,3.03,8.2,0.46C841.8,112,842,109.33,839.21,106.36z"/>
		</g>
		<g>
			<path class="st1" d="M886.27,106.36l-0.09-0.09c-2.72-2.9-5.47-2.94-8.25-0.32c-2.74,2.57-2.84,5.25-0.05,8.21
				c2.72,2.9,5.47,3.03,8.2,0.46C888.86,112,889.05,109.33,886.27,106.36z"/>
		</g>
		<g>
			<path class="st1" d="M680,88.45l-0.09,0c-2.82,0-4.18,1.4-4.18,4.11c0,2.66,1.33,4.02,4.22,4.02c2.82,0,4.22-1.35,4.22-4.02
				C684.17,89.85,682.89,88.45,680,88.45z"/>
		</g>
		<g>
			<path class="st1" d="M750.82,88.45l-0.09,0c-2.82,0-4.18,1.4-4.18,4.11c0,2.66,1.33,4.02,4.22,4.02c2.82,0,4.22-1.35,4.22-4.02
				C755,89.85,753.71,88.45,750.82,88.45z"/>
		</g>
		<g>
			<path class="st1" d="M823.46,88.45l-0.09,0c-2.82,0-4.18,1.4-4.18,4.11c0,2.66,1.33,4.02,4.22,4.02c2.82,0,4.22-1.35,4.22-4.02
				C827.64,89.85,826.35,88.45,823.46,88.45z"/>
		</g>
		<g>
			<path class="st1" d="M719.02,107.59l-0.06-0.07c-1.87-2.12-3.81-2.21-5.85-0.41c-2,1.76-2.13,3.66-0.22,5.83
				c1.87,2.12,3.81,2.27,5.81,0.51C720.73,111.65,720.93,109.76,719.02,107.59z"/>
		</g>
		<g>
			<path class="st1" d="M790.48,107.59l-0.06-0.07c-1.87-2.12-3.81-2.21-5.85-0.41c-2,1.76-2.13,3.66-0.22,5.83
				c1.87,2.12,3.81,2.27,5.81,0.51C792.2,111.65,792.39,109.76,790.48,107.59z"/>
		</g>
		<g>
			<path class="st1" d="M861.26,107.59l-0.06-0.07c-1.87-2.12-3.81-2.21-5.85-0.41c-2,1.76-2.13,3.66-0.22,5.83
				c1.87,2.12,3.81,2.27,5.81,0.51C862.98,111.65,863.18,109.76,861.26,107.59z"/>
		</g>
		<g>
			<path class="st1" d="M703.37,86.79l-0.13,0c-3.98,0-5.89,1.97-5.89,5.79c0,3.75,1.88,5.66,5.95,5.66c3.98,0,5.95-1.91,5.95-5.66
				C709.26,88.76,707.44,86.79,703.37,86.79z"/>
		</g>
		<g>
			<path class="st1" d="M727.17,86.79l-0.13,0c-3.98,0-5.89,1.97-5.89,5.79c0,3.75,1.88,5.66,5.95,5.66c3.98,0,5.95-1.91,5.95-5.66
				C733.05,88.76,731.24,86.79,727.17,86.79z"/>
		</g>
		<g>
			<path class="st1" d="M695.9,106.36l-0.09-0.09c-2.72-2.9-5.47-2.94-8.25-0.32c-2.74,2.57-2.84,5.25-0.05,8.21
				c2.72,2.9,5.47,3.03,8.2,0.46C698.49,112,698.68,109.33,695.9,106.36z"/>
		</g>
		<g>
			<path class="st1" d="M743.49,106.36l-0.09-0.09c-2.72-2.9-5.47-2.94-8.25-0.32c-2.74,2.57-2.84,5.25-0.05,8.21
				c2.72,2.9,5.47,3.03,8.2,0.46C746.08,112,746.28,109.33,743.49,106.36z"/>
		</g>
	</g>
	<g>
		<g>
			<path class="st1" d="M775.3,123.39l-0.13,0c-3.98,0-5.89,1.97-5.89,5.79c0,3.75,1.88,5.66,5.95,5.66c3.98,0,5.95-1.91,5.95-5.66
				C781.18,125.36,779.37,123.39,775.3,123.39z"/>
		</g>
		<g>
			<path class="st1" d="M799.09,123.39l-0.13,0c-3.98,0-5.89,1.97-5.89,5.79c0,3.75,1.88,5.66,5.95,5.66c3.98,0,5.95-1.91,5.95-5.66
				C804.98,125.36,803.17,123.39,799.09,123.39z"/>
		</g>
		<g>
			<path class="st1" d="M846.69,123.39l-0.13,0c-3.98,0-5.89,1.97-5.89,5.79c0,3.75,1.88,5.66,5.95,5.66c3.98,0,5.95-1.91,5.95-5.66
				C852.57,125.36,850.76,123.39,846.69,123.39z"/>
		</g>
		<g>
			<path class="st1" d="M870.48,123.39l-0.13,0c-3.98,0-5.89,1.97-5.89,5.79c0,3.75,1.88,5.66,5.95,5.66c3.98,0,5.95-1.91,5.95-5.66
				C876.37,125.36,874.56,123.39,870.48,123.39z"/>
		</g>
		<g>
			<path class="st1" d="M767.55,142.96l-0.09-0.09c-2.72-2.9-5.47-2.94-8.25-0.32c-2.74,2.57-2.84,5.25-0.05,8.21
				c2.72,2.9,5.47,3.03,8.2,0.46C770.14,148.6,770.34,145.93,767.55,142.96z"/>
		</g>
		<g>
			<path class="st1" d="M815.68,142.96l-0.09-0.09c-2.72-2.9-5.47-2.94-8.25-0.32c-2.74,2.57-2.84,5.25-0.05,8.21
				c2.72,2.9,5.47,3.03,8.2,0.46C818.28,148.6,818.47,145.93,815.68,142.96z"/>
		</g>
		<g>
			<path class="st1" d="M839.21,142.96l-0.09-0.09c-2.72-2.9-5.47-2.94-8.25-0.32c-2.74,2.57-2.84,5.25-0.05,8.21
				c2.72,2.9,5.47,3.03,8.2,0.46C841.8,148.6,842,145.93,839.21,142.96z"/>
		</g>
		<g>
			<path class="st1" d="M886.27,142.96l-0.09-0.09c-2.72-2.9-5.47-2.94-8.25-0.32c-2.74,2.57-2.84,5.25-0.05,8.21
				c2.72,2.9,5.47,3.03,8.2,0.46C888.86,148.6,889.05,145.93,886.27,142.96z"/>
		</g>
		<g>
			<path class="st1" d="M680,125.05l-0.09,0c-2.82,0-4.18,1.4-4.18,4.11c0,2.66,1.33,4.02,4.22,4.02c2.82,0,4.22-1.35,4.22-4.02
				C684.17,126.45,682.89,125.05,680,125.05z"/>
		</g>
		<g>
			<path class="st1" d="M750.82,125.05l-0.09,0c-2.82,0-4.18,1.4-4.18,4.11c0,2.66,1.33,4.02,4.22,4.02c2.82,0,4.22-1.35,4.22-4.02
				C755,126.45,753.71,125.05,750.82,125.05z"/>
		</g>
		<g>
			<path class="st1" d="M823.46,125.05l-0.09,0c-2.82,0-4.18,1.4-4.18,4.11c0,2.66,1.33,4.02,4.22,4.02c2.82,0,4.22-1.35,4.22-4.02
				C827.64,126.45,826.35,125.05,823.46,125.05z"/>
		</g>
		<g>
			<path class="st1" d="M719.02,144.19l-0.06-0.07c-1.87-2.12-3.81-2.21-5.85-0.41c-2,1.76-2.13,3.66-0.22,5.83
				c1.87,2.12,3.81,2.27,5.81,0.51C720.73,148.25,720.93,146.36,719.02,144.19z"/>
		</g>
		<g>
			<path class="st1" d="M790.48,144.19l-0.06-0.07c-1.87-2.12-3.81-2.21-5.85-0.41c-2,1.76-2.13,3.66-0.22,5.83
				c1.87,2.12,3.81,2.27,5.81,0.51C792.2,148.25,792.39,146.36,790.48,144.19z"/>
		</g>
		<g>
			<path class="st1" d="M861.26,144.19l-0.06-0.07c-1.87-2.12-3.81-2.21-5.85-0.41c-2,1.76-2.13,3.66-0.22,5.83
				c1.87,2.12,3.81,2.27,5.81,0.51C862.98,148.25,863.18,146.36,861.26,144.19z"/>
		</g>
		<g>
			<path class="st1" d="M703.37,123.39l-0.13,0c-3.98,0-5.89,1.97-5.89,5.79c0,3.75,1.88,5.66,5.95,5.66c3.98,0,5.95-1.91,5.95-5.66
				C709.26,125.36,707.44,123.39,703.37,123.39z"/>
		</g>
		<g>
			<path class="st1" d="M727.17,123.39l-0.13,0c-3.98,0-5.89,1.97-5.89,5.79c0,3.75,1.88,5.66,5.95,5.66c3.98,0,5.95-1.91,5.95-5.66
				C733.05,125.36,731.24,123.39,727.17,123.39z"/>
		</g>
		<g>
			<path class="st1" d="M695.9,142.96l-0.09-0.09c-2.72-2.9-5.47-2.94-8.25-0.32c-2.74,2.57-2.84,5.25-0.05,8.21
				c2.72,2.9,5.47,3.03,8.2,0.46C698.49,148.6,698.68,145.93,695.9,142.96z"/>
		</g>
		<g>
			<path class="st1" d="M743.49,142.96l-0.09-0.09c-2.72-2.9-5.47-2.94-8.25-0.32c-2.74,2.57-2.84,5.25-0.05,8.21
				c2.72,2.9,5.47,3.03,8.2,0.46C746.08,148.6,746.28,145.93,743.49,142.96z"/>
		</g>
	</g>
	<g>
		<g>
			<path class="st1" d="M775.3,158.59h-0.13c-3.98,0-5.89,1.97-5.89,5.79c0,3.75,1.88,5.66,5.95,5.66c3.98,0,5.95-1.91,5.95-5.66
				C781.18,160.57,779.37,158.59,775.3,158.59z"/>
		</g>
		<g>
			<path class="st1" d="M799.09,158.59h-0.13c-3.98,0-5.89,1.97-5.89,5.79c0,3.75,1.88,5.66,5.95,5.66c3.98,0,5.95-1.91,5.95-5.66
				C804.98,160.57,803.17,158.59,799.09,158.59z"/>
		</g>
		<g>
			<path class="st1" d="M846.69,158.59h-0.13c-3.98,0-5.89,1.97-5.89,5.79c0,3.75,1.88,5.66,5.95,5.66c3.98,0,5.95-1.91,5.95-5.66
				C852.57,160.57,850.76,158.59,846.69,158.59z"/>
		</g>
		<g>
			<path class="st1" d="M870.48,158.59h-0.13c-3.98,0-5.89,1.97-5.89,5.79c0,3.75,1.88,5.66,5.95,5.66c3.98,0,5.95-1.91,5.95-5.66
				C876.37,160.57,874.56,158.59,870.48,158.59z"/>
		</g>
		<g>
			<path class="st1" d="M767.55,178.17l-0.09-0.09c-2.72-2.9-5.47-2.94-8.25-0.32c-2.74,2.57-2.84,5.25-0.05,8.21
				c2.72,2.9,5.47,3.03,8.2,0.46C770.14,183.81,770.34,181.13,767.55,178.17z"/>
		</g>
		<g>
			<path class="st1" d="M815.68,178.17l-0.09-0.09c-2.72-2.9-5.47-2.94-8.25-0.32c-2.74,2.57-2.84,5.25-0.05,8.21
				c2.72,2.9,5.47,3.03,8.2,0.46C818.28,183.81,818.47,181.13,815.68,178.17z"/>
		</g>
		<g>
			<path class="st1" d="M839.21,178.17l-0.09-0.09c-2.72-2.9-5.47-2.94-8.25-0.32c-2.74,2.57-2.84,5.25-0.05,8.21
				c2.72,2.9,5.47,3.03,8.2,0.46C841.8,183.81,842,181.13,839.21,178.17z"/>
		</g>
		<g>
			<path class="st1" d="M886.27,178.17l-0.09-0.09c-2.72-2.9-5.47-2.94-8.25-0.32c-2.74,2.57-2.84,5.25-0.05,8.21
				c2.72,2.9,5.47,3.03,8.2,0.46C888.86,183.81,889.05,181.13,886.27,178.17z"/>
		</g>
		<g>
			<path class="st1" d="M680,160.25l-0.09,0c-2.82,0-4.18,1.4-4.18,4.11c0,2.66,1.33,4.02,4.22,4.02c2.82,0,4.22-1.35,4.22-4.02
				C684.17,161.65,682.89,160.25,680,160.25z"/>
		</g>
		<g>
			<path class="st1" d="M750.82,160.25l-0.09,0c-2.82,0-4.18,1.4-4.18,4.11c0,2.66,1.33,4.02,4.22,4.02c2.82,0,4.22-1.35,4.22-4.02
				C755,161.65,753.71,160.25,750.82,160.25z"/>
		</g>
		<g>
			<path class="st1" d="M823.46,160.25l-0.09,0c-2.82,0-4.18,1.4-4.18,4.11c0,2.66,1.33,4.02,4.22,4.02c2.82,0,4.22-1.35,4.22-4.02
				C827.64,161.65,826.35,160.25,823.46,160.25z"/>
		</g>
		<g>
			<path class="st1" d="M719.02,179.39l-0.06-0.07c-1.87-2.12-3.81-2.21-5.85-0.41c-2,1.76-2.13,3.66-0.22,5.83
				c1.87,2.12,3.81,2.27,5.81,0.51C720.73,183.45,720.93,181.56,719.02,179.39z"/>
		</g>
		<g>
			<path class="st1" d="M790.48,179.39l-0.06-0.07c-1.87-2.12-3.81-2.21-5.85-0.41c-2,1.76-2.13,3.66-0.22,5.83
				c1.87,2.12,3.81,2.27,5.81,0.51C792.2,183.45,792.39,181.56,790.48,179.39z"/>
		</g>
		<g>
			<path class="st1" d="M861.26,179.39l-0.06-0.07c-1.87-2.12-3.81-2.21-5.85-0.41c-2,1.76-2.13,3.66-0.22,5.83
				c1.87,2.12,3.81,2.27,5.81,0.51C862.98,183.45,863.18,181.56,861.26,179.39z"/>
		</g>
		<g>
			<path class="st1" d="M703.37,158.59h-0.13c-3.98,0-5.89,1.97-5.89,5.79c0,3.75,1.88,5.66,5.95,5.66c3.98,0,5.95-1.91,5.95-5.66
				C709.26,160.57,707.44,158.59,703.37,158.59z"/>
		</g>
		<g>
			<path class="st1" d="M727.17,158.59h-0.13c-3.98,0-5.89,1.97-5.89,5.79c0,3.75,1.88,5.66,5.95,5.66c3.98,0,5.95-1.91,5.95-5.66
				C733.05,160.57,731.24,158.59,727.17,158.59z"/>
		</g>
		<g>
			<path class="st1" d="M695.9,178.17l-0.09-0.09c-2.72-2.9-5.47-2.94-8.25-0.32c-2.74,2.57-2.84,5.25-0.05,8.21
				c2.72,2.9,5.47,3.03,8.2,0.46C698.49,183.81,698.68,181.13,695.9,178.17z"/>
		</g>
		<g>
			<path class="st1" d="M743.49,178.17l-0.09-0.09c-2.72-2.9-5.47-2.94-8.25-0.32c-2.74,2.57-2.84,5.25-0.05,8.21
				c2.72,2.9,5.47,3.03,8.2,0.46C746.08,183.81,746.28,181.13,743.49,178.17z"/>
		</g>
	</g>
	<g>
		<g>
			<path class="st1" d="M121.43,188.25h0.13c3.98,0,5.89-1.97,5.89-5.79c0-3.75-1.88-5.66-5.95-5.66c-3.98,0-5.95,1.91-5.95,5.66
				C115.55,186.28,117.36,188.25,121.43,188.25z"/>
		</g>
		<g>
			<path class="st1" d="M97.63,188.25h0.13c3.98,0,5.89-1.97,5.89-5.79c0-3.75-1.88-5.66-5.95-5.66c-3.98,0-5.95,1.91-5.95,5.66
				C91.75,186.28,93.56,188.25,97.63,188.25z"/>
		</g>
		<g>
			<path class="st1" d="M50.04,188.25h0.13c3.98,0,5.89-1.97,5.89-5.79c0-3.75-1.88-5.66-5.95-5.66c-3.98,0-5.95,1.91-5.95,5.66
				C44.15,186.28,45.97,188.25,50.04,188.25z"/>
		</g>
		<g>
			<path class="st1" d="M26.24,188.25h0.13c3.98,0,5.89-1.97,5.89-5.79c0-3.75-1.88-5.66-5.95-5.66c-3.98,0-5.95,1.91-5.95,5.66
				C20.36,186.28,22.17,188.25,26.24,188.25z"/>
		</g>
		<g>
			<path class="st1" d="M129.18,168.67l0.09,0.09c2.72,2.9,5.47,2.94,8.25,0.32c2.74-2.57,2.84-5.25,0.05-8.21
				c-2.72-2.9-5.47-3.03-8.2-0.46C126.58,163.03,126.39,165.71,129.18,168.67z"/>
		</g>
		<g>
			<path class="st1" d="M81.04,168.67l0.09,0.09c2.72,2.9,5.47,2.94,8.25,0.32c2.74-2.57,2.84-5.25,0.05-8.21
				c-2.72-2.9-5.47-3.03-8.2-0.46C78.45,163.03,78.26,165.71,81.04,168.67z"/>
		</g>
		<g>
			<path class="st1" d="M57.52,168.67l0.09,0.09c2.72,2.9,5.47,2.94,8.25,0.32c2.74-2.57,2.84-5.25,0.05-8.21
				c-2.72-2.9-5.47-3.03-8.2-0.46C54.92,163.03,54.73,165.71,57.52,168.67z"/>
		</g>
		<g>
			<path class="st1" d="M10.46,168.67l0.09,0.09c2.72,2.9,5.47,2.94,8.25,0.32c2.74-2.57,2.84-5.25,0.05-8.21
				c-2.72-2.9-5.47-3.03-8.2-0.46C7.87,163.03,7.67,165.71,10.46,168.67z"/>
		</g>
		<g>
			<path class="st1" d="M216.73,186.59h0.09c2.82,0,4.18-1.4,4.18-4.11c0-2.66-1.33-4.02-4.22-4.02c-2.82,0-4.22,1.35-4.22,4.02
				C212.55,185.19,213.84,186.59,216.73,186.59z"/>
		</g>
		<g>
			<path class="st1" d="M145.91,186.59H146c2.82,0,4.18-1.4,4.18-4.11c0-2.66-1.33-4.02-4.22-4.02c-2.82,0-4.22,1.35-4.22,4.02
				C141.73,185.19,143.02,186.59,145.91,186.59z"/>
		</g>
		<g>
			<path class="st1" d="M73.27,186.59h0.09c2.82,0,4.18-1.4,4.18-4.11c0-2.66-1.33-4.02-4.22-4.02c-2.82,0-4.22,1.35-4.22,4.02
				C69.09,185.19,70.38,186.59,73.27,186.59z"/>
		</g>
		<g>
			<path class="st1" d="M177.71,167.45l0.06,0.07c1.87,2.12,3.81,2.21,5.85,0.41c2-1.76,2.13-3.66,0.22-5.83
				c-1.87-2.12-3.81-2.27-5.81-0.51C175.99,163.39,175.8,165.28,177.71,167.45z"/>
		</g>
		<g>
			<path class="st1" d="M106.25,167.45l0.06,0.07c1.87,2.12,3.81,2.21,5.85,0.41c2-1.76,2.13-3.66,0.22-5.83
				c-1.87-2.12-3.81-2.27-5.81-0.51C104.53,163.39,104.33,165.28,106.25,167.45z"/>
		</g>
		<g>
			<path class="st1" d="M35.46,167.45l0.06,0.07c1.87,2.12,3.81,2.21,5.85,0.41c2-1.76,2.13-3.66,0.22-5.83
				c-1.87-2.12-3.81-2.27-5.81-0.51C33.75,163.39,33.55,165.28,35.46,167.45z"/>
		</g>
		<g>
			<path class="st1" d="M193.36,188.25h0.13c3.98,0,5.89-1.97,5.89-5.79c0-3.75-1.88-5.66-5.95-5.66c-3.98,0-5.95,1.91-5.95,5.66
				C187.47,186.28,189.28,188.25,193.36,188.25z"/>
		</g>
		<g>
			<path class="st1" d="M169.56,188.25h0.13c3.98,0,5.89-1.97,5.89-5.79c0-3.75-1.88-5.66-5.95-5.66c-3.98,0-5.95,1.91-5.95,5.66
				C163.67,186.28,165.49,188.25,169.56,188.25z"/>
		</g>
		<g>
			<path class="st1" d="M200.83,168.67l0.09,0.09c2.72,2.9,5.47,2.94,8.25,0.32c2.74-2.57,2.84-5.25,0.05-8.21
				c-2.72-2.9-5.47-3.03-8.2-0.46C198.24,163.03,198.04,165.71,200.83,168.67z"/>
		</g>
		<g>
			<path class="st1" d="M153.24,168.67l0.09,0.09c2.72,2.9,5.47,2.94,8.25,0.32c2.74-2.57,2.84-5.25,0.05-8.21
				c-2.72-2.9-5.47-3.03-8.2-0.46C150.64,163.03,150.45,165.71,153.24,168.67z"/>
		</g>
	</g>
	<g>
		<g>
			<path class="st1" d="M121.43,151.65l0.13,0c3.98,0,5.89-1.97,5.89-5.79c0-3.75-1.88-5.66-5.95-5.66c-3.98,0-5.95,1.91-5.95,5.66
				C115.55,149.68,117.36,151.65,121.43,151.65z"/>
		</g>
		<g>
			<path class="st1" d="M97.63,151.65l0.13,0c3.98,0,5.89-1.97,5.89-5.79c0-3.75-1.88-5.66-5.95-5.66c-3.98,0-5.95,1.91-5.95,5.66
				C91.75,149.68,93.56,151.65,97.63,151.65z"/>
		</g>
		<g>
			<path class="st1" d="M50.04,151.65l0.13,0c3.98,0,5.89-1.97,5.89-5.79c0-3.75-1.88-5.66-5.95-5.66c-3.98,0-5.95,1.91-5.95,5.66
				C44.15,149.68,45.97,151.65,50.04,151.65z"/>
		</g>
		<g>
			<path class="st1" d="M26.24,151.65l0.13,0c3.98,0,5.89-1.97,5.89-5.79c0-3.75-1.88-5.66-5.95-5.66c-3.98,0-5.95,1.91-5.95,5.66
				C20.36,149.68,22.17,151.65,26.24,151.65z"/>
		</g>
		<g>
			<path class="st1" d="M129.18,132.07l0.09,0.09c2.72,2.9,5.47,2.94,8.25,0.32c2.74-2.57,2.84-5.25,0.05-8.21
				c-2.72-2.9-5.47-3.03-8.2-0.46C126.58,126.44,126.39,129.11,129.18,132.07z"/>
		</g>
		<g>
			<path class="st1" d="M81.04,132.07l0.09,0.09c2.72,2.9,5.47,2.94,8.25,0.32c2.74-2.57,2.84-5.25,0.05-8.21
				c-2.72-2.9-5.47-3.03-8.2-0.46C78.45,126.44,78.26,129.11,81.04,132.07z"/>
		</g>
		<g>
			<path class="st1" d="M57.52,132.07l0.09,0.09c2.72,2.9,5.47,2.94,8.25,0.32c2.74-2.57,2.84-5.25,0.05-8.21
				c-2.72-2.9-5.47-3.03-8.2-0.46C54.92,126.44,54.73,129.11,57.52,132.07z"/>
		</g>
		<g>
			<path class="st1" d="M10.46,132.07l0.09,0.09c2.72,2.9,5.47,2.94,8.25,0.32c2.74-2.57,2.84-5.25,0.05-8.21
				c-2.72-2.9-5.47-3.03-8.2-0.46C7.87,126.44,7.67,129.11,10.46,132.07z"/>
		</g>
		<g>
			<path class="st1" d="M216.73,149.99l0.09,0c2.82,0,4.18-1.4,4.18-4.11c0-2.66-1.33-4.02-4.22-4.02c-2.82,0-4.22,1.35-4.22,4.02
				C212.55,148.59,213.84,149.99,216.73,149.99z"/>
		</g>
		<g>
			<path class="st1" d="M145.91,149.99l0.09,0c2.82,0,4.18-1.4,4.18-4.11c0-2.66-1.33-4.02-4.22-4.02c-2.82,0-4.22,1.35-4.22,4.02
				C141.73,148.59,143.02,149.99,145.91,149.99z"/>
		</g>
		<g>
			<path class="st1" d="M73.27,149.99l0.09,0c2.82,0,4.18-1.4,4.18-4.11c0-2.66-1.33-4.02-4.22-4.02c-2.82,0-4.22,1.35-4.22,4.02
				C69.09,148.59,70.38,149.99,73.27,149.99z"/>
		</g>
		<g>
			<path class="st1" d="M177.71,130.85l0.06,0.07c1.87,2.12,3.81,2.21,5.85,0.41c2-1.76,2.13-3.66,0.22-5.83
				c-1.87-2.12-3.81-2.27-5.81-0.51C175.99,126.79,175.8,128.68,177.71,130.85z"/>
		</g>
		<g>
			<path class="st1" d="M106.25,130.85l0.06,0.07c1.87,2.12,3.81,2.21,5.85,0.41c2-1.76,2.13-3.66,0.22-5.83
				c-1.87-2.12-3.81-2.27-5.81-0.51C104.53,126.79,104.33,128.68,106.25,130.85z"/>
		</g>
		<g>
			<path class="st1" d="M35.46,130.85l0.06,0.07c1.87,2.12,3.81,2.21,5.85,0.41c2-1.76,2.13-3.66,0.22-5.83
				c-1.87-2.12-3.81-2.27-5.81-0.51C33.75,126.79,33.55,128.68,35.46,130.85z"/>
		</g>
		<g>
			<path class="st1" d="M193.36,151.65l0.13,0c3.98,0,5.89-1.97,5.89-5.79c0-3.75-1.88-5.66-5.95-5.66c-3.98,0-5.95,1.91-5.95,5.66
				C187.47,149.68,189.28,151.65,193.36,151.65z"/>
		</g>
		<g>
			<path class="st1" d="M169.56,151.65l0.13,0c3.98,0,5.89-1.97,5.89-5.79c0-3.75-1.88-5.66-5.95-5.66c-3.98,0-5.95,1.91-5.95,5.66
				C163.67,149.68,165.49,151.65,169.56,151.65z"/>
		</g>
		<g>
			<path class="st1" d="M200.83,132.07l0.09,0.09c2.72,2.9,5.47,2.94,8.25,0.32c2.74-2.57,2.84-5.25,0.05-8.21
				c-2.72-2.9-5.47-3.03-8.2-0.46C198.24,126.44,198.04,129.11,200.83,132.07z"/>
		</g>
		<g>
			<path class="st1" d="M153.24,132.07l0.09,0.09c2.72,2.9,5.47,2.94,8.25,0.32c2.74-2.57,2.84-5.25,0.05-8.21
				c-2.72-2.9-5.47-3.03-8.2-0.46C150.64,126.44,150.45,129.11,153.24,132.07z"/>
		</g>
	</g>
	<g>
		<g>
			<path class="st1" d="M121.43,116.45l0.13,0c3.98,0,5.89-1.97,5.89-5.79c0-3.75-1.88-5.66-5.95-5.66c-3.98,0-5.95,1.91-5.95,5.66
				C115.55,114.47,117.36,116.45,121.43,116.45z"/>
		</g>
		<g>
			<path class="st1" d="M97.63,116.45l0.13,0c3.98,0,5.89-1.97,5.89-5.79c0-3.75-1.88-5.66-5.95-5.66c-3.98,0-5.95,1.91-5.95,5.66
				C91.75,114.47,93.56,116.45,97.63,116.45z"/>
		</g>
		<g>
			<path class="st1" d="M50.04,116.45l0.13,0c3.98,0,5.89-1.97,5.89-5.79c0-3.75-1.88-5.66-5.95-5.66c-3.98,0-5.95,1.91-5.95,5.66
				C44.15,114.47,45.97,116.45,50.04,116.45z"/>
		</g>
		<g>
			<path class="st1" d="M26.24,116.45l0.13,0c3.98,0,5.89-1.97,5.89-5.79c0-3.75-1.88-5.66-5.95-5.66c-3.98,0-5.95,1.91-5.95,5.66
				C20.36,114.47,22.17,116.45,26.24,116.45z"/>
		</g>
		<g>
			<path class="st1" d="M129.18,96.87l0.09,0.09c2.72,2.9,5.47,2.94,8.25,0.32c2.74-2.57,2.84-5.25,0.05-8.21
				c-2.72-2.9-5.47-3.03-8.2-0.46C126.58,91.23,126.39,93.9,129.18,96.87z"/>
		</g>
		<g>
			<path class="st1" d="M81.04,96.87l0.09,0.09c2.72,2.9,5.47,2.94,8.25,0.32c2.74-2.57,2.84-5.25,0.05-8.21
				c-2.72-2.9-5.47-3.03-8.2-0.46C78.45,91.23,78.26,93.9,81.04,96.87z"/>
		</g>
		<g>
			<path class="st1" d="M57.52,96.87l0.09,0.09c2.72,2.9,5.47,2.94,8.25,0.32c2.74-2.57,2.84-5.25,0.05-8.21
				c-2.72-2.9-5.47-3.03-8.2-0.46C54.92,91.23,54.73,93.9,57.52,96.87z"/>
		</g>
		<g>
			<path class="st1" d="M10.46,96.87l0.09,0.09c2.72,2.9,5.47,2.94,8.25,0.32c2.74-2.57,2.84-5.25,0.05-8.21
				c-2.72-2.9-5.47-3.03-8.2-0.46C7.87,91.23,7.67,93.9,10.46,96.87z"/>
		</g>
		<g>
			<path class="st1" d="M216.73,114.78l0.09,0c2.82,0,4.18-1.4,4.18-4.11c0-2.66-1.33-4.02-4.22-4.02c-2.82,0-4.22,1.35-4.22,4.02
				C212.55,113.38,213.84,114.78,216.73,114.78z"/>
		</g>
		<g>
			<path class="st1" d="M145.91,114.78l0.09,0c2.82,0,4.18-1.4,4.18-4.11c0-2.66-1.33-4.02-4.22-4.02c-2.82,0-4.22,1.35-4.22,4.02
				C141.73,113.38,143.02,114.78,145.91,114.78z"/>
		</g>
		<g>
			<path class="st1" d="M73.27,114.78l0.09,0c2.82,0,4.18-1.4,4.18-4.11c0-2.66-1.33-4.02-4.22-4.02c-2.82,0-4.22,1.35-4.22,4.02
				C69.09,113.38,70.38,114.78,73.27,114.78z"/>
		</g>
		<g>
			<path class="st1" d="M177.71,95.65l0.06,0.07c1.87,2.12,3.81,2.21,5.85,0.41c2-1.76,2.13-3.66,0.22-5.83
				c-1.87-2.12-3.81-2.27-5.81-0.51C175.99,91.59,175.8,93.48,177.71,95.65z"/>
		</g>
		<g>
			<path class="st1" d="M106.25,95.65l0.06,0.07c1.87,2.12,3.81,2.21,5.85,0.41c2-1.76,2.13-3.66,0.22-5.83
				c-1.87-2.12-3.81-2.27-5.81-0.51C104.53,91.59,104.33,93.48,106.25,95.65z"/>
		</g>
		<g>
			<path class="st1" d="M35.46,95.65l0.06,0.07c1.87,2.12,3.81,2.21,5.85,0.41c2-1.76,2.13-3.66,0.22-5.83
				c-1.87-2.12-3.81-2.27-5.81-0.51C33.75,91.59,33.55,93.48,35.46,95.65z"/>
		</g>
		<g>
			<path class="st1" d="M193.36,116.45l0.13,0c3.98,0,5.89-1.97,5.89-5.79c0-3.75-1.88-5.66-5.95-5.66c-3.98,0-5.95,1.91-5.95,5.66
				C187.47,114.47,189.28,116.45,193.36,116.45z"/>
		</g>
		<g>
			<path class="st1" d="M169.56,116.45l0.13,0c3.98,0,5.89-1.97,5.89-5.79c0-3.75-1.88-5.66-5.95-5.66c-3.98,0-5.95,1.91-5.95,5.66
				C163.67,114.47,165.49,116.45,169.56,116.45z"/>
		</g>
		<g>
			<path class="st1" d="M200.83,96.87l0.09,0.09c2.72,2.9,5.47,2.94,8.25,0.32c2.74-2.57,2.84-5.25,0.05-8.21
				c-2.72-2.9-5.47-3.03-8.2-0.46C198.24,91.23,198.04,93.9,200.83,96.87z"/>
		</g>
		<g>
			<path class="st1" d="M153.24,96.87l0.09,0.09c2.72,2.9,5.47,2.94,8.25,0.32c2.74-2.57,2.84-5.25,0.05-8.21
				c-2.72-2.9-5.47-3.03-8.2-0.46C150.64,91.23,150.45,93.9,153.24,96.87z"/>
		</g>
	</g>
	<g>
		<g>
			<path class="st1" d="M561.24,158.59h-0.13c-3.98,0-5.89,1.97-5.89,5.79c0,3.75,1.88,5.66,5.95,5.66c3.98,0,5.95-1.91,5.95-5.66
				C567.12,160.57,565.31,158.59,561.24,158.59z"/>
		</g>
		<g>
			<path class="st1" d="M585.04,158.59h-0.13c-3.98,0-5.89,1.97-5.89,5.79c0,3.75,1.88,5.66,5.95,5.66c3.98,0,5.95-1.91,5.95-5.66
				C590.92,160.57,589.11,158.59,585.04,158.59z"/>
		</g>
		<g>
			<path class="st1" d="M632.63,158.59h-0.13c-3.98,0-5.89,1.97-5.89,5.79c0,3.75,1.88,5.66,5.95,5.66c3.98,0,5.95-1.91,5.95-5.66
				C638.52,160.57,636.7,158.59,632.63,158.59z"/>
		</g>
		<g>
			<path class="st1" d="M656.43,158.59h-0.13c-3.98,0-5.89,1.97-5.89,5.79c0,3.75,1.88,5.66,5.95,5.66c3.98,0,5.95-1.91,5.95-5.66
				C662.31,160.57,660.5,158.59,656.43,158.59z"/>
		</g>
		<g>
			<path class="st1" d="M553.49,178.17l-0.09-0.09c-2.72-2.9-5.47-2.94-8.25-0.32c-2.74,2.57-2.84,5.25-0.05,8.21
				c2.72,2.9,5.47,3.03,8.2,0.46C556.09,183.81,556.28,181.13,553.49,178.17z"/>
		</g>
		<g>
			<path class="st1" d="M601.63,178.17l-0.09-0.09c-2.72-2.9-5.47-2.94-8.25-0.32c-2.74,2.57-2.84,5.25-0.05,8.21
				c2.72,2.9,5.47,3.03,8.2,0.46C604.22,183.81,604.41,181.13,601.63,178.17z"/>
		</g>
		<g>
			<path class="st1" d="M625.15,178.17l-0.09-0.09c-2.72-2.9-5.47-2.94-8.25-0.32c-2.74,2.57-2.84,5.25-0.05,8.21
				c2.72,2.9,5.47,3.03,8.2,0.46C627.75,183.81,627.94,181.13,625.15,178.17z"/>
		</g>
		<g>
			<path class="st1" d="M672.21,178.17l-0.09-0.09c-2.72-2.9-5.47-2.94-8.25-0.32c-2.74,2.57-2.84,5.25-0.05,8.21
				c2.72,2.9,5.47,3.03,8.2,0.46C674.8,183.81,675,181.13,672.21,178.17z"/>
		</g>
		<g>
			<path class="st1" d="M465.94,160.25l-0.09,0c-2.82,0-4.18,1.4-4.18,4.11c0,2.66,1.33,4.02,4.22,4.02c2.82,0,4.22-1.35,4.22-4.02
				C470.12,161.65,468.83,160.25,465.94,160.25z"/>
		</g>
		<g>
			<path class="st1" d="M536.76,160.25l-0.09,0c-2.82,0-4.18,1.4-4.18,4.11c0,2.66,1.33,4.02,4.22,4.02c2.82,0,4.22-1.35,4.22-4.02
				C540.94,161.65,539.65,160.25,536.76,160.25z"/>
		</g>
		<g>
			<path class="st1" d="M609.4,160.25l-0.09,0c-2.82,0-4.18,1.4-4.18,4.11c0,2.66,1.33,4.02,4.22,4.02c2.82,0,4.22-1.35,4.22-4.02
				C613.58,161.65,612.29,160.25,609.4,160.25z"/>
		</g>
		<g>
			<path class="st1" d="M504.96,179.39l-0.06-0.07c-1.87-2.12-3.81-2.21-5.85-0.41c-2,1.76-2.13,3.66-0.22,5.83
				c1.87,2.12,3.81,2.27,5.81,0.51C506.68,183.45,506.87,181.56,504.96,179.39z"/>
		</g>
		<g>
			<path class="st1" d="M576.42,179.39l-0.06-0.07c-1.87-2.12-3.81-2.21-5.85-0.41c-2,1.76-2.13,3.66-0.22,5.83
				c1.87,2.12,3.81,2.27,5.81,0.51C578.14,183.45,578.34,181.56,576.42,179.39z"/>
		</g>
		<g>
			<path class="st1" d="M647.21,179.39l-0.06-0.07c-1.87-2.12-3.81-2.21-5.85-0.41c-2,1.76-2.13,3.66-0.22,5.83
				c1.87,2.12,3.81,2.27,5.81,0.51C648.92,183.45,649.12,181.56,647.21,179.39z"/>
		</g>
		<g>
			<path class="st1" d="M489.31,158.59h-0.13c-3.98,0-5.89,1.97-5.89,5.79c0,3.75,1.88,5.66,5.95,5.66c3.98,0,5.95-1.91,5.95-5.66
				C495.2,160.57,493.39,158.59,489.31,158.59z"/>
		</g>
		<g>
			<path class="st1" d="M513.11,158.59h-0.13c-3.98,0-5.89,1.97-5.89,5.79c0,3.75,1.88,5.66,5.95,5.66c3.98,0,5.95-1.91,5.95-5.66
				C519,160.57,517.18,158.59,513.11,158.59z"/>
		</g>
		<g>
			<path class="st1" d="M481.84,178.17l-0.09-0.09c-2.72-2.9-5.47-2.94-8.25-0.32c-2.74,2.57-2.84,5.25-0.05,8.21
				c2.72,2.9,5.47,3.03,8.2,0.46C484.43,183.81,484.63,181.13,481.84,178.17z"/>
		</g>
		<g>
			<path class="st1" d="M529.43,178.17l-0.09-0.09c-2.72-2.9-5.47-2.94-8.25-0.32c-2.74,2.57-2.84,5.25-0.05,8.21
				c2.72,2.9,5.47,3.03,8.2,0.46C532.02,183.81,532.22,181.13,529.43,178.17z"/>
		</g>
	</g>
</g>
</svg>
