<?xml version="1.0" encoding="utf-8"?>
<!-- Generator: Adobe Illustrator 27.7.0, SVG Export Plug-In . SVG Version: 6.00 Build 0)  -->
<svg version="1.1" id="Warstwa_1" xmlns="http://www.w3.org/2000/svg" xmlns:xlink="http://www.w3.org/1999/xlink" x="0px" y="0px"
	 viewBox="0 0 15.56 15.55" style="enable-background:new 0 0 15.56 15.55;" xml:space="preserve">
<style type="text/css">
	.st0{clip-path:url(#SVGID_00000034809735945231110330000013645583660127662470_);fill:#971D25;}
	.st1{clip-path:url(#SVGID_00000034809735945231110330000013645583660127662470_);fill:#FFFFFF;}
</style>
<g>
	<defs>
		<rect id="SVGID_1_" y="0" width="15.56" height="15.56"/>
	</defs>
	<clipPath id="SVGID_00000145024463082686348910000000876247805217317050_">
		<use xlink:href="#SVGID_1_"  style="overflow:visible;"/>
	</clipPath>
	<path style="clip-path:url(#SVGID_00000145024463082686348910000000876247805217317050_);fill:#971D25;" d="M11.62,15.55H3.94
		C1.76,15.55,0,13.79,0,11.62V3.94C0,1.76,1.76,0,3.94,0h7.68c2.17,0,3.94,1.76,3.94,3.94v7.68C15.56,13.79,13.79,15.55,11.62,15.55
		"/>
	<path style="clip-path:url(#SVGID_00000145024463082686348910000000876247805217317050_);fill:#FFFFFF;" d="M7.81,5.57
		c-1.22,0-2.22,0.99-2.22,2.22c0,1.22,0.99,2.22,2.22,2.22s2.22-1,2.22-2.22C10.03,6.57,9.04,5.57,7.81,5.57 M7.81,9.21
		c-0.78,0-1.42-0.64-1.42-1.42c0-0.78,0.64-1.42,1.42-1.42s1.42,0.64,1.42,1.42C9.24,8.58,8.6,9.21,7.81,9.21"/>
	<path style="clip-path:url(#SVGID_00000145024463082686348910000000876247805217317050_);fill:#FFFFFF;" d="M9.58,12.3h-3.6
		c-1.49,0-2.71-1.21-2.71-2.71V6c0-1.49,1.21-2.71,2.71-2.71h3.6c1.49,0,2.71,1.21,2.71,2.71v3.6C12.28,11.08,11.07,12.3,9.58,12.3
		 M5.98,4.14C4.95,4.14,4.12,4.97,4.12,6v3.6c0,1.02,0.83,1.86,1.86,1.86h3.6c1.02,0,1.86-0.83,1.86-1.86V6
		c0-1.03-0.83-1.86-1.86-1.86H5.98z"/>
	<path style="clip-path:url(#SVGID_00000145024463082686348910000000876247805217317050_);fill:#FFFFFF;" d="M10.02,4.74
		c-0.3,0-0.54,0.24-0.54,0.54c0,0.3,0.24,0.54,0.54,0.54c0.3,0,0.54-0.24,0.54-0.54C10.56,4.98,10.32,4.74,10.02,4.74"/>
</g>
</svg>
