<svg width="1700" height="823" viewBox="0 0 1700 823" fill="none" xmlns="http://www.w3.org/2000/svg">
<path d="M69.97 126.5C80.18 127.07 90.05 127.92 99.58 129.05" stroke="white" stroke-width="14" stroke-linecap="round" stroke-linejoin="round"/>
<path d="M99.58 129.05C294.68 152.11 348.23 287.6 307.63 329.22C227.82 411.03 352.19 542.05 429.34 542.71C483.31 543.18 494.33 455.25 578.58 456.15C648.49 456.89 725.05 537.46 786.77 537.71C861.97 538.01 879.41 476.21 942.11 476.68C1008.11 477.17 988.61 573.98 1131.66 572.65C1244.67 571.6 1333.18 796.12 1608.52 546.72" stroke="white" stroke-width="14" stroke-linecap="round" stroke-linejoin="round"/>
<mask id="mask0_205_2" style="mask-type:luminance" maskUnits="userSpaceOnUse" x="496" y="266" width="122" height="182">
<path d="M617.08 266.3H496.71V447.55H617.08V266.3Z" fill="white"/>
</mask>
<g mask="url(#mask0_205_2)">
<path d="M556.89 355.74C537.21 355.74 521.26 340.05 521.26 320.7C521.26 301.35 537.22 285.66 556.89 285.66C576.57 285.66 592.52 301.35 592.52 320.7C592.52 340.05 576.57 355.74 556.89 355.74ZM556.89 269.41C525.37 269.41 499.82 291.58 499.82 327.37C499.82 363.16 555.58 442.24 555.58 442.24C555.58 442.24 613.97 363.16 613.97 327.37C613.97 291.58 588.41 269.41 556.89 269.41Z" fill="white"/>
</g>
<path d="M556.58 370.49C581.488 370.49 601.68 350.298 601.68 325.39C601.68 300.482 581.488 280.29 556.58 280.29C531.672 280.29 511.48 300.482 511.48 325.39C511.48 350.298 531.672 370.49 556.58 370.49Z" fill="white" stroke="#991B1D" stroke-width="2.3143" stroke-miterlimit="10"/>
<path d="M533.77 310.65L525.72 301.2L528.26 299.04C531.63 296.17 534.75 296.22 537.38 299.32C540.06 302.47 539.62 305.67 536.36 308.45L533.77 310.65ZM534.91 301.47C533.52 299.83 531.95 299.72 530.19 301.22L534.46 306.24C536.23 304.73 536.34 303.14 534.91 301.47Z" fill="#991B1D"/>
<path d="M544.17 289.56C552.58 287.05 556.15 299.78 547.96 302.22C539.77 304.66 535.76 292.07 544.17 289.56ZM546.95 298.96L547.02 298.94C549.15 298.31 549.85 296.95 549.25 294.9C548.65 292.89 547.34 292.17 545.16 292.82C543.03 293.45 542.28 294.79 542.88 296.8C543.48 298.85 544.77 299.61 546.95 298.96Z" fill="#991B1D"/>
<path d="M556.22 288.03L560.34 288.46C561.44 288.58 562.34 288.97 562.97 289.59C564.34 290.88 564.03 293.58 562.35 294.45C564.22 295.15 564.38 296.91 564.29 297.78C564.04 300.13 562.15 301.14 559.84 300.88L554.93 300.36L556.22 288.03ZM559.34 298.38L559.45 298.39C560.46 298.5 560.97 298.07 561.06 297.15C561.16 296.2 560.74 295.65 559.76 295.55L559.65 295.54C558.64 295.43 558.12 295.86 558.02 296.8C557.93 297.73 558.37 298.28 559.34 298.38ZM559.62 293.16L559.71 293.17C560.52 293.26 560.95 292.91 561.03 292.15C561.11 291.39 560.76 290.94 559.95 290.86L559.88 290.85C559.05 290.76 558.64 291.11 558.56 291.87C558.48 292.64 558.83 293.07 559.62 293.16Z" fill="#991B1D"/>
<path d="M568.67 300.84L567.58 303L564.69 301.55L570.27 290.46L573.92 292.29C575.57 293.12 578.2 294.8 576.51 298.16C574.9 301.37 572.24 300.64 571.3 300.29C571.23 302.56 572.52 303.23 573.49 301.55L575.87 302.75C575.57 303.34 575.16 303.84 574.67 304.27C573.52 305.26 572.09 305.44 570.78 304.78C569.59 304.19 568.88 302.86 568.67 300.84ZM571.55 297.48L571.65 297.53C572.62 298.02 573.29 297.8 573.73 296.91C574.18 296.01 573.96 295.31 573.02 294.84L572.93 294.79C571.96 294.3 571.29 294.52 570.85 295.41C570.38 296.32 570.61 297.01 571.55 297.48Z" fill="#991B1D"/>
<path d="M583.18 298.22L587.94 303.08L585.86 305.12L583.83 303.05C583.46 302.67 583.07 302.7 582.65 303.11C582.22 303.53 582.19 303.93 582.54 304.29L584.46 306.24L582.38 308.28L580.48 306.34C580.09 305.95 579.68 305.98 579.25 306.4C578.79 306.85 578.75 307.26 579.12 307.64L581.16 309.72L579.08 311.76L574.32 306.9L583.18 298.22Z" fill="#991B1D"/>
<path d="M532.31 341.98L535.23 344.34C536.84 345.64 539 347.78 536.69 350.65C534.35 353.56 531.68 352.02 530.7 351.23L529.63 350.37L527.16 353.45L524.7 351.47L532.31 341.98ZM532.09 348.97L532.17 349.04C533 349.7 533.68 349.63 534.29 348.87C534.91 348.1 534.81 347.37 534.03 346.75L533.95 346.68C533.12 346.02 532.44 346.09 531.83 346.85C531.21 347.62 531.29 348.33 532.09 348.97Z" fill="#991B1D"/>
<path d="M540.16 358.48L539.38 360.71L536.39 359.68L540.37 348.2L544.15 349.51C545.86 350.1 548.63 351.39 547.42 354.87C546.27 358.19 543.59 357.83 542.64 357.61C542.87 359.82 544.21 360.3 544.93 358.55L547.39 359.4C547.18 360.01 546.84 360.55 546.42 361.03C545.43 362.14 544.07 362.5 542.71 362.03C541.49 361.6 540.63 360.41 540.16 358.48ZM542.53 354.84L542.63 354.87C543.63 355.22 544.25 354.92 544.57 354C544.89 353.06 544.58 352.42 543.61 352.09L543.51 352.06C542.51 351.71 541.89 352.01 541.57 352.93C541.25 353.87 541.56 354.51 542.53 354.84Z" fill="#991B1D"/>
<path d="M551.26 351.4L557.92 351.51L557.87 354.36L555.04 354.31C554.52 354.3 554.27 354.59 554.26 355.17C554.25 355.76 554.51 356.06 554.99 356.07L557.67 356.12L557.62 358.97L554.96 358.93C554.42 358.92 554.15 359.23 554.14 359.82C554.13 360.45 554.38 360.76 554.91 360.77L557.76 360.82L557.71 363.67L551.05 363.56L551.26 351.4Z" fill="#991B1D"/>
<path d="M560.94 357.34C559.75 353.2 562.77 348.67 567.95 349.37L568.92 352.75C566.12 351.62 563.26 353.53 564.1 356.44C564.97 359.48 568.36 359.41 570.17 357.1L571.12 360.39C567.13 363.81 562.09 361.31 560.94 357.34Z" fill="#991B1D"/>
<path d="M569.34 348.16L572.04 346.44L577.03 354.27L579.95 352.41L581.49 354.83L575.88 358.41L569.34 348.16Z" fill="#991B1D"/>
<path d="M575.85 343.75L580.35 338.84L582.45 340.77L580.53 342.86C580.18 343.24 580.23 343.62 580.65 344.01C581.09 344.41 581.48 344.42 581.81 344.06L583.62 342.09L585.72 344.02L583.92 345.98C583.56 346.38 583.61 346.78 584.05 347.18C584.51 347.6 584.92 347.62 585.27 347.24L587.2 345.14L589.3 347.07L584.8 351.98L575.85 343.75Z" fill="#991B1D"/>
<path d="M561.13 316.38C561.24 316.37 561.36 316.37 561.47 316.36C561.77 316.35 561.93 316.25 562.09 316C562.97 314.63 564.1 313.52 565.51 312.71C566.12 312.36 566.76 312.07 567.44 311.73C565.09 310.59 562.66 310.24 560.14 310.55C558.99 310.69 557.88 310.93 556.84 311.3C558.58 312.69 560.06 314.4 561.13 316.38Z" fill="#EB8C0F"/>
<path d="M584.71 323.88C584.43 320.04 582.61 317.05 579.53 314.84C576.18 312.43 572.47 311.46 568.38 312.52C565.42 313.29 562.99 315.54 561.99 318.29C562.13 318.67 562.27 319.05 562.38 319.44C562.76 320.73 562.96 322.03 563.01 323.32C564.09 322.73 565.13 322.07 565.97 321.12C566.26 320.79 566.61 320.5 566.93 320.19C568.95 318.26 571.24 317.38 573.99 318.48C578.01 320.09 579.71 323.31 578.41 327.54C578.21 328.18 577.94 328.8 577.69 329.44C577.73 329.47 577.78 329.51 577.82 329.55C579.43 330.83 579.88 332.85 578.95 334.58C578.02 336.29 575.99 337.07 574.07 336.36C572.85 335.91 571.69 335.31 570.5 334.79C570.3 334.7 570.06 334.64 569.85 334.66C566.5 335.02 563.31 334.49 560.27 333.06C559.21 334.72 557.87 336.24 556.29 337.56C560.84 340.36 565.88 341.21 571.17 340.4C575.93 339.67 579.68 337.25 582.29 333.17C584.09 330.34 584.95 327.25 584.71 323.88Z" fill="#EB8C0F"/>
<path d="M560.05 316.32C558.14 312.97 555.2 311.07 551.47 310.41C547.41 309.69 543.64 310.42 540.41 313.14C537.25 315.8 536.14 320.49 538.01 324.04C538.41 324.8 538.88 325.51 539.52 326.12C539.6 326.04 539.66 325.99 539.71 325.93C540.63 324.7 541.53 323.46 541.96 321.94C542.08 321.51 542.27 321.1 542.42 320.69C543.41 318.07 545.09 316.29 548.04 316.09C552.36 315.8 555.29 317.97 555.95 322.34C556.05 323 556.07 323.68 556.12 324.36C556.17 324.37 556.23 324.39 556.29 324.4C558.29 324.86 559.58 326.49 559.48 328.44C559.38 330.39 557.89 331.97 555.85 332.15C554.56 332.27 553.25 332.23 551.95 332.28C551.73 332.29 551.49 332.33 551.31 332.44C548.41 334.24 545.25 335.15 541.83 335.15C541.62 335.15 541.38 335.23 541.2 335.34C540.04 336 538.92 336.73 537.74 337.33C536 338.21 533.92 337.66 532.8 336.12C531.67 334.56 531.84 332.5 533.22 331.06C533.44 330.83 533.44 330.69 533.27 330.44C532.66 329.49 532.22 328.46 531.98 327.35C531.69 326.02 531.65 324.69 532.19 323.41C532.92 321.68 534.2 320.45 535.83 319.59C536.1 319.45 536.19 319.29 536.23 319C536.43 317.39 536.96 315.89 537.89 314.55C538.29 313.97 538.74 313.43 539.21 312.83C536.6 312.82 534.26 313.56 532.11 314.92C529.22 316.76 527.11 319.23 526.24 322.6C525.45 325.68 525.85 328.68 527.19 331.53C529.71 336.91 533.93 340.11 539.82 340.85C545.33 341.55 550.41 340.15 554.97 337.03C558.94 334.31 561.29 330.51 561.86 325.7C562.28 322.41 561.72 319.25 560.05 316.32Z" fill="#EB8C0F"/>
<path d="M546.92 317.28C545.99 317.51 545.24 318.01 544.62 318.73C543.87 319.61 543.38 320.63 542.99 321.7C542.74 322.38 542.56 323.08 542.26 323.74C541.27 325.91 539.7 327.63 537.94 329.19C536.98 330.04 535.9 330.7 534.71 331.19C533.28 331.78 532.69 333.44 533.27 335C533.79 336.39 535.39 337.09 536.96 336.66C537.49 336.41 538.03 336.19 538.54 335.91C541.6 334.21 544.07 331.85 546.08 329C547.42 327.09 548.41 325.02 548.67 322.67C548.86 320.86 548.54 319.16 547.64 317.57C547.45 317.26 547.27 317.2 546.92 317.28Z" fill="#EB8C0F"/>
<path d="M546.4 330.18C546.57 330.24 546.68 330.29 546.79 330.33C548.47 330.84 550.18 331.2 551.93 331.33C553.48 331.45 555.03 331.48 556.54 331.02C557.91 330.6 558.78 329.08 558.47 327.71C558.11 326.13 556.73 325.06 555.25 325.32C553.37 325.66 551.55 325.41 549.73 325C549.56 324.96 549.38 324.93 549.18 324.88C548.57 326.83 547.61 328.53 546.4 330.18Z" fill="#EB8C0F"/>
<path d="M531.68 320.8C532.07 320.8 532.25 320.61 532.25 320.25C532.25 319.89 532.07 319.71 531.69 319.71C531.31 319.71 531.13 319.89 531.13 320.25C531.12 320.62 531.3 320.8 531.68 320.8Z" fill="white"/>
<path d="M528.04 322.95C528.43 322.95 528.61 322.76 528.61 322.4C528.61 322.04 528.43 321.86 528.05 321.86C527.67 321.86 527.49 322.04 527.49 322.4C527.48 322.76 527.65 322.95 528.04 322.95Z" fill="white"/>
<path d="M533.69 316.49C534 316.72 534.26 316.68 534.48 316.39C534.69 316.11 534.66 315.85 534.35 315.62C534.05 315.39 533.79 315.43 533.58 315.71C533.35 316.01 533.38 316.26 533.69 316.49Z" fill="white"/>
<path d="M531.94 317.72C532.16 317.74 532.28 317.65 532.3 317.44C532.32 317.24 532.23 317.12 532.01 317.1C531.79 317.08 531.68 317.17 531.65 317.37C531.64 317.57 531.72 317.69 531.94 317.72Z" fill="white"/>
<path d="M529.63 320.16C529.85 320.18 529.97 320.09 529.99 319.88C530.01 319.68 529.92 319.56 529.7 319.54C529.48 319.52 529.37 319.61 529.34 319.81C529.33 320.01 529.41 320.13 529.63 320.16Z" fill="white"/>
<path d="M530.6 324.31C530.71 324.12 530.67 323.97 530.49 323.87C530.31 323.77 530.17 323.8 530.06 323.99C529.95 324.18 529.98 324.32 530.16 324.43C530.35 324.53 530.49 324.5 530.6 324.31Z" fill="white"/>
<path d="M528.09 327.77C528.31 327.73 528.4 327.61 528.36 327.41C528.33 327.21 528.21 327.12 527.99 327.16C527.78 327.19 527.69 327.31 527.72 327.52C527.75 327.72 527.87 327.81 528.09 327.77Z" fill="white"/>
<path d="M534.25 318.61C534.35 318.81 534.49 318.85 534.68 318.76C534.86 318.67 534.91 318.53 534.81 318.33C534.71 318.14 534.57 318.09 534.39 318.18C534.2 318.27 534.15 318.41 534.25 318.61Z" fill="white"/>
<path d="M545.67 323.49C546.06 323.49 546.24 323.3 546.24 322.94C546.24 322.58 546.06 322.4 545.68 322.4C545.3 322.4 545.12 322.58 545.12 322.94C545.11 323.3 545.28 323.49 545.67 323.49Z" fill="white"/>
<path d="M543.01 329.76C543.32 329.99 543.58 329.95 543.8 329.66C544.01 329.38 543.98 329.12 543.67 328.89C543.37 328.66 543.11 328.7 542.9 328.98C542.67 329.28 542.7 329.53 543.01 329.76Z" fill="white"/>
<path d="M549.21 336.88C548.95 337.17 548.96 337.43 549.23 337.67C549.49 337.91 549.75 337.9 550.01 337.62C550.27 337.34 550.26 337.08 550 336.84C549.73 336.6 549.48 336.6 549.21 336.88Z" fill="white"/>
<path d="M544.44 337.38C544.75 337.61 545.01 337.57 545.23 337.28C545.44 337 545.41 336.74 545.1 336.51C544.8 336.28 544.54 336.32 544.33 336.6C544.11 336.9 544.13 337.15 544.44 337.38Z" fill="white"/>
<path d="M543.62 324.91C543.58 325.13 543.66 325.25 543.86 325.29C544.06 325.33 544.18 325.25 544.23 325.03C544.27 324.82 544.19 324.69 543.99 324.65C543.79 324.62 543.67 324.69 543.62 324.91Z" fill="white"/>
<path d="M549.82 328.54H549.83C550.2 328.46 550.34 328.24 550.27 327.89C550.2 327.54 549.99 327.4 549.61 327.48C549.24 327.56 549.09 327.77 549.17 328.12C549.24 328.47 549.45 328.62 549.82 328.54Z" fill="white"/>
<path d="M551.42 329.83C551.54 330.02 551.68 330.05 551.86 329.95C552.03 329.84 552.07 329.7 551.96 329.51C551.85 329.32 551.7 329.29 551.53 329.39C551.34 329.5 551.3 329.64 551.42 329.83Z" fill="white"/>
<path d="M549.34 335.27C549.46 335.46 549.6 335.49 549.78 335.39C549.95 335.28 549.99 335.14 549.88 334.95C549.77 334.76 549.62 334.73 549.45 334.83C549.27 334.94 549.23 335.08 549.34 335.27Z" fill="white"/>
<path d="M553.59 327.21C553.81 327.27 553.93 327.19 553.99 326.99C554.04 326.79 553.97 326.67 553.76 326.61C553.55 326.55 553.42 326.63 553.37 326.82C553.31 327.02 553.38 327.15 553.59 327.21Z" fill="white"/>
<path d="M542.31 339.51C542.53 339.57 542.65 339.49 542.71 339.29C542.76 339.09 542.69 338.97 542.48 338.91C542.27 338.85 542.14 338.93 542.09 339.12C542.03 339.32 542.1 339.45 542.31 339.51Z" fill="white"/>
<path d="M552.91 336.08C553.13 336.14 553.25 336.06 553.31 335.86C553.36 335.66 553.29 335.54 553.08 335.48C552.87 335.42 552.74 335.5 552.69 335.69C552.63 335.89 552.7 336.02 552.91 336.08Z" fill="white"/>
<path d="M540.67 315.96C540.98 316.19 541.24 316.15 541.46 315.86C541.67 315.58 541.64 315.32 541.33 315.09C541.03 314.86 540.77 314.9 540.56 315.18C540.34 315.47 540.36 315.72 540.67 315.96Z" fill="white"/>
<path d="M545.73 315.08C546.11 315.04 546.27 314.83 546.23 314.47C546.19 314.12 545.99 313.96 545.61 314C545.24 314.04 545.07 314.25 545.11 314.6C545.15 314.97 545.34 315.13 545.73 315.08Z" fill="white"/>
<path d="M550.13 312.61H550.14C550.5 312.72 550.73 312.59 550.83 312.25C550.93 311.91 550.82 311.68 550.45 311.57C550.09 311.46 549.86 311.58 549.75 311.92C549.65 312.27 549.76 312.49 550.13 312.61Z" fill="white"/>
<path d="M554.09 315.78H554.1C554.46 315.89 554.69 315.76 554.79 315.42C554.89 315.08 554.78 314.85 554.41 314.74C554.05 314.63 553.82 314.75 553.71 315.09C553.61 315.44 553.72 315.67 554.09 315.78Z" fill="white"/>
<path d="M539.48 319.34C539.12 319.21 538.88 319.32 538.76 319.66C538.64 319.99 538.74 320.23 539.1 320.36C539.45 320.49 539.69 320.39 539.82 320.05C539.94 319.71 539.84 319.48 539.48 319.34Z" fill="white"/>
<path d="M540.94 318.07C541.04 318.27 541.18 318.31 541.37 318.22C541.55 318.13 541.6 317.99 541.5 317.79C541.4 317.6 541.26 317.55 541.08 317.64C540.89 317.73 540.84 317.87 540.94 318.07Z" fill="white"/>
<path d="M547.02 312.5C546.89 312.32 546.74 312.3 546.57 312.42C546.41 312.54 546.38 312.69 546.51 312.86C546.64 313.03 546.79 313.06 546.95 312.94C547.13 312.83 547.16 312.68 547.02 312.5Z" fill="white"/>
<path d="M544.08 312.46C543.87 312.39 543.73 312.46 543.67 312.66C543.61 312.86 543.68 312.99 543.89 313.05C544.1 313.11 544.23 313.05 544.29 312.85C544.36 312.66 544.3 312.53 544.08 312.46Z" fill="white"/>
<path d="M557.12 318.81C556.92 318.91 556.88 319.06 556.97 319.24C557.06 319.42 557.2 319.47 557.4 319.37C557.59 319.27 557.64 319.13 557.55 318.95C557.45 318.76 557.32 318.71 557.12 318.81Z" fill="white"/>
<path d="M557.87 316.5C557.77 316.3 557.63 316.25 557.44 316.34C557.26 316.43 557.21 316.57 557.3 316.77C557.39 316.97 557.53 317.02 557.72 316.93C557.91 316.84 557.97 316.71 557.87 316.5Z" fill="white"/>
<path d="M553.63 312.89C553.53 312.69 553.39 312.65 553.2 312.74C553.02 312.83 552.97 312.97 553.07 313.17C553.17 313.36 553.31 313.41 553.49 313.32C553.68 313.22 553.73 313.08 553.63 312.89Z" fill="white"/>
<path d="M545.24 326.74C545.04 326.64 544.9 326.69 544.81 326.87C544.72 327.05 544.76 327.19 544.96 327.29C545.15 327.39 545.3 327.34 545.39 327.16C545.48 326.98 545.44 326.84 545.24 326.74Z" fill="white"/>
<path d="M546.5 338.47C546.32 338.6 546.3 338.75 546.42 338.92C546.54 339.09 546.68 339.11 546.86 338.98C547.04 338.85 547.06 338.71 546.94 338.54C546.82 338.37 546.68 338.34 546.5 338.47Z" fill="white"/>
<path d="M540.72 329.07C540.54 328.94 540.39 328.97 540.27 329.15C540.15 329.32 540.18 329.46 540.36 329.59C540.54 329.71 540.69 329.69 540.8 329.52C540.92 329.34 540.9 329.2 540.72 329.07Z" fill="white"/>
<path d="M539.33 331.51C539.11 331.48 538.99 331.57 538.96 331.78C538.93 331.98 539.02 332.1 539.24 332.13C539.45 332.16 539.58 332.07 539.6 331.87C539.64 331.67 539.55 331.55 539.33 331.51Z" fill="white"/>
<path d="M571.21 326.91C569.81 328.39 568.21 329.51 566.41 330.47C566.53 330.6 566.61 330.69 566.7 330.77C567.99 331.96 569.38 333.02 570.91 333.89C572.26 334.66 573.64 335.37 575.2 335.61C576.62 335.83 578.06 334.83 578.37 333.46C578.73 331.88 577.95 330.32 576.5 329.92C574.66 329.41 573.13 328.4 571.66 327.25C571.51 327.14 571.37 327.03 571.21 326.91Z" fill="#EB8C0F"/>
<path d="M572.97 319.63C572.95 319.27 572.81 319.14 572.46 319.07C571.52 318.88 570.63 319.01 569.76 319.38C568.7 319.84 567.82 320.55 567 321.35C566.48 321.85 566.01 322.41 565.46 322.87C564.7 323.51 563.87 324.03 563.01 324.47C562.92 326.92 562.27 329.32 561.14 331.53C563.04 331.02 564.86 330.25 566.61 329.26C568.64 328.12 570.43 326.68 571.68 324.67C572.65 323.13 573.1 321.45 572.97 319.63Z" fill="#EB8C0F"/>
<path d="M560.98 313.68C561.17 313.8 561.32 313.76 561.43 313.58C561.54 313.41 561.51 313.26 561.32 313.15C561.14 313.04 560.99 313.07 560.88 313.24C560.76 313.42 560.79 313.56 560.98 313.68Z" fill="white"/>
<path d="M562.36 311.96C562.36 312.18 562.47 312.29 562.68 312.28C562.88 312.28 562.99 312.17 562.98 311.95C562.98 311.73 562.87 311.63 562.66 311.63C562.46 311.64 562.36 311.74 562.36 311.96Z" fill="white"/>
<path d="M568.79 325.27L568.8 325.28C569.14 325.44 569.38 325.35 569.54 325.03C569.69 324.71 569.61 324.47 569.26 324.3C568.92 324.14 568.67 324.22 568.52 324.54C568.37 324.86 568.45 325.1 568.79 325.27Z" fill="white"/>
<path d="M565.55 326.84L565.56 326.85C565.73 327.18 565.98 327.26 566.3 327.09C566.62 326.93 566.69 326.68 566.52 326.34C566.35 326.01 566.1 325.92 565.78 326.09C565.45 326.25 565.37 326.49 565.55 326.84Z" fill="white"/>
<path d="M569.65 322.41C569.65 322.63 569.76 322.74 569.97 322.73C570.17 322.73 570.28 322.62 570.27 322.4C570.27 322.18 570.16 322.08 569.95 322.08C569.75 322.09 569.64 322.19 569.65 322.41Z" fill="white"/>
<path d="M566.09 324.29C565.96 324.47 565.98 324.62 566.14 324.74C566.3 324.86 566.45 324.84 566.58 324.67C566.71 324.5 566.69 324.35 566.53 324.22C566.37 324.1 566.23 324.12 566.09 324.29Z" fill="white"/>
<path d="M570.53 331.75H570.54C570.91 331.84 571.13 331.7 571.21 331.35C571.3 331 571.17 330.79 570.79 330.69C570.42 330.6 570.2 330.73 570.11 331.07C570.03 331.43 570.15 331.65 570.53 331.75Z" fill="white"/>
<path d="M572.52 330.33C572.39 330.51 572.41 330.66 572.57 330.78C572.73 330.9 572.88 330.88 573.01 330.71C573.14 330.54 573.12 330.39 572.96 330.26C572.8 330.14 572.65 330.15 572.52 330.33Z" fill="white"/>
<path d="M574.3 332.78C574.51 332.85 574.65 332.78 574.71 332.58C574.77 332.38 574.71 332.25 574.49 332.19C574.28 332.12 574.15 332.19 574.09 332.39C574.02 332.58 574.09 332.71 574.3 332.78Z" fill="white"/>
<path d="M569.13 314.6L569.14 314.61C569.31 314.94 569.56 315.02 569.88 314.85C570.2 314.69 570.27 314.44 570.1 314.1C569.93 313.77 569.68 313.68 569.36 313.85C569.03 314.02 568.95 314.25 569.13 314.6Z" fill="white"/>
<path d="M574.61 314.75C574.9 315.01 575.16 315 575.4 314.73C575.64 314.47 575.63 314.21 575.35 313.95C575.07 313.69 574.81 313.7 574.57 313.96C574.33 314.23 574.33 314.48 574.61 314.75Z" fill="white"/>
<path d="M581.74 322.26C582.03 322.52 582.29 322.51 582.53 322.24C582.77 321.98 582.76 321.72 582.48 321.46C582.2 321.2 581.94 321.21 581.7 321.47C581.46 321.74 581.46 322 581.74 322.26Z" fill="white"/>
<path d="M577.47 317.69C577.21 317.98 577.23 318.24 577.5 318.48C577.77 318.72 578.02 318.7 578.28 318.41C578.53 318.13 578.52 317.87 578.25 317.63C577.98 317.4 577.73 317.4 577.47 317.69Z" fill="white"/>
<path d="M565.49 318.28C565.22 318 564.96 318 564.69 318.25C564.43 318.5 564.43 318.75 564.69 319.03C564.95 319.3 565.21 319.31 565.47 319.06C565.74 318.81 565.75 318.55 565.49 318.28Z" fill="white"/>
<path d="M565.92 316.39C565.92 316.61 566.03 316.72 566.24 316.71C566.44 316.71 566.55 316.6 566.54 316.38C566.54 316.16 566.43 316.06 566.22 316.06C566.03 316.06 565.92 316.17 565.92 316.39Z" fill="white"/>
<path d="M569.86 316.67C569.64 316.61 569.52 316.69 569.46 316.89C569.41 317.09 569.48 317.21 569.69 317.27C569.9 317.33 570.03 317.25 570.08 317.06C570.14 316.86 570.07 316.73 569.86 316.67Z" fill="white"/>
<path d="M574.07 316.25C574.03 316.03 573.9 315.95 573.7 315.99C573.5 316.03 573.42 316.15 573.46 316.37C573.5 316.58 573.62 316.67 573.82 316.63C574.03 316.58 574.12 316.46 574.07 316.25Z" fill="white"/>
<path d="M578.44 315.75C578.22 315.76 578.11 315.87 578.12 316.07C578.13 316.27 578.23 316.38 578.45 316.37C578.67 316.36 578.77 316.26 578.77 316.05C578.76 315.85 578.66 315.74 578.44 315.75Z" fill="white"/>
<path d="M580.38 327.15C580.16 327.16 580.05 327.27 580.06 327.47C580.07 327.67 580.17 327.78 580.39 327.77C580.61 327.76 580.71 327.66 580.71 327.45C580.71 327.25 580.61 327.15 580.38 327.15Z" fill="white"/>
<path d="M580.91 323.81C580.74 323.67 580.59 323.69 580.46 323.85C580.33 324.01 580.35 324.15 580.52 324.29C580.69 324.43 580.84 324.41 580.97 324.25C581.1 324.1 581.09 323.95 580.91 323.81Z" fill="white"/>
<path d="M583.66 324.98C583.66 324.76 583.55 324.65 583.34 324.65C583.14 324.65 583.03 324.75 583.03 324.97C583.03 325.19 583.13 325.29 583.34 325.29C583.55 325.3 583.66 325.2 583.66 324.98Z" fill="white"/>
<path d="M581.25 318.65C581.25 318.43 581.14 318.32 580.93 318.33C580.73 318.33 580.62 318.44 580.63 318.66C580.63 318.88 580.74 318.98 580.95 318.98C581.15 318.97 581.26 318.87 581.25 318.65Z" fill="white"/>
<path d="M567.33 339.12L567.34 339.13C567.52 339.46 567.77 339.53 568.09 339.35C568.4 339.18 568.47 338.93 568.28 338.6C568.1 338.27 567.85 338.2 567.54 338.37C567.22 338.54 567.14 338.78 567.33 339.12Z" fill="white"/>
<path d="M560.72 338.03H560.73C561.1 338.09 561.31 337.93 561.36 337.57C561.41 337.22 561.26 337.01 560.88 336.96C560.51 336.9 560.3 337.06 560.24 337.41C560.2 337.76 560.34 337.97 560.72 338.03Z" fill="white"/>
<path d="M563.91 336.81C564.22 337.05 564.47 337.01 564.7 336.73C564.92 336.45 564.89 336.2 564.58 335.96C564.28 335.73 564.02 335.76 563.81 336.04C563.58 336.32 563.6 336.58 563.91 336.81Z" fill="white"/>
<path d="M566.72 336.97C566.93 337.04 567.07 336.97 567.13 336.77C567.19 336.57 567.13 336.44 566.91 336.38C566.7 336.31 566.57 336.38 566.51 336.58C566.44 336.77 566.51 336.9 566.72 336.97Z" fill="white"/>
<path d="M563.27 339.49C563.49 339.51 563.61 339.41 563.62 339.2C563.64 339 563.54 338.88 563.32 338.87C563.1 338.85 562.99 338.95 562.97 339.15C562.95 339.36 563.04 339.47 563.27 339.49Z" fill="white"/>
<path d="M570.23 337.79C570.44 337.71 570.49 337.57 570.41 337.37C570.33 337.18 570.2 337.12 569.99 337.21C569.79 337.29 569.73 337.43 569.81 337.62C569.89 337.81 570.02 337.87 570.23 337.79Z" fill="white"/>
<mask id="mask1_205_2" style="mask-type:luminance" maskUnits="userSpaceOnUse" x="703" y="341" width="122" height="182">
<path d="M824.08 341.3H703.71V522.55H824.08V341.3Z" fill="white"/>
</mask>
<g mask="url(#mask1_205_2)">
<path d="M763.89 430.74C744.21 430.74 728.26 415.05 728.26 395.7C728.26 376.35 744.22 360.66 763.89 360.66C783.57 360.66 799.52 376.35 799.52 395.7C799.52 415.05 783.57 430.74 763.89 430.74ZM763.89 344.41C732.37 344.41 706.82 366.58 706.82 402.37C706.82 438.16 762.58 517.24 762.58 517.24C762.58 517.24 820.97 438.16 820.97 402.37C820.97 366.58 795.41 344.41 763.89 344.41Z" fill="white"/>
</g>
<path d="M763.58 445.49C788.488 445.49 808.68 425.298 808.68 400.39C808.68 375.482 788.488 355.29 763.58 355.29C738.672 355.29 718.48 375.482 718.48 400.39C718.48 425.298 738.672 445.49 763.58 445.49Z" fill="white" stroke="#991B1D" stroke-width="2.3143" stroke-miterlimit="10"/>
<path d="M740.77 385.65L732.72 376.2L735.26 374.04C738.63 371.17 741.75 371.22 744.38 374.32C747.06 377.47 746.62 380.67 743.36 383.45L740.77 385.65ZM741.91 376.47C740.52 374.83 738.95 374.72 737.19 376.22L741.46 381.24C743.23 379.73 743.34 378.14 741.91 376.47Z" fill="#991B1D"/>
<path d="M751.17 364.56C759.58 362.05 763.15 374.78 754.96 377.22C746.77 379.66 742.76 367.07 751.17 364.56ZM753.95 373.96L754.02 373.94C756.15 373.31 756.85 371.95 756.25 369.9C755.65 367.89 754.34 367.17 752.16 367.82C750.03 368.45 749.28 369.79 749.88 371.8C750.48 373.85 751.77 374.61 753.95 373.96Z" fill="#991B1D"/>
<path d="M763.22 363.03L767.34 363.46C768.44 363.58 769.34 363.97 769.97 364.59C771.34 365.88 771.03 368.58 769.35 369.45C771.22 370.15 771.38 371.91 771.29 372.78C771.04 375.13 769.15 376.14 766.84 375.88L761.93 375.36L763.22 363.03ZM766.34 373.38L766.45 373.39C767.46 373.5 767.97 373.07 768.06 372.15C768.16 371.2 767.74 370.65 766.76 370.55L766.65 370.54C765.64 370.43 765.12 370.86 765.02 371.8C764.93 372.73 765.37 373.28 766.34 373.38ZM766.62 368.16L766.71 368.17C767.52 368.26 767.95 367.91 768.03 367.15C768.11 366.39 767.76 365.94 766.95 365.86L766.88 365.85C766.05 365.76 765.64 366.11 765.56 366.87C765.48 367.64 765.83 368.07 766.62 368.16Z" fill="#991B1D"/>
<path d="M775.67 375.84L774.58 378L771.69 376.55L777.27 365.46L780.92 367.29C782.57 368.12 785.2 369.8 783.51 373.16C781.9 376.37 779.24 375.64 778.3 375.29C778.23 377.56 779.52 378.23 780.49 376.55L782.87 377.75C782.57 378.34 782.16 378.84 781.67 379.27C780.52 380.26 779.09 380.44 777.78 379.78C776.59 379.19 775.88 377.86 775.67 375.84ZM778.55 372.48L778.65 372.53C779.62 373.02 780.29 372.8 780.73 371.91C781.18 371.01 780.96 370.31 780.02 369.84L779.93 369.79C778.96 369.3 778.29 369.52 777.85 370.41C777.38 371.32 777.61 372.01 778.55 372.48Z" fill="#991B1D"/>
<path d="M790.18 373.22L794.94 378.08L792.86 380.12L790.83 378.05C790.46 377.67 790.07 377.7 789.65 378.11C789.22 378.53 789.19 378.93 789.54 379.29L791.46 381.24L789.38 383.28L787.48 381.34C787.09 380.95 786.68 380.98 786.25 381.4C785.79 381.85 785.75 382.26 786.12 382.64L788.16 384.72L786.08 386.76L781.32 381.9L790.18 373.22Z" fill="#991B1D"/>
<path d="M739.31 416.98L742.23 419.34C743.84 420.64 746 422.78 743.69 425.65C741.35 428.56 738.68 427.02 737.7 426.23L736.63 425.37L734.16 428.45L731.7 426.47L739.31 416.98ZM739.09 423.97L739.17 424.04C740 424.7 740.68 424.63 741.29 423.87C741.91 423.1 741.81 422.37 741.03 421.75L740.95 421.68C740.12 421.02 739.44 421.09 738.83 421.85C738.21 422.62 738.29 423.33 739.09 423.97Z" fill="#991B1D"/>
<path d="M747.16 433.48L746.38 435.71L743.39 434.68L747.37 423.2L751.15 424.51C752.86 425.1 755.63 426.39 754.42 429.87C753.27 433.19 750.59 432.83 749.64 432.61C749.87 434.82 751.21 435.3 751.93 433.55L754.39 434.4C754.18 435.01 753.84 435.55 753.42 436.03C752.43 437.14 751.07 437.5 749.71 437.03C748.49 436.6 747.63 435.41 747.16 433.48ZM749.53 429.84L749.63 429.87C750.63 430.22 751.25 429.92 751.57 429C751.89 428.06 751.58 427.42 750.61 427.09L750.51 427.06C749.51 426.71 748.89 427.01 748.57 427.93C748.25 428.87 748.56 429.51 749.53 429.84Z" fill="#991B1D"/>
<path d="M758.26 426.4L764.92 426.51L764.87 429.36L762.04 429.31C761.52 429.3 761.27 429.59 761.26 430.17C761.25 430.76 761.51 431.06 761.99 431.07L764.67 431.12L764.62 433.97L761.96 433.93C761.42 433.92 761.15 434.23 761.14 434.82C761.13 435.45 761.38 435.76 761.91 435.77L764.76 435.82L764.71 438.67L758.05 438.56L758.26 426.4Z" fill="#991B1D"/>
<path d="M767.94 432.34C766.75 428.2 769.77 423.67 774.95 424.37L775.92 427.75C773.12 426.62 770.26 428.53 771.1 431.44C771.97 434.48 775.36 434.41 777.17 432.1L778.12 435.39C774.13 438.81 769.09 436.31 767.94 432.34Z" fill="#991B1D"/>
<path d="M776.34 423.16L779.04 421.44L784.03 429.27L786.95 427.41L788.49 429.83L782.88 433.41L776.34 423.16Z" fill="#991B1D"/>
<path d="M782.85 418.75L787.35 413.84L789.45 415.77L787.53 417.86C787.18 418.24 787.23 418.62 787.65 419.01C788.09 419.41 788.48 419.42 788.81 419.06L790.62 417.09L792.72 419.02L790.92 420.98C790.56 421.38 790.61 421.78 791.05 422.18C791.51 422.6 791.92 422.62 792.27 422.24L794.2 420.14L796.3 422.07L791.8 426.98L782.85 418.75Z" fill="#991B1D"/>
<path d="M768.13 391.38C768.24 391.37 768.36 391.37 768.47 391.36C768.77 391.35 768.93 391.25 769.09 391C769.97 389.63 771.1 388.52 772.51 387.71C773.12 387.36 773.76 387.07 774.44 386.73C772.09 385.59 769.66 385.24 767.14 385.55C765.99 385.69 764.88 385.93 763.84 386.3C765.58 387.69 767.06 389.4 768.13 391.38Z" fill="#EB8C0F"/>
<path d="M791.71 398.88C791.43 395.04 789.61 392.05 786.53 389.84C783.18 387.43 779.47 386.46 775.38 387.52C772.42 388.29 769.99 390.54 768.99 393.29C769.13 393.67 769.27 394.05 769.38 394.44C769.76 395.73 769.96 397.03 770.01 398.32C771.09 397.73 772.13 397.07 772.97 396.12C773.26 395.79 773.61 395.5 773.93 395.19C775.95 393.26 778.24 392.38 780.99 393.48C785.01 395.09 786.71 398.31 785.41 402.54C785.21 403.18 784.94 403.8 784.69 404.44C784.73 404.47 784.78 404.51 784.82 404.55C786.43 405.83 786.88 407.85 785.95 409.58C785.02 411.29 782.99 412.07 781.07 411.36C779.85 410.91 778.69 410.31 777.5 409.79C777.3 409.7 777.06 409.64 776.85 409.66C773.5 410.02 770.31 409.49 767.27 408.06C766.21 409.72 764.87 411.24 763.29 412.56C767.84 415.36 772.88 416.21 778.17 415.4C782.93 414.67 786.68 412.25 789.29 408.17C791.09 405.34 791.95 402.25 791.71 398.88Z" fill="#EB8C0F"/>
<path d="M767.05 391.32C765.14 387.97 762.2 386.07 758.47 385.41C754.41 384.69 750.64 385.42 747.41 388.14C744.25 390.8 743.14 395.49 745.01 399.04C745.41 399.8 745.88 400.51 746.52 401.12C746.6 401.04 746.66 400.99 746.71 400.93C747.63 399.7 748.53 398.46 748.96 396.94C749.08 396.51 749.27 396.1 749.42 395.69C750.41 393.07 752.09 391.29 755.04 391.09C759.36 390.8 762.29 392.97 762.95 397.34C763.05 398 763.07 398.68 763.12 399.36C763.17 399.37 763.23 399.39 763.29 399.4C765.29 399.86 766.58 401.49 766.48 403.44C766.38 405.39 764.89 406.97 762.85 407.15C761.56 407.27 760.25 407.23 758.95 407.28C758.73 407.29 758.49 407.33 758.31 407.44C755.41 409.24 752.25 410.15 748.83 410.15C748.62 410.15 748.38 410.23 748.2 410.34C747.04 411 745.92 411.73 744.74 412.33C743 413.21 740.92 412.66 739.8 411.12C738.67 409.56 738.84 407.5 740.22 406.06C740.44 405.83 740.44 405.69 740.27 405.44C739.66 404.49 739.22 403.46 738.98 402.35C738.69 401.02 738.65 399.69 739.19 398.41C739.92 396.68 741.2 395.45 742.83 394.59C743.1 394.45 743.19 394.29 743.23 394C743.43 392.39 743.96 390.89 744.89 389.55C745.29 388.97 745.74 388.43 746.21 387.83C743.6 387.82 741.26 388.56 739.11 389.92C736.22 391.76 734.11 394.23 733.24 397.6C732.45 400.68 732.85 403.68 734.19 406.53C736.71 411.91 740.93 415.11 746.82 415.85C752.33 416.55 757.41 415.15 761.97 412.03C765.94 409.31 768.29 405.51 768.86 400.7C769.28 397.41 768.72 394.25 767.05 391.32Z" fill="#EB8C0F"/>
<path d="M753.92 392.28C752.99 392.51 752.24 393.01 751.62 393.73C750.87 394.61 750.38 395.63 749.99 396.7C749.74 397.38 749.56 398.08 749.26 398.74C748.27 400.91 746.7 402.63 744.94 404.19C743.98 405.04 742.9 405.7 741.71 406.19C740.28 406.78 739.69 408.44 740.27 410C740.79 411.39 742.39 412.09 743.96 411.66C744.49 411.41 745.03 411.19 745.54 410.91C748.6 409.21 751.07 406.85 753.08 404C754.42 402.09 755.41 400.02 755.67 397.67C755.86 395.86 755.54 394.16 754.64 392.57C754.45 392.26 754.27 392.2 753.92 392.28Z" fill="#EB8C0F"/>
<path d="M753.4 405.18C753.57 405.24 753.68 405.29 753.79 405.33C755.47 405.84 757.18 406.2 758.93 406.33C760.48 406.45 762.03 406.48 763.54 406.02C764.91 405.6 765.78 404.08 765.47 402.71C765.11 401.13 763.73 400.06 762.25 400.32C760.37 400.66 758.55 400.41 756.73 400C756.56 399.96 756.38 399.93 756.18 399.88C755.57 401.83 754.61 403.53 753.4 405.18Z" fill="#EB8C0F"/>
<path d="M738.68 395.8C739.07 395.8 739.25 395.61 739.25 395.25C739.25 394.89 739.07 394.71 738.69 394.71C738.31 394.71 738.13 394.89 738.13 395.25C738.12 395.62 738.3 395.8 738.68 395.8Z" fill="white"/>
<path d="M735.04 397.95C735.43 397.95 735.61 397.76 735.61 397.4C735.61 397.04 735.43 396.86 735.05 396.86C734.67 396.86 734.49 397.04 734.49 397.4C734.48 397.76 734.65 397.95 735.04 397.95Z" fill="white"/>
<path d="M740.69 391.49C741 391.72 741.26 391.68 741.48 391.39C741.69 391.11 741.66 390.85 741.35 390.62C741.05 390.39 740.79 390.43 740.58 390.71C740.35 391.01 740.38 391.26 740.69 391.49Z" fill="white"/>
<path d="M738.94 392.72C739.16 392.74 739.28 392.65 739.3 392.44C739.32 392.24 739.23 392.12 739.01 392.1C738.79 392.08 738.68 392.17 738.65 392.37C738.64 392.57 738.72 392.69 738.94 392.72Z" fill="white"/>
<path d="M736.63 395.16C736.85 395.18 736.97 395.09 736.99 394.88C737.01 394.68 736.92 394.56 736.7 394.54C736.48 394.52 736.37 394.61 736.34 394.81C736.33 395.01 736.41 395.13 736.63 395.16Z" fill="white"/>
<path d="M737.6 399.31C737.71 399.12 737.67 398.97 737.49 398.87C737.31 398.77 737.17 398.8 737.06 398.99C736.95 399.18 736.98 399.32 737.16 399.43C737.35 399.53 737.49 399.5 737.6 399.31Z" fill="white"/>
<path d="M735.09 402.77C735.31 402.73 735.4 402.61 735.36 402.41C735.33 402.21 735.21 402.12 734.99 402.16C734.78 402.19 734.69 402.31 734.72 402.52C734.75 402.72 734.87 402.81 735.09 402.77Z" fill="white"/>
<path d="M741.25 393.61C741.35 393.81 741.49 393.85 741.68 393.76C741.86 393.67 741.91 393.53 741.81 393.33C741.71 393.14 741.57 393.09 741.39 393.18C741.2 393.27 741.15 393.41 741.25 393.61Z" fill="white"/>
<path d="M752.67 398.49C753.06 398.49 753.24 398.3 753.24 397.94C753.24 397.58 753.06 397.4 752.68 397.4C752.3 397.4 752.12 397.58 752.12 397.94C752.11 398.3 752.28 398.49 752.67 398.49Z" fill="white"/>
<path d="M750.01 404.76C750.32 404.99 750.58 404.95 750.8 404.66C751.01 404.38 750.98 404.12 750.67 403.89C750.37 403.66 750.11 403.7 749.9 403.98C749.67 404.28 749.7 404.53 750.01 404.76Z" fill="white"/>
<path d="M756.21 411.88C755.95 412.17 755.96 412.43 756.23 412.67C756.49 412.91 756.75 412.9 757.01 412.62C757.27 412.34 757.26 412.08 757 411.84C756.73 411.6 756.48 411.6 756.21 411.88Z" fill="white"/>
<path d="M751.44 412.38C751.75 412.61 752.01 412.57 752.23 412.28C752.44 412 752.41 411.74 752.1 411.51C751.8 411.28 751.54 411.32 751.33 411.6C751.11 411.9 751.13 412.15 751.44 412.38Z" fill="white"/>
<path d="M750.62 399.91C750.58 400.13 750.66 400.25 750.86 400.29C751.06 400.33 751.18 400.25 751.23 400.03C751.27 399.82 751.19 399.69 750.99 399.65C750.79 399.62 750.67 399.69 750.62 399.91Z" fill="white"/>
<path d="M756.82 403.54H756.83C757.2 403.46 757.34 403.24 757.27 402.89C757.2 402.54 756.99 402.4 756.61 402.48C756.24 402.56 756.09 402.77 756.17 403.12C756.24 403.47 756.45 403.62 756.82 403.54Z" fill="white"/>
<path d="M758.42 404.83C758.54 405.02 758.68 405.05 758.86 404.95C759.03 404.84 759.07 404.7 758.96 404.51C758.85 404.32 758.7 404.29 758.53 404.39C758.34 404.5 758.3 404.64 758.42 404.83Z" fill="white"/>
<path d="M756.34 410.27C756.46 410.46 756.6 410.49 756.78 410.39C756.95 410.28 756.99 410.14 756.88 409.95C756.77 409.76 756.62 409.73 756.45 409.83C756.27 409.94 756.23 410.08 756.34 410.27Z" fill="white"/>
<path d="M760.59 402.21C760.81 402.27 760.93 402.19 760.99 401.99C761.04 401.79 760.97 401.67 760.76 401.61C760.55 401.55 760.42 401.63 760.37 401.82C760.31 402.02 760.38 402.15 760.59 402.21Z" fill="white"/>
<path d="M749.31 414.51C749.53 414.57 749.65 414.49 749.71 414.29C749.76 414.09 749.69 413.97 749.48 413.91C749.27 413.85 749.14 413.93 749.09 414.12C749.03 414.32 749.1 414.45 749.31 414.51Z" fill="white"/>
<path d="M759.91 411.08C760.13 411.14 760.25 411.06 760.31 410.86C760.36 410.66 760.29 410.54 760.08 410.48C759.87 410.42 759.74 410.5 759.69 410.69C759.63 410.89 759.7 411.02 759.91 411.08Z" fill="white"/>
<path d="M747.67 390.96C747.98 391.19 748.24 391.15 748.46 390.86C748.67 390.58 748.64 390.32 748.33 390.09C748.03 389.86 747.77 389.9 747.56 390.18C747.34 390.47 747.36 390.72 747.67 390.96Z" fill="white"/>
<path d="M752.73 390.08C753.11 390.04 753.27 389.83 753.23 389.47C753.19 389.12 752.99 388.96 752.61 389C752.24 389.04 752.07 389.25 752.11 389.6C752.15 389.97 752.34 390.13 752.73 390.08Z" fill="white"/>
<path d="M757.13 387.61H757.14C757.5 387.72 757.73 387.59 757.83 387.25C757.93 386.91 757.82 386.68 757.45 386.57C757.09 386.46 756.86 386.58 756.75 386.92C756.65 387.27 756.76 387.49 757.13 387.61Z" fill="white"/>
<path d="M761.09 390.78H761.1C761.46 390.89 761.69 390.76 761.79 390.42C761.89 390.08 761.78 389.85 761.41 389.74C761.05 389.63 760.82 389.75 760.71 390.09C760.61 390.44 760.72 390.67 761.09 390.78Z" fill="white"/>
<path d="M746.48 394.34C746.12 394.21 745.88 394.32 745.76 394.66C745.64 394.99 745.74 395.23 746.1 395.36C746.45 395.49 746.69 395.39 746.82 395.05C746.94 394.71 746.84 394.48 746.48 394.34Z" fill="white"/>
<path d="M747.94 393.07C748.04 393.27 748.18 393.31 748.37 393.22C748.55 393.13 748.6 392.99 748.5 392.79C748.4 392.6 748.26 392.55 748.08 392.64C747.89 392.73 747.84 392.87 747.94 393.07Z" fill="white"/>
<path d="M754.02 387.5C753.89 387.32 753.74 387.3 753.57 387.42C753.41 387.54 753.38 387.69 753.51 387.86C753.64 388.03 753.79 388.06 753.95 387.94C754.13 387.83 754.16 387.68 754.02 387.5Z" fill="white"/>
<path d="M751.08 387.46C750.87 387.39 750.73 387.46 750.67 387.66C750.61 387.86 750.68 387.99 750.89 388.05C751.1 388.11 751.23 388.05 751.29 387.85C751.36 387.66 751.3 387.53 751.08 387.46Z" fill="white"/>
<path d="M764.12 393.81C763.92 393.91 763.88 394.06 763.97 394.24C764.06 394.42 764.2 394.47 764.4 394.37C764.59 394.27 764.64 394.13 764.55 393.95C764.45 393.76 764.32 393.71 764.12 393.81Z" fill="white"/>
<path d="M764.87 391.5C764.77 391.3 764.63 391.25 764.44 391.34C764.26 391.43 764.21 391.57 764.3 391.77C764.39 391.97 764.53 392.02 764.72 391.93C764.91 391.84 764.97 391.71 764.87 391.5Z" fill="white"/>
<path d="M760.63 387.89C760.53 387.69 760.39 387.65 760.2 387.74C760.02 387.83 759.97 387.97 760.07 388.17C760.17 388.36 760.31 388.41 760.49 388.32C760.68 388.22 760.73 388.08 760.63 387.89Z" fill="white"/>
<path d="M752.24 401.74C752.04 401.64 751.9 401.69 751.81 401.87C751.72 402.05 751.76 402.19 751.96 402.29C752.15 402.39 752.3 402.34 752.39 402.16C752.48 401.98 752.44 401.84 752.24 401.74Z" fill="white"/>
<path d="M753.5 413.47C753.32 413.6 753.3 413.75 753.42 413.92C753.54 414.09 753.68 414.11 753.86 413.98C754.04 413.85 754.06 413.71 753.94 413.54C753.82 413.37 753.68 413.34 753.5 413.47Z" fill="white"/>
<path d="M747.72 404.07C747.54 403.94 747.39 403.97 747.27 404.15C747.15 404.32 747.18 404.46 747.36 404.59C747.54 404.71 747.69 404.69 747.8 404.52C747.92 404.34 747.9 404.2 747.72 404.07Z" fill="white"/>
<path d="M746.33 406.51C746.11 406.48 745.99 406.57 745.96 406.78C745.93 406.98 746.02 407.1 746.24 407.13C746.45 407.16 746.58 407.07 746.6 406.87C746.64 406.67 746.55 406.55 746.33 406.51Z" fill="white"/>
<path d="M778.21 401.91C776.81 403.39 775.21 404.51 773.41 405.47C773.53 405.6 773.61 405.69 773.7 405.77C774.99 406.96 776.38 408.02 777.91 408.89C779.26 409.66 780.64 410.37 782.2 410.61C783.62 410.83 785.06 409.83 785.37 408.46C785.73 406.88 784.95 405.32 783.5 404.92C781.66 404.41 780.13 403.4 778.66 402.25C778.51 402.14 778.37 402.03 778.21 401.91Z" fill="#EB8C0F"/>
<path d="M779.97 394.63C779.95 394.27 779.81 394.14 779.46 394.07C778.52 393.88 777.63 394.01 776.76 394.38C775.7 394.84 774.82 395.55 774 396.35C773.48 396.85 773.01 397.41 772.46 397.87C771.7 398.51 770.87 399.03 770.01 399.47C769.92 401.92 769.27 404.32 768.14 406.53C770.04 406.02 771.86 405.25 773.61 404.26C775.64 403.12 777.43 401.68 778.68 399.67C779.65 398.13 780.1 396.45 779.97 394.63Z" fill="#EB8C0F"/>
<path d="M767.98 388.68C768.17 388.8 768.32 388.76 768.43 388.58C768.54 388.41 768.51 388.26 768.32 388.15C768.14 388.04 767.99 388.07 767.88 388.24C767.76 388.42 767.79 388.56 767.98 388.68Z" fill="white"/>
<path d="M769.36 386.96C769.36 387.18 769.47 387.29 769.68 387.28C769.88 387.28 769.99 387.17 769.98 386.95C769.98 386.73 769.87 386.63 769.66 386.63C769.46 386.64 769.36 386.74 769.36 386.96Z" fill="white"/>
<path d="M775.79 400.27L775.8 400.28C776.14 400.44 776.38 400.35 776.54 400.03C776.69 399.71 776.61 399.47 776.26 399.3C775.92 399.14 775.67 399.22 775.52 399.54C775.37 399.86 775.45 400.1 775.79 400.27Z" fill="white"/>
<path d="M772.55 401.84L772.56 401.85C772.73 402.18 772.98 402.26 773.3 402.09C773.62 401.93 773.69 401.68 773.52 401.34C773.35 401.01 773.1 400.92 772.78 401.09C772.45 401.25 772.37 401.49 772.55 401.84Z" fill="white"/>
<path d="M776.65 397.41C776.65 397.63 776.76 397.74 776.97 397.73C777.17 397.73 777.28 397.62 777.27 397.4C777.27 397.18 777.16 397.08 776.95 397.08C776.75 397.09 776.64 397.19 776.65 397.41Z" fill="white"/>
<path d="M773.09 399.29C772.96 399.47 772.98 399.62 773.14 399.74C773.3 399.86 773.45 399.84 773.58 399.67C773.71 399.5 773.69 399.35 773.53 399.22C773.37 399.1 773.23 399.12 773.09 399.29Z" fill="white"/>
<path d="M777.53 406.75H777.54C777.91 406.84 778.13 406.7 778.21 406.35C778.3 406 778.17 405.79 777.79 405.69C777.42 405.6 777.2 405.73 777.11 406.07C777.03 406.43 777.15 406.65 777.53 406.75Z" fill="white"/>
<path d="M779.52 405.33C779.39 405.51 779.41 405.66 779.57 405.78C779.73 405.9 779.88 405.88 780.01 405.71C780.14 405.54 780.12 405.39 779.96 405.26C779.8 405.14 779.65 405.15 779.52 405.33Z" fill="white"/>
<path d="M781.3 407.78C781.51 407.85 781.65 407.78 781.71 407.58C781.77 407.38 781.71 407.25 781.49 407.19C781.28 407.12 781.15 407.19 781.09 407.39C781.02 407.58 781.09 407.71 781.3 407.78Z" fill="white"/>
<path d="M776.13 389.6L776.14 389.61C776.31 389.94 776.56 390.02 776.88 389.85C777.2 389.69 777.27 389.44 777.1 389.1C776.93 388.77 776.68 388.68 776.36 388.85C776.03 389.02 775.95 389.25 776.13 389.6Z" fill="white"/>
<path d="M781.61 389.75C781.9 390.01 782.16 390 782.4 389.73C782.64 389.47 782.63 389.21 782.35 388.95C782.07 388.69 781.81 388.7 781.57 388.96C781.33 389.23 781.33 389.48 781.61 389.75Z" fill="white"/>
<path d="M788.74 397.26C789.03 397.52 789.29 397.51 789.53 397.24C789.77 396.98 789.76 396.72 789.48 396.46C789.2 396.2 788.94 396.21 788.7 396.47C788.46 396.74 788.46 397 788.74 397.26Z" fill="white"/>
<path d="M784.47 392.69C784.21 392.98 784.23 393.24 784.5 393.48C784.77 393.72 785.02 393.7 785.28 393.41C785.53 393.13 785.52 392.87 785.25 392.63C784.98 392.4 784.73 392.4 784.47 392.69Z" fill="white"/>
<path d="M772.49 393.28C772.22 393 771.96 393 771.69 393.25C771.43 393.5 771.43 393.75 771.69 394.03C771.95 394.3 772.21 394.31 772.47 394.06C772.74 393.81 772.75 393.55 772.49 393.28Z" fill="white"/>
<path d="M772.92 391.39C772.92 391.61 773.03 391.72 773.24 391.71C773.44 391.71 773.55 391.6 773.54 391.38C773.54 391.16 773.43 391.06 773.22 391.06C773.03 391.06 772.92 391.17 772.92 391.39Z" fill="white"/>
<path d="M776.86 391.67C776.64 391.61 776.52 391.69 776.46 391.89C776.41 392.09 776.48 392.21 776.69 392.27C776.9 392.33 777.03 392.25 777.08 392.06C777.14 391.86 777.07 391.73 776.86 391.67Z" fill="white"/>
<path d="M781.07 391.25C781.03 391.03 780.9 390.95 780.7 390.99C780.5 391.03 780.42 391.15 780.46 391.37C780.5 391.58 780.62 391.67 780.82 391.63C781.03 391.58 781.12 391.46 781.07 391.25Z" fill="white"/>
<path d="M785.44 390.75C785.22 390.76 785.11 390.87 785.12 391.07C785.13 391.27 785.23 391.38 785.45 391.37C785.67 391.36 785.77 391.26 785.77 391.05C785.76 390.85 785.66 390.74 785.44 390.75Z" fill="white"/>
<path d="M787.38 402.15C787.16 402.16 787.05 402.27 787.06 402.47C787.07 402.67 787.17 402.78 787.39 402.77C787.61 402.76 787.71 402.66 787.71 402.45C787.71 402.25 787.61 402.15 787.38 402.15Z" fill="white"/>
<path d="M787.91 398.81C787.74 398.67 787.59 398.69 787.46 398.85C787.33 399.01 787.35 399.15 787.52 399.29C787.69 399.43 787.84 399.41 787.97 399.25C788.1 399.1 788.09 398.95 787.91 398.81Z" fill="white"/>
<path d="M790.66 399.98C790.66 399.76 790.55 399.65 790.34 399.65C790.14 399.65 790.03 399.75 790.03 399.97C790.03 400.19 790.13 400.29 790.34 400.29C790.55 400.3 790.66 400.2 790.66 399.98Z" fill="white"/>
<path d="M788.25 393.65C788.25 393.43 788.14 393.32 787.93 393.33C787.73 393.33 787.62 393.44 787.63 393.66C787.63 393.88 787.74 393.98 787.95 393.98C788.15 393.97 788.26 393.87 788.25 393.65Z" fill="white"/>
<path d="M774.33 414.12L774.34 414.13C774.52 414.46 774.77 414.53 775.09 414.35C775.4 414.18 775.47 413.93 775.28 413.6C775.1 413.27 774.85 413.2 774.54 413.37C774.22 413.54 774.14 413.78 774.33 414.12Z" fill="white"/>
<path d="M767.72 413.03H767.73C768.1 413.09 768.31 412.93 768.36 412.57C768.41 412.22 768.26 412.01 767.88 411.96C767.51 411.9 767.3 412.06 767.24 412.41C767.2 412.76 767.34 412.97 767.72 413.03Z" fill="white"/>
<path d="M770.91 411.81C771.22 412.05 771.47 412.01 771.7 411.73C771.92 411.45 771.89 411.2 771.58 410.96C771.28 410.73 771.02 410.76 770.81 411.04C770.58 411.32 770.6 411.58 770.91 411.81Z" fill="white"/>
<path d="M773.72 411.97C773.93 412.04 774.07 411.97 774.13 411.77C774.19 411.57 774.13 411.44 773.91 411.38C773.7 411.31 773.57 411.38 773.51 411.58C773.44 411.77 773.51 411.9 773.72 411.97Z" fill="white"/>
<path d="M770.27 414.49C770.49 414.51 770.61 414.41 770.62 414.2C770.64 414 770.54 413.88 770.32 413.87C770.1 413.85 769.99 413.95 769.97 414.15C769.95 414.36 770.04 414.47 770.27 414.49Z" fill="white"/>
<path d="M777.23 412.79C777.44 412.71 777.49 412.57 777.41 412.37C777.33 412.18 777.2 412.12 776.99 412.21C776.79 412.29 776.73 412.43 776.81 412.62C776.89 412.81 777.02 412.87 777.23 412.79Z" fill="white"/>
<mask id="mask2_205_2" style="mask-type:luminance" maskUnits="userSpaceOnUse" x="886" y="284" width="122" height="182">
<path d="M1007.08 284.3H886.71V465.55H1007.08V284.3Z" fill="white"/>
</mask>
<g mask="url(#mask2_205_2)">
<path d="M946.89 373.74C927.21 373.74 911.26 358.05 911.26 338.7C911.26 319.35 927.22 303.66 946.89 303.66C966.57 303.66 982.52 319.35 982.52 338.7C982.52 358.05 966.57 373.74 946.89 373.74ZM946.89 287.41C915.37 287.41 889.82 309.58 889.82 345.37C889.82 381.16 945.58 460.24 945.58 460.24C945.58 460.24 1003.97 381.16 1003.97 345.37C1003.97 309.58 978.41 287.41 946.89 287.41Z" fill="white"/>
</g>
<path d="M946.58 388.49C971.488 388.49 991.68 368.298 991.68 343.39C991.68 318.482 971.488 298.29 946.58 298.29C921.672 298.29 901.48 318.482 901.48 343.39C901.48 368.298 921.672 388.49 946.58 388.49Z" fill="white" stroke="#991B1D" stroke-width="2.3143" stroke-miterlimit="10"/>
<path d="M923.77 328.65L915.72 319.2L918.26 317.04C921.63 314.17 924.75 314.22 927.38 317.32C930.06 320.47 929.62 323.67 926.36 326.45L923.77 328.65ZM924.91 319.47C923.52 317.83 921.95 317.72 920.19 319.22L924.46 324.24C926.23 322.73 926.34 321.14 924.91 319.47Z" fill="#991B1D"/>
<path d="M934.17 307.56C942.58 305.05 946.15 317.78 937.96 320.22C929.77 322.66 925.76 310.07 934.17 307.56ZM936.95 316.96L937.02 316.94C939.15 316.31 939.85 314.95 939.25 312.9C938.65 310.89 937.34 310.17 935.16 310.82C933.03 311.45 932.28 312.79 932.88 314.8C933.48 316.85 934.77 317.61 936.95 316.96Z" fill="#991B1D"/>
<path d="M946.22 306.03L950.34 306.46C951.44 306.58 952.34 306.97 952.97 307.59C954.34 308.88 954.03 311.58 952.35 312.45C954.22 313.15 954.38 314.91 954.29 315.78C954.04 318.13 952.15 319.14 949.84 318.88L944.93 318.36L946.22 306.03ZM949.34 316.38L949.45 316.39C950.46 316.5 950.97 316.07 951.06 315.15C951.16 314.2 950.74 313.65 949.76 313.55L949.65 313.54C948.64 313.43 948.12 313.86 948.02 314.8C947.93 315.73 948.37 316.28 949.34 316.38ZM949.62 311.16L949.71 311.17C950.52 311.26 950.95 310.91 951.03 310.15C951.11 309.39 950.76 308.94 949.95 308.86L949.88 308.85C949.05 308.76 948.64 309.11 948.56 309.87C948.48 310.64 948.83 311.07 949.62 311.16Z" fill="#991B1D"/>
<path d="M958.67 318.84L957.58 321L954.69 319.55L960.27 308.46L963.92 310.29C965.57 311.12 968.2 312.8 966.51 316.16C964.9 319.37 962.24 318.64 961.3 318.29C961.23 320.56 962.52 321.23 963.49 319.55L965.87 320.75C965.57 321.34 965.16 321.84 964.67 322.27C963.52 323.26 962.09 323.44 960.78 322.78C959.59 322.19 958.88 320.86 958.67 318.84ZM961.55 315.48L961.65 315.53C962.62 316.02 963.29 315.8 963.73 314.91C964.18 314.01 963.96 313.31 963.02 312.84L962.93 312.79C961.96 312.3 961.29 312.52 960.85 313.41C960.38 314.32 960.61 315.01 961.55 315.48Z" fill="#991B1D"/>
<path d="M973.18 316.22L977.94 321.08L975.86 323.12L973.83 321.05C973.46 320.67 973.07 320.7 972.65 321.11C972.22 321.53 972.19 321.93 972.54 322.29L974.46 324.24L972.38 326.28L970.48 324.34C970.09 323.95 969.68 323.98 969.25 324.4C968.79 324.85 968.75 325.26 969.12 325.64L971.16 327.72L969.08 329.76L964.32 324.9L973.18 316.22Z" fill="#991B1D"/>
<path d="M922.31 359.98L925.23 362.34C926.84 363.64 929 365.78 926.69 368.65C924.35 371.56 921.68 370.02 920.7 369.23L919.63 368.37L917.16 371.45L914.7 369.47L922.31 359.98ZM922.09 366.97L922.17 367.04C923 367.7 923.68 367.63 924.29 366.87C924.91 366.1 924.81 365.37 924.03 364.75L923.95 364.68C923.12 364.02 922.44 364.09 921.83 364.85C921.21 365.62 921.29 366.33 922.09 366.97Z" fill="#991B1D"/>
<path d="M930.16 376.48L929.38 378.71L926.39 377.68L930.37 366.2L934.15 367.51C935.86 368.1 938.63 369.39 937.42 372.87C936.27 376.19 933.59 375.83 932.64 375.61C932.87 377.82 934.21 378.3 934.93 376.55L937.39 377.4C937.18 378.01 936.84 378.55 936.42 379.03C935.43 380.14 934.07 380.5 932.71 380.03C931.49 379.6 930.63 378.41 930.16 376.48ZM932.53 372.84L932.63 372.87C933.63 373.22 934.25 372.92 934.57 372C934.89 371.06 934.58 370.42 933.61 370.09L933.51 370.06C932.51 369.71 931.89 370.01 931.57 370.93C931.25 371.87 931.56 372.51 932.53 372.84Z" fill="#991B1D"/>
<path d="M941.26 369.4L947.92 369.51L947.87 372.36L945.04 372.31C944.52 372.3 944.27 372.59 944.26 373.17C944.25 373.76 944.51 374.06 944.99 374.07L947.67 374.12L947.62 376.97L944.96 376.93C944.42 376.92 944.15 377.23 944.14 377.82C944.13 378.45 944.38 378.76 944.91 378.77L947.76 378.82L947.71 381.67L941.05 381.56L941.26 369.4Z" fill="#991B1D"/>
<path d="M950.94 375.34C949.75 371.2 952.77 366.67 957.95 367.37L958.92 370.75C956.12 369.62 953.26 371.53 954.1 374.44C954.97 377.48 958.36 377.41 960.17 375.1L961.12 378.39C957.13 381.81 952.09 379.31 950.94 375.34Z" fill="#991B1D"/>
<path d="M959.34 366.16L962.04 364.44L967.03 372.27L969.95 370.41L971.49 372.83L965.88 376.41L959.34 366.16Z" fill="#991B1D"/>
<path d="M965.85 361.75L970.35 356.84L972.45 358.77L970.53 360.86C970.18 361.24 970.23 361.62 970.65 362.01C971.09 362.41 971.48 362.42 971.81 362.06L973.62 360.09L975.72 362.02L973.92 363.98C973.56 364.38 973.61 364.78 974.05 365.18C974.51 365.6 974.92 365.62 975.27 365.24L977.2 363.14L979.3 365.07L974.8 369.98L965.85 361.75Z" fill="#991B1D"/>
<path d="M951.13 334.38C951.24 334.37 951.36 334.37 951.47 334.36C951.77 334.35 951.93 334.25 952.09 334C952.97 332.63 954.1 331.52 955.51 330.71C956.12 330.36 956.76 330.07 957.44 329.73C955.09 328.59 952.66 328.24 950.14 328.55C948.99 328.69 947.88 328.93 946.84 329.3C948.58 330.69 950.06 332.4 951.13 334.38Z" fill="#EB8C0F"/>
<path d="M974.71 341.88C974.43 338.04 972.61 335.05 969.53 332.84C966.18 330.43 962.47 329.46 958.38 330.52C955.42 331.29 952.99 333.54 951.99 336.29C952.13 336.67 952.27 337.05 952.38 337.44C952.76 338.73 952.96 340.03 953.01 341.32C954.09 340.73 955.13 340.07 955.97 339.12C956.26 338.79 956.61 338.5 956.93 338.19C958.95 336.26 961.24 335.38 963.99 336.48C968.01 338.09 969.71 341.31 968.41 345.54C968.21 346.18 967.94 346.8 967.69 347.44C967.73 347.47 967.78 347.51 967.82 347.55C969.43 348.83 969.88 350.85 968.95 352.58C968.02 354.29 965.99 355.07 964.07 354.36C962.85 353.91 961.69 353.31 960.5 352.79C960.3 352.7 960.06 352.64 959.85 352.66C956.5 353.02 953.31 352.49 950.27 351.06C949.21 352.72 947.87 354.24 946.29 355.56C950.84 358.36 955.88 359.21 961.17 358.4C965.93 357.67 969.68 355.25 972.29 351.17C974.09 348.34 974.95 345.25 974.71 341.88Z" fill="#EB8C0F"/>
<path d="M950.05 334.32C948.14 330.97 945.2 329.07 941.47 328.41C937.41 327.69 933.64 328.42 930.41 331.14C927.25 333.8 926.14 338.49 928.01 342.04C928.41 342.8 928.88 343.51 929.52 344.12C929.6 344.04 929.66 343.99 929.71 343.93C930.63 342.7 931.53 341.46 931.96 339.94C932.08 339.51 932.27 339.1 932.42 338.69C933.41 336.07 935.09 334.29 938.04 334.09C942.36 333.8 945.29 335.97 945.95 340.34C946.05 341 946.07 341.68 946.12 342.36C946.17 342.37 946.23 342.39 946.29 342.4C948.29 342.86 949.58 344.49 949.48 346.44C949.38 348.39 947.89 349.97 945.85 350.15C944.56 350.27 943.25 350.23 941.95 350.28C941.73 350.29 941.49 350.33 941.31 350.44C938.41 352.24 935.25 353.15 931.83 353.15C931.62 353.15 931.38 353.23 931.2 353.34C930.04 354 928.92 354.73 927.74 355.33C926 356.21 923.92 355.66 922.8 354.12C921.67 352.56 921.84 350.5 923.22 349.06C923.44 348.83 923.44 348.69 923.27 348.44C922.66 347.49 922.22 346.46 921.98 345.35C921.69 344.02 921.65 342.69 922.19 341.41C922.92 339.68 924.2 338.45 925.83 337.59C926.1 337.45 926.19 337.29 926.23 337C926.43 335.39 926.96 333.89 927.89 332.55C928.29 331.97 928.74 331.43 929.21 330.83C926.6 330.82 924.26 331.56 922.11 332.92C919.22 334.76 917.11 337.23 916.24 340.6C915.45 343.68 915.85 346.68 917.19 349.53C919.71 354.91 923.93 358.11 929.82 358.85C935.33 359.55 940.41 358.15 944.97 355.03C948.94 352.31 951.29 348.51 951.86 343.7C952.28 340.41 951.72 337.25 950.05 334.32Z" fill="#EB8C0F"/>
<path d="M936.92 335.28C935.99 335.51 935.24 336.01 934.62 336.73C933.87 337.61 933.38 338.63 932.99 339.7C932.74 340.38 932.56 341.08 932.26 341.74C931.27 343.91 929.7 345.63 927.94 347.19C926.98 348.04 925.9 348.7 924.71 349.19C923.28 349.78 922.69 351.44 923.27 353C923.79 354.39 925.39 355.09 926.96 354.66C927.49 354.41 928.03 354.19 928.54 353.91C931.6 352.21 934.07 349.85 936.08 347C937.42 345.09 938.41 343.02 938.67 340.67C938.86 338.86 938.54 337.16 937.64 335.57C937.45 335.26 937.27 335.2 936.92 335.28Z" fill="#EB8C0F"/>
<path d="M936.4 348.18C936.57 348.24 936.68 348.29 936.79 348.33C938.47 348.84 940.18 349.2 941.93 349.33C943.48 349.45 945.03 349.48 946.54 349.02C947.91 348.6 948.78 347.08 948.47 345.71C948.11 344.13 946.73 343.06 945.25 343.32C943.37 343.66 941.55 343.41 939.73 343C939.56 342.96 939.38 342.93 939.18 342.88C938.57 344.83 937.61 346.53 936.4 348.18Z" fill="#EB8C0F"/>
<path d="M921.68 338.8C922.07 338.8 922.25 338.61 922.25 338.25C922.25 337.89 922.07 337.71 921.69 337.71C921.31 337.71 921.13 337.89 921.13 338.25C921.12 338.62 921.3 338.8 921.68 338.8Z" fill="white"/>
<path d="M918.04 340.95C918.43 340.95 918.61 340.76 918.61 340.4C918.61 340.04 918.43 339.86 918.05 339.86C917.67 339.86 917.49 340.04 917.49 340.4C917.48 340.76 917.65 340.95 918.04 340.95Z" fill="white"/>
<path d="M923.69 334.49C924 334.72 924.26 334.68 924.48 334.39C924.69 334.11 924.66 333.85 924.35 333.62C924.05 333.39 923.79 333.43 923.58 333.71C923.35 334.01 923.38 334.26 923.69 334.49Z" fill="white"/>
<path d="M921.94 335.72C922.16 335.74 922.28 335.65 922.3 335.44C922.32 335.24 922.23 335.12 922.01 335.1C921.79 335.08 921.68 335.17 921.65 335.37C921.64 335.57 921.72 335.69 921.94 335.72Z" fill="white"/>
<path d="M919.63 338.16C919.85 338.18 919.97 338.09 919.99 337.88C920.01 337.68 919.92 337.56 919.7 337.54C919.48 337.52 919.37 337.61 919.34 337.81C919.33 338.01 919.41 338.13 919.63 338.16Z" fill="white"/>
<path d="M920.6 342.31C920.71 342.12 920.67 341.97 920.49 341.87C920.31 341.77 920.17 341.8 920.06 341.99C919.95 342.18 919.98 342.32 920.16 342.43C920.35 342.53 920.49 342.5 920.6 342.31Z" fill="white"/>
<path d="M918.09 345.77C918.31 345.73 918.4 345.61 918.36 345.41C918.33 345.21 918.21 345.12 917.99 345.16C917.78 345.19 917.69 345.31 917.72 345.52C917.75 345.72 917.87 345.81 918.09 345.77Z" fill="white"/>
<path d="M924.25 336.61C924.35 336.81 924.49 336.85 924.68 336.76C924.86 336.67 924.91 336.53 924.81 336.33C924.71 336.14 924.57 336.09 924.39 336.18C924.2 336.27 924.15 336.41 924.25 336.61Z" fill="white"/>
<path d="M935.67 341.49C936.06 341.49 936.24 341.3 936.24 340.94C936.24 340.58 936.06 340.4 935.68 340.4C935.3 340.4 935.12 340.58 935.12 340.94C935.11 341.3 935.28 341.49 935.67 341.49Z" fill="white"/>
<path d="M933.01 347.76C933.32 347.99 933.58 347.95 933.8 347.66C934.01 347.38 933.98 347.12 933.67 346.89C933.37 346.66 933.11 346.7 932.9 346.98C932.67 347.28 932.7 347.53 933.01 347.76Z" fill="white"/>
<path d="M939.21 354.88C938.95 355.17 938.96 355.43 939.23 355.67C939.49 355.91 939.75 355.9 940.01 355.62C940.27 355.34 940.26 355.08 940 354.84C939.73 354.6 939.48 354.6 939.21 354.88Z" fill="white"/>
<path d="M934.44 355.38C934.75 355.61 935.01 355.57 935.23 355.28C935.44 355 935.41 354.74 935.1 354.51C934.8 354.28 934.54 354.32 934.33 354.6C934.11 354.9 934.13 355.15 934.44 355.38Z" fill="white"/>
<path d="M933.62 342.91C933.58 343.13 933.66 343.25 933.86 343.29C934.06 343.33 934.18 343.25 934.23 343.03C934.27 342.82 934.19 342.69 933.99 342.65C933.79 342.62 933.67 342.69 933.62 342.91Z" fill="white"/>
<path d="M939.82 346.54H939.83C940.2 346.46 940.34 346.24 940.27 345.89C940.2 345.54 939.99 345.4 939.61 345.48C939.24 345.56 939.09 345.77 939.17 346.12C939.24 346.47 939.45 346.62 939.82 346.54Z" fill="white"/>
<path d="M941.42 347.83C941.54 348.02 941.68 348.05 941.86 347.95C942.03 347.84 942.07 347.7 941.96 347.51C941.85 347.32 941.7 347.29 941.53 347.39C941.34 347.5 941.3 347.64 941.42 347.83Z" fill="white"/>
<path d="M939.34 353.27C939.46 353.46 939.6 353.49 939.78 353.39C939.95 353.28 939.99 353.14 939.88 352.95C939.77 352.76 939.62 352.73 939.45 352.83C939.27 352.94 939.23 353.08 939.34 353.27Z" fill="white"/>
<path d="M943.59 345.21C943.81 345.27 943.93 345.19 943.99 344.99C944.04 344.79 943.97 344.67 943.76 344.61C943.55 344.55 943.42 344.63 943.37 344.82C943.31 345.02 943.38 345.15 943.59 345.21Z" fill="white"/>
<path d="M932.31 357.51C932.53 357.57 932.65 357.49 932.71 357.29C932.76 357.09 932.69 356.97 932.48 356.91C932.27 356.85 932.14 356.93 932.09 357.12C932.03 357.32 932.1 357.45 932.31 357.51Z" fill="white"/>
<path d="M942.91 354.08C943.13 354.14 943.25 354.06 943.31 353.86C943.36 353.66 943.29 353.54 943.08 353.48C942.87 353.42 942.74 353.5 942.69 353.69C942.63 353.89 942.7 354.02 942.91 354.08Z" fill="white"/>
<path d="M930.67 333.96C930.98 334.19 931.24 334.15 931.46 333.86C931.67 333.58 931.64 333.32 931.33 333.09C931.03 332.86 930.77 332.9 930.56 333.18C930.34 333.47 930.36 333.72 930.67 333.96Z" fill="white"/>
<path d="M935.73 333.08C936.11 333.04 936.27 332.83 936.23 332.47C936.19 332.12 935.99 331.96 935.61 332C935.24 332.04 935.07 332.25 935.11 332.6C935.15 332.97 935.34 333.13 935.73 333.08Z" fill="white"/>
<path d="M940.13 330.61H940.14C940.5 330.72 940.73 330.59 940.83 330.25C940.93 329.91 940.82 329.68 940.45 329.57C940.09 329.46 939.86 329.58 939.75 329.92C939.65 330.27 939.76 330.49 940.13 330.61Z" fill="white"/>
<path d="M944.09 333.78H944.1C944.46 333.89 944.69 333.76 944.79 333.42C944.89 333.08 944.78 332.85 944.41 332.74C944.05 332.63 943.82 332.75 943.71 333.09C943.61 333.44 943.72 333.67 944.09 333.78Z" fill="white"/>
<path d="M929.48 337.34C929.12 337.21 928.88 337.32 928.76 337.66C928.64 337.99 928.74 338.23 929.1 338.36C929.45 338.49 929.69 338.39 929.82 338.05C929.94 337.71 929.84 337.48 929.48 337.34Z" fill="white"/>
<path d="M930.94 336.07C931.04 336.27 931.18 336.31 931.37 336.22C931.55 336.13 931.6 335.99 931.5 335.79C931.4 335.6 931.26 335.55 931.08 335.64C930.89 335.73 930.84 335.87 930.94 336.07Z" fill="white"/>
<path d="M937.02 330.5C936.89 330.32 936.74 330.3 936.57 330.42C936.41 330.54 936.38 330.69 936.51 330.86C936.64 331.03 936.79 331.06 936.95 330.94C937.13 330.83 937.16 330.68 937.02 330.5Z" fill="white"/>
<path d="M934.08 330.46C933.87 330.39 933.73 330.46 933.67 330.66C933.61 330.86 933.68 330.99 933.89 331.05C934.1 331.11 934.23 331.05 934.29 330.85C934.36 330.66 934.3 330.53 934.08 330.46Z" fill="white"/>
<path d="M947.12 336.81C946.92 336.91 946.88 337.06 946.97 337.24C947.06 337.42 947.2 337.47 947.4 337.37C947.59 337.27 947.64 337.13 947.55 336.95C947.45 336.76 947.32 336.71 947.12 336.81Z" fill="white"/>
<path d="M947.87 334.5C947.77 334.3 947.63 334.25 947.44 334.34C947.26 334.43 947.21 334.57 947.3 334.77C947.39 334.97 947.53 335.02 947.72 334.93C947.91 334.84 947.97 334.71 947.87 334.5Z" fill="white"/>
<path d="M943.63 330.89C943.53 330.69 943.39 330.65 943.2 330.74C943.02 330.83 942.97 330.97 943.07 331.17C943.17 331.36 943.31 331.41 943.49 331.32C943.68 331.22 943.73 331.08 943.63 330.89Z" fill="white"/>
<path d="M935.24 344.74C935.04 344.64 934.9 344.69 934.81 344.87C934.72 345.05 934.76 345.19 934.96 345.29C935.15 345.39 935.3 345.34 935.39 345.16C935.48 344.98 935.44 344.84 935.24 344.74Z" fill="white"/>
<path d="M936.5 356.47C936.32 356.6 936.3 356.75 936.42 356.92C936.54 357.09 936.68 357.11 936.86 356.98C937.04 356.85 937.06 356.71 936.94 356.54C936.82 356.37 936.68 356.34 936.5 356.47Z" fill="white"/>
<path d="M930.72 347.07C930.54 346.94 930.39 346.97 930.27 347.15C930.15 347.32 930.18 347.46 930.36 347.59C930.54 347.71 930.69 347.69 930.8 347.52C930.92 347.34 930.9 347.2 930.72 347.07Z" fill="white"/>
<path d="M929.33 349.51C929.11 349.48 928.99 349.57 928.96 349.78C928.93 349.98 929.02 350.1 929.24 350.13C929.45 350.16 929.58 350.07 929.6 349.87C929.64 349.67 929.55 349.55 929.33 349.51Z" fill="white"/>
<path d="M961.21 344.91C959.81 346.39 958.21 347.51 956.41 348.47C956.53 348.6 956.61 348.69 956.7 348.77C957.99 349.96 959.38 351.02 960.91 351.89C962.26 352.66 963.64 353.37 965.2 353.61C966.62 353.83 968.06 352.83 968.37 351.46C968.73 349.88 967.95 348.32 966.5 347.92C964.66 347.41 963.13 346.4 961.66 345.25C961.51 345.14 961.37 345.03 961.21 344.91Z" fill="#EB8C0F"/>
<path d="M962.97 337.63C962.95 337.27 962.81 337.14 962.46 337.07C961.52 336.88 960.63 337.01 959.76 337.38C958.7 337.84 957.82 338.55 957 339.35C956.48 339.85 956.01 340.41 955.46 340.87C954.7 341.51 953.87 342.03 953.01 342.47C952.92 344.92 952.27 347.32 951.14 349.53C953.04 349.02 954.86 348.25 956.61 347.26C958.64 346.12 960.43 344.68 961.68 342.67C962.65 341.13 963.1 339.45 962.97 337.63Z" fill="#EB8C0F"/>
<path d="M950.98 331.68C951.17 331.8 951.32 331.76 951.43 331.58C951.54 331.41 951.51 331.26 951.32 331.15C951.14 331.04 950.99 331.07 950.88 331.24C950.76 331.42 950.79 331.56 950.98 331.68Z" fill="white"/>
<path d="M952.36 329.96C952.36 330.18 952.47 330.29 952.68 330.28C952.88 330.28 952.99 330.17 952.98 329.95C952.98 329.73 952.87 329.63 952.66 329.63C952.46 329.64 952.36 329.74 952.36 329.96Z" fill="white"/>
<path d="M958.79 343.27L958.8 343.28C959.14 343.44 959.38 343.35 959.54 343.03C959.69 342.71 959.61 342.47 959.26 342.3C958.92 342.14 958.67 342.22 958.52 342.54C958.37 342.86 958.45 343.1 958.79 343.27Z" fill="white"/>
<path d="M955.55 344.84L955.56 344.85C955.73 345.18 955.98 345.26 956.3 345.09C956.62 344.93 956.69 344.68 956.52 344.34C956.35 344.01 956.1 343.92 955.78 344.09C955.45 344.25 955.37 344.49 955.55 344.84Z" fill="white"/>
<path d="M959.65 340.41C959.65 340.63 959.76 340.74 959.97 340.73C960.17 340.73 960.28 340.62 960.27 340.4C960.27 340.18 960.16 340.08 959.95 340.08C959.75 340.09 959.64 340.19 959.65 340.41Z" fill="white"/>
<path d="M956.09 342.29C955.96 342.47 955.98 342.62 956.14 342.74C956.3 342.86 956.45 342.84 956.58 342.67C956.71 342.5 956.69 342.35 956.53 342.22C956.37 342.1 956.23 342.12 956.09 342.29Z" fill="white"/>
<path d="M960.53 349.75H960.54C960.91 349.84 961.13 349.7 961.21 349.35C961.3 349 961.17 348.79 960.79 348.69C960.42 348.6 960.2 348.73 960.11 349.07C960.03 349.43 960.15 349.65 960.53 349.75Z" fill="white"/>
<path d="M962.52 348.33C962.39 348.51 962.41 348.66 962.57 348.78C962.73 348.9 962.88 348.88 963.01 348.71C963.14 348.54 963.12 348.39 962.96 348.26C962.8 348.14 962.65 348.15 962.52 348.33Z" fill="white"/>
<path d="M964.3 350.78C964.51 350.85 964.65 350.78 964.71 350.58C964.77 350.38 964.71 350.25 964.49 350.19C964.28 350.12 964.15 350.19 964.09 350.39C964.02 350.58 964.09 350.71 964.3 350.78Z" fill="white"/>
<path d="M959.13 332.6L959.14 332.61C959.31 332.94 959.56 333.02 959.88 332.85C960.2 332.69 960.27 332.44 960.1 332.1C959.93 331.77 959.68 331.68 959.36 331.85C959.03 332.02 958.95 332.25 959.13 332.6Z" fill="white"/>
<path d="M964.61 332.75C964.9 333.01 965.16 333 965.4 332.73C965.64 332.47 965.63 332.21 965.35 331.95C965.07 331.69 964.81 331.7 964.57 331.96C964.33 332.23 964.33 332.48 964.61 332.75Z" fill="white"/>
<path d="M971.74 340.26C972.03 340.52 972.29 340.51 972.53 340.24C972.77 339.98 972.76 339.72 972.48 339.46C972.2 339.2 971.94 339.21 971.7 339.47C971.46 339.74 971.46 340 971.74 340.26Z" fill="white"/>
<path d="M967.47 335.69C967.21 335.98 967.23 336.24 967.5 336.48C967.77 336.72 968.02 336.7 968.28 336.41C968.53 336.13 968.52 335.87 968.25 335.63C967.98 335.4 967.73 335.4 967.47 335.69Z" fill="white"/>
<path d="M955.49 336.28C955.22 336 954.96 336 954.69 336.25C954.43 336.5 954.43 336.75 954.69 337.03C954.95 337.3 955.21 337.31 955.47 337.06C955.74 336.81 955.75 336.55 955.49 336.28Z" fill="white"/>
<path d="M955.92 334.39C955.92 334.61 956.03 334.72 956.24 334.71C956.44 334.71 956.55 334.6 956.54 334.38C956.54 334.16 956.43 334.06 956.22 334.06C956.03 334.06 955.92 334.17 955.92 334.39Z" fill="white"/>
<path d="M959.86 334.67C959.64 334.61 959.52 334.69 959.46 334.89C959.41 335.09 959.48 335.21 959.69 335.27C959.9 335.33 960.03 335.25 960.08 335.06C960.14 334.86 960.07 334.73 959.86 334.67Z" fill="white"/>
<path d="M964.07 334.25C964.03 334.03 963.9 333.95 963.7 333.99C963.5 334.03 963.42 334.15 963.46 334.37C963.5 334.58 963.62 334.67 963.82 334.63C964.03 334.58 964.12 334.46 964.07 334.25Z" fill="white"/>
<path d="M968.44 333.75C968.22 333.76 968.11 333.87 968.12 334.07C968.13 334.27 968.23 334.38 968.45 334.37C968.67 334.36 968.77 334.26 968.77 334.05C968.76 333.85 968.66 333.74 968.44 333.75Z" fill="white"/>
<path d="M970.38 345.15C970.16 345.16 970.05 345.27 970.06 345.47C970.07 345.67 970.17 345.78 970.39 345.77C970.61 345.76 970.71 345.66 970.71 345.45C970.71 345.25 970.61 345.15 970.38 345.15Z" fill="white"/>
<path d="M970.91 341.81C970.74 341.67 970.59 341.69 970.46 341.85C970.33 342.01 970.35 342.15 970.52 342.29C970.69 342.43 970.84 342.41 970.97 342.25C971.1 342.1 971.09 341.95 970.91 341.81Z" fill="white"/>
<path d="M973.66 342.98C973.66 342.76 973.55 342.65 973.34 342.65C973.14 342.65 973.03 342.75 973.03 342.97C973.03 343.19 973.13 343.29 973.34 343.29C973.55 343.3 973.66 343.2 973.66 342.98Z" fill="white"/>
<path d="M971.25 336.65C971.25 336.43 971.14 336.32 970.93 336.33C970.73 336.33 970.62 336.44 970.63 336.66C970.63 336.88 970.74 336.98 970.95 336.98C971.15 336.97 971.26 336.87 971.25 336.65Z" fill="white"/>
<path d="M957.33 357.12L957.34 357.13C957.52 357.46 957.77 357.53 958.09 357.35C958.4 357.18 958.47 356.93 958.28 356.6C958.1 356.27 957.85 356.2 957.54 356.37C957.22 356.54 957.14 356.78 957.33 357.12Z" fill="white"/>
<path d="M950.72 356.03H950.73C951.1 356.09 951.31 355.93 951.36 355.57C951.41 355.22 951.26 355.01 950.88 354.96C950.51 354.9 950.3 355.06 950.24 355.41C950.2 355.76 950.34 355.97 950.72 356.03Z" fill="white"/>
<path d="M953.91 354.81C954.22 355.05 954.47 355.01 954.7 354.73C954.92 354.45 954.89 354.2 954.58 353.96C954.28 353.73 954.02 353.76 953.81 354.04C953.58 354.32 953.6 354.58 953.91 354.81Z" fill="white"/>
<path d="M956.72 354.97C956.93 355.04 957.07 354.97 957.13 354.77C957.19 354.57 957.13 354.44 956.91 354.38C956.7 354.31 956.57 354.38 956.51 354.58C956.44 354.77 956.51 354.9 956.72 354.97Z" fill="white"/>
<path d="M953.27 357.49C953.49 357.51 953.61 357.41 953.62 357.2C953.64 357 953.54 356.88 953.32 356.87C953.1 356.85 952.99 356.95 952.97 357.15C952.95 357.36 953.04 357.47 953.27 357.49Z" fill="white"/>
<path d="M960.23 355.79C960.44 355.71 960.49 355.57 960.41 355.37C960.33 355.18 960.2 355.12 959.99 355.21C959.79 355.29 959.73 355.43 959.81 355.62C959.89 355.81 960.02 355.87 960.23 355.79Z" fill="white"/>
<mask id="mask3_205_2" style="mask-type:luminance" maskUnits="userSpaceOnUse" x="1093" y="380" width="122" height="182">
<path d="M1214.08 380.3H1093.71V561.55H1214.08V380.3Z" fill="white"/>
</mask>
<g mask="url(#mask3_205_2)">
<path d="M1153.89 469.74C1134.21 469.74 1118.26 454.05 1118.26 434.7C1118.26 415.35 1134.22 399.66 1153.89 399.66C1173.57 399.66 1189.52 415.35 1189.52 434.7C1189.52 454.05 1173.57 469.74 1153.89 469.74ZM1153.89 383.41C1122.37 383.41 1096.82 405.58 1096.82 441.37C1096.82 477.16 1152.58 556.24 1152.58 556.24C1152.58 556.24 1210.97 477.16 1210.97 441.37C1210.97 405.58 1185.41 383.41 1153.89 383.41Z" fill="white"/>
</g>
<path d="M1153.58 484.49C1178.49 484.49 1198.68 464.298 1198.68 439.39C1198.68 414.482 1178.49 394.29 1153.58 394.29C1128.67 394.29 1108.48 414.482 1108.48 439.39C1108.48 464.298 1128.67 484.49 1153.58 484.49Z" fill="white" stroke="#991B1D" stroke-width="2.3143" stroke-miterlimit="10"/>
<path d="M1130.77 424.65L1122.72 415.2L1125.26 413.04C1128.63 410.17 1131.75 410.22 1134.38 413.32C1137.06 416.47 1136.62 419.67 1133.36 422.45L1130.77 424.65ZM1131.91 415.47C1130.52 413.83 1128.95 413.72 1127.19 415.22L1131.46 420.24C1133.23 418.73 1133.34 417.14 1131.91 415.47Z" fill="#991B1D"/>
<path d="M1141.17 403.56C1149.58 401.05 1153.15 413.78 1144.96 416.22C1136.77 418.66 1132.76 406.07 1141.17 403.56ZM1143.95 412.96L1144.02 412.94C1146.15 412.31 1146.85 410.95 1146.25 408.9C1145.65 406.89 1144.34 406.17 1142.16 406.82C1140.03 407.45 1139.28 408.79 1139.88 410.8C1140.48 412.85 1141.77 413.61 1143.95 412.96Z" fill="#991B1D"/>
<path d="M1153.22 402.03L1157.34 402.46C1158.44 402.58 1159.34 402.97 1159.97 403.59C1161.34 404.88 1161.03 407.58 1159.35 408.45C1161.22 409.15 1161.38 410.91 1161.29 411.78C1161.04 414.13 1159.15 415.14 1156.84 414.88L1151.93 414.36L1153.22 402.03ZM1156.34 412.38L1156.45 412.39C1157.46 412.5 1157.97 412.07 1158.06 411.15C1158.16 410.2 1157.74 409.65 1156.76 409.55L1156.65 409.54C1155.64 409.43 1155.12 409.86 1155.02 410.8C1154.93 411.73 1155.37 412.28 1156.34 412.38ZM1156.62 407.16L1156.71 407.17C1157.52 407.26 1157.95 406.91 1158.03 406.15C1158.11 405.39 1157.76 404.94 1156.95 404.86L1156.88 404.85C1156.05 404.76 1155.64 405.11 1155.56 405.87C1155.48 406.64 1155.83 407.07 1156.62 407.16Z" fill="#991B1D"/>
<path d="M1165.67 414.84L1164.58 417L1161.69 415.55L1167.27 404.46L1170.92 406.29C1172.57 407.12 1175.2 408.8 1173.51 412.16C1171.9 415.37 1169.24 414.64 1168.3 414.29C1168.23 416.56 1169.52 417.23 1170.49 415.55L1172.87 416.75C1172.57 417.34 1172.16 417.84 1171.67 418.27C1170.52 419.26 1169.09 419.44 1167.78 418.78C1166.59 418.19 1165.88 416.86 1165.67 414.84ZM1168.55 411.48L1168.65 411.53C1169.62 412.02 1170.29 411.8 1170.73 410.91C1171.18 410.01 1170.96 409.31 1170.02 408.84L1169.93 408.79C1168.96 408.3 1168.29 408.52 1167.85 409.41C1167.38 410.32 1167.61 411.01 1168.55 411.48Z" fill="#991B1D"/>
<path d="M1180.18 412.22L1184.94 417.08L1182.86 419.12L1180.83 417.05C1180.46 416.67 1180.07 416.7 1179.65 417.11C1179.22 417.53 1179.19 417.93 1179.54 418.29L1181.46 420.24L1179.38 422.28L1177.48 420.34C1177.09 419.95 1176.68 419.98 1176.25 420.4C1175.79 420.85 1175.75 421.26 1176.12 421.64L1178.16 423.72L1176.08 425.76L1171.32 420.9L1180.18 412.22Z" fill="#991B1D"/>
<path d="M1129.31 455.98L1132.23 458.34C1133.84 459.64 1136 461.78 1133.69 464.65C1131.35 467.56 1128.68 466.02 1127.7 465.23L1126.63 464.37L1124.16 467.45L1121.7 465.47L1129.31 455.98ZM1129.09 462.97L1129.17 463.04C1130 463.7 1130.68 463.63 1131.29 462.87C1131.91 462.1 1131.81 461.37 1131.03 460.75L1130.95 460.68C1130.12 460.02 1129.44 460.09 1128.83 460.85C1128.21 461.62 1128.29 462.33 1129.09 462.97Z" fill="#991B1D"/>
<path d="M1137.16 472.48L1136.38 474.71L1133.39 473.68L1137.37 462.2L1141.15 463.51C1142.86 464.1 1145.63 465.39 1144.42 468.87C1143.27 472.19 1140.59 471.83 1139.64 471.61C1139.87 473.82 1141.21 474.3 1141.93 472.55L1144.39 473.4C1144.18 474.01 1143.84 474.55 1143.42 475.03C1142.43 476.14 1141.07 476.5 1139.71 476.03C1138.49 475.6 1137.63 474.41 1137.16 472.48ZM1139.53 468.84L1139.63 468.87C1140.63 469.22 1141.25 468.92 1141.57 468C1141.89 467.06 1141.58 466.42 1140.61 466.09L1140.51 466.06C1139.51 465.71 1138.89 466.01 1138.57 466.93C1138.25 467.87 1138.56 468.51 1139.53 468.84Z" fill="#991B1D"/>
<path d="M1148.26 465.4L1154.92 465.51L1154.87 468.36L1152.04 468.31C1151.52 468.3 1151.27 468.59 1151.26 469.17C1151.25 469.76 1151.51 470.06 1151.99 470.07L1154.67 470.12L1154.62 472.97L1151.96 472.93C1151.42 472.92 1151.15 473.23 1151.14 473.82C1151.13 474.45 1151.38 474.76 1151.91 474.77L1154.76 474.82L1154.71 477.67L1148.05 477.56L1148.26 465.4Z" fill="#991B1D"/>
<path d="M1157.94 471.34C1156.75 467.2 1159.77 462.67 1164.95 463.37L1165.92 466.75C1163.12 465.62 1160.26 467.53 1161.1 470.44C1161.97 473.48 1165.36 473.41 1167.17 471.1L1168.12 474.39C1164.13 477.81 1159.09 475.31 1157.94 471.34Z" fill="#991B1D"/>
<path d="M1166.34 462.16L1169.04 460.44L1174.03 468.27L1176.95 466.41L1178.49 468.83L1172.88 472.41L1166.34 462.16Z" fill="#991B1D"/>
<path d="M1172.85 457.75L1177.35 452.84L1179.45 454.77L1177.53 456.86C1177.18 457.24 1177.23 457.62 1177.65 458.01C1178.09 458.41 1178.48 458.42 1178.81 458.06L1180.62 456.09L1182.72 458.02L1180.92 459.98C1180.56 460.38 1180.61 460.78 1181.05 461.18C1181.51 461.6 1181.92 461.62 1182.27 461.24L1184.2 459.14L1186.3 461.07L1181.8 465.98L1172.85 457.75Z" fill="#991B1D"/>
<path d="M1158.13 430.38C1158.24 430.37 1158.36 430.37 1158.47 430.36C1158.77 430.35 1158.93 430.25 1159.09 430C1159.97 428.63 1161.1 427.52 1162.51 426.71C1163.12 426.36 1163.76 426.07 1164.44 425.73C1162.09 424.59 1159.66 424.24 1157.14 424.55C1155.99 424.69 1154.88 424.93 1153.84 425.3C1155.58 426.69 1157.06 428.4 1158.13 430.38Z" fill="#EB8C0F"/>
<path d="M1181.71 437.88C1181.43 434.04 1179.61 431.05 1176.53 428.84C1173.18 426.43 1169.47 425.46 1165.38 426.52C1162.42 427.29 1159.99 429.54 1158.99 432.29C1159.13 432.67 1159.27 433.05 1159.38 433.44C1159.76 434.73 1159.96 436.03 1160.01 437.32C1161.09 436.73 1162.13 436.07 1162.97 435.12C1163.26 434.79 1163.61 434.5 1163.93 434.19C1165.95 432.26 1168.24 431.38 1170.99 432.48C1175.01 434.09 1176.71 437.31 1175.41 441.54C1175.21 442.18 1174.94 442.8 1174.69 443.44C1174.73 443.47 1174.78 443.51 1174.82 443.55C1176.43 444.83 1176.88 446.85 1175.95 448.58C1175.02 450.29 1172.99 451.07 1171.07 450.36C1169.85 449.91 1168.69 449.31 1167.5 448.79C1167.3 448.7 1167.06 448.64 1166.85 448.66C1163.5 449.02 1160.31 448.49 1157.27 447.06C1156.21 448.72 1154.87 450.24 1153.29 451.56C1157.84 454.36 1162.88 455.21 1168.17 454.4C1172.93 453.67 1176.68 451.25 1179.29 447.17C1181.09 444.34 1181.95 441.25 1181.71 437.88Z" fill="#EB8C0F"/>
<path d="M1157.05 430.32C1155.14 426.97 1152.2 425.07 1148.47 424.41C1144.41 423.69 1140.64 424.42 1137.41 427.14C1134.25 429.8 1133.14 434.49 1135.01 438.04C1135.41 438.8 1135.88 439.51 1136.52 440.12C1136.6 440.04 1136.66 439.99 1136.71 439.93C1137.63 438.7 1138.53 437.46 1138.96 435.94C1139.08 435.51 1139.27 435.1 1139.42 434.69C1140.41 432.07 1142.09 430.29 1145.04 430.09C1149.36 429.8 1152.29 431.97 1152.95 436.34C1153.05 437 1153.07 437.68 1153.12 438.36C1153.17 438.37 1153.23 438.39 1153.29 438.4C1155.29 438.86 1156.58 440.49 1156.48 442.44C1156.38 444.39 1154.89 445.97 1152.85 446.15C1151.56 446.27 1150.25 446.23 1148.95 446.28C1148.73 446.29 1148.49 446.33 1148.31 446.44C1145.41 448.24 1142.25 449.15 1138.83 449.15C1138.62 449.15 1138.38 449.23 1138.2 449.34C1137.04 450 1135.92 450.73 1134.74 451.33C1133 452.21 1130.92 451.66 1129.8 450.12C1128.67 448.56 1128.84 446.5 1130.22 445.06C1130.44 444.83 1130.44 444.69 1130.27 444.44C1129.66 443.49 1129.22 442.46 1128.98 441.35C1128.69 440.02 1128.65 438.69 1129.19 437.41C1129.92 435.68 1131.2 434.45 1132.83 433.59C1133.1 433.45 1133.19 433.29 1133.23 433C1133.43 431.39 1133.96 429.89 1134.89 428.55C1135.29 427.97 1135.74 427.43 1136.21 426.83C1133.6 426.82 1131.26 427.56 1129.11 428.92C1126.22 430.76 1124.11 433.23 1123.24 436.6C1122.45 439.68 1122.85 442.68 1124.19 445.53C1126.71 450.91 1130.93 454.11 1136.82 454.85C1142.33 455.55 1147.41 454.15 1151.97 451.03C1155.94 448.31 1158.29 444.51 1158.86 439.7C1159.28 436.41 1158.72 433.25 1157.05 430.32Z" fill="#EB8C0F"/>
<path d="M1143.92 431.28C1142.99 431.51 1142.24 432.01 1141.62 432.73C1140.87 433.61 1140.38 434.63 1139.99 435.7C1139.74 436.38 1139.56 437.08 1139.26 437.74C1138.27 439.91 1136.7 441.63 1134.94 443.19C1133.98 444.04 1132.9 444.7 1131.71 445.19C1130.28 445.78 1129.69 447.44 1130.27 449C1130.79 450.39 1132.39 451.09 1133.96 450.66C1134.49 450.41 1135.03 450.19 1135.54 449.91C1138.6 448.21 1141.07 445.85 1143.08 443C1144.42 441.09 1145.41 439.02 1145.67 436.67C1145.86 434.86 1145.54 433.16 1144.64 431.57C1144.45 431.26 1144.27 431.2 1143.92 431.28Z" fill="#EB8C0F"/>
<path d="M1143.4 444.18C1143.57 444.24 1143.68 444.29 1143.79 444.33C1145.47 444.84 1147.18 445.2 1148.93 445.33C1150.48 445.45 1152.03 445.48 1153.54 445.02C1154.91 444.6 1155.78 443.08 1155.47 441.71C1155.11 440.13 1153.73 439.06 1152.25 439.32C1150.37 439.66 1148.55 439.41 1146.73 439C1146.56 438.96 1146.38 438.93 1146.18 438.88C1145.57 440.83 1144.61 442.53 1143.4 444.18Z" fill="#EB8C0F"/>
<path d="M1128.68 434.8C1129.07 434.8 1129.25 434.61 1129.25 434.25C1129.25 433.89 1129.07 433.71 1128.69 433.71C1128.31 433.71 1128.13 433.89 1128.13 434.25C1128.12 434.62 1128.3 434.8 1128.68 434.8Z" fill="white"/>
<path d="M1125.04 436.95C1125.43 436.95 1125.61 436.76 1125.61 436.4C1125.61 436.04 1125.43 435.86 1125.05 435.86C1124.67 435.86 1124.49 436.04 1124.49 436.4C1124.48 436.76 1124.65 436.95 1125.04 436.95Z" fill="white"/>
<path d="M1130.69 430.49C1131 430.72 1131.26 430.68 1131.48 430.39C1131.69 430.11 1131.66 429.85 1131.35 429.62C1131.05 429.39 1130.79 429.43 1130.58 429.71C1130.35 430.01 1130.38 430.26 1130.69 430.49Z" fill="white"/>
<path d="M1128.94 431.72C1129.16 431.74 1129.28 431.65 1129.3 431.44C1129.32 431.24 1129.23 431.12 1129.01 431.1C1128.79 431.08 1128.68 431.17 1128.65 431.37C1128.64 431.57 1128.72 431.69 1128.94 431.72Z" fill="white"/>
<path d="M1126.63 434.16C1126.85 434.18 1126.97 434.09 1126.99 433.88C1127.01 433.68 1126.92 433.56 1126.7 433.54C1126.48 433.52 1126.37 433.61 1126.34 433.81C1126.33 434.01 1126.41 434.13 1126.63 434.16Z" fill="white"/>
<path d="M1127.6 438.31C1127.71 438.12 1127.67 437.97 1127.49 437.87C1127.31 437.77 1127.17 437.8 1127.06 437.99C1126.95 438.18 1126.98 438.32 1127.16 438.43C1127.35 438.53 1127.49 438.5 1127.6 438.31Z" fill="white"/>
<path d="M1125.09 441.77C1125.31 441.73 1125.4 441.61 1125.36 441.41C1125.33 441.21 1125.21 441.12 1124.99 441.16C1124.78 441.19 1124.69 441.31 1124.72 441.52C1124.75 441.72 1124.87 441.81 1125.09 441.77Z" fill="white"/>
<path d="M1131.25 432.61C1131.35 432.81 1131.49 432.85 1131.68 432.76C1131.86 432.67 1131.91 432.53 1131.81 432.33C1131.71 432.14 1131.57 432.09 1131.39 432.18C1131.2 432.27 1131.15 432.41 1131.25 432.61Z" fill="white"/>
<path d="M1142.67 437.49C1143.06 437.49 1143.24 437.3 1143.24 436.94C1143.24 436.58 1143.06 436.4 1142.68 436.4C1142.3 436.4 1142.12 436.58 1142.12 436.94C1142.11 437.3 1142.28 437.49 1142.67 437.49Z" fill="white"/>
<path d="M1140.01 443.76C1140.32 443.99 1140.58 443.95 1140.8 443.66C1141.01 443.38 1140.98 443.12 1140.67 442.89C1140.37 442.66 1140.11 442.7 1139.9 442.98C1139.67 443.28 1139.7 443.53 1140.01 443.76Z" fill="white"/>
<path d="M1146.21 450.88C1145.95 451.17 1145.96 451.43 1146.23 451.67C1146.49 451.91 1146.75 451.9 1147.01 451.62C1147.27 451.34 1147.26 451.08 1147 450.84C1146.73 450.6 1146.48 450.6 1146.21 450.88Z" fill="white"/>
<path d="M1141.44 451.38C1141.75 451.61 1142.01 451.57 1142.23 451.28C1142.44 451 1142.41 450.74 1142.1 450.51C1141.8 450.28 1141.54 450.32 1141.33 450.6C1141.11 450.9 1141.13 451.15 1141.44 451.38Z" fill="white"/>
<path d="M1140.62 438.91C1140.58 439.13 1140.66 439.25 1140.86 439.29C1141.06 439.33 1141.18 439.25 1141.23 439.03C1141.27 438.82 1141.19 438.69 1140.99 438.65C1140.79 438.62 1140.67 438.69 1140.62 438.91Z" fill="white"/>
<path d="M1146.82 442.54H1146.83C1147.2 442.46 1147.34 442.24 1147.27 441.89C1147.2 441.54 1146.99 441.4 1146.61 441.48C1146.24 441.56 1146.09 441.77 1146.17 442.12C1146.24 442.47 1146.45 442.62 1146.82 442.54Z" fill="white"/>
<path d="M1148.42 443.83C1148.54 444.02 1148.68 444.05 1148.86 443.95C1149.03 443.84 1149.07 443.7 1148.96 443.51C1148.85 443.32 1148.7 443.29 1148.53 443.39C1148.34 443.5 1148.3 443.64 1148.42 443.83Z" fill="white"/>
<path d="M1146.34 449.27C1146.46 449.46 1146.6 449.49 1146.78 449.39C1146.95 449.28 1146.99 449.14 1146.88 448.95C1146.77 448.76 1146.62 448.73 1146.45 448.83C1146.27 448.94 1146.23 449.08 1146.34 449.27Z" fill="white"/>
<path d="M1150.59 441.21C1150.81 441.27 1150.93 441.19 1150.99 440.99C1151.04 440.79 1150.97 440.67 1150.76 440.61C1150.55 440.55 1150.42 440.63 1150.37 440.82C1150.31 441.02 1150.38 441.15 1150.59 441.21Z" fill="white"/>
<path d="M1139.31 453.51C1139.53 453.57 1139.65 453.49 1139.71 453.29C1139.76 453.09 1139.69 452.97 1139.48 452.91C1139.27 452.85 1139.14 452.93 1139.09 453.12C1139.03 453.32 1139.1 453.45 1139.31 453.51Z" fill="white"/>
<path d="M1149.91 450.08C1150.13 450.14 1150.25 450.06 1150.31 449.86C1150.36 449.66 1150.29 449.54 1150.08 449.48C1149.87 449.42 1149.74 449.5 1149.69 449.69C1149.63 449.89 1149.7 450.02 1149.91 450.08Z" fill="white"/>
<path d="M1137.67 429.96C1137.98 430.19 1138.24 430.15 1138.46 429.86C1138.67 429.58 1138.64 429.32 1138.33 429.09C1138.03 428.86 1137.77 428.9 1137.56 429.18C1137.34 429.47 1137.36 429.72 1137.67 429.96Z" fill="white"/>
<path d="M1142.73 429.08C1143.11 429.04 1143.27 428.83 1143.23 428.47C1143.19 428.12 1142.99 427.96 1142.61 428C1142.24 428.04 1142.07 428.25 1142.11 428.6C1142.15 428.97 1142.34 429.13 1142.73 429.08Z" fill="white"/>
<path d="M1147.13 426.61H1147.14C1147.5 426.72 1147.73 426.59 1147.83 426.25C1147.93 425.91 1147.82 425.68 1147.45 425.57C1147.09 425.46 1146.86 425.58 1146.75 425.92C1146.65 426.27 1146.76 426.49 1147.13 426.61Z" fill="white"/>
<path d="M1151.09 429.78H1151.1C1151.46 429.89 1151.69 429.76 1151.79 429.42C1151.89 429.08 1151.78 428.85 1151.41 428.74C1151.05 428.63 1150.82 428.75 1150.71 429.09C1150.61 429.44 1150.72 429.67 1151.09 429.78Z" fill="white"/>
<path d="M1136.48 433.34C1136.12 433.21 1135.88 433.32 1135.76 433.66C1135.64 433.99 1135.74 434.23 1136.1 434.36C1136.45 434.49 1136.69 434.39 1136.82 434.05C1136.94 433.71 1136.84 433.48 1136.48 433.34Z" fill="white"/>
<path d="M1137.94 432.07C1138.04 432.27 1138.18 432.31 1138.37 432.22C1138.55 432.13 1138.6 431.99 1138.5 431.79C1138.4 431.6 1138.26 431.55 1138.08 431.64C1137.89 431.73 1137.84 431.87 1137.94 432.07Z" fill="white"/>
<path d="M1144.02 426.5C1143.89 426.32 1143.74 426.3 1143.57 426.42C1143.41 426.54 1143.38 426.69 1143.51 426.86C1143.64 427.03 1143.79 427.06 1143.95 426.94C1144.13 426.83 1144.16 426.68 1144.02 426.5Z" fill="white"/>
<path d="M1141.08 426.46C1140.87 426.39 1140.73 426.46 1140.67 426.66C1140.61 426.86 1140.68 426.99 1140.89 427.05C1141.1 427.11 1141.23 427.05 1141.29 426.85C1141.36 426.66 1141.3 426.53 1141.08 426.46Z" fill="white"/>
<path d="M1154.12 432.81C1153.92 432.91 1153.88 433.06 1153.97 433.24C1154.06 433.42 1154.2 433.47 1154.4 433.37C1154.59 433.27 1154.64 433.13 1154.55 432.95C1154.45 432.76 1154.32 432.71 1154.12 432.81Z" fill="white"/>
<path d="M1154.87 430.5C1154.77 430.3 1154.63 430.25 1154.44 430.34C1154.26 430.43 1154.21 430.57 1154.3 430.77C1154.39 430.97 1154.53 431.02 1154.72 430.93C1154.91 430.84 1154.97 430.71 1154.87 430.5Z" fill="white"/>
<path d="M1150.63 426.89C1150.53 426.69 1150.39 426.65 1150.2 426.74C1150.02 426.83 1149.97 426.97 1150.07 427.17C1150.17 427.36 1150.31 427.41 1150.49 427.32C1150.68 427.22 1150.73 427.08 1150.63 426.89Z" fill="white"/>
<path d="M1142.24 440.74C1142.04 440.64 1141.9 440.69 1141.81 440.87C1141.72 441.05 1141.76 441.19 1141.96 441.29C1142.15 441.39 1142.3 441.34 1142.39 441.16C1142.48 440.98 1142.44 440.84 1142.24 440.74Z" fill="white"/>
<path d="M1143.5 452.47C1143.32 452.6 1143.3 452.75 1143.42 452.92C1143.54 453.09 1143.68 453.11 1143.86 452.98C1144.04 452.85 1144.06 452.71 1143.94 452.54C1143.82 452.37 1143.68 452.34 1143.5 452.47Z" fill="white"/>
<path d="M1137.72 443.07C1137.54 442.94 1137.39 442.97 1137.27 443.15C1137.15 443.32 1137.18 443.46 1137.36 443.59C1137.54 443.71 1137.69 443.69 1137.8 443.52C1137.92 443.34 1137.9 443.2 1137.72 443.07Z" fill="white"/>
<path d="M1136.33 445.51C1136.11 445.48 1135.99 445.57 1135.96 445.78C1135.93 445.98 1136.02 446.1 1136.24 446.13C1136.45 446.16 1136.58 446.07 1136.6 445.87C1136.64 445.67 1136.55 445.55 1136.33 445.51Z" fill="white"/>
<path d="M1168.21 440.91C1166.81 442.39 1165.21 443.51 1163.41 444.47C1163.53 444.6 1163.61 444.69 1163.7 444.77C1164.99 445.96 1166.38 447.02 1167.91 447.89C1169.26 448.66 1170.64 449.37 1172.2 449.61C1173.62 449.83 1175.06 448.83 1175.37 447.46C1175.73 445.88 1174.95 444.32 1173.5 443.92C1171.66 443.41 1170.13 442.4 1168.66 441.25C1168.51 441.14 1168.37 441.03 1168.21 440.91Z" fill="#EB8C0F"/>
<path d="M1169.97 433.63C1169.95 433.27 1169.81 433.14 1169.46 433.07C1168.52 432.88 1167.63 433.01 1166.76 433.38C1165.7 433.84 1164.82 434.55 1164 435.35C1163.48 435.85 1163.01 436.41 1162.46 436.87C1161.7 437.51 1160.87 438.03 1160.01 438.47C1159.92 440.92 1159.27 443.32 1158.14 445.53C1160.04 445.02 1161.86 444.25 1163.61 443.26C1165.64 442.12 1167.43 440.68 1168.68 438.67C1169.65 437.13 1170.1 435.45 1169.97 433.63Z" fill="#EB8C0F"/>
<path d="M1157.98 427.68C1158.17 427.8 1158.32 427.76 1158.43 427.58C1158.54 427.41 1158.51 427.26 1158.32 427.15C1158.14 427.04 1157.99 427.07 1157.88 427.24C1157.76 427.42 1157.79 427.56 1157.98 427.68Z" fill="white"/>
<path d="M1159.36 425.96C1159.36 426.18 1159.47 426.29 1159.68 426.28C1159.88 426.28 1159.99 426.17 1159.98 425.95C1159.98 425.73 1159.87 425.63 1159.66 425.63C1159.46 425.64 1159.36 425.74 1159.36 425.96Z" fill="white"/>
<path d="M1165.79 439.27L1165.8 439.28C1166.14 439.44 1166.38 439.35 1166.54 439.03C1166.69 438.71 1166.61 438.47 1166.26 438.3C1165.92 438.14 1165.67 438.22 1165.52 438.54C1165.37 438.86 1165.45 439.1 1165.79 439.27Z" fill="white"/>
<path d="M1162.55 440.84L1162.56 440.85C1162.73 441.18 1162.98 441.26 1163.3 441.09C1163.62 440.93 1163.69 440.68 1163.52 440.34C1163.35 440.01 1163.1 439.92 1162.78 440.09C1162.45 440.25 1162.37 440.49 1162.55 440.84Z" fill="white"/>
<path d="M1166.65 436.41C1166.65 436.63 1166.76 436.74 1166.97 436.73C1167.17 436.73 1167.28 436.62 1167.27 436.4C1167.27 436.18 1167.16 436.08 1166.95 436.08C1166.75 436.09 1166.64 436.19 1166.65 436.41Z" fill="white"/>
<path d="M1163.09 438.29C1162.96 438.47 1162.98 438.62 1163.14 438.74C1163.3 438.86 1163.45 438.84 1163.58 438.67C1163.71 438.5 1163.69 438.35 1163.53 438.22C1163.37 438.1 1163.23 438.12 1163.09 438.29Z" fill="white"/>
<path d="M1167.53 445.75H1167.54C1167.91 445.84 1168.13 445.7 1168.21 445.35C1168.3 445 1168.17 444.79 1167.79 444.69C1167.42 444.6 1167.2 444.73 1167.11 445.07C1167.03 445.43 1167.15 445.65 1167.53 445.75Z" fill="white"/>
<path d="M1169.52 444.33C1169.39 444.51 1169.41 444.66 1169.57 444.78C1169.73 444.9 1169.88 444.88 1170.01 444.71C1170.14 444.54 1170.12 444.39 1169.96 444.26C1169.8 444.14 1169.65 444.15 1169.52 444.33Z" fill="white"/>
<path d="M1171.3 446.78C1171.51 446.85 1171.65 446.78 1171.71 446.58C1171.77 446.38 1171.71 446.25 1171.49 446.19C1171.28 446.12 1171.15 446.19 1171.09 446.39C1171.02 446.58 1171.09 446.71 1171.3 446.78Z" fill="white"/>
<path d="M1166.13 428.6L1166.14 428.61C1166.31 428.94 1166.56 429.02 1166.88 428.85C1167.2 428.69 1167.27 428.44 1167.1 428.1C1166.93 427.77 1166.68 427.68 1166.36 427.85C1166.03 428.02 1165.95 428.25 1166.13 428.6Z" fill="white"/>
<path d="M1171.61 428.75C1171.9 429.01 1172.16 429 1172.4 428.73C1172.64 428.47 1172.63 428.21 1172.35 427.95C1172.07 427.69 1171.81 427.7 1171.57 427.96C1171.33 428.23 1171.33 428.48 1171.61 428.75Z" fill="white"/>
<path d="M1178.74 436.26C1179.03 436.52 1179.29 436.51 1179.53 436.24C1179.77 435.98 1179.76 435.72 1179.48 435.46C1179.2 435.2 1178.94 435.21 1178.7 435.47C1178.46 435.74 1178.46 436 1178.74 436.26Z" fill="white"/>
<path d="M1174.47 431.69C1174.21 431.98 1174.23 432.24 1174.5 432.48C1174.77 432.72 1175.02 432.7 1175.28 432.41C1175.53 432.13 1175.52 431.87 1175.25 431.63C1174.98 431.4 1174.73 431.4 1174.47 431.69Z" fill="white"/>
<path d="M1162.49 432.28C1162.22 432 1161.96 432 1161.69 432.25C1161.43 432.5 1161.43 432.75 1161.69 433.03C1161.95 433.3 1162.21 433.31 1162.47 433.06C1162.74 432.81 1162.75 432.55 1162.49 432.28Z" fill="white"/>
<path d="M1162.92 430.39C1162.92 430.61 1163.03 430.72 1163.24 430.71C1163.44 430.71 1163.55 430.6 1163.54 430.38C1163.54 430.16 1163.43 430.06 1163.22 430.06C1163.03 430.06 1162.92 430.17 1162.92 430.39Z" fill="white"/>
<path d="M1166.86 430.67C1166.64 430.61 1166.52 430.69 1166.46 430.89C1166.41 431.09 1166.48 431.21 1166.69 431.27C1166.9 431.33 1167.03 431.25 1167.08 431.06C1167.14 430.86 1167.07 430.73 1166.86 430.67Z" fill="white"/>
<path d="M1171.07 430.25C1171.03 430.03 1170.9 429.95 1170.7 429.99C1170.5 430.03 1170.42 430.15 1170.46 430.37C1170.5 430.58 1170.62 430.67 1170.82 430.63C1171.03 430.58 1171.12 430.46 1171.07 430.25Z" fill="white"/>
<path d="M1175.44 429.75C1175.22 429.76 1175.11 429.87 1175.12 430.07C1175.13 430.27 1175.23 430.38 1175.45 430.37C1175.67 430.36 1175.77 430.26 1175.77 430.05C1175.76 429.85 1175.66 429.74 1175.44 429.75Z" fill="white"/>
<path d="M1177.38 441.15C1177.16 441.16 1177.05 441.27 1177.06 441.47C1177.07 441.67 1177.17 441.78 1177.39 441.77C1177.61 441.76 1177.71 441.66 1177.71 441.45C1177.71 441.25 1177.61 441.15 1177.38 441.15Z" fill="white"/>
<path d="M1177.91 437.81C1177.74 437.67 1177.59 437.69 1177.46 437.85C1177.33 438.01 1177.35 438.15 1177.52 438.29C1177.69 438.43 1177.84 438.41 1177.97 438.25C1178.1 438.1 1178.09 437.95 1177.91 437.81Z" fill="white"/>
<path d="M1180.66 438.98C1180.66 438.76 1180.55 438.65 1180.34 438.65C1180.14 438.65 1180.03 438.75 1180.03 438.97C1180.03 439.19 1180.13 439.29 1180.34 439.29C1180.55 439.3 1180.66 439.2 1180.66 438.98Z" fill="white"/>
<path d="M1178.25 432.65C1178.25 432.43 1178.14 432.32 1177.93 432.33C1177.73 432.33 1177.62 432.44 1177.63 432.66C1177.63 432.88 1177.74 432.98 1177.95 432.98C1178.15 432.97 1178.26 432.87 1178.25 432.65Z" fill="white"/>
<path d="M1164.33 453.12L1164.34 453.13C1164.52 453.46 1164.77 453.53 1165.09 453.35C1165.4 453.18 1165.47 452.93 1165.28 452.6C1165.1 452.27 1164.85 452.2 1164.54 452.37C1164.22 452.54 1164.14 452.78 1164.33 453.12Z" fill="white"/>
<path d="M1157.72 452.03H1157.73C1158.1 452.09 1158.31 451.93 1158.36 451.57C1158.41 451.22 1158.26 451.01 1157.88 450.96C1157.51 450.9 1157.3 451.06 1157.24 451.41C1157.2 451.76 1157.34 451.97 1157.72 452.03Z" fill="white"/>
<path d="M1160.91 450.81C1161.22 451.05 1161.47 451.01 1161.7 450.73C1161.92 450.45 1161.89 450.2 1161.58 449.96C1161.28 449.73 1161.02 449.76 1160.81 450.04C1160.58 450.32 1160.6 450.58 1160.91 450.81Z" fill="white"/>
<path d="M1163.72 450.97C1163.93 451.04 1164.07 450.97 1164.13 450.77C1164.19 450.57 1164.13 450.44 1163.91 450.38C1163.7 450.31 1163.57 450.38 1163.51 450.58C1163.44 450.77 1163.51 450.9 1163.72 450.97Z" fill="white"/>
<path d="M1160.27 453.49C1160.49 453.51 1160.61 453.41 1160.62 453.2C1160.64 453 1160.54 452.88 1160.32 452.87C1160.1 452.85 1159.99 452.95 1159.97 453.15C1159.95 453.36 1160.04 453.47 1160.27 453.49Z" fill="white"/>
<path d="M1167.23 451.79C1167.44 451.71 1167.49 451.57 1167.41 451.37C1167.33 451.18 1167.2 451.12 1166.99 451.21C1166.79 451.29 1166.73 451.43 1166.81 451.62C1166.89 451.81 1167.02 451.87 1167.23 451.79Z" fill="white"/>
</svg>
