<?xml version="1.0" encoding="utf-8"?>
<!-- Generator: Adobe Illustrator 27.7.0, SVG Export Plug-In . SVG Version: 6.00 Build 0)  -->
<svg version="1.1" id="Warstwa_1" xmlns="http://www.w3.org/2000/svg" xmlns:xlink="http://www.w3.org/1999/xlink" x="0px" y="0px"
	 viewBox="0 0 1699.38 822.54" style="enable-background:new 0 0 1699.38 822.54;" xml:space="preserve">
<style type="text/css">
	.st0{fill:none;stroke:#FFFFFF;stroke-width:14;stroke-linecap:round;stroke-linejoin:round;}
	.st1{fill:none;stroke:#FFFFFF;stroke-width:14;stroke-linecap:round;stroke-linejoin:round;stroke-dasharray:0,29.7215,0,0;}
	
		.st2{fill:none;stroke:#FFFFFF;stroke-width:14;stroke-linecap:round;stroke-linejoin:round;stroke-dasharray:0,29.7215,0,29.7215,0,0;}
</style>
<g>
	<g>
		<line class="st0" x1="40.26" y1="125.7" x2="40.26" y2="125.7"/>
		<path class="st1" d="M69.97,126.5c10.21,0.57,20.08,1.42,29.61,2.55"/>
		<path class="st2" d="M99.58,129.05c195.1,23.06,248.65,158.55,208.05,200.17c-79.81,81.81,44.56,212.83,121.71,213.49
			c53.97,0.47,64.99-87.46,149.24-86.56c69.91,0.74,146.47,81.31,208.19,81.56c75.2,0.3,92.64-61.5,155.34-61.03
			c66,0.49,46.5,97.3,189.55,95.97c113.01-1.05,201.52,223.47,476.86-25.93"/>
		<line class="st0" x1="1608.53" y1="546.7" x2="1608.53" y2="546.7"/>
	</g>
</g>
</svg>
