<svg width="546" height="217" viewBox="0 0 546 217" fill="none" xmlns="http://www.w3.org/2000/svg">
<path d="M0.520004 215.29V159.37H15.56C35.48 159.37 46.04 168.65 46.04 186.97C46.04 205.61 35.16 215.29 15.88 215.29H0.520004ZM31.24 187.13C31.24 177.45 26.2 172.49 15.8 172.49V202.17C26.2 202.17 31.24 197.05 31.24 187.13Z" fill="#991B1D"/>
<path d="M81.55 157.45C121.07 157.45 120.11 216.97 81.63 216.97C43.15 216.97 42.03 157.45 81.55 157.45ZM81.48 201.61H81.8C91.8 201.61 96.6 196.65 96.6 187.05C96.6 177.61 91.88 172.81 81.64 172.81C71.64 172.81 66.68 177.61 66.68 187.05C66.67 196.65 71.23 201.61 81.48 201.61Z" fill="#991B1D"/>
<path d="M119.31 159.37H137.95C142.91 159.37 147.15 160.73 150.27 163.21C156.99 168.33 156.91 180.57 149.79 185.29C158.51 187.53 160.03 195.37 160.03 199.29C160.03 209.93 152.03 215.37 141.55 215.29H119.31V159.37ZM138.19 204.25H138.67C143.23 204.25 145.31 202.09 145.31 197.93C145.31 193.61 143.15 191.37 138.75 191.37H138.27C133.71 191.37 131.55 193.53 131.55 197.77C131.55 202.01 133.79 204.25 138.19 204.25ZM136.99 180.73H137.39C141.07 180.73 142.83 178.97 142.83 175.53C142.83 172.09 141.07 170.25 137.39 170.25H137.07C133.31 170.25 131.63 172.01 131.63 175.45C131.63 178.97 133.39 180.73 136.99 180.73Z" fill="#991B1D"/>
<path d="M182.75 204.41V215.29H168.19V159.37H186.59C194.91 159.37 208.91 160.81 208.91 177.77C208.91 193.93 196.75 196.41 192.27 196.89C196.59 206.17 203.15 206.25 203.63 197.53H215.63C215.63 200.49 214.99 203.37 213.87 206.09C211.23 212.41 205.87 216.01 199.23 216.01C193.23 216.01 187.71 212.09 182.75 204.41ZM187.55 185.05H188.03C192.91 185.05 195.15 182.81 195.15 178.33C195.15 173.77 192.83 171.45 188.11 171.45H187.63C182.75 171.45 180.51 173.69 180.51 178.17C180.51 182.73 182.83 185.05 187.55 185.05Z" fill="#991B1D"/>
<path d="M222.27 159.37H252.91V172.49H239.87C237.47 172.49 236.35 173.85 236.35 176.49C236.35 179.21 237.55 180.57 239.79 180.57H252.11V193.69H239.87C237.39 193.69 236.19 195.13 236.19 197.85C236.19 200.73 237.39 202.17 239.79 202.17H252.91V215.29H222.27V159.37Z" fill="#991B1D"/>
<path d="M285.3 159.37H302.58C312.1 159.37 326.02 160.81 326.02 177.77C326.02 194.97 312.02 197.13 306.18 197.13H299.86V215.29H285.3V159.37ZM304.66 185.05H305.14C310.02 185.05 312.26 182.81 312.26 178.33C312.26 173.77 309.78 171.45 305.22 171.45H304.74C299.86 171.45 297.62 173.69 297.62 178.17C297.62 182.73 299.94 185.05 304.66 185.05Z" fill="#991B1D"/>
<path d="M348.5 204.41V215.29H333.94V159.37H352.34C360.66 159.37 374.66 160.81 374.66 177.77C374.66 193.93 362.5 196.41 358.02 196.89C362.34 206.17 368.9 206.25 369.38 197.53H381.38C381.38 200.49 380.74 203.37 379.62 206.09C376.98 212.41 371.62 216.01 364.98 216.01C358.98 216.01 353.46 212.09 348.5 204.41ZM353.3 185.05H353.78C358.66 185.05 360.9 182.81 360.9 178.33C360.9 173.77 358.58 171.45 353.86 171.45H353.38C348.5 171.45 346.26 173.69 346.26 178.17C346.26 182.73 348.58 185.05 353.3 185.05Z" fill="#991B1D"/>
<path d="M388.02 159.37H418.66V172.49H405.62C403.22 172.49 402.1 173.85 402.1 176.49C402.1 179.21 403.3 180.57 405.54 180.57H417.86V193.69H405.62C403.14 193.69 401.94 195.13 401.94 197.85C401.94 200.73 403.14 202.17 405.54 202.17H418.66V215.29H388.02V159.37Z" fill="#991B1D"/>
<path d="M426.42 187.21C426.42 167.37 445.54 151.21 467.54 160.89V177.05C456.58 168.49 441.54 173.29 441.54 187.21C441.54 201.77 456.58 205.77 467.54 197.85V213.61C445.54 223.69 426.42 206.25 426.42 187.21Z" fill="#991B1D"/>
<path d="M477.05 159.37H491.77V202.09H507.69V215.29H477.05V159.37Z" fill="#991B1D"/>
<path d="M514.73 159.37H545.37V172.49H532.33C529.93 172.49 528.81 173.85 528.81 176.49C528.81 179.21 530.01 180.57 532.25 180.57H544.57V193.69H532.33C529.85 193.69 528.65 195.13 528.65 197.85C528.65 200.73 529.85 202.17 532.25 202.17H545.37V215.29H514.73V159.37Z" fill="#991B1D"/>
<path d="M294.44 28.2C294.94 28.16 295.45 28.14 295.95 28.12C297.31 28.07 298 27.61 298.7 26.52C302.63 20.41 307.67 15.41 313.98 11.79C316.7 10.23 319.58 8.94996 322.62 7.41996C312.12 2.33996 301.23 0.779972 289.96 2.12997C284.8 2.74997 279.86 3.84996 275.19 5.47996C283.06 11.67 289.65 19.32 294.44 28.2Z" fill="#EB8C0F"/>
<path d="M399.89 61.72C398.65 44.53 390.51 31.16 376.74 21.27C361.74 10.51 345.15 6.16997 326.88 10.9C313.64 14.33 302.78 24.4 298.31 36.69C298.95 38.38 299.55 40.09 300.07 41.85C301.76 47.61 302.68 53.43 302.89 59.22C307.74 56.58 312.38 53.64 316.12 49.38C317.43 47.89 318.97 46.6 320.41 45.23C329.45 36.59 339.67 32.67 351.97 37.58C369.96 44.77 377.57 59.2 371.75 78.08C370.87 80.94 369.64 83.7 368.54 86.57C368.73 86.72 368.93 86.9 369.14 87.06C376.32 92.77 378.35 101.84 374.17 109.53C370.01 117.2 360.93 120.67 352.35 117.47C346.91 115.44 341.72 112.77 336.39 110.45C335.5 110.06 334.43 109.77 333.49 109.87C318.51 111.49 304.24 109.11 290.63 102.73C285.89 110.17 279.88 116.97 272.81 122.83C293.17 135.33 315.7 139.16 339.36 135.53C360.63 132.27 377.44 121.46 389.07 103.19C397.1 90.59 400.97 76.78 399.89 61.72Z" fill="#EB8C0F"/>
<path d="M289.6 27.91C281.04 12.95 267.92 4.42001 251.23 1.46001C233.05 -1.74999 216.22 1.51 201.79 13.68C187.68 25.59 182.71 46.54 191.07 62.43C192.86 65.82 194.96 68.98 197.84 71.72C198.21 71.35 198.48 71.14 198.68 70.88C202.81 65.37 206.84 59.82 208.74 53.04C209.28 51.13 210.11 49.3 210.81 47.44C215.23 35.74 222.74 27.78 235.95 26.89C255.28 25.59 268.38 35.3 271.3 54.85C271.74 57.81 271.82 60.83 272.08 63.89C272.32 63.95 272.58 64.01 272.84 64.07C281.78 66.11 287.54 73.41 287.1 82.15C286.67 90.86 279.99 97.93 270.87 98.75C265.09 99.27 259.25 99.11 253.44 99.33C252.47 99.37 251.38 99.56 250.57 100.06C237.58 108.12 223.47 112.16 208.18 112.18C207.23 112.18 206.18 112.53 205.34 113.01C200.16 115.95 195.16 119.22 189.86 121.91C182.08 125.85 172.78 123.4 167.78 116.49C162.74 109.52 163.47 100.28 169.66 93.88C170.63 92.87 170.64 92.22 169.91 91.09C167.17 86.84 165.23 82.23 164.14 77.29C162.84 71.35 162.66 65.4 165.06 59.68C168.31 51.94 174.03 46.46 181.35 42.59C182.55 41.96 182.98 41.24 183.14 39.95C184.04 32.75 186.42 26.05 190.55 20.06C192.33 17.48 194.37 15.07 196.45 12.39C184.78 12.35 174.29 15.65 164.71 21.75C151.79 29.97 142.34 41.03 138.48 56.11C134.95 69.87 136.75 83.29 142.71 96.06C153.96 120.14 172.85 134.41 199.21 137.75C223.84 140.86 246.58 134.61 266.96 120.67C284.72 108.53 295.2 91.52 297.79 70.01C299.58 55.15 297.1 41.02 289.6 27.91Z" fill="#EB8C0F"/>
<path d="M230.91 32.21C226.74 33.25 223.4 35.49 220.64 38.7C217.27 42.61 215.08 47.19 213.33 51.99C212.23 55.02 211.4 58.17 210.07 61.09C205.65 70.78 198.61 78.47 190.75 85.44C186.47 89.24 181.65 92.18 176.3 94.39C169.91 97.03 167.25 104.47 169.86 111.44C172.18 117.64 179.33 120.79 186.35 118.87C188.7 117.76 191.13 116.78 193.4 115.53C207.1 107.93 218.15 97.39 227.1 84.62C233.08 76.08 237.53 66.84 238.67 56.3C239.54 48.23 238.09 40.6 234.05 33.49C233.25 32.1 232.45 31.83 230.91 32.21Z" fill="#EB8C0F"/>
<path d="M228.56 89.91C229.31 90.2 229.81 90.41 230.32 90.57C237.83 92.86 245.49 94.44 253.32 95.03C260.25 95.55 267.18 95.72 273.93 93.66C280.05 91.79 283.95 84.99 282.55 78.86C280.94 71.78 274.77 66.99 268.16 68.18C259.77 69.69 251.63 68.56 243.48 66.77C242.7 66.6 241.92 66.44 241.02 66.25C238.26 74.91 233.96 82.54 228.56 89.91Z" fill="#EB8C0F"/>
<path d="M162.75 47.96H162.8C164.49 47.96 165.29 47.12 165.29 45.51C165.29 43.92 164.49 43.11 162.77 43.11C161.08 43.11 160.25 43.92 160.25 45.51C160.26 47.12 161.03 47.96 162.75 47.96Z" fill="white"/>
<path d="M146.45 57.56H146.5C148.19 57.56 148.99 56.72 148.99 55.11C148.99 53.52 148.19 52.71 146.47 52.71C144.78 52.71 143.95 53.52 143.95 55.11C143.95 56.72 144.72 57.56 146.45 57.56Z" fill="white"/>
<path d="M171.73 28.68L171.77 28.71C173.12 29.72 174.27 29.54 175.24 28.25C176.2 26.98 176.05 25.85 174.66 24.82C173.31 23.81 172.16 23.95 171.2 25.23C170.23 26.52 170.34 27.65 171.73 28.68Z" fill="white"/>
<path d="M163.93 34.16H163.96C164.92 34.26 165.44 33.84 165.54 32.91C165.64 32 165.23 31.49 164.25 31.38C163.29 31.28 162.76 31.69 162.66 32.6C162.55 33.53 162.94 34.05 163.93 34.16Z" fill="white"/>
<path d="M153.59 45.07H153.62C154.58 45.17 155.1 44.75 155.2 43.82C155.3 42.91 154.89 42.4 153.91 42.29C152.95 42.19 152.42 42.6 152.32 43.51C152.21 44.44 152.6 44.96 153.59 45.07Z" fill="white"/>
<path d="M157.92 63.64L157.94 63.61C158.43 62.77 158.26 62.13 157.45 61.66C156.66 61.19 156.03 61.35 155.52 62.21C155.03 63.05 155.18 63.7 155.97 64.16C156.78 64.64 157.42 64.5 157.92 63.64Z" fill="white"/>
<path d="M146.68 79.13H146.71C147.67 78.97 148.05 78.42 147.9 77.51C147.75 76.61 147.23 76.22 146.25 76.38C145.29 76.54 144.89 77.07 145.04 77.98C145.19 78.89 145.7 79.29 146.68 79.13Z" fill="white"/>
<path d="M174.25 38.14L174.26 38.17C174.7 39.04 175.34 39.23 176.17 38.81C176.99 38.4 177.2 37.78 176.75 36.89C176.31 36.02 175.68 35.81 174.86 36.22C174.04 36.64 173.81 37.26 174.25 38.14Z" fill="white"/>
<path d="M225.29 59.99H225.34C227.03 59.99 227.83 59.15 227.83 57.54C227.83 55.95 227.03 55.14 225.31 55.14C223.62 55.14 222.79 55.95 222.79 57.54C222.8 59.15 223.57 59.99 225.29 59.99Z" fill="white"/>
<path d="M213.4 88.02L213.44 88.05C214.79 89.06 215.94 88.88 216.91 87.58C217.87 86.31 217.71 85.18 216.33 84.15C214.98 83.14 213.83 83.28 212.87 84.56C211.9 85.85 212.02 86.98 213.4 88.02Z" fill="white"/>
<path d="M241.16 119.86L241.12 119.9C239.98 121.14 240.04 122.3 241.23 123.4C242.4 124.48 243.53 124.44 244.7 123.17C245.84 121.93 245.82 120.77 244.65 119.69C243.46 118.6 242.33 118.59 241.16 119.86Z" fill="white"/>
<path d="M219.81 122.11L219.85 122.14C221.2 123.15 222.35 122.97 223.32 121.67C224.28 120.4 224.12 119.27 222.74 118.24C221.39 117.23 220.24 117.37 219.28 118.65C218.32 119.94 218.43 121.07 219.81 122.11Z" fill="white"/>
<path d="M216.15 66.34L216.14 66.37C215.95 67.32 216.33 67.87 217.24 68.06C218.14 68.24 218.68 67.89 218.88 66.91C219.07 65.96 218.71 65.4 217.81 65.21C216.91 65.03 216.35 65.36 216.15 66.34Z" fill="white"/>
<path d="M243.88 82.55L243.93 82.54C245.58 82.2 246.21 81.22 245.88 79.63C245.56 78.07 244.62 77.44 242.93 77.79C241.28 78.13 240.62 79.09 240.94 80.65C241.27 82.24 242.19 82.9 243.88 82.55Z" fill="white"/>
<path d="M251.01 88.32L251.03 88.35C251.53 89.18 252.19 89.33 252.98 88.84C253.76 88.36 253.92 87.73 253.41 86.88C252.91 86.05 252.26 85.88 251.48 86.36C250.68 86.84 250.5 87.47 251.01 88.32Z" fill="white"/>
<path d="M241.72 112.67L241.74 112.7C242.24 113.53 242.9 113.68 243.69 113.19C244.47 112.71 244.63 112.08 244.12 111.23C243.62 110.4 242.97 110.23 242.19 110.71C241.39 111.2 241.21 111.82 241.72 112.67Z" fill="white"/>
<path d="M260.74 76.61L260.77 76.62C261.71 76.87 262.28 76.53 262.52 75.63C262.76 74.75 262.44 74.18 261.48 73.92C260.54 73.67 259.96 73.99 259.72 74.87C259.48 75.78 259.78 76.36 260.74 76.61Z" fill="white"/>
<path d="M210.29 131.62L210.32 131.63C211.26 131.88 211.83 131.54 212.07 130.64C212.31 129.76 211.99 129.19 211.03 128.93C210.09 128.68 209.51 129 209.27 129.88C209.03 130.78 209.34 131.36 210.29 131.62Z" fill="white"/>
<path d="M257.7 116.29L257.73 116.3C258.67 116.55 259.24 116.21 259.48 115.31C259.72 114.43 259.4 113.86 258.44 113.6C257.5 113.35 256.92 113.67 256.68 114.55C256.44 115.45 256.74 116.03 257.7 116.29Z" fill="white"/>
<path d="M202.95 26.28L202.99 26.31C204.34 27.32 205.49 27.14 206.46 25.85C207.42 24.58 207.27 23.45 205.88 22.42C204.53 21.41 203.38 21.55 202.42 22.83C201.46 24.12 201.57 25.25 202.95 26.28Z" fill="white"/>
<path d="M225.56 22.39L225.61 22.38C227.28 22.18 227.99 21.25 227.79 19.65C227.6 18.07 226.71 17.36 225 17.57C223.33 17.77 222.59 18.67 222.78 20.25C222.98 21.86 223.85 22.6 225.56 22.39Z" fill="white"/>
<path d="M245.25 11.31L245.3 11.33C246.91 11.82 247.93 11.26 248.4 9.71001C248.87 8.19001 248.34 7.18 246.69 6.68C245.08 6.19 244.04 6.71001 243.58 8.24001C243.11 9.78001 243.6 10.81 245.25 11.31Z" fill="white"/>
<path d="M262.96 25.51L263.01 25.53C264.62 26.02 265.64 25.46 266.11 23.91C266.58 22.39 266.05 21.38 264.4 20.88C262.79 20.39 261.75 20.91 261.29 22.44C260.82 23.98 261.31 25.01 262.96 25.51Z" fill="white"/>
<path d="M197.63 41.42L197.58 41.4C196 40.81 194.95 41.31 194.38 42.83C193.82 44.32 194.29 45.36 195.9 45.96C197.48 46.55 198.55 46.08 199.1 44.59C199.68 43.08 199.25 42.03 197.63 41.42Z" fill="white"/>
<path d="M204.15 35.73L204.16 35.76C204.6 36.63 205.24 36.82 206.07 36.4C206.89 35.99 207.1 35.37 206.65 34.48C206.21 33.61 205.58 33.4 204.76 33.81C203.93 34.23 203.7 34.84 204.15 35.73Z" fill="white"/>
<path d="M231.37 10.85L231.35 10.83C230.77 10.05 230.11 9.95998 229.36 10.51C228.62 11.05 228.52 11.7 229.11 12.5C229.69 13.28 230.35 13.39 231.08 12.85C231.83 12.29 231.95 11.65 231.37 10.85Z" fill="white"/>
<path d="M218.21 10.65L218.18 10.64C217.25 10.35 216.67 10.67 216.39 11.56C216.12 12.43 216.42 13.01 217.36 13.31C218.29 13.6 218.88 13.3 219.16 12.42C219.44 11.54 219.16 10.95 218.21 10.65Z" fill="white"/>
<path d="M276.51 39.06L276.48 39.07C275.62 39.51 275.42 40.15 275.84 40.98C276.26 41.8 276.88 42 277.76 41.55C278.62 41.11 278.84 40.48 278.42 39.66C278.01 38.83 277.39 38.6 276.51 39.06Z" fill="white"/>
<path d="M279.87 28.74L279.86 28.71C279.44 27.84 278.81 27.62 277.97 28.02C277.14 28.42 276.92 29.03 277.35 29.93C277.77 30.8 278.4 31.04 279.22 30.64C280.06 30.25 280.3 29.64 279.87 28.74Z" fill="white"/>
<path d="M260.9 12.56L260.89 12.53C260.45 11.66 259.81 11.47 258.98 11.89C258.16 12.3 257.95 12.92 258.4 13.81C258.84 14.68 259.47 14.89 260.29 14.48C261.12 14.06 261.35 13.45 260.9 12.56Z" fill="white"/>
<path d="M223.4 74.51L223.37 74.5C222.5 74.06 221.87 74.29 221.45 75.12C221.04 75.94 221.24 76.56 222.13 77.01C223 77.45 223.64 77.25 224.05 76.43C224.47 75.58 224.29 74.95 223.4 74.51Z" fill="white"/>
<path d="M229.02 126.98L229 127C228.21 127.57 228.12 128.23 228.66 128.99C229.2 129.73 229.84 129.84 230.64 129.26C231.43 128.69 231.54 128.03 231.01 127.29C230.47 126.53 229.83 126.4 229.02 126.98Z" fill="white"/>
<path d="M203.17 84.95L203.14 84.93C202.34 84.38 201.68 84.52 201.16 85.29C200.64 86.05 200.76 86.69 201.58 87.25C202.38 87.8 203.04 87.68 203.56 86.93C204.08 86.16 203.99 85.51 203.17 84.95Z" fill="white"/>
<path d="M196.97 95.86H196.94C195.98 95.72 195.45 96.13 195.32 97.05C195.19 97.96 195.58 98.48 196.56 98.62C197.52 98.76 198.06 98.36 198.19 97.46C198.32 96.54 197.95 96 196.97 95.86Z" fill="white"/>
<path d="M339.51 75.27C333.27 81.88 326.09 86.89 318.04 91.21C318.6 91.79 318.94 92.2 319.34 92.57C325.12 97.89 331.34 102.62 338.15 106.54C344.17 110 350.35 113.16 357.32 114.22C363.65 115.18 370.1 110.74 371.5 104.61C373.11 97.53 369.62 90.55 363.14 88.76C354.93 86.49 348.07 81.95 341.5 76.81C340.87 76.31 340.23 75.83 339.51 75.27Z" fill="#EB8C0F"/>
<path d="M347.38 42.71C347.27 41.11 346.66 40.52 345.11 40.2C340.9 39.33 336.92 39.91 333.05 41.61C328.32 43.68 324.37 46.85 320.71 50.43C318.4 52.68 316.3 55.17 313.83 57.23C310.41 60.08 306.74 62.41 302.88 64.38C302.48 75.34 299.57 86.07 294.53 95.94C303.02 93.64 311.17 90.22 319 85.81C328.09 80.7 336.1 74.29 341.68 65.28C345.95 58.37 347.95 50.87 347.38 42.71Z" fill="#EB8C0F"/>
<path d="M293.77 16.11L293.8 16.13C294.62 16.64 295.27 16.48 295.76 15.69C296.24 14.91 296.1 14.28 295.26 13.75C294.44 13.24 293.78 13.38 293.3 14.16C292.81 14.95 292.93 15.59 293.77 16.11Z" fill="white"/>
<path d="M299.94 8.42002V8.45001C299.96 9.42001 300.45 9.88002 301.38 9.86002C302.3 9.84002 302.75 9.37002 302.73 8.38002C302.71 7.41002 302.23 6.94002 301.32 6.96002C300.39 6.97002 299.92 7.42002 299.94 8.42002Z" fill="white"/>
<path d="M328.71 67.92L328.76 67.94C330.28 68.67 331.37 68.27 332.07 66.81C332.76 65.38 332.39 64.3 330.84 63.55C329.32 62.82 328.22 63.19 327.53 64.62C326.83 66.09 327.16 67.18 328.71 67.92Z" fill="white"/>
<path d="M314.19 74.94L314.21 74.99C314.99 76.49 316.1 76.82 317.54 76.07C318.95 75.34 319.3 74.26 318.51 72.72C317.73 71.22 316.63 70.86 315.22 71.59C313.78 72.34 313.39 73.41 314.19 74.94Z" fill="white"/>
<path d="M332.53 55.15V55.18C332.55 56.15 333.04 56.61 333.97 56.59C334.89 56.57 335.34 56.1 335.32 55.11C335.3 54.14 334.82 53.67 333.91 53.69C332.98 53.7 332.51 54.15 332.53 55.15Z" fill="white"/>
<path d="M316.63 63.58L316.61 63.6C316.03 64.37 316.13 65.04 316.87 65.6C317.6 66.15 318.25 66.07 318.85 65.28C319.43 64.51 319.35 63.84 318.62 63.29C317.88 62.72 317.23 62.78 316.63 63.58Z" fill="white"/>
<path d="M336.47 96.9L336.52 96.91C338.16 97.32 339.14 96.7 339.54 95.13C339.93 93.59 339.35 92.61 337.67 92.19C336.03 91.78 335.03 92.36 334.64 93.91C334.25 95.48 334.8 96.48 336.47 96.9Z" fill="white"/>
<path d="M345.36 90.57L345.34 90.59C344.76 91.36 344.86 92.03 345.6 92.59C346.33 93.14 346.98 93.06 347.58 92.27C348.16 91.5 348.08 90.83 347.35 90.28C346.61 89.71 345.96 89.78 345.36 90.57Z" fill="white"/>
<path d="M353.33 101.53L353.36 101.54C354.28 101.83 354.87 101.52 355.16 100.63C355.44 99.76 355.14 99.18 354.2 98.87C353.28 98.58 352.68 98.87 352.4 99.75C352.1 100.63 352.38 101.23 353.33 101.53Z" fill="white"/>
<path d="M330.2 20.21L330.22 20.26C331 21.76 332.11 22.09 333.55 21.34C334.96 20.61 335.31 19.53 334.52 18C333.74 16.5 332.64 16.14 331.23 16.87C329.79 17.61 329.4 18.68 330.2 20.21Z" fill="white"/>
<path d="M354.74 20.88L354.78 20.92C356.02 22.06 357.18 22 358.28 20.81C359.36 19.64 359.32 18.51 358.05 17.34C356.81 16.2 355.65 16.23 354.57 17.39C353.47 18.57 353.47 19.71 354.74 20.88Z" fill="white"/>
<path d="M386.62 54.47L386.66 54.51C387.9 55.65 389.06 55.59 390.16 54.4C391.24 53.23 391.2 52.1 389.93 50.93C388.69 49.79 387.53 49.82 386.45 50.98C385.36 52.16 385.35 53.3 386.62 54.47Z" fill="white"/>
<path d="M367.53 34.06L367.49 34.1C366.38 35.36 366.47 36.52 367.68 37.59C368.87 38.64 370.01 38.58 371.15 37.29C372.26 36.03 372.21 34.86 371.02 33.81C369.8 32.74 368.67 32.77 367.53 34.06Z" fill="white"/>
<path d="M313.92 36.67L313.88 36.6301C312.71 35.4201 311.55 35.41 310.38 36.53C309.23 37.63 309.2 38.77 310.4 40.01C311.57 41.22 312.73 41.27 313.88 40.16C315.05 39.04 315.12 37.91 313.92 36.67Z" fill="white"/>
<path d="M315.88 28.22V28.25C315.9 29.22 316.39 29.68 317.32 29.66C318.24 29.64 318.69 29.17 318.67 28.18C318.65 27.21 318.17 26.74 317.26 26.76C316.33 26.77 315.86 27.23 315.88 28.22Z" fill="white"/>
<path d="M333.48 29.49L333.45 29.48C332.51 29.23 331.94 29.57 331.7 30.47C331.46 31.35 331.78 31.92 332.74 32.18C333.68 32.43 334.26 32.11 334.5 31.22C334.74 30.33 334.44 29.75 333.48 29.49Z" fill="white"/>
<path d="M352.33 27.59L352.32 27.56C352.14 26.61 351.58 26.24 350.66 26.41C349.76 26.58 349.39 27.12 349.57 28.09C349.75 29.04 350.3 29.43 351.2 29.26C352.12 29.09 352.51 28.56 352.33 27.59Z" fill="white"/>
<path d="M371.86 25.36H371.83C370.86 25.38 370.41 25.88 370.43 26.81C370.45 27.73 370.92 28.18 371.92 28.15C372.89 28.13 373.36 27.65 373.34 26.73C373.3 25.8 372.85 25.33 371.86 25.36Z" fill="white"/>
<path d="M380.55 76.36H380.52C379.55 76.38 379.1 76.88 379.12 77.81C379.14 78.73 379.61 79.18 380.6 79.15C381.57 79.13 382.04 78.65 382.02 77.73C381.99 76.8 381.54 76.33 380.55 76.36Z" fill="white"/>
<path d="M382.91 61.42L382.89 61.4C382.13 60.79 381.47 60.87 380.89 61.6C380.32 62.31 380.38 62.96 381.15 63.59C381.91 64.2 382.57 64.14 383.15 63.42C383.72 62.69 383.68 62.04 382.91 61.42Z" fill="white"/>
<path d="M395.2 66.65V66.62C395.2 65.65 394.72 65.18 393.79 65.18C392.87 65.18 392.41 65.64 392.41 66.63C392.41 67.6 392.87 68.08 393.79 68.08C394.71 68.08 395.2 67.64 395.2 66.65Z" fill="white"/>
<path d="M384.43 38.32V38.29C384.41 37.32 383.92 36.86 382.99 36.88C382.07 36.9 381.62 37.37 381.64 38.36C381.66 39.33 382.14 39.8 383.05 39.78C383.98 39.76 384.45 39.31 384.43 38.32Z" fill="white"/>
<path d="M322.15 129.88L322.18 129.93C323 131.4 324.12 131.7 325.54 130.92C326.93 130.15 327.25 129.06 326.41 127.55C325.59 126.08 324.48 125.74 323.09 126.51C321.67 127.29 321.31 128.37 322.15 129.88Z" fill="white"/>
<path d="M292.62 125.01L292.67 125.02C294.34 125.27 295.26 124.56 295.5 122.96C295.74 121.39 295.07 120.47 293.36 120.21C291.69 119.96 290.75 120.63 290.51 122.21C290.27 123.81 290.91 124.75 292.62 125.01Z" fill="white"/>
<path d="M306.86 119.56L306.9 119.59C308.23 120.63 309.38 120.46 310.38 119.19C311.36 117.93 311.23 116.81 309.86 115.75C308.53 114.71 307.37 114.84 306.4 116.1C305.4 117.37 305.5 118.5 306.86 119.56Z" fill="white"/>
<path d="M319.42 120.24L319.45 120.25C320.37 120.54 320.96 120.23 321.25 119.34C321.53 118.47 321.23 117.89 320.29 117.58C319.37 117.29 318.77 117.58 318.49 118.46C318.2 119.35 318.48 119.94 319.42 120.24Z" fill="white"/>
<path d="M303.99 131.51H304.02C304.99 131.58 305.49 131.14 305.56 130.21C305.63 129.3 305.21 128.8 304.22 128.73C303.25 128.66 302.74 129.09 302.67 130C302.6 130.93 303 131.44 303.99 131.51Z" fill="white"/>
<path d="M335.12 123.91L335.15 123.9C336.05 123.53 336.3 122.91 335.95 122.05C335.6 121.2 335 120.94 334.09 121.32C333.19 121.69 332.92 122.3 333.27 123.15C333.61 124.01 334.2 124.29 335.12 123.91Z" fill="white"/>
</svg>
