<svg width="694" height="109" viewBox="0 0 694 109" fill="none" xmlns="http://www.w3.org/2000/svg">
<path d="M0.290009 85.81V34.42H14.11C32.42 34.42 42.12 42.95 42.12 59.78C42.12 76.91 32.12 85.8 14.4 85.8H0.290009V85.81ZM28.52 59.93C28.52 51.03 23.89 46.48 14.33 46.48V73.75C23.89 73.75 28.52 69.05 28.52 59.93Z" fill="#991B1D"/>
<path d="M74.77 32.66C111.09 32.66 110.2 87.36 74.84 87.36C39.48 87.35 38.45 32.66 74.77 32.66ZM74.7 73.24H74.99C84.18 73.24 88.59 68.68 88.59 59.86C88.59 51.19 84.25 46.77 74.84 46.77C65.65 46.77 61.09 51.18 61.09 59.86C61.1 68.68 65.29 73.24 74.7 73.24Z" fill="#991B1D"/>
<path d="M109.48 34.42H126.61C131.17 34.42 135.06 35.67 137.93 37.95C144.11 42.66 144.03 53.9 137.49 58.24C145.5 60.3 146.9 67.5 146.9 71.1C146.9 80.88 139.55 85.88 129.92 85.8H109.48V34.42ZM126.83 75.66H127.27C131.46 75.66 133.37 73.67 133.37 69.85C133.37 65.88 131.38 63.82 127.34 63.82H126.9C122.71 63.82 120.72 65.81 120.72 69.7C120.73 73.61 122.78 75.66 126.83 75.66ZM125.73 54.05H126.1C129.48 54.05 131.1 52.43 131.1 49.27C131.1 46.11 129.48 44.42 126.1 44.42H125.81C122.35 44.42 120.81 46.04 120.81 49.2C120.8 52.43 122.42 54.05 125.73 54.05Z" fill="#991B1D"/>
<path d="M167.78 75.81V85.81H154.4V34.42H171.31C178.96 34.42 191.82 35.74 191.82 51.33C191.82 66.18 180.65 68.46 176.53 68.9C180.5 77.43 186.53 77.5 186.97 69.49H198C198 72.21 197.41 74.86 196.38 77.36C193.95 83.17 189.03 86.48 182.93 86.48C177.41 86.47 172.34 82.87 167.78 75.81ZM172.19 58.02H172.63C177.11 58.02 179.17 55.96 179.17 51.84C179.17 47.65 177.04 45.52 172.7 45.52H172.26C167.78 45.52 165.72 47.58 165.72 51.7C165.72 55.89 167.86 58.02 172.19 58.02Z" fill="#991B1D"/>
<path d="M204.11 34.42H232.27V46.48H220.29C218.08 46.48 217.06 47.73 217.06 50.16C217.06 52.66 218.16 53.91 220.22 53.91H231.54V65.97H220.29C218.01 65.97 216.91 67.29 216.91 69.79C216.91 72.44 218.01 73.76 220.22 73.76H232.28V85.82H204.12V34.42H204.11Z" fill="#991B1D"/>
<path d="M454.57 34.42H470.45C479.2 34.42 491.99 35.74 491.99 51.33C491.99 67.14 479.12 69.12 473.76 69.12H467.95V85.81H454.57V34.42ZM472.36 58.02H472.8C477.28 58.02 479.34 55.96 479.34 51.84C479.34 47.65 477.06 45.52 472.87 45.52H472.43C467.95 45.52 465.89 47.58 465.89 51.7C465.89 55.89 468.02 58.02 472.36 58.02Z" fill="#991B1D"/>
<path d="M512.65 75.81V85.81H499.27V34.42H516.18C523.83 34.42 536.69 35.74 536.69 51.33C536.69 66.18 525.52 68.46 521.4 68.9C525.37 77.43 531.4 77.5 531.84 69.49H542.87C542.87 72.21 542.28 74.86 541.25 77.36C538.82 83.17 533.9 86.48 527.8 86.48C522.28 86.47 517.21 82.87 512.65 75.81ZM517.06 58.02H517.5C521.98 58.02 524.04 55.96 524.04 51.84C524.04 47.65 521.91 45.52 517.57 45.52H517.13C512.65 45.52 510.59 47.58 510.59 51.7C510.59 55.89 512.73 58.02 517.06 58.02Z" fill="#991B1D"/>
<path d="M548.98 34.42H577.14V46.48H565.16C562.95 46.48 561.92 47.73 561.92 50.16C561.92 52.66 563.02 53.91 565.08 53.91H576.4V65.97H565.15C562.87 65.97 561.77 67.29 561.77 69.79C561.77 72.44 562.87 73.76 565.08 73.76H577.14V85.82H548.98V34.42Z" fill="#991B1D"/>
<path d="M584.27 60C584.27 41.77 601.84 26.92 622.06 35.81V50.66C611.99 42.79 598.17 47.2 598.17 60C598.17 73.38 611.99 77.06 622.06 69.78V84.26C601.84 93.53 584.27 77.5 584.27 60Z" fill="#991B1D"/>
<path d="M630.81 34.42H644.34V73.68H658.97V85.81H630.81V34.42Z" fill="#991B1D"/>
<path d="M665.44 34.42H693.6V46.48H681.62C679.41 46.48 678.38 47.73 678.38 50.16C678.38 52.66 679.48 53.91 681.54 53.91H692.86V65.97H681.61C679.33 65.97 678.23 67.29 678.23 69.79C678.23 72.44 679.33 73.76 681.54 73.76H693.6V85.82H665.44V34.42Z" fill="#991B1D"/>
<path d="M364.63 22.46C365.02 22.43 365.42 22.41 365.81 22.39C366.87 22.35 367.41 21.99 367.96 21.14C371.03 16.37 374.96 12.47 379.89 9.63998C382.02 8.41998 384.26 7.41998 386.63 6.22998C378.43 2.25998 369.93 1.03999 361.13 2.09999C357.1 2.57999 353.24 3.43998 349.6 4.71998C355.75 9.54998 360.89 15.53 364.63 22.46Z" fill="#EB8C0F"/>
<path d="M446.96 48.63C445.99 35.21 439.64 24.77 428.88 17.05C417.17 8.64997 404.22 5.25997 389.95 8.94997C379.62 11.63 371.14 19.49 367.65 29.08C368.15 30.4 368.62 31.74 369.02 33.11C370.34 37.61 371.06 42.15 371.22 46.67C375 44.61 378.63 42.31 381.55 38.99C382.57 37.83 383.78 36.82 384.9 35.75C391.96 29.01 399.94 25.94 409.54 29.78C423.58 35.39 429.53 46.66 424.98 61.4C424.29 63.63 423.33 65.78 422.47 68.03C422.62 68.15 422.78 68.28 422.94 68.41C428.55 72.87 430.13 79.95 426.87 85.96C423.62 91.95 416.53 94.66 409.84 92.16C405.6 90.57 401.54 88.49 397.38 86.68C396.69 86.38 395.85 86.15 395.12 86.23C383.43 87.49 372.29 85.64 361.66 80.66C357.96 86.47 353.27 91.78 347.75 96.36C363.64 106.12 381.23 109.11 399.7 106.28C416.3 103.73 429.43 95.3 438.51 81.03C444.78 71.17 447.81 60.38 446.96 48.63Z" fill="#EB8C0F"/>
<path d="M360.85 22.23C354.17 10.55 343.92 3.89 330.89 1.58C316.7 -0.930003 303.55 1.61999 292.29 11.12C281.27 20.42 277.39 36.78 283.92 49.18C285.31 51.83 286.96 54.3 289.2 56.43C289.49 56.14 289.7 55.98 289.85 55.77C293.07 51.47 296.22 47.13 297.7 41.84C298.12 40.35 298.77 38.92 299.32 37.47C302.77 28.34 308.63 22.12 318.95 21.43C334.04 20.41 344.27 28 346.55 43.26C346.9 45.57 346.96 47.93 347.16 50.32C347.35 50.37 347.55 50.42 347.75 50.46C354.73 52.06 359.22 57.75 358.88 64.58C358.54 71.38 353.33 76.9 346.21 77.54C341.7 77.95 337.14 77.82 332.6 77.99C331.84 78.02 330.99 78.17 330.36 78.56C320.22 84.85 309.2 88.01 297.27 88.02C296.53 88.02 295.71 88.3 295.06 88.67C291.02 90.97 287.11 93.52 282.98 95.62C276.9 98.7 269.65 96.78 265.74 91.39C261.8 85.95 262.37 78.74 267.21 73.74C267.97 72.95 267.97 72.45 267.4 71.56C265.26 68.24 263.74 64.64 262.9 60.79C261.88 56.15 261.74 51.51 263.62 47.04C266.15 41 270.62 36.72 276.34 33.7C277.28 33.2 277.61 32.65 277.74 31.64C278.44 26.02 280.3 20.79 283.52 16.11C284.91 14.09 286.5 12.22 288.12 10.12C279.01 10.09 270.82 12.67 263.34 17.43C253.25 23.85 245.88 32.48 242.86 44.25C240.1 55 241.51 65.47 246.17 75.44C254.95 94.24 269.7 105.38 290.28 107.99C309.51 110.42 327.26 105.53 343.18 94.66C357.05 85.18 365.23 71.9 367.25 55.11C368.65 43.49 366.71 32.46 360.85 22.23Z" fill="#EB8C0F"/>
<path d="M315.03 25.59C311.77 26.4 309.17 28.15 307.01 30.66C304.38 33.72 302.67 37.28 301.3 41.04C300.44 43.41 299.79 45.87 298.75 48.15C295.3 55.72 289.8 61.72 283.66 67.16C280.32 70.12 276.55 72.42 272.38 74.15C267.39 76.21 265.32 82.02 267.35 87.46C269.16 92.3 274.74 94.76 280.22 93.26C282.06 92.4 283.95 91.63 285.72 90.65C296.42 84.71 305.04 76.49 312.03 66.52C316.7 59.85 320.17 52.64 321.06 44.41C321.74 38.11 320.61 32.16 317.45 26.6C316.86 25.5 316.23 25.29 315.03 25.59Z" fill="#EB8C0F"/>
<path d="M313.2 70.64C313.79 70.86 314.17 71.03 314.57 71.16C320.43 72.95 326.41 74.18 332.53 74.64C337.94 75.05 343.35 75.18 348.62 73.57C353.4 72.11 356.44 66.8 355.35 62.02C354.09 56.5 349.28 52.76 344.11 53.68C337.56 54.86 331.2 53.98 324.84 52.58C324.23 52.45 323.62 52.32 322.92 52.17C320.77 58.92 317.41 64.88 313.2 70.64Z" fill="#EB8C0F"/>
<path d="M261.82 37.88H261.86C263.18 37.88 263.81 37.23 263.81 35.96C263.81 34.72 263.19 34.09 261.84 34.09C260.52 34.09 259.87 34.72 259.87 35.96C259.87 37.23 260.47 37.88 261.82 37.88Z" fill="white"/>
<path d="M249.09 45.38H249.13C250.45 45.38 251.08 44.73 251.08 43.46C251.08 42.22 250.46 41.59 249.11 41.59C247.79 41.59 247.14 42.22 247.14 43.46C247.14 44.72 247.74 45.38 249.09 45.38Z" fill="white"/>
<path d="M268.82 22.83L268.85 22.86C269.9 23.65 270.8 23.51 271.56 22.5C272.31 21.51 272.19 20.63 271.11 19.82C270.06 19.03 269.16 19.14 268.41 20.14C267.66 21.14 267.75 22.02 268.82 22.83Z" fill="white"/>
<path d="M262.74 27.11H262.76C263.51 27.19 263.91 26.86 263.99 26.14C264.07 25.43 263.75 25.03 262.98 24.95C262.23 24.87 261.81 25.19 261.74 25.9C261.66 26.61 261.96 27.03 262.74 27.11Z" fill="white"/>
<path d="M254.66 35.63H254.68C255.43 35.71 255.83 35.38 255.91 34.66C255.99 33.95 255.67 33.55 254.9 33.47C254.15 33.39 253.73 33.71 253.66 34.42C253.59 35.13 253.89 35.54 254.66 35.63Z" fill="white"/>
<path d="M258.05 50.13L258.06 50.11C258.44 49.46 258.31 48.95 257.68 48.58C257.06 48.22 256.57 48.34 256.18 49.01C255.8 49.66 255.92 50.17 256.53 50.53C257.15 50.9 257.65 50.8 258.05 50.13Z" fill="white"/>
<path d="M249.27 62.22H249.29C250.04 62.1 250.34 61.67 250.22 60.95C250.11 60.24 249.69 59.94 248.93 60.07C248.18 60.19 247.87 60.61 247.98 61.32C248.11 62.03 248.51 62.35 249.27 62.22Z" fill="white"/>
<path d="M270.8 30.22L270.81 30.24C271.15 30.92 271.65 31.07 272.3 30.74C272.94 30.42 273.1 29.93 272.75 29.24C272.41 28.56 271.91 28.39 271.28 28.72C270.63 29.05 270.45 29.53 270.8 30.22Z" fill="white"/>
<path d="M310.65 47.27H310.69C312.01 47.27 312.64 46.62 312.64 45.35C312.64 44.11 312.02 43.48 310.67 43.48C309.35 43.48 308.7 44.11 308.7 45.35C308.7 46.62 309.3 47.27 310.65 47.27Z" fill="white"/>
<path d="M301.36 69.16L301.39 69.19C302.44 69.98 303.34 69.84 304.1 68.83C304.85 67.84 304.73 66.96 303.65 66.15C302.6 65.36 301.7 65.47 300.95 66.47C300.19 67.47 300.28 68.35 301.36 69.16Z" fill="white"/>
<path d="M323.03 94.02L323 94.05C322.11 95.02 322.16 95.92 323.09 96.78C324 97.62 324.89 97.59 325.8 96.6C326.69 95.63 326.67 94.72 325.76 93.88C324.83 93.03 323.95 93.03 323.03 94.02Z" fill="white"/>
<path d="M306.37 95.77L306.4 95.8C307.45 96.59 308.35 96.45 309.11 95.44C309.86 94.45 309.74 93.57 308.66 92.76C307.61 91.97 306.71 92.08 305.96 93.08C305.2 94.08 305.29 94.96 306.37 95.77Z" fill="white"/>
<path d="M303.51 52.23V52.25C303.36 52.99 303.66 53.42 304.37 53.57C305.07 53.71 305.5 53.43 305.65 52.67C305.8 51.93 305.52 51.49 304.82 51.35C304.1 51.21 303.66 51.47 303.51 52.23Z" fill="white"/>
<path d="M325.16 64.89L325.2 64.88C326.49 64.61 326.98 63.85 326.72 62.61C326.47 61.39 325.73 60.9 324.41 61.17C323.12 61.44 322.61 62.19 322.86 63.4C323.12 64.64 323.84 65.16 325.16 64.89Z" fill="white"/>
<path d="M330.73 69.39L330.74 69.41C331.13 70.06 331.64 70.17 332.26 69.8C332.87 69.43 333 68.93 332.59 68.27C332.2 67.62 331.69 67.49 331.08 67.86C330.46 68.24 330.32 68.73 330.73 69.39Z" fill="white"/>
<path d="M323.47 88.41L323.48 88.43C323.87 89.08 324.38 89.19 325 88.82C325.61 88.45 325.74 87.95 325.33 87.29C324.94 86.64 324.43 86.51 323.82 86.88C323.21 87.25 323.07 87.74 323.47 88.41Z" fill="white"/>
<path d="M338.32 60.26L338.34 60.27C339.07 60.47 339.52 60.2 339.71 59.5C339.9 58.81 339.65 58.37 338.9 58.16C338.17 57.96 337.71 58.22 337.52 58.91C337.34 59.6 337.57 60.05 338.32 60.26Z" fill="white"/>
<path d="M298.94 103.2L298.96 103.21C299.69 103.41 300.14 103.14 300.33 102.44C300.52 101.75 300.27 101.31 299.52 101.1C298.79 100.9 298.33 101.16 298.14 101.85C297.95 102.54 298.19 103 298.94 103.2Z" fill="white"/>
<path d="M335.95 91.23L335.97 91.24C336.7 91.44 337.15 91.17 337.34 90.47C337.53 89.78 337.28 89.34 336.53 89.13C335.8 88.93 335.34 89.19 335.15 89.88C334.97 90.58 335.2 91.03 335.95 91.23Z" fill="white"/>
<path d="M293.2 20.96L293.23 20.99C294.28 21.78 295.18 21.64 295.94 20.63C296.69 19.64 296.57 18.76 295.49 17.95C294.44 17.16 293.54 17.27 292.79 18.27C292.04 19.27 292.13 20.15 293.2 20.96Z" fill="white"/>
<path d="M310.85 17.92L310.89 17.91C312.2 17.75 312.75 17.03 312.6 15.78C312.45 14.55 311.76 13.99 310.42 14.15C309.11 14.31 308.54 15.01 308.69 16.25C308.84 17.51 309.52 18.08 310.85 17.92Z" fill="white"/>
<path d="M326.23 9.27L326.27 9.28C327.53 9.67 328.32 9.23 328.69 8.02C329.05 6.83 328.65 6.04999 327.36 5.64999C326.1 5.25999 325.29 5.68 324.93 6.86C324.56 8.08 324.94 8.88 326.23 9.27Z" fill="white"/>
<path d="M340.06 20.36L340.1 20.37C341.36 20.76 342.15 20.32 342.52 19.11C342.88 17.92 342.48 17.14 341.19 16.74C339.93 16.35 339.12 16.77 338.76 17.95C338.38 19.16 338.77 19.96 340.06 20.36Z" fill="white"/>
<path d="M289.05 32.78L289.01 32.77C287.78 32.31 286.96 32.7 286.51 33.88C286.08 35.04 286.44 35.85 287.7 36.32C288.93 36.78 289.77 36.42 290.2 35.25C290.65 34.07 290.31 33.25 289.05 32.78Z" fill="white"/>
<path d="M294.14 28.33L294.15 28.35C294.49 29.03 294.99 29.18 295.64 28.85C296.28 28.53 296.44 28.04 296.09 27.35C295.75 26.67 295.25 26.5 294.62 26.83C293.97 27.16 293.79 27.64 294.14 28.33Z" fill="white"/>
<path d="M315.39 8.91001L315.38 8.89C314.93 8.28 314.41 8.21 313.83 8.64C313.25 9.06 313.17 9.57001 313.63 10.19C314.08 10.8 314.59 10.89 315.17 10.46C315.75 10.03 315.85 9.53001 315.39 8.91001Z" fill="white"/>
<path d="M305.12 8.74999L305.1 8.73999C304.38 8.50999 303.92 8.76 303.7 9.46C303.49 10.14 303.72 10.6 304.46 10.83C305.18 11.06 305.65 10.82 305.86 10.14C306.07 9.44999 305.86 8.98999 305.12 8.74999Z" fill="white"/>
<path d="M350.63 30.93L350.61 30.94C349.94 31.28 349.78 31.78 350.11 32.43C350.44 33.07 350.92 33.23 351.61 32.87C352.28 32.53 352.45 32.03 352.13 31.39C351.8 30.76 351.32 30.58 350.63 30.93Z" fill="white"/>
<path d="M353.26 22.88L353.25 22.86C352.92 22.18 352.43 22.01 351.77 22.33C351.13 22.64 350.95 23.12 351.29 23.82C351.62 24.5 352.11 24.68 352.75 24.38C353.4 24.05 353.59 23.58 353.26 22.88Z" fill="white"/>
<path d="M338.44 10.25L338.43 10.23C338.09 9.55001 337.59 9.40001 336.94 9.73001C336.3 10.05 336.14 10.54 336.49 11.23C336.83 11.91 337.33 12.08 337.96 11.75C338.62 11.42 338.79 10.94 338.44 10.25Z" fill="white"/>
<path d="M309.17 58.61L309.15 58.6C308.47 58.26 307.98 58.43 307.65 59.08C307.33 59.72 307.49 60.2 308.18 60.55C308.86 60.89 309.36 60.73 309.68 60.09C310 59.45 309.86 58.96 309.17 58.61Z" fill="white"/>
<path d="M313.56 99.58L313.54 99.59C312.93 100.03 312.85 100.55 313.28 101.14C313.7 101.72 314.2 101.81 314.83 101.35C315.44 100.91 315.54 100.39 315.12 99.81C314.69 99.23 314.19 99.13 313.56 99.58Z" fill="white"/>
<path d="M293.37 66.76L293.35 66.75C292.72 66.32 292.21 66.43 291.8 67.03C291.4 67.62 291.49 68.12 292.13 68.56C292.76 68.99 293.27 68.9 293.67 68.31C294.09 67.7 294.01 67.2 293.37 66.76Z" fill="white"/>
<path d="M288.53 75.28H288.51C287.76 75.17 287.35 75.49 287.24 76.21C287.14 76.92 287.44 77.33 288.21 77.44C288.96 77.55 289.38 77.24 289.48 76.53C289.59 75.81 289.3 75.39 288.53 75.28Z" fill="white"/>
<path d="M399.82 59.21C394.95 64.37 389.34 68.28 383.05 71.65C383.48 72.11 383.76 72.43 384.06 72.71C388.57 76.86 393.43 80.56 398.74 83.62C403.44 86.32 408.26 88.79 413.71 89.62C418.65 90.37 423.69 86.91 424.78 82.12C426.04 76.6 423.32 71.14 418.26 69.74C411.85 67.97 406.49 64.42 401.36 60.41C400.88 60.02 400.38 59.64 399.82 59.21Z" fill="#EB8C0F"/>
<path d="M405.96 33.78C405.87 32.53 405.4 32.07 404.19 31.82C400.9 31.14 397.8 31.6 394.77 32.92C391.07 34.54 387.99 37.01 385.14 39.8C383.34 41.56 381.69 43.5 379.77 45.11C377.1 47.33 374.23 49.16 371.22 50.69C370.91 59.24 368.63 67.62 364.7 75.33C371.33 73.54 377.69 70.86 383.81 67.42C390.91 63.43 397.16 58.43 401.52 51.39C404.85 46.01 406.41 40.16 405.96 33.78Z" fill="#EB8C0F"/>
<path d="M364.11 13.02L364.13 13.03C364.77 13.43 365.28 13.3 365.66 12.68C366.04 12.07 365.93 11.58 365.27 11.17C364.63 10.77 364.12 10.88 363.74 11.49C363.35 12.11 363.45 12.61 364.11 13.02Z" fill="white"/>
<path d="M368.93 7.01V7.03C368.95 7.79 369.33 8.14001 370.06 8.13001C370.77 8.11001 371.13 7.75001 371.11 6.97001C371.09 6.21001 370.72 5.85 370.01 5.86C369.28 5.88 368.91 6.24 368.93 7.01Z" fill="white"/>
<path d="M391.39 53.47L391.43 53.49C392.62 54.06 393.47 53.74 394.02 52.61C394.56 51.49 394.27 50.65 393.06 50.07C391.87 49.5 391.01 49.79 390.47 50.91C389.92 52.04 390.17 52.89 391.39 53.47Z" fill="white"/>
<path d="M380.05 58.95L380.07 58.99C380.68 60.16 381.55 60.42 382.67 59.83C383.77 59.26 384.05 58.41 383.42 57.22C382.81 56.05 381.95 55.76 380.85 56.34C379.73 56.92 379.43 57.75 380.05 58.95Z" fill="white"/>
<path d="M394.37 43.49V43.51C394.39 44.27 394.77 44.62 395.5 44.61C396.21 44.59 396.57 44.23 396.55 43.45C396.53 42.69 396.16 42.33 395.45 42.34C394.72 42.36 394.36 42.72 394.37 43.49Z" fill="white"/>
<path d="M381.96 50.08L381.95 50.1C381.49 50.7 381.57 51.22 382.15 51.66C382.72 52.09 383.23 52.03 383.69 51.41C384.15 50.81 384.08 50.29 383.51 49.86C382.93 49.41 382.43 49.46 381.96 50.08Z" fill="white"/>
<path d="M397.45 76.09L397.49 76.1C398.77 76.42 399.54 75.94 399.84 74.71C400.14 73.5 399.69 72.74 398.38 72.41C397.1 72.09 396.32 72.55 396.02 73.75C395.72 74.99 396.14 75.76 397.45 76.09Z" fill="white"/>
<path d="M404.39 71.15L404.38 71.17C403.92 71.77 404 72.29 404.58 72.73C405.15 73.16 405.66 73.1 406.12 72.48C406.58 71.88 406.51 71.36 405.94 70.93C405.36 70.48 404.86 70.53 404.39 71.15Z" fill="white"/>
<path d="M410.61 79.71L410.63 79.72C411.35 79.95 411.81 79.7 412.03 79.01C412.25 78.33 412.02 77.87 411.28 77.64C410.56 77.41 410.09 77.64 409.87 78.32C409.65 79.01 409.87 79.47 410.61 79.71Z" fill="white"/>
<path d="M392.55 16.22L392.57 16.26C393.18 17.43 394.05 17.69 395.17 17.1C396.27 16.53 396.55 15.68 395.93 14.49C395.32 13.32 394.46 13.03 393.36 13.61C392.23 14.19 391.93 15.02 392.55 16.22Z" fill="white"/>
<path d="M411.71 16.74L411.74 16.77C412.71 17.66 413.61 17.61 414.47 16.68C415.31 15.77 415.28 14.88 414.29 13.97C413.32 13.08 412.41 13.1 411.57 14.01C410.72 14.94 410.72 15.83 411.71 16.74Z" fill="white"/>
<path d="M436.6 42.97L436.63 43C437.6 43.89 438.5 43.84 439.36 42.91C440.2 42 440.17 41.11 439.18 40.2C438.21 39.31 437.3 39.33 436.46 40.24C435.61 41.17 435.61 42.05 436.6 42.97Z" fill="white"/>
<path d="M421.69 27.03L421.66 27.06C420.79 28.05 420.86 28.95 421.81 29.79C422.74 30.61 423.63 30.56 424.52 29.55C425.39 28.56 425.35 27.66 424.42 26.83C423.47 26 422.58 26.02 421.69 27.03Z" fill="white"/>
<path d="M379.84 29.07L379.81 29.04C378.9 28.09 377.99 28.09 377.08 28.96C376.18 29.82 376.16 30.71 377.09 31.68C378 32.63 378.91 32.66 379.81 31.8C380.72 30.92 380.77 30.04 379.84 29.07Z" fill="white"/>
<path d="M381.37 22.47V22.49C381.39 23.25 381.77 23.6 382.5 23.59C383.21 23.57 383.57 23.21 383.55 22.43C383.53 21.67 383.16 21.31 382.45 21.32C381.72 21.34 381.36 21.7 381.37 22.47Z" fill="white"/>
<path d="M395.11 23.46L395.09 23.45C394.36 23.25 393.91 23.52 393.72 24.22C393.53 24.91 393.78 25.35 394.53 25.56C395.26 25.76 395.72 25.5 395.9 24.81C396.1 24.12 395.86 23.66 395.11 23.46Z" fill="white"/>
<path d="M409.83 21.98V21.96C409.69 21.22 409.25 20.93 408.54 21.06C407.84 21.19 407.55 21.61 407.69 22.37C407.83 23.11 408.26 23.42 408.96 23.28C409.67 23.15 409.97 22.74 409.83 21.98Z" fill="white"/>
<path d="M425.07 20.24H425.05C424.29 20.26 423.94 20.64 423.96 21.37C423.98 22.08 424.34 22.44 425.12 22.42C425.88 22.4 426.24 22.03 426.23 21.31C426.2 20.58 425.85 20.22 425.07 20.24Z" fill="white"/>
<path d="M431.86 60.05H431.84C431.08 60.07 430.73 60.45 430.75 61.18C430.77 61.89 431.13 62.25 431.91 62.23C432.67 62.21 433.03 61.84 433.02 61.12C432.99 60.4 432.63 60.04 431.86 60.05Z" fill="white"/>
<path d="M433.7 48.39L433.68 48.37C433.09 47.9 432.57 47.96 432.12 48.53C431.67 49.09 431.72 49.59 432.33 50.08C432.92 50.55 433.44 50.51 433.89 49.95C434.34 49.39 434.3 48.88 433.7 48.39Z" fill="white"/>
<path d="M443.29 52.47V52.45C443.29 51.69 442.92 51.33 442.19 51.33C441.48 51.33 441.11 51.69 441.11 52.46C441.11 53.22 441.47 53.59 442.19 53.59C442.92 53.59 443.29 53.25 443.29 52.47Z" fill="white"/>
<path d="M434.89 30.35V30.33C434.87 29.57 434.49 29.22 433.76 29.23C433.05 29.25 432.69 29.61 432.71 30.39C432.73 31.15 433.1 31.51 433.81 31.5C434.54 31.48 434.9 31.13 434.89 30.35Z" fill="white"/>
<path d="M386.26 101.84L386.28 101.88C386.92 103.03 387.8 103.26 388.9 102.65C389.99 102.05 390.24 101.2 389.58 100.02C388.94 98.87 388.07 98.61 386.98 99.21C385.89 99.82 385.61 100.66 386.26 101.84Z" fill="white"/>
<path d="M363.21 98.04L363.25 98.05C364.55 98.25 365.27 97.69 365.46 96.44C365.64 95.21 365.12 94.49 363.79 94.29C362.49 94.09 361.75 94.62 361.56 95.85C361.38 97.1 361.88 97.84 363.21 98.04Z" fill="white"/>
<path d="M374.33 93.78L374.36 93.81C375.4 94.62 376.3 94.49 377.07 93.49C377.83 92.51 377.73 91.63 376.67 90.8C375.63 89.99 374.73 90.09 373.97 91.07C373.19 92.07 373.26 92.96 374.33 93.78Z" fill="white"/>
<path d="M384.14 94.31L384.16 94.32C384.88 94.55 385.34 94.3 385.56 93.61C385.78 92.93 385.55 92.47 384.81 92.24C384.09 92.01 383.62 92.24 383.4 92.92C383.18 93.62 383.4 94.08 384.14 94.31Z" fill="white"/>
<path d="M372.09 103.12H372.11C372.87 103.18 373.26 102.83 373.31 102.1C373.36 101.39 373.03 101 372.26 100.94C371.5 100.88 371.1 101.22 371.05 101.93C371 102.66 371.32 103.06 372.09 103.12Z" fill="white"/>
<path d="M396.39 97.18L396.41 97.17C397.11 96.88 397.31 96.4 397.03 95.73C396.76 95.07 396.29 94.87 395.57 95.16C394.87 95.45 394.66 95.92 394.93 96.59C395.21 97.26 395.67 97.47 396.39 97.18Z" fill="white"/>
</svg>
