<svg width="546" height="218" viewBox="0 0 546 218" fill="none" xmlns="http://www.w3.org/2000/svg">
<path d="M0.52002 215.59V159.67H15.56C35.48 159.67 46.04 168.95 46.04 187.27C46.04 205.91 35.16 215.59 15.88 215.59H0.52002ZM31.24 187.43C31.24 177.75 26.2 172.79 15.8 172.79V202.47C26.2 202.47 31.24 197.35 31.24 187.43Z" fill="white"/>
<path d="M81.55 157.75C121.07 157.75 120.11 217.27 81.63 217.27C43.15 217.27 42.03 157.75 81.55 157.75ZM81.48 201.91H81.8C91.8 201.91 96.6 196.95 96.6 187.35C96.6 177.91 91.88 173.11 81.64 173.11C71.64 173.11 66.68 177.91 66.68 187.35C66.67 196.95 71.23 201.91 81.48 201.91Z" fill="white"/>
<path d="M119.31 159.67H137.95C142.91 159.67 147.15 161.03 150.27 163.51C156.99 168.63 156.91 180.87 149.79 185.59C158.51 187.83 160.03 195.67 160.03 199.59C160.03 210.23 152.03 215.67 141.55 215.59H119.31V159.67ZM138.19 204.55H138.67C143.23 204.55 145.31 202.39 145.31 198.23C145.31 193.91 143.15 191.67 138.75 191.67H138.27C133.71 191.67 131.55 193.83 131.55 198.07C131.55 202.31 133.79 204.55 138.19 204.55ZM136.99 181.03H137.39C141.07 181.03 142.83 179.27 142.83 175.83C142.83 172.39 141.07 170.55 137.39 170.55H137.07C133.31 170.55 131.63 172.31 131.63 175.75C131.63 179.27 133.39 181.03 136.99 181.03Z" fill="white"/>
<path d="M182.75 204.71V215.59H168.19V159.67H186.59C194.91 159.67 208.91 161.11 208.91 178.07C208.91 194.23 196.75 196.71 192.27 197.19C196.59 206.47 203.15 206.55 203.63 197.83H215.63C215.63 200.79 214.99 203.67 213.87 206.39C211.23 212.71 205.87 216.31 199.23 216.31C193.23 216.31 187.71 212.39 182.75 204.71ZM187.55 185.35H188.03C192.91 185.35 195.15 183.11 195.15 178.63C195.15 174.07 192.83 171.75 188.11 171.75H187.63C182.75 171.75 180.51 173.99 180.51 178.47C180.51 183.03 182.83 185.35 187.55 185.35Z" fill="white"/>
<path d="M222.27 159.67H252.91V172.79H239.87C237.47 172.79 236.35 174.15 236.35 176.79C236.35 179.51 237.55 180.87 239.79 180.87H252.11V193.99H239.87C237.39 193.99 236.19 195.43 236.19 198.15C236.19 201.03 237.39 202.47 239.79 202.47H252.91V215.59H222.27V159.67Z" fill="white"/>
<path d="M285.3 159.67H302.58C312.1 159.67 326.02 161.11 326.02 178.07C326.02 195.27 312.02 197.43 306.18 197.43H299.86V215.59H285.3V159.67ZM304.66 185.35H305.14C310.02 185.35 312.26 183.11 312.26 178.63C312.26 174.07 309.78 171.75 305.22 171.75H304.74C299.86 171.75 297.62 173.99 297.62 178.47C297.62 183.03 299.94 185.35 304.66 185.35Z" fill="white"/>
<path d="M348.5 204.71V215.59H333.94V159.67H352.34C360.66 159.67 374.66 161.11 374.66 178.07C374.66 194.23 362.5 196.71 358.02 197.19C362.34 206.47 368.9 206.55 369.38 197.83H381.38C381.38 200.79 380.74 203.67 379.62 206.39C376.98 212.71 371.62 216.31 364.98 216.31C358.98 216.31 353.46 212.39 348.5 204.71ZM353.3 185.35H353.78C358.66 185.35 360.9 183.11 360.9 178.63C360.9 174.07 358.58 171.75 353.86 171.75H353.38C348.5 171.75 346.26 173.99 346.26 178.47C346.26 183.03 348.58 185.35 353.3 185.35Z" fill="white"/>
<path d="M388.02 159.67H418.66V172.79H405.62C403.22 172.79 402.1 174.15 402.1 176.79C402.1 179.51 403.3 180.87 405.54 180.87H417.86V193.99H405.62C403.14 193.99 401.94 195.43 401.94 198.15C401.94 201.03 403.14 202.47 405.54 202.47H418.66V215.59H388.02V159.67Z" fill="white"/>
<path d="M426.42 187.51C426.42 167.67 445.54 151.51 467.54 161.19V177.35C456.58 168.79 441.54 173.59 441.54 187.51C441.54 202.07 456.58 206.07 467.54 198.15V213.91C445.54 223.99 426.42 206.55 426.42 187.51Z" fill="white"/>
<path d="M477.05 159.67H491.77V202.39H507.69V215.59H477.05V159.67Z" fill="white"/>
<path d="M514.73 159.67H545.37V172.79H532.33C529.93 172.79 528.81 174.15 528.81 176.79C528.81 179.51 530.01 180.87 532.25 180.87H544.57V193.99H532.33C529.85 193.99 528.65 195.43 528.65 198.15C528.65 201.03 529.85 202.47 532.25 202.47H545.37V215.59H514.73V159.67Z" fill="white"/>
<path d="M294.44 28.51C294.94 28.47 295.45 28.45 295.95 28.43C297.31 28.38 298 27.92 298.7 26.83C302.63 20.72 307.67 15.72 313.98 12.1C316.7 10.54 319.58 9.26 322.62 7.73C312.12 2.65 301.23 1.09 289.96 2.44C284.8 3.06 279.86 4.16 275.19 5.79C283.06 11.98 289.65 19.63 294.44 28.51Z" fill="#EB8D11"/>
<path d="M399.89 62.03C398.65 44.84 390.51 31.47 376.74 21.58C361.74 10.82 345.15 6.48 326.88 11.21C313.64 14.64 302.78 24.71 298.31 37C298.95 38.69 299.55 40.4 300.07 42.16C301.76 47.92 302.68 53.74 302.89 59.53C307.74 56.89 312.38 53.95 316.12 49.69C317.43 48.2 318.97 46.91 320.41 45.54C329.45 36.9 339.67 32.98 351.97 37.89C369.96 45.08 377.57 59.51 371.75 78.39C370.87 81.25 369.64 84.01 368.54 86.88C368.73 87.03 368.93 87.21 369.14 87.37C376.32 93.08 378.35 102.15 374.17 109.84C370.01 117.51 360.93 120.98 352.35 117.78C346.91 115.75 341.72 113.08 336.39 110.76C335.5 110.37 334.43 110.08 333.49 110.18C318.51 111.8 304.24 109.42 290.63 103.04C285.89 110.48 279.88 117.28 272.81 123.14C293.17 135.64 315.7 139.47 339.36 135.84C360.63 132.58 377.44 121.77 389.07 103.5C397.1 90.9 400.97 77.08 399.89 62.03Z" fill="#EB8D11"/>
<path d="M289.6 28.22C281.04 13.26 267.92 4.73 251.23 1.77C233.05 -1.44 216.22 1.82001 201.79 13.99C187.68 25.9 182.71 46.85 191.07 62.74C192.86 66.13 194.96 69.29 197.84 72.03C198.21 71.66 198.48 71.45 198.68 71.19C202.81 65.68 206.84 60.13 208.74 53.35C209.28 51.44 210.11 49.61 210.81 47.75C215.23 36.05 222.74 28.09 235.95 27.2C255.28 25.9 268.38 35.61 271.3 55.16C271.74 58.12 271.82 61.14 272.08 64.2C272.32 64.26 272.58 64.32 272.84 64.38C281.78 66.42 287.54 73.72 287.1 82.46C286.67 91.17 279.99 98.24 270.87 99.06C265.09 99.58 259.25 99.42 253.44 99.64C252.47 99.68 251.38 99.87 250.57 100.37C237.58 108.43 223.47 112.47 208.18 112.49C207.23 112.49 206.18 112.84 205.34 113.32C200.16 116.26 195.16 119.53 189.86 122.22C182.08 126.16 172.78 123.71 167.78 116.8C162.74 109.83 163.47 100.59 169.66 94.19C170.63 93.18 170.64 92.53 169.91 91.4C167.17 87.15 165.23 82.54 164.14 77.6C162.84 71.66 162.66 65.71 165.06 59.99C168.31 52.25 174.03 46.77 181.35 42.9C182.55 42.27 182.98 41.55 183.14 40.26C184.04 33.06 186.42 26.36 190.55 20.37C192.33 17.79 194.37 15.38 196.45 12.7C184.78 12.66 174.29 15.96 164.71 22.06C151.79 30.28 142.34 41.34 138.48 56.42C134.95 70.18 136.75 83.6 142.71 96.37C153.96 120.45 172.85 134.72 199.21 138.06C223.84 141.17 246.58 134.92 266.96 120.98C284.72 108.84 295.2 91.83 297.79 70.32C299.58 55.45 297.1 41.32 289.6 28.22Z" fill="#EB8D11"/>
<path d="M230.91 32.52C226.74 33.56 223.4 35.8 220.64 39.01C217.27 42.92 215.08 47.5 213.33 52.3C212.23 55.33 211.4 58.48 210.07 61.4C205.65 71.09 198.61 78.78 190.75 85.75C186.47 89.55 181.65 92.49 176.3 94.7C169.91 97.34 167.25 104.78 169.86 111.75C172.18 117.95 179.33 121.1 186.35 119.18C188.7 118.07 191.13 117.09 193.4 115.84C207.1 108.24 218.15 97.7 227.1 84.93C233.08 76.39 237.53 67.15 238.67 56.61C239.54 48.54 238.09 40.91 234.05 33.8C233.25 32.4 232.45 32.13 230.91 32.52Z" fill="#EB8D11"/>
<path d="M228.56 90.22C229.31 90.51 229.81 90.72 230.32 90.88C237.83 93.17 245.49 94.75 253.32 95.34C260.25 95.86 267.18 96.03 273.93 93.97C280.05 92.1 283.95 85.3 282.55 79.17C280.94 72.09 274.77 67.31 268.16 68.49C259.77 70 251.63 68.87 243.48 67.08C242.7 66.91 241.92 66.75 241.02 66.56C238.26 75.22 233.96 82.84 228.56 90.22Z" fill="#EB8D11"/>
<path d="M162.75 48.27H162.8C164.49 48.27 165.29 47.43 165.29 45.82C165.29 44.23 164.49 43.42 162.77 43.42C161.08 43.42 160.25 44.23 160.25 45.82C160.26 47.43 161.03 48.27 162.75 48.27Z" fill="white"/>
<path d="M146.45 57.86H146.5C148.19 57.86 148.99 57.02 148.99 55.41C148.99 53.82 148.19 53.01 146.47 53.01C144.78 53.01 143.95 53.82 143.95 55.41C143.95 57.03 144.72 57.86 146.45 57.86Z" fill="white"/>
<path d="M171.73 28.99L171.77 29.02C173.12 30.03 174.27 29.85 175.24 28.56C176.2 27.29 176.05 26.16 174.66 25.13C173.31 24.12 172.16 24.26 171.2 25.54C170.23 26.82 170.34 27.95 171.73 28.99Z" fill="white"/>
<path d="M163.93 34.46H163.96C164.92 34.56 165.44 34.14 165.54 33.21C165.64 32.3 165.23 31.79 164.25 31.68C163.29 31.58 162.76 31.99 162.66 32.9C162.55 33.83 162.94 34.36 163.93 34.46Z" fill="white"/>
<path d="M153.59 45.38H153.62C154.58 45.48 155.1 45.06 155.2 44.13C155.3 43.22 154.89 42.71 153.91 42.6C152.95 42.5 152.42 42.91 152.32 43.82C152.21 44.74 152.6 45.27 153.59 45.38Z" fill="white"/>
<path d="M157.92 63.95L157.94 63.92C158.43 63.08 158.26 62.44 157.45 61.97C156.66 61.5 156.03 61.66 155.52 62.52C155.03 63.36 155.18 64.01 155.97 64.47C156.78 64.94 157.42 64.8 157.92 63.95Z" fill="white"/>
<path d="M146.68 79.44H146.71C147.67 79.28 148.05 78.73 147.9 77.82C147.75 76.92 147.23 76.53 146.25 76.69C145.29 76.85 144.89 77.38 145.04 78.29C145.19 79.2 145.7 79.6 146.68 79.44Z" fill="white"/>
<path d="M174.25 38.45L174.26 38.48C174.7 39.35 175.34 39.54 176.17 39.12C176.99 38.71 177.2 38.09 176.75 37.2C176.31 36.33 175.68 36.12 174.86 36.53C174.04 36.95 173.81 37.56 174.25 38.45Z" fill="white"/>
<path d="M225.29 60.29H225.34C227.03 60.29 227.83 59.45 227.83 57.84C227.83 56.25 227.03 55.44 225.31 55.44C223.62 55.44 222.79 56.25 222.79 57.84C222.8 59.45 223.57 60.29 225.29 60.29Z" fill="white"/>
<path d="M213.4 88.32L213.44 88.35C214.79 89.36 215.94 89.18 216.91 87.88C217.87 86.61 217.71 85.48 216.33 84.45C214.98 83.44 213.83 83.58 212.87 84.86C211.9 86.16 212.02 87.29 213.4 88.32Z" fill="white"/>
<path d="M241.16 120.17L241.12 120.21C239.98 121.45 240.04 122.61 241.23 123.71C242.4 124.79 243.53 124.75 244.7 123.48C245.84 122.24 245.82 121.08 244.65 120C243.46 118.9 242.33 118.9 241.16 120.17Z" fill="white"/>
<path d="M219.81 122.41L219.85 122.44C221.2 123.45 222.35 123.27 223.32 121.97C224.28 120.7 224.12 119.57 222.74 118.54C221.39 117.53 220.24 117.67 219.28 118.95C218.32 120.25 218.43 121.38 219.81 122.41Z" fill="white"/>
<path d="M216.15 66.64L216.14 66.67C215.95 67.62 216.33 68.17 217.24 68.36C218.14 68.54 218.68 68.19 218.88 67.21C219.07 66.26 218.71 65.7 217.81 65.51C216.91 65.33 216.35 65.67 216.15 66.64Z" fill="white"/>
<path d="M243.88 82.86L243.93 82.85C245.58 82.51 246.21 81.53 245.88 79.94C245.56 78.38 244.62 77.75 242.93 78.1C241.28 78.44 240.62 79.4 240.94 80.96C241.27 82.54 242.19 83.2 243.88 82.86Z" fill="white"/>
<path d="M251.01 88.62L251.03 88.65C251.53 89.48 252.19 89.63 252.98 89.14C253.76 88.66 253.92 88.03 253.41 87.18C252.91 86.35 252.26 86.18 251.48 86.66C250.68 87.14 250.5 87.77 251.01 88.62Z" fill="white"/>
<path d="M241.72 112.98L241.74 113.01C242.24 113.84 242.9 113.99 243.69 113.5C244.47 113.02 244.63 112.39 244.12 111.54C243.62 110.71 242.97 110.54 242.19 111.02C241.39 111.5 241.21 112.13 241.72 112.98Z" fill="white"/>
<path d="M260.74 76.92L260.77 76.93C261.71 77.18 262.28 76.84 262.52 75.94C262.76 75.06 262.44 74.49 261.48 74.23C260.54 73.98 259.96 74.3 259.72 75.18C259.48 76.08 259.78 76.66 260.74 76.92Z" fill="white"/>
<path d="M210.29 131.93L210.32 131.94C211.26 132.19 211.83 131.85 212.07 130.95C212.31 130.07 211.99 129.5 211.03 129.24C210.09 128.99 209.51 129.31 209.27 130.19C209.03 131.09 209.34 131.67 210.29 131.93Z" fill="white"/>
<path d="M257.7 116.6L257.73 116.61C258.67 116.86 259.24 116.52 259.48 115.62C259.72 114.74 259.4 114.17 258.44 113.91C257.5 113.66 256.92 113.98 256.68 114.86C256.44 115.76 256.74 116.34 257.7 116.6Z" fill="white"/>
<path d="M202.95 26.59L202.99 26.62C204.34 27.63 205.49 27.45 206.46 26.16C207.42 24.89 207.27 23.76 205.88 22.73C204.53 21.72 203.38 21.86 202.42 23.14C201.46 24.42 201.57 25.55 202.95 26.59Z" fill="white"/>
<path d="M225.56 22.7L225.61 22.69C227.28 22.49 227.99 21.56 227.79 19.96C227.6 18.38 226.71 17.67 225 17.88C223.33 18.08 222.59 18.98 222.78 20.56C222.98 22.16 223.85 22.9 225.56 22.7Z" fill="white"/>
<path d="M245.25 11.62L245.3 11.64C246.91 12.13 247.93 11.57 248.4 10.02C248.87 8.5 248.34 7.49 246.69 6.99C245.08 6.5 244.04 7.02 243.58 8.55C243.11 10.09 243.6 11.11 245.25 11.62Z" fill="white"/>
<path d="M262.96 25.82L263.01 25.84C264.62 26.33 265.64 25.77 266.11 24.22C266.58 22.7 266.05 21.69 264.4 21.19C262.79 20.7 261.75 21.22 261.29 22.75C260.82 24.29 261.31 25.31 262.96 25.82Z" fill="white"/>
<path d="M197.63 41.73L197.58 41.71C196 41.12 194.95 41.62 194.38 43.14C193.82 44.63 194.29 45.67 195.9 46.27C197.48 46.86 198.55 46.39 199.1 44.9C199.68 43.38 199.25 42.33 197.63 41.73Z" fill="white"/>
<path d="M204.15 36.03L204.16 36.06C204.6 36.93 205.24 37.12 206.07 36.7C206.89 36.29 207.1 35.67 206.65 34.78C206.21 33.91 205.58 33.7 204.76 34.11C203.93 34.53 203.7 35.15 204.15 36.03Z" fill="white"/>
<path d="M231.37 11.15L231.35 11.13C230.77 10.35 230.11 10.26 229.36 10.81C228.62 11.35 228.52 12 229.11 12.8C229.69 13.58 230.35 13.69 231.08 13.15C231.83 12.59 231.95 11.95 231.37 11.15Z" fill="white"/>
<path d="M218.21 10.95L218.18 10.94C217.25 10.65 216.67 10.97 216.39 11.86C216.12 12.73 216.42 13.31 217.36 13.61C218.29 13.9 218.88 13.6 219.16 12.72C219.44 11.84 219.16 11.25 218.21 10.95Z" fill="white"/>
<path d="M276.51 39.36L276.48 39.37C275.62 39.81 275.42 40.45 275.84 41.28C276.26 42.1 276.88 42.3 277.76 41.85C278.62 41.41 278.84 40.78 278.42 39.96C278.01 39.14 277.39 38.91 276.51 39.36Z" fill="white"/>
<path d="M279.87 29.05L279.86 29.02C279.44 28.15 278.81 27.93 277.97 28.33C277.14 28.73 276.92 29.34 277.35 30.24C277.77 31.11 278.4 31.35 279.22 30.95C280.06 30.55 280.3 29.94 279.87 29.05Z" fill="white"/>
<path d="M260.9 12.87L260.89 12.84C260.45 11.97 259.81 11.78 258.98 12.2C258.16 12.61 257.95 13.23 258.4 14.12C258.84 14.99 259.47 15.2 260.29 14.79C261.12 14.36 261.35 13.75 260.9 12.87Z" fill="white"/>
<path d="M223.4 74.81L223.37 74.8C222.5 74.36 221.87 74.59 221.45 75.42C221.04 76.24 221.24 76.86 222.13 77.31C223 77.75 223.64 77.55 224.05 76.73C224.47 75.88 224.29 75.26 223.4 74.81Z" fill="white"/>
<path d="M229.02 127.29L228.99 127.31C228.2 127.88 228.11 128.54 228.65 129.3C229.19 130.04 229.83 130.15 230.63 129.57C231.42 129 231.53 128.34 231 127.6C230.47 126.84 229.83 126.71 229.02 127.29Z" fill="white"/>
<path d="M203.17 85.25L203.14 85.23C202.34 84.68 201.68 84.82 201.16 85.59C200.64 86.35 200.76 86.99 201.58 87.55C202.38 88.1 203.04 87.98 203.56 87.23C204.08 86.46 203.99 85.81 203.17 85.25Z" fill="white"/>
<path d="M196.97 96.17H196.94C195.98 96.03 195.45 96.44 195.32 97.36C195.19 98.27 195.58 98.79 196.56 98.93C197.52 99.07 198.06 98.67 198.19 97.77C198.32 96.85 197.95 96.31 196.97 96.17Z" fill="white"/>
<path d="M339.51 75.58C333.27 82.19 326.09 87.2 318.04 91.52C318.6 92.1 318.94 92.51 319.34 92.88C325.12 98.2 331.34 102.93 338.15 106.85C344.17 110.31 350.35 113.47 357.32 114.53C363.65 115.49 370.1 111.05 371.5 104.92C373.11 97.84 369.62 90.86 363.14 89.07C354.93 86.8 348.07 82.26 341.5 77.12C340.87 76.62 340.23 76.13 339.51 75.58Z" fill="#EB8D11"/>
<path d="M347.38 43.01C347.27 41.41 346.66 40.82 345.11 40.5C340.9 39.63 336.92 40.21 333.05 41.91C328.32 43.98 324.37 47.15 320.71 50.73C318.4 52.98 316.3 55.47 313.83 57.53C310.41 60.38 306.74 62.71 302.88 64.68C302.48 75.64 299.57 86.37 294.53 96.24C303.02 93.94 311.17 90.52 319 86.11C328.09 81 336.1 74.59 341.68 65.58C345.95 58.67 347.95 51.18 347.38 43.01Z" fill="#EB8D11"/>
<path d="M293.77 16.42L293.8 16.44C294.62 16.95 295.27 16.79 295.76 16C296.24 15.22 296.1 14.59 295.26 14.06C294.44 13.55 293.78 13.69 293.3 14.47C292.81 15.25 292.93 15.89 293.77 16.42Z" fill="white"/>
<path d="M299.94 8.72001V8.75001C299.96 9.72001 300.45 10.18 301.38 10.16C302.3 10.14 302.75 9.67001 302.73 8.68001C302.71 7.71001 302.23 7.24001 301.32 7.26001C300.39 7.28001 299.92 7.73001 299.94 8.72001Z" fill="white"/>
<path d="M328.71 68.23L328.76 68.25C330.28 68.98 331.37 68.58 332.07 67.12C332.76 65.69 332.39 64.61 330.84 63.86C329.32 63.13 328.22 63.5 327.53 64.93C326.83 66.39 327.16 67.48 328.71 68.23Z" fill="white"/>
<path d="M314.19 75.24L314.21 75.29C314.99 76.79 316.1 77.12 317.54 76.37C318.95 75.64 319.3 74.56 318.51 73.02C317.73 71.52 316.63 71.16 315.22 71.89C313.78 72.64 313.39 73.71 314.19 75.24Z" fill="white"/>
<path d="M332.53 55.45V55.48C332.55 56.45 333.04 56.91 333.97 56.89C334.89 56.87 335.34 56.4 335.32 55.41C335.3 54.44 334.82 53.97 333.91 53.99C332.98 54 332.51 54.46 332.53 55.45Z" fill="white"/>
<path d="M316.63 63.88L316.61 63.9C316.03 64.67 316.13 65.34 316.87 65.9C317.6 66.45 318.25 66.37 318.85 65.58C319.43 64.81 319.35 64.14 318.62 63.59C317.88 63.03 317.23 63.09 316.63 63.88Z" fill="white"/>
<path d="M336.47 97.2L336.52 97.21C338.16 97.62 339.14 97 339.54 95.43C339.93 93.89 339.35 92.91 337.67 92.49C336.03 92.08 335.03 92.66 334.64 94.21C334.25 95.79 334.8 96.79 336.47 97.2Z" fill="white"/>
<path d="M345.36 90.87L345.34 90.89C344.76 91.66 344.86 92.33 345.6 92.89C346.33 93.44 346.98 93.36 347.58 92.57C348.16 91.8 348.08 91.13 347.35 90.58C346.61 90.02 345.96 90.08 345.36 90.87Z" fill="white"/>
<path d="M353.33 101.83L353.36 101.84C354.28 102.13 354.87 101.82 355.16 100.93C355.44 100.06 355.14 99.48 354.2 99.17C353.28 98.88 352.68 99.17 352.4 100.05C352.1 100.94 352.38 101.53 353.33 101.83Z" fill="white"/>
<path d="M330.2 20.52L330.22 20.57C331 22.07 332.11 22.4 333.55 21.65C334.96 20.92 335.31 19.84 334.52 18.31C333.74 16.81 332.64 16.45 331.23 17.18C329.79 17.92 329.4 18.98 330.2 20.52Z" fill="white"/>
<path d="M354.74 21.18L354.78 21.22C356.02 22.36 357.18 22.3 358.28 21.11C359.36 19.94 359.32 18.81 358.05 17.64C356.81 16.5 355.65 16.53 354.57 17.69C353.47 18.88 353.47 20.01 354.74 21.18Z" fill="white"/>
<path d="M386.62 54.78L386.66 54.82C387.9 55.96 389.06 55.9 390.16 54.71C391.24 53.54 391.2 52.41 389.93 51.24C388.69 50.1 387.53 50.13 386.45 51.29C385.36 52.47 385.35 53.6 386.62 54.78Z" fill="white"/>
<path d="M367.53 34.37L367.49 34.41C366.38 35.67 366.47 36.83 367.68 37.9C368.87 38.95 370.01 38.89 371.15 37.6C372.26 36.34 372.21 35.17 371.02 34.12C369.8 33.05 368.67 33.07 367.53 34.37Z" fill="white"/>
<path d="M313.92 36.97L313.88 36.93C312.71 35.72 311.55 35.71 310.38 36.83C309.23 37.93 309.2 39.07 310.4 40.31C311.57 41.52 312.73 41.57 313.88 40.46C315.05 39.35 315.12 38.21 313.92 36.97Z" fill="white"/>
<path d="M315.88 28.52V28.55C315.9 29.52 316.39 29.98 317.32 29.96C318.24 29.94 318.69 29.47 318.67 28.48C318.65 27.51 318.17 27.04 317.26 27.06C316.33 27.08 315.86 27.53 315.88 28.52Z" fill="white"/>
<path d="M333.48 29.79L333.45 29.78C332.51 29.53 331.94 29.87 331.7 30.77C331.46 31.65 331.78 32.22 332.74 32.48C333.68 32.73 334.26 32.41 334.5 31.52C334.74 30.63 334.44 30.05 333.48 29.79Z" fill="white"/>
<path d="M352.33 27.89L352.32 27.86C352.14 26.91 351.58 26.54 350.66 26.71C349.76 26.88 349.39 27.42 349.57 28.39C349.75 29.34 350.3 29.73 351.2 29.56C352.12 29.39 352.51 28.87 352.33 27.89Z" fill="white"/>
<path d="M371.86 25.66H371.83C370.86 25.68 370.41 26.18 370.43 27.11C370.45 28.03 370.92 28.48 371.92 28.45C372.89 28.43 373.36 27.95 373.34 27.03C373.3 26.11 372.85 25.64 371.86 25.66Z" fill="white"/>
<path d="M380.55 76.66H380.52C379.55 76.68 379.1 77.18 379.12 78.11C379.14 79.03 379.61 79.48 380.6 79.45C381.57 79.43 382.04 78.95 382.02 78.03C381.99 77.11 381.54 76.64 380.55 76.66Z" fill="white"/>
<path d="M382.91 61.72L382.89 61.7C382.13 61.09 381.47 61.17 380.89 61.9C380.32 62.61 380.38 63.26 381.15 63.89C381.91 64.5 382.57 64.44 383.15 63.72C383.72 63 383.68 62.35 382.91 61.72Z" fill="white"/>
<path d="M395.2 66.95V66.92C395.2 65.95 394.72 65.48 393.79 65.48C392.87 65.48 392.41 65.94 392.41 66.93C392.41 67.9 392.87 68.38 393.79 68.38C394.71 68.39 395.2 67.95 395.2 66.95Z" fill="white"/>
<path d="M384.43 38.62V38.59C384.41 37.62 383.92 37.16 382.99 37.18C382.07 37.2 381.62 37.67 381.64 38.66C381.66 39.63 382.14 40.1 383.05 40.08C383.98 40.07 384.45 39.61 384.43 38.62Z" fill="white"/>
<path d="M322.15 130.18L322.18 130.23C323 131.7 324.12 132 325.54 131.22C326.93 130.45 327.25 129.36 326.41 127.85C325.59 126.38 324.48 126.04 323.09 126.81C321.67 127.6 321.31 128.68 322.15 130.18Z" fill="white"/>
<path d="M292.62 125.31L292.67 125.32C294.34 125.57 295.26 124.86 295.5 123.26C295.74 121.69 295.07 120.77 293.36 120.51C291.69 120.26 290.75 120.93 290.51 122.51C290.27 124.11 290.91 125.06 292.62 125.31Z" fill="white"/>
<path d="M306.86 119.87L306.9 119.9C308.23 120.94 309.38 120.77 310.38 119.5C311.36 118.24 311.23 117.12 309.86 116.06C308.53 115.02 307.37 115.15 306.4 116.41C305.4 117.67 305.5 118.81 306.86 119.87Z" fill="white"/>
<path d="M319.42 120.54L319.45 120.55C320.37 120.84 320.96 120.53 321.25 119.64C321.53 118.77 321.23 118.19 320.29 117.88C319.37 117.59 318.77 117.88 318.49 118.76C318.2 119.65 318.48 120.24 319.42 120.54Z" fill="white"/>
<path d="M303.99 131.82H304.02C304.99 131.89 305.49 131.45 305.56 130.52C305.63 129.61 305.21 129.11 304.22 129.04C303.25 128.97 302.74 129.4 302.67 130.31C302.6 131.23 303 131.74 303.99 131.82Z" fill="white"/>
<path d="M335.12 124.22L335.15 124.21C336.05 123.84 336.3 123.22 335.95 122.36C335.6 121.51 335 121.25 334.09 121.63C333.19 122 332.92 122.61 333.27 123.46C333.61 124.31 334.2 124.59 335.12 124.22Z" fill="white"/>
</svg>
