<svg width="94" height="94" viewBox="0 0 94 94" fill="none" xmlns="http://www.w3.org/2000/svg">
<path d="M47.1 92.2C72.008 92.2 92.2 72.008 92.2 47.1C92.2 22.192 72.008 2 47.1 2C22.192 2 2 22.192 2 47.1C2 72.008 22.192 92.2 47.1 92.2Z" fill="white" stroke="#9A1B1D" stroke-width="2.3143" stroke-miterlimit="10"/>
<path d="M24.29 32.36L16.24 22.91L18.78 20.75C22.15 17.88 25.27 17.93 27.9 21.03C30.58 24.18 30.14 27.38 26.88 30.16L24.29 32.36ZM25.43 23.18C24.04 21.54 22.47 21.43 20.71 22.93L24.98 27.95C26.74 26.45 26.86 24.86 25.43 23.18Z" fill="#9A1B1D"/>
<path d="M34.68 11.28C43.09 8.77 46.66 21.5 38.47 23.94C30.28 26.38 26.27 13.79 34.68 11.28ZM37.46 20.68L37.53 20.66C39.66 20.03 40.36 18.67 39.76 16.62C39.16 14.61 37.85 13.89 35.67 14.54C33.54 15.17 32.79 16.51 33.39 18.52C34 20.56 35.28 21.33 37.46 20.68Z" fill="#9A1B1D"/>
<path d="M46.73 9.75L50.85 10.18C51.95 10.3 52.85 10.69 53.48 11.31C54.85 12.6 54.54 15.3 52.86 16.17C54.73 16.87 54.89 18.63 54.8 19.5C54.55 21.85 52.66 22.86 50.35 22.6L45.44 22.08L46.73 9.75ZM49.86 20.09L49.97 20.1C50.98 20.21 51.49 19.78 51.58 18.86C51.68 17.91 51.26 17.36 50.28 17.26L50.17 17.25C49.16 17.14 48.64 17.57 48.54 18.51C48.44 19.45 48.89 19.99 49.86 20.09ZM50.14 14.87L50.23 14.88C51.04 14.97 51.47 14.62 51.55 13.86C51.63 13.1 51.28 12.65 50.47 12.57L50.4 12.56C49.57 12.47 49.16 12.82 49.08 13.58C49 14.36 49.34 14.79 50.14 14.87Z" fill="#9A1B1D"/>
<path d="M59.18 22.56L58.1 24.72L55.21 23.27L60.79 12.18L64.44 14.01C66.09 14.84 68.72 16.52 67.03 19.88C65.42 23.09 62.76 22.36 61.82 22.01C61.75 24.28 63.04 24.95 64.01 23.27L66.39 24.47C66.09 25.06 65.68 25.56 65.19 25.99C64.04 26.98 62.61 27.16 61.3 26.5C60.1 25.9 59.4 24.57 59.18 22.56ZM62.06 19.19L62.16 19.24C63.13 19.73 63.8 19.51 64.24 18.62C64.69 17.72 64.47 17.02 63.53 16.55L63.44 16.5C62.47 16.01 61.8 16.23 61.36 17.12C60.9 18.03 61.13 18.72 62.06 19.19Z" fill="#9A1B1D"/>
<path d="M73.7 19.94L78.46 24.8L76.38 26.84L74.35 24.77C73.98 24.39 73.59 24.42 73.17 24.83C72.74 25.25 72.71 25.65 73.06 26.01L74.98 27.96L72.9 30L71 28.06C70.61 27.67 70.2 27.7 69.77 28.12C69.31 28.57 69.27 28.98 69.64 29.36L71.68 31.44L69.6 33.48L64.84 28.62L73.7 19.94Z" fill="#9A1B1D"/>
<path d="M22.82 63.7L25.74 66.06C27.35 67.36 29.51 69.5 27.2 72.37C24.86 75.28 22.19 73.74 21.21 72.95L20.14 72.09L17.67 75.17L15.21 73.19L22.82 63.7ZM22.6 70.69L22.68 70.76C23.51 71.42 24.19 71.35 24.8 70.59C25.42 69.82 25.32 69.09 24.54 68.47L24.46 68.4C23.63 67.74 22.95 67.81 22.34 68.57C21.73 69.34 21.8 70.05 22.6 70.69Z" fill="#9A1B1D"/>
<path d="M30.68 80.19L29.9 82.42L26.91 81.39L30.89 69.91L34.67 71.22C36.38 71.81 39.15 73.1 37.94 76.58C36.79 79.9 34.11 79.54 33.16 79.32C33.39 81.53 34.73 82.01 35.45 80.26L37.91 81.11C37.7 81.72 37.36 82.26 36.94 82.74C35.95 83.85 34.59 84.21 33.23 83.74C32 83.32 31.15 82.12 30.68 80.19ZM33.04 76.56L33.14 76.59C34.14 76.94 34.76 76.64 35.08 75.72C35.4 74.78 35.09 74.14 34.12 73.81L34.02 73.78C33.02 73.43 32.4 73.73 32.08 74.65C31.76 75.58 32.07 76.22 33.04 76.56Z" fill="#9A1B1D"/>
<path d="M41.77 73.12L48.43 73.23L48.38 76.08L45.55 76.03C45.03 76.02 44.78 76.31 44.77 76.89C44.76 77.48 45.02 77.78 45.5 77.79L48.18 77.84L48.13 80.69L45.47 80.65C44.93 80.64 44.66 80.95 44.65 81.54C44.64 82.17 44.89 82.48 45.42 82.49L48.27 82.54L48.22 85.39L41.56 85.28L41.77 73.12Z" fill="#9A1B1D"/>
<path d="M51.46 79.05C50.27 74.91 53.29 70.38 58.47 71.08L59.44 74.46C56.64 73.33 53.78 75.24 54.62 78.15C55.49 81.19 58.88 81.12 60.69 78.81L61.64 82.1C57.64 85.52 52.6 83.03 51.46 79.05Z" fill="#9A1B1D"/>
<path d="M59.86 69.87L62.56 68.15L67.55 75.98L70.47 74.12L72.01 76.54L66.4 80.12L59.86 69.87Z" fill="#9A1B1D"/>
<path d="M66.37 65.47L70.87 60.56L72.97 62.49L71.05 64.58C70.7 64.96 70.75 65.34 71.17 65.73C71.61 66.13 72 66.14 72.33 65.78L74.14 63.81L76.24 65.74L74.44 67.7C74.08 68.1 74.13 68.5 74.57 68.9C75.03 69.32 75.44 69.34 75.79 68.96L77.72 66.86L79.82 68.79L75.32 73.7L66.37 65.47Z" fill="#9A1B1D"/>
<path d="M51.64 38.1C51.75 38.09 51.87 38.09 51.98 38.08C52.28 38.07 52.44 37.97 52.6 37.72C53.48 36.35 54.61 35.24 56.02 34.43C56.63 34.08 57.27 33.79 57.95 33.45C55.6 32.31 53.17 31.96 50.65 32.27C49.5 32.41 48.39 32.65 47.35 33.02C49.1 34.4 50.57 36.12 51.64 38.1Z" fill="#EB8D11"/>
<path d="M75.23 45.6C74.95 41.76 73.13 38.77 70.05 36.56C66.7 34.15 62.99 33.18 58.9 34.24C55.94 35.01 53.51 37.26 52.51 40.01C52.65 40.39 52.79 40.77 52.9 41.16C53.28 42.45 53.48 43.75 53.53 45.04C54.61 44.45 55.65 43.79 56.49 42.84C56.78 42.51 57.13 42.22 57.45 41.91C59.47 39.98 61.76 39.1 64.51 40.2C68.53 41.81 70.23 45.03 68.93 49.26C68.73 49.9 68.46 50.52 68.21 51.16C68.25 51.19 68.3 51.23 68.34 51.27C69.95 52.55 70.4 54.57 69.47 56.3C68.54 58.01 66.51 58.79 64.59 58.08C63.37 57.63 62.21 57.03 61.02 56.51C60.82 56.42 60.58 56.36 60.37 56.38C57.02 56.74 53.83 56.21 50.79 54.78C49.73 56.44 48.39 57.96 46.81 59.28C51.36 62.08 56.4 62.93 61.69 62.12C66.45 61.39 70.2 58.97 72.81 54.89C74.6 52.05 75.47 48.96 75.23 45.6Z" fill="#EB8D11"/>
<path d="M50.56 38.04C48.65 34.69 45.71 32.79 41.98 32.13C37.92 31.41 34.15 32.14 30.92 34.86C27.76 37.52 26.65 42.21 28.52 45.76C28.92 46.52 29.39 47.23 30.03 47.84C30.11 47.76 30.17 47.71 30.22 47.65C31.14 46.42 32.04 45.18 32.47 43.66C32.59 43.23 32.78 42.82 32.93 42.41C33.92 39.79 35.6 38.01 38.55 37.81C42.87 37.52 45.8 39.69 46.46 44.06C46.56 44.72 46.58 45.4 46.63 46.08C46.68 46.09 46.74 46.11 46.8 46.12C48.8 46.58 50.09 48.21 49.99 50.16C49.89 52.11 48.4 53.69 46.36 53.87C45.07 53.99 43.76 53.95 42.46 54C42.24 54.01 42 54.05 41.82 54.16C38.92 55.96 35.76 56.87 32.34 56.87C32.13 56.87 31.89 56.95 31.71 57.06C30.55 57.72 29.43 58.45 28.25 59.05C26.51 59.93 24.43 59.38 23.31 57.84C22.18 56.28 22.35 54.22 23.73 52.78C23.95 52.55 23.95 52.41 23.78 52.16C23.17 51.21 22.73 50.18 22.49 49.07C22.2 47.74 22.16 46.41 22.7 45.13C23.43 43.4 24.71 42.17 26.34 41.31C26.61 41.17 26.7 41.01 26.74 40.72C26.94 39.11 27.47 37.61 28.4 36.27C28.8 35.69 29.25 35.15 29.72 34.55C27.11 34.54 24.77 35.28 22.62 36.64C19.73 38.48 17.62 40.95 16.75 44.32C15.96 47.4 16.36 50.4 17.7 53.25C20.22 58.63 24.44 61.83 30.33 62.57C35.84 63.27 40.92 61.87 45.48 58.75C49.45 56.03 51.8 52.23 52.37 47.42C52.8 44.13 52.24 40.97 50.56 38.04Z" fill="#EB8D11"/>
<path d="M37.44 39C36.51 39.23 35.76 39.73 35.14 40.45C34.39 41.33 33.9 42.35 33.51 43.42C33.26 44.1 33.08 44.8 32.78 45.46C31.79 47.63 30.22 49.35 28.46 50.91C27.5 51.76 26.42 52.42 25.23 52.91C23.8 53.5 23.21 55.16 23.79 56.72C24.31 58.11 25.91 58.81 27.48 58.38C28.01 58.13 28.55 57.91 29.06 57.63C32.12 55.93 34.59 53.57 36.6 50.72C37.94 48.81 38.93 46.74 39.19 44.39C39.38 42.58 39.06 40.88 38.16 39.29C37.96 38.97 37.78 38.91 37.44 39Z" fill="#EB8D11"/>
<path d="M36.91 51.9C37.08 51.96 37.19 52.01 37.3 52.05C38.98 52.56 40.69 52.92 42.44 53.05C43.99 53.17 45.54 53.2 47.05 52.74C48.42 52.32 49.29 50.8 48.98 49.43C48.62 47.85 47.24 46.78 45.76 47.04C43.88 47.38 42.06 47.13 40.24 46.72C40.07 46.68 39.89 46.65 39.69 46.6C39.08 48.55 38.12 50.25 36.91 51.9Z" fill="#EB8D11"/>
<path d="M22.2 42.52H22.21C22.59 42.52 22.77 42.33 22.77 41.97C22.77 41.61 22.59 41.43 22.21 41.43C21.83 41.43 21.65 41.61 21.65 41.97C21.64 42.33 21.81 42.52 22.2 42.52Z" fill="white"/>
<path d="M18.55 44.67H18.56C18.94 44.67 19.12 44.48 19.12 44.12C19.12 43.76 18.94 43.58 18.56 43.58C18.18 43.58 18 43.76 18 44.12C17.99 44.48 18.17 44.67 18.55 44.67Z" fill="white"/>
<path d="M24.2 38.21C24.51 38.44 24.77 38.4 24.99 38.11C25.2 37.83 25.17 37.57 24.86 37.34C24.56 37.11 24.3 37.15 24.09 37.43C23.87 37.72 23.9 37.98 24.2 38.21Z" fill="white"/>
<path d="M22.46 39.43C22.68 39.45 22.8 39.36 22.82 39.15C22.84 38.95 22.75 38.83 22.53 38.81C22.31 38.79 22.2 38.88 22.17 39.08C22.15 39.29 22.24 39.41 22.46 39.43Z" fill="white"/>
<path d="M20.15 41.87C20.37 41.89 20.49 41.8 20.51 41.59C20.53 41.39 20.44 41.27 20.22 41.25C20 41.23 19.89 41.32 19.86 41.52C19.84 41.73 19.93 41.85 20.15 41.87Z" fill="white"/>
<path d="M21.12 46.03C21.23 45.84 21.19 45.69 21.01 45.59C20.83 45.49 20.69 45.52 20.58 45.71C20.47 45.9 20.5 46.04 20.68 46.15C20.86 46.25 21 46.22 21.12 46.03Z" fill="white"/>
<path d="M18.6 49.49C18.82 49.45 18.91 49.33 18.87 49.13C18.84 48.93 18.72 48.84 18.5 48.88C18.29 48.91 18.2 49.03 18.23 49.24C18.27 49.44 18.38 49.53 18.6 49.49Z" fill="white"/>
<path d="M24.77 40.32C24.87 40.52 25.01 40.56 25.2 40.47C25.38 40.38 25.43 40.24 25.33 40.04C25.23 39.85 25.09 39.8 24.91 39.89C24.72 39.99 24.67 40.13 24.77 40.32Z" fill="white"/>
<path d="M36.18 45.21H36.19C36.57 45.21 36.75 45.02 36.75 44.66C36.75 44.3 36.57 44.12 36.19 44.12C35.81 44.12 35.63 44.3 35.63 44.66C35.62 45.02 35.8 45.21 36.18 45.21Z" fill="white"/>
<path d="M33.52 51.48C33.83 51.71 34.09 51.67 34.31 51.38C34.52 51.1 34.49 50.84 34.18 50.61C33.88 50.38 33.62 50.42 33.41 50.7C33.19 50.99 33.21 51.25 33.52 51.48Z" fill="white"/>
<path d="M39.73 58.6C39.47 58.89 39.48 59.15 39.75 59.39C40.01 59.63 40.27 59.62 40.53 59.34C40.79 59.06 40.78 58.8 40.52 58.56C40.25 58.31 39.99 58.31 39.73 58.6Z" fill="white"/>
<path d="M34.96 59.1C35.27 59.33 35.53 59.29 35.75 59C35.96 58.72 35.93 58.46 35.62 58.23C35.32 58 35.06 58.04 34.85 58.32C34.62 58.62 34.65 58.87 34.96 59.1Z" fill="white"/>
<path d="M34.14 46.63C34.1 46.85 34.18 46.97 34.38 47.01C34.58 47.05 34.7 46.97 34.75 46.75C34.79 46.54 34.71 46.41 34.51 46.37C34.31 46.34 34.18 46.41 34.14 46.63Z" fill="white"/>
<path d="M40.34 50.25H40.35C40.72 50.17 40.86 49.95 40.79 49.6C40.72 49.25 40.51 49.11 40.13 49.19C39.76 49.27 39.61 49.48 39.69 49.83C39.75 50.18 39.96 50.33 40.34 50.25Z" fill="white"/>
<path d="M41.93 51.54C42.05 51.73 42.19 51.76 42.37 51.66C42.54 51.55 42.58 51.41 42.47 51.22C42.36 51.03 42.21 51 42.04 51.1C41.86 51.21 41.82 51.35 41.93 51.54Z" fill="white"/>
<path d="M39.86 56.99C39.98 57.18 40.12 57.21 40.3 57.11C40.47 57 40.51 56.86 40.4 56.67C40.29 56.48 40.14 56.45 39.97 56.55C39.78 56.66 39.74 56.8 39.86 56.99Z" fill="white"/>
<path d="M44.11 48.93C44.33 48.99 44.45 48.91 44.51 48.71C44.56 48.51 44.49 48.39 44.28 48.33C44.07 48.27 43.94 48.35 43.89 48.54C43.83 48.74 43.9 48.87 44.11 48.93Z" fill="white"/>
<path d="M32.83 61.23C33.05 61.29 33.17 61.21 33.23 61.01C33.28 60.81 33.21 60.69 33 60.63C32.79 60.57 32.66 60.65 32.61 60.84C32.55 61.04 32.61 61.17 32.83 61.23Z" fill="white"/>
<path d="M43.43 57.8C43.65 57.86 43.77 57.78 43.83 57.58C43.88 57.38 43.81 57.26 43.6 57.2C43.39 57.14 43.26 57.22 43.21 57.41C43.15 57.61 43.22 57.74 43.43 57.8Z" fill="white"/>
<path d="M31.19 37.67C31.5 37.9 31.76 37.86 31.98 37.57C32.19 37.29 32.16 37.03 31.85 36.8C31.55 36.57 31.29 36.61 31.08 36.89C30.85 37.19 30.88 37.44 31.19 37.67Z" fill="white"/>
<path d="M36.24 36.8H36.25C36.62 36.76 36.78 36.55 36.74 36.19C36.7 35.84 36.5 35.68 36.12 35.72C35.75 35.76 35.58 35.97 35.62 36.32C35.67 36.68 35.86 36.85 36.24 36.8Z" fill="white"/>
<path d="M40.65 34.32H40.66C41.02 34.43 41.25 34.3 41.35 33.96C41.45 33.62 41.34 33.39 40.97 33.28C40.61 33.17 40.38 33.29 40.27 33.63C40.17 33.98 40.28 34.21 40.65 34.32Z" fill="white"/>
<path d="M44.61 37.5H44.62C44.98 37.61 45.21 37.48 45.31 37.14C45.41 36.8 45.3 36.57 44.93 36.46C44.57 36.35 44.34 36.47 44.23 36.81C44.13 37.16 44.24 37.39 44.61 37.5Z" fill="white"/>
<path d="M30 41.06H29.99C29.64 40.93 29.4 41.04 29.28 41.38C29.16 41.71 29.26 41.95 29.62 42.08C29.97 42.21 30.21 42.11 30.34 41.77C30.45 41.43 30.36 41.19 30 41.06Z" fill="white"/>
<path d="M31.45 39.78C31.55 39.98 31.69 40.02 31.88 39.93C32.06 39.84 32.11 39.7 32.01 39.5C31.91 39.31 31.77 39.26 31.59 39.35C31.41 39.45 31.35 39.59 31.45 39.78Z" fill="white"/>
<path d="M37.54 34.22C37.41 34.04 37.26 34.02 37.09 34.14C36.93 34.26 36.9 34.41 37.03 34.58C37.16 34.75 37.31 34.78 37.47 34.66C37.64 34.54 37.67 34.4 37.54 34.22Z" fill="white"/>
<path d="M34.6 34.18C34.39 34.11 34.25 34.18 34.19 34.38C34.13 34.58 34.2 34.71 34.41 34.77C34.62 34.83 34.75 34.77 34.81 34.57C34.87 34.37 34.81 34.24 34.6 34.18Z" fill="white"/>
<path d="M47.64 40.53C47.44 40.63 47.4 40.78 47.49 40.96C47.58 41.14 47.72 41.19 47.92 41.09C48.11 40.99 48.16 40.85 48.07 40.67C47.97 40.48 47.83 40.43 47.64 40.53Z" fill="white"/>
<path d="M48.39 38.22C48.29 38.02 48.15 37.97 47.96 38.06C47.78 38.15 47.73 38.29 47.82 38.49C47.91 38.69 48.05 38.74 48.24 38.65C48.43 38.56 48.48 38.42 48.39 38.22Z" fill="white"/>
<path d="M44.14 34.6C44.04 34.4 43.9 34.36 43.71 34.45C43.53 34.54 43.48 34.68 43.58 34.88C43.68 35.07 43.82 35.12 44 35.03C44.19 34.94 44.24 34.8 44.14 34.6Z" fill="white"/>
<path d="M35.76 48.46C35.56 48.36 35.42 48.41 35.33 48.59C35.24 48.77 35.28 48.91 35.48 49.01C35.67 49.11 35.82 49.06 35.91 48.88C36 48.7 35.96 48.55 35.76 48.46Z" fill="white"/>
<path d="M37.02 60.19C36.84 60.32 36.82 60.47 36.94 60.64C37.06 60.81 37.2 60.83 37.38 60.7C37.56 60.57 37.58 60.43 37.46 60.26C37.34 60.09 37.2 60.06 37.02 60.19Z" fill="white"/>
<path d="M31.24 50.79C31.06 50.66 30.91 50.69 30.79 50.87C30.67 51.04 30.7 51.18 30.88 51.31C31.06 51.43 31.21 51.41 31.32 51.24C31.44 51.06 31.42 50.92 31.24 50.79Z" fill="white"/>
<path d="M29.85 53.23C29.63 53.2 29.51 53.29 29.48 53.5C29.45 53.7 29.54 53.82 29.76 53.85C29.97 53.88 30.1 53.79 30.12 53.59C30.15 53.38 30.07 53.26 29.85 53.23Z" fill="white"/>
<path d="M61.72 48.63C60.32 50.11 58.72 51.23 56.92 52.19C57.04 52.32 57.12 52.41 57.21 52.49C58.5 53.68 59.89 54.74 61.42 55.61C62.77 56.38 64.15 57.09 65.71 57.33C67.13 57.55 68.57 56.55 68.88 55.18C69.24 53.6 68.46 52.04 67.01 51.64C65.17 51.13 63.64 50.12 62.17 48.97C62.03 48.86 61.89 48.75 61.72 48.63Z" fill="#EB8D11"/>
<path d="M63.48 41.34C63.46 40.98 63.32 40.85 62.97 40.78C62.03 40.59 61.14 40.72 60.27 41.09C59.21 41.55 58.33 42.26 57.51 43.06C56.99 43.56 56.52 44.12 55.97 44.58C55.21 45.22 54.38 45.74 53.52 46.18C53.43 48.63 52.78 51.03 51.65 53.24C53.55 52.73 55.37 51.96 57.12 50.97C59.15 49.83 60.94 48.39 62.19 46.38C63.16 44.85 63.61 43.17 63.48 41.34Z" fill="#EB8D11"/>
<path d="M51.5 35.4C51.69 35.52 51.84 35.48 51.95 35.3C52.06 35.13 52.03 34.98 51.84 34.87C51.66 34.76 51.51 34.79 51.4 34.96C51.28 35.14 51.31 35.28 51.5 35.4Z" fill="white"/>
<path d="M52.88 33.68C52.88 33.9 52.99 34.01 53.2 34C53.4 34 53.51 33.89 53.5 33.67C53.5 33.45 53.39 33.35 53.18 33.35C52.98 33.35 52.87 33.45 52.88 33.68Z" fill="white"/>
<path d="M59.31 46.98L59.32 46.99C59.66 47.15 59.9 47.06 60.06 46.74C60.21 46.42 60.13 46.18 59.78 46.01C59.44 45.85 59.19 45.93 59.04 46.25C58.89 46.57 58.96 46.82 59.31 46.98Z" fill="white"/>
<path d="M56.06 48.55L56.07 48.56C56.24 48.89 56.49 48.97 56.81 48.8C57.13 48.64 57.2 48.39 57.03 48.05C56.86 47.72 56.61 47.63 56.29 47.8C55.97 47.97 55.88 48.21 56.06 48.55Z" fill="white"/>
<path d="M60.16 44.13C60.16 44.35 60.27 44.46 60.48 44.45C60.68 44.45 60.79 44.34 60.78 44.12C60.78 43.9 60.67 43.8 60.46 43.8C60.26 43.8 60.16 43.9 60.16 44.13Z" fill="white"/>
<path d="M56.61 46.01C56.48 46.19 56.5 46.34 56.66 46.46C56.82 46.58 56.97 46.56 57.1 46.39C57.23 46.22 57.21 46.07 57.05 45.94C56.89 45.82 56.74 45.83 56.61 46.01Z" fill="white"/>
<path d="M61.04 53.46H61.05C61.42 53.55 61.64 53.41 61.72 53.06C61.81 52.71 61.68 52.5 61.3 52.4C60.93 52.31 60.71 52.44 60.62 52.78C60.55 53.15 60.67 53.37 61.04 53.46Z" fill="white"/>
<path d="M63.03 52.05C62.9 52.23 62.92 52.38 63.08 52.5C63.24 52.62 63.39 52.6 63.52 52.43C63.65 52.26 63.63 52.11 63.47 51.98C63.31 51.86 63.17 51.87 63.03 52.05Z" fill="white"/>
<path d="M64.81 54.5C65.02 54.57 65.16 54.5 65.22 54.3C65.28 54.1 65.22 53.97 65 53.91C64.79 53.84 64.66 53.91 64.6 54.11C64.54 54.3 64.6 54.43 64.81 54.5Z" fill="white"/>
<path d="M59.64 36.31L59.65 36.32C59.82 36.65 60.07 36.73 60.39 36.56C60.71 36.4 60.78 36.15 60.61 35.81C60.44 35.48 60.19 35.39 59.87 35.56C59.55 35.73 59.46 35.97 59.64 36.31Z" fill="white"/>
<path d="M65.13 36.46C65.42 36.72 65.68 36.71 65.92 36.44C66.16 36.18 66.15 35.92 65.87 35.66C65.59 35.4 65.33 35.41 65.09 35.67C64.85 35.95 64.85 36.2 65.13 36.46Z" fill="white"/>
<path d="M72.26 43.97C72.55 44.23 72.81 44.22 73.05 43.95C73.29 43.69 73.28 43.43 73 43.17C72.72 42.91 72.46 42.92 72.22 43.18C71.98 43.46 71.98 43.71 72.26 43.97Z" fill="white"/>
<path d="M67.99 39.41C67.73 39.7 67.75 39.96 68.02 40.2C68.29 40.44 68.54 40.42 68.8 40.13C69.05 39.85 69.04 39.59 68.77 39.35C68.5 39.12 68.24 39.12 67.99 39.41Z" fill="white"/>
<path d="M56 39.99C55.73 39.71 55.47 39.71 55.21 39.96C54.95 40.21 54.95 40.46 55.21 40.74C55.47 41.01 55.73 41.02 55.99 40.77C56.25 40.52 56.27 40.27 56 39.99Z" fill="white"/>
<path d="M56.44 38.1C56.44 38.32 56.55 38.43 56.76 38.42C56.96 38.42 57.07 38.31 57.06 38.09C57.06 37.87 56.95 37.77 56.74 37.77C56.54 37.78 56.44 37.88 56.44 38.1Z" fill="white"/>
<path d="M60.38 38.39C60.16 38.33 60.04 38.41 59.98 38.61C59.93 38.81 60 38.93 60.21 38.99C60.42 39.05 60.55 38.97 60.6 38.78C60.66 38.58 60.59 38.45 60.38 38.39Z" fill="white"/>
<path d="M64.59 37.96C64.55 37.74 64.42 37.66 64.22 37.7C64.02 37.74 63.94 37.86 63.98 38.08C64.02 38.29 64.14 38.38 64.34 38.34C64.54 38.3 64.63 38.18 64.59 37.96Z" fill="white"/>
<path d="M68.96 37.46C68.74 37.47 68.63 37.58 68.64 37.78C68.65 37.98 68.75 38.09 68.97 38.08C69.19 38.07 69.29 37.97 69.29 37.76C69.28 37.56 69.18 37.46 68.96 37.46Z" fill="white"/>
<path d="M70.9 48.87C70.68 48.88 70.57 48.99 70.58 49.19C70.59 49.39 70.69 49.5 70.91 49.49C71.13 49.48 71.23 49.38 71.23 49.17C71.22 48.97 71.12 48.86 70.9 48.87Z" fill="white"/>
<path d="M71.43 45.53C71.26 45.39 71.11 45.41 70.98 45.57C70.85 45.73 70.87 45.87 71.04 46.01C71.21 46.15 71.36 46.13 71.49 45.97C71.61 45.81 71.6 45.67 71.43 45.53Z" fill="white"/>
<path d="M74.18 46.7C74.18 46.48 74.07 46.37 73.86 46.37C73.66 46.37 73.55 46.47 73.55 46.69C73.55 46.91 73.65 47.01 73.86 47.01C74.07 47.02 74.18 46.92 74.18 46.7Z" fill="white"/>
<path d="M71.77 40.36C71.77 40.14 71.66 40.03 71.45 40.04C71.25 40.04 71.14 40.15 71.15 40.37C71.15 40.59 71.26 40.69 71.47 40.69C71.67 40.69 71.77 40.58 71.77 40.36Z" fill="white"/>
<path d="M57.84 60.84L57.85 60.85C58.03 61.18 58.28 61.25 58.6 61.07C58.91 60.9 58.98 60.65 58.79 60.32C58.61 59.99 58.36 59.92 58.05 60.09C57.73 60.26 57.65 60.5 57.84 60.84Z" fill="white"/>
<path d="M51.24 59.75H51.25C51.62 59.81 51.83 59.65 51.88 59.29C51.93 58.94 51.78 58.73 51.4 58.68C51.03 58.62 50.82 58.78 50.76 59.13C50.71 59.48 50.86 59.69 51.24 59.75Z" fill="white"/>
<path d="M54.42 58.53C54.73 58.77 54.98 58.73 55.21 58.45C55.43 58.17 55.4 57.92 55.09 57.68C54.79 57.45 54.53 57.48 54.32 57.76C54.1 58.04 54.12 58.29 54.42 58.53Z" fill="white"/>
<path d="M57.23 58.68C57.44 58.75 57.58 58.68 57.64 58.48C57.7 58.28 57.64 58.15 57.42 58.09C57.21 58.02 57.08 58.09 57.02 58.29C56.96 58.48 57.02 58.61 57.23 58.68Z" fill="white"/>
<path d="M53.78 61.2C54 61.22 54.12 61.12 54.13 60.91C54.15 60.71 54.05 60.59 53.83 60.58C53.61 60.56 53.5 60.66 53.48 60.86C53.47 61.07 53.56 61.19 53.78 61.2Z" fill="white"/>
<path d="M60.74 59.5C60.95 59.42 61 59.28 60.92 59.08C60.84 58.89 60.71 58.83 60.5 58.92C60.3 59 60.24 59.14 60.32 59.33C60.4 59.52 60.54 59.59 60.74 59.5Z" fill="white"/>
</svg>
