<?xml version="1.0" encoding="utf-8"?>
<!-- Generator: Adobe Illustrator 27.7.0, SVG Export Plug-In . SVG Version: 6.00 Build 0)  -->
<svg version="1.1" id="Warstwa_1" xmlns="http://www.w3.org/2000/svg" xmlns:xlink="http://www.w3.org/1999/xlink" x="0px" y="0px"
	 viewBox="0 0 148.65 215.74" style="enable-background:new 0 0 148.65 215.74;" xml:space="preserve">
<style type="text/css">
	.st0{clip-path:url(#SVGID_00000117658532248199050540000017595694602349321130_);fill:#FFFFFF;}
	.st1{fill:#FFFFFF;stroke:#991B1D;stroke-width:2.3143;stroke-miterlimit:10;}
	.st2{fill:#991B1D;}
	.st3{fill:#EB8C0F;}
	.st4{fill:#FFFFFF;}
</style>
<g>
	<g>
		<g>
			<defs>
				<rect id="SVGID_1_" x="12.71" y="17.3" width="120.37" height="181.25"/>
			</defs>
			<clipPath id="SVGID_00000039822251766048665730000010480578219607833531_">
				<use xlink:href="#SVGID_1_"  style="overflow:visible;"/>
			</clipPath>
			<path style="clip-path:url(#SVGID_00000039822251766048665730000010480578219607833531_);fill:#FFFFFF;" d="M72.89,106.74
				c-19.68,0-35.63-15.69-35.63-35.04s15.96-35.04,35.63-35.04c19.68,0,35.63,15.69,35.63,35.04
				C108.52,91.05,92.57,106.74,72.89,106.74 M72.89,20.41c-31.52,0-57.07,22.17-57.07,57.96s55.76,114.87,55.76,114.87
				s58.39-79.08,58.39-114.87S104.41,20.41,72.89,20.41"/>
		</g>
	</g>
	<g>
		<circle class="st1" cx="72.58" cy="76.39" r="45.1"/>
		<g>
			<g>
				<path class="st2" d="M49.77,61.65l-8.05-9.45l2.54-2.16c3.37-2.87,6.49-2.82,9.12,0.28c2.68,3.15,2.24,6.35-1.02,9.13
					L49.77,61.65z M50.91,52.47c-1.39-1.64-2.96-1.75-4.72-0.25l4.27,5.02C52.23,55.73,52.34,54.14,50.91,52.47z"/>
				<path class="st2" d="M60.17,40.56c8.41-2.51,11.98,10.22,3.79,12.66S51.76,43.07,60.17,40.56z M62.95,49.96l0.07-0.02
					c2.13-0.63,2.83-1.99,2.23-4.04c-0.6-2.01-1.91-2.73-4.09-2.08c-2.13,0.63-2.88,1.97-2.28,3.98
					C59.48,49.85,60.77,50.61,62.95,49.96z"/>
				<path class="st2" d="M72.22,39.03l4.12,0.43c1.1,0.12,2,0.51,2.63,1.13c1.37,1.29,1.06,3.99-0.62,4.86
					c1.87,0.7,2.03,2.46,1.94,3.33c-0.25,2.35-2.14,3.36-4.45,3.1l-4.91-0.52L72.22,39.03z M75.34,49.38l0.11,0.01
					c1.01,0.11,1.52-0.32,1.61-1.24c0.1-0.95-0.32-1.5-1.3-1.6l-0.11-0.01c-1.01-0.11-1.53,0.32-1.63,1.26
					C73.93,48.73,74.37,49.28,75.34,49.38z M75.62,44.16l0.09,0.01c0.81,0.09,1.24-0.26,1.32-1.02c0.08-0.76-0.27-1.21-1.08-1.29
					l-0.07-0.01c-0.83-0.09-1.24,0.26-1.32,1.02C74.48,43.64,74.83,44.07,75.62,44.16z"/>
				<path class="st2" d="M84.67,51.84L83.58,54l-2.89-1.45l5.58-11.09l3.65,1.83c1.65,0.83,4.28,2.51,2.59,5.87
					c-1.61,3.21-4.27,2.48-5.21,2.13c-0.07,2.27,1.22,2.94,2.19,1.26l2.38,1.2c-0.3,0.59-0.71,1.09-1.2,1.52
					c-1.15,0.99-2.58,1.17-3.89,0.51C85.59,55.19,84.88,53.86,84.67,51.84z M87.55,48.48l0.1,0.05c0.97,0.49,1.64,0.27,2.08-0.62
					c0.45-0.9,0.23-1.6-0.71-2.07l-0.09-0.05c-0.97-0.49-1.64-0.27-2.08,0.62C86.38,47.32,86.61,48.01,87.55,48.48z"/>
				<path class="st2" d="M99.18,49.22l4.76,4.86l-2.08,2.04l-2.03-2.07c-0.37-0.38-0.76-0.35-1.18,0.06
					c-0.43,0.42-0.46,0.82-0.11,1.18l1.92,1.95l-2.08,2.04l-1.9-1.94c-0.39-0.39-0.8-0.36-1.23,0.06c-0.46,0.45-0.5,0.86-0.13,1.24
					l2.04,2.08l-2.08,2.04l-4.76-4.86L99.18,49.22z"/>
			</g>
		</g>
		<g>
			<g>
				<path class="st2" d="M48.31,92.98l2.92,2.36c1.61,1.3,3.77,3.44,1.46,6.31c-2.34,2.91-5.01,1.37-5.99,0.58l-1.07-0.86
					l-2.47,3.08l-2.46-1.98L48.31,92.98z M48.09,99.97l0.08,0.07c0.83,0.66,1.51,0.59,2.12-0.17c0.62-0.77,0.52-1.5-0.26-2.12
					l-0.08-0.07c-0.83-0.66-1.51-0.59-2.12,0.17C47.21,98.62,47.29,99.33,48.09,99.97z"/>
				<path class="st2" d="M56.16,109.48l-0.78,2.23l-2.99-1.03l3.98-11.48l3.78,1.31c1.71,0.59,4.48,1.88,3.27,5.36
					c-1.15,3.32-3.83,2.96-4.78,2.74c0.23,2.21,1.57,2.69,2.29,0.94l2.46,0.85c-0.21,0.61-0.55,1.15-0.97,1.63
					c-0.99,1.11-2.35,1.47-3.71,1C57.49,112.6,56.63,111.41,56.16,109.48z M58.53,105.84l0.1,0.03c1,0.35,1.62,0.05,1.94-0.87
					c0.32-0.94,0.01-1.58-0.96-1.91l-0.1-0.03c-1-0.35-1.62-0.05-1.94,0.87C57.25,104.87,57.56,105.51,58.53,105.84z"/>
				<path class="st2" d="M67.26,102.4l6.66,0.11l-0.05,2.85l-2.83-0.05c-0.52-0.01-0.77,0.28-0.78,0.86
					c-0.01,0.59,0.25,0.89,0.73,0.9l2.68,0.05l-0.05,2.85l-2.66-0.04c-0.54-0.01-0.81,0.3-0.82,0.89c-0.01,0.63,0.24,0.94,0.77,0.95
					l2.85,0.05l-0.05,2.85l-6.66-0.11L67.26,102.4z"/>
				<path class="st2" d="M76.94,108.34c-1.19-4.14,1.83-8.67,7.01-7.97l0.97,3.38c-2.8-1.13-5.66,0.78-4.82,3.69
					c0.87,3.04,4.26,2.97,6.07,0.66l0.95,3.29C83.13,114.81,78.09,112.31,76.94,108.34z"/>
				<path class="st2" d="M85.34,99.16l2.7-1.72l4.99,7.83l2.92-1.86l1.54,2.42l-5.61,3.58L85.34,99.16z"/>
				<path class="st2" d="M91.85,94.75l4.5-4.91l2.1,1.93l-1.92,2.09c-0.35,0.38-0.3,0.76,0.12,1.15c0.44,0.4,0.83,0.41,1.16,0.05
					l1.81-1.97l2.1,1.93l-1.8,1.96c-0.36,0.4-0.31,0.8,0.13,1.2c0.46,0.42,0.87,0.44,1.22,0.06l1.93-2.1l2.1,1.93l-4.5,4.91
					L91.85,94.75z"/>
			</g>
		</g>
		<g>
			<g>
				<g>
					<path class="st3" d="M77.13,67.38c0.11-0.01,0.23-0.01,0.34-0.02c0.3-0.01,0.46-0.11,0.62-0.36c0.88-1.37,2.01-2.48,3.42-3.29
						c0.61-0.35,1.25-0.64,1.93-0.98c-2.35-1.14-4.78-1.49-7.3-1.18c-1.15,0.14-2.26,0.38-3.3,0.75
						C74.58,63.69,76.06,65.4,77.13,67.38z"/>
					<path class="st3" d="M100.71,74.88c-0.28-3.84-2.1-6.83-5.18-9.04c-3.35-2.41-7.06-3.38-11.15-2.32
						c-2.96,0.77-5.39,3.02-6.39,5.77c0.14,0.38,0.28,0.76,0.39,1.15c0.38,1.29,0.58,2.59,0.63,3.88c1.08-0.59,2.12-1.25,2.96-2.2
						c0.29-0.33,0.64-0.62,0.96-0.93c2.02-1.93,4.31-2.81,7.06-1.71c4.02,1.61,5.72,4.83,4.42,9.06c-0.2,0.64-0.47,1.26-0.72,1.9
						c0.04,0.03,0.09,0.07,0.13,0.11c1.61,1.28,2.06,3.3,1.13,5.03c-0.93,1.71-2.96,2.49-4.88,1.78c-1.22-0.45-2.38-1.05-3.57-1.57
						c-0.2-0.09-0.44-0.15-0.65-0.13c-3.35,0.36-6.54-0.17-9.58-1.6c-1.06,1.66-2.4,3.18-3.98,4.5c4.55,2.8,9.59,3.65,14.88,2.84
						c4.76-0.73,8.51-3.15,11.12-7.23C100.09,81.34,100.95,78.25,100.71,74.88z"/>
				</g>
				<g>
					<g>
						<path class="st3" d="M76.05,67.32c-1.91-3.35-4.85-5.25-8.58-5.91c-4.06-0.72-7.83,0.01-11.06,2.73
							c-3.16,2.66-4.27,7.35-2.4,10.9c0.4,0.76,0.87,1.47,1.51,2.08c0.08-0.08,0.14-0.13,0.19-0.19c0.92-1.23,1.82-2.47,2.25-3.99
							c0.12-0.43,0.31-0.84,0.46-1.25c0.99-2.62,2.67-4.4,5.62-4.6c4.32-0.29,7.25,1.88,7.91,6.25c0.1,0.66,0.12,1.34,0.17,2.02
							c0.05,0.01,0.11,0.03,0.17,0.04c2,0.46,3.29,2.09,3.19,4.04c-0.1,1.95-1.59,3.53-3.63,3.71c-1.29,0.12-2.6,0.08-3.9,0.13
							c-0.22,0.01-0.46,0.05-0.64,0.16c-2.9,1.8-6.06,2.71-9.48,2.71c-0.21,0-0.45,0.08-0.63,0.19c-1.16,0.66-2.28,1.39-3.46,1.99
							c-1.74,0.88-3.82,0.33-4.94-1.21c-1.13-1.56-0.96-3.62,0.42-5.06c0.22-0.23,0.22-0.37,0.05-0.62
							c-0.61-0.95-1.05-1.98-1.29-3.09c-0.29-1.33-0.33-2.66,0.21-3.94c0.73-1.73,2.01-2.96,3.64-3.82c0.27-0.14,0.36-0.3,0.4-0.59
							c0.2-1.61,0.73-3.11,1.66-4.45c0.4-0.58,0.85-1.12,1.32-1.72c-2.61-0.01-4.95,0.73-7.1,2.09c-2.89,1.84-5,4.31-5.87,7.68
							c-0.79,3.08-0.39,6.08,0.95,8.93c2.52,5.38,6.74,8.58,12.63,9.32c5.51,0.7,10.59-0.7,15.15-3.82
							c3.97-2.72,6.32-6.52,6.89-11.33C78.28,73.41,77.72,70.25,76.05,67.32z"/>
						<path class="st3" d="M62.92,68.28c-0.93,0.23-1.68,0.73-2.3,1.45c-0.75,0.88-1.24,1.9-1.63,2.97
							c-0.25,0.68-0.43,1.38-0.73,2.04c-0.99,2.17-2.56,3.89-4.32,5.45c-0.96,0.85-2.04,1.51-3.23,2c-1.43,0.59-2.02,2.25-1.44,3.81
							c0.52,1.39,2.12,2.09,3.69,1.66c0.53-0.25,1.07-0.47,1.58-0.75c3.06-1.7,5.53-4.06,7.54-6.91c1.34-1.91,2.33-3.98,2.59-6.33
							c0.19-1.81-0.13-3.51-1.03-5.1C63.45,68.26,63.27,68.2,62.92,68.28z"/>
						<path class="st3" d="M62.4,81.18c0.17,0.06,0.28,0.11,0.39,0.15c1.68,0.51,3.39,0.87,5.14,1c1.55,0.12,3.1,0.15,4.61-0.31
							c1.37-0.42,2.24-1.94,1.93-3.31c-0.36-1.58-1.74-2.65-3.22-2.39c-1.88,0.34-3.7,0.09-5.52-0.32
							c-0.17-0.04-0.35-0.07-0.55-0.12C64.57,77.83,63.61,79.53,62.4,81.18z"/>
					</g>
					<path class="st4" d="M47.68,71.8L47.68,71.8c0.39,0,0.57-0.19,0.57-0.55s-0.18-0.54-0.56-0.54s-0.56,0.18-0.56,0.54
						C47.12,71.62,47.3,71.8,47.68,71.8z"/>
					<path class="st4" d="M44.04,73.95L44.04,73.95c0.39,0,0.57-0.19,0.57-0.55s-0.18-0.54-0.56-0.54s-0.56,0.18-0.56,0.54
						C43.48,73.76,43.65,73.95,44.04,73.95z"/>
					<path class="st4" d="M49.69,67.49L49.69,67.49c0.31,0.23,0.57,0.19,0.79-0.1c0.21-0.28,0.18-0.54-0.13-0.77
						c-0.3-0.23-0.56-0.19-0.77,0.09C49.35,67.01,49.38,67.26,49.69,67.49z"/>
					<path class="st4" d="M47.94,68.72L47.94,68.72c0.22,0.02,0.34-0.07,0.36-0.28c0.02-0.2-0.07-0.32-0.29-0.34
						s-0.33,0.07-0.36,0.27C47.64,68.57,47.72,68.69,47.94,68.72z"/>
					<path class="st4" d="M45.63,71.16L45.63,71.16c0.22,0.02,0.34-0.07,0.36-0.28c0.02-0.2-0.07-0.32-0.29-0.34
						s-0.33,0.07-0.36,0.27C45.33,71.01,45.41,71.13,45.63,71.16z"/>
					<path class="st4" d="M46.6,75.31L46.6,75.31c0.11-0.19,0.07-0.34-0.11-0.44c-0.18-0.1-0.32-0.07-0.43,0.12s-0.08,0.33,0.1,0.44
						C46.35,75.53,46.49,75.5,46.6,75.31z"/>
					<path class="st4" d="M44.09,78.77L44.09,78.77c0.22-0.04,0.31-0.16,0.27-0.36c-0.03-0.2-0.15-0.29-0.37-0.25
						c-0.21,0.03-0.3,0.15-0.27,0.36C43.75,78.72,43.87,78.81,44.09,78.77z"/>
					<path class="st4" d="M50.25,69.61L50.25,69.61c0.1,0.2,0.24,0.24,0.43,0.15c0.18-0.09,0.23-0.23,0.13-0.43
						c-0.1-0.19-0.24-0.24-0.42-0.15C50.2,69.27,50.15,69.41,50.25,69.61z"/>
					<path class="st4" d="M61.67,74.49L61.67,74.49c0.39,0,0.57-0.19,0.57-0.55s-0.18-0.54-0.56-0.54s-0.56,0.18-0.56,0.54
						C61.11,74.3,61.28,74.49,61.67,74.49z"/>
					<path class="st4" d="M59.01,80.76L59.01,80.76c0.31,0.23,0.57,0.19,0.79-0.1c0.21-0.28,0.18-0.54-0.13-0.77
						c-0.3-0.23-0.56-0.19-0.77,0.09C58.67,80.28,58.7,80.53,59.01,80.76z"/>
					<path class="st4" d="M65.21,87.88L65.21,87.88c-0.26,0.29-0.25,0.55,0.02,0.79c0.26,0.24,0.52,0.23,0.78-0.05
						c0.26-0.28,0.25-0.54-0.01-0.78C65.73,87.6,65.48,87.6,65.21,87.88z"/>
					<path class="st4" d="M60.44,88.38L60.44,88.38c0.31,0.23,0.57,0.19,0.79-0.1c0.21-0.28,0.18-0.54-0.13-0.77
						c-0.3-0.23-0.56-0.19-0.77,0.09C60.11,87.9,60.13,88.15,60.44,88.38z"/>
					<path class="st4" d="M59.62,75.91L59.62,75.91c-0.04,0.22,0.04,0.34,0.24,0.38s0.32-0.04,0.37-0.26
						c0.04-0.21-0.04-0.34-0.24-0.38C59.79,75.62,59.67,75.69,59.62,75.91z"/>
					<path class="st4" d="M65.82,79.54h0.01c0.37-0.08,0.51-0.3,0.44-0.65s-0.28-0.49-0.66-0.41c-0.37,0.08-0.52,0.29-0.44,0.64
						C65.24,79.47,65.45,79.62,65.82,79.54z"/>
					<path class="st4" d="M67.42,80.83L67.42,80.83c0.12,0.19,0.26,0.22,0.44,0.12c0.17-0.11,0.21-0.25,0.1-0.44
						s-0.26-0.22-0.43-0.12C67.34,80.5,67.3,80.64,67.42,80.83z"/>
					<path class="st4" d="M65.34,86.27L65.34,86.27c0.12,0.19,0.26,0.22,0.44,0.12c0.17-0.11,0.21-0.25,0.1-0.44
						s-0.26-0.22-0.43-0.12C65.27,85.94,65.23,86.08,65.34,86.27z"/>
					<path class="st4" d="M69.59,78.21L69.59,78.21c0.22,0.06,0.34-0.02,0.4-0.22c0.05-0.2-0.02-0.32-0.23-0.38
						c-0.21-0.06-0.34,0.02-0.39,0.21C69.31,78.02,69.38,78.15,69.59,78.21z"/>
					<path class="st4" d="M58.31,90.51L58.31,90.51c0.22,0.06,0.34-0.02,0.4-0.22c0.05-0.2-0.02-0.32-0.23-0.38
						s-0.34,0.02-0.39,0.21C58.03,90.32,58.1,90.45,58.31,90.51z"/>
					<path class="st4" d="M68.91,87.08L68.91,87.08c0.22,0.06,0.34-0.02,0.4-0.22c0.05-0.2-0.02-0.32-0.23-0.38
						c-0.21-0.06-0.34,0.02-0.39,0.21C68.63,86.89,68.7,87.02,68.91,87.08z"/>
					<path class="st4" d="M56.67,66.96L56.67,66.96c0.31,0.23,0.57,0.19,0.79-0.1c0.21-0.28,0.18-0.54-0.13-0.77
						c-0.3-0.23-0.56-0.19-0.77,0.09C56.34,66.47,56.36,66.72,56.67,66.96z"/>
					<path class="st4" d="M61.73,66.08L61.73,66.08c0.38-0.04,0.54-0.25,0.5-0.61c-0.04-0.35-0.24-0.51-0.62-0.47
						c-0.37,0.04-0.54,0.25-0.5,0.6C61.15,65.97,61.34,66.13,61.73,66.08z"/>
					<path class="st4" d="M66.13,63.61h0.01c0.36,0.11,0.59-0.02,0.69-0.36c0.1-0.34-0.01-0.57-0.38-0.68
						c-0.36-0.11-0.59,0.01-0.7,0.35C65.65,63.27,65.76,63.49,66.13,63.61z"/>
					<path class="st4" d="M70.09,66.78h0.01c0.36,0.11,0.59-0.02,0.69-0.36c0.1-0.34-0.01-0.57-0.38-0.68
						c-0.36-0.11-0.59,0.01-0.7,0.35C69.61,66.44,69.72,66.67,70.09,66.78z"/>
					<path class="st4" d="M55.48,70.34L55.48,70.34c-0.36-0.13-0.6-0.02-0.72,0.32c-0.12,0.33-0.02,0.57,0.34,0.7
						c0.35,0.13,0.59,0.03,0.72-0.31C55.94,70.71,55.84,70.48,55.48,70.34z"/>
					<path class="st4" d="M56.94,69.07L56.94,69.07c0.1,0.2,0.24,0.24,0.43,0.15c0.18-0.09,0.23-0.23,0.13-0.43
						c-0.1-0.19-0.24-0.24-0.42-0.15C56.89,68.73,56.84,68.87,56.94,69.07z"/>
					<path class="st4" d="M63.02,63.5L63.02,63.5c-0.13-0.18-0.28-0.2-0.45-0.08c-0.16,0.12-0.19,0.27-0.06,0.44
						c0.13,0.17,0.28,0.2,0.44,0.08C63.13,63.83,63.16,63.68,63.02,63.5z"/>
					<path class="st4" d="M60.08,63.46L60.08,63.46c-0.21-0.07-0.35,0-0.41,0.2s0.01,0.33,0.22,0.39c0.21,0.06,0.34,0,0.4-0.2
						C60.36,63.66,60.3,63.53,60.08,63.46z"/>
					<path class="st4" d="M73.12,69.81L73.12,69.81c-0.2,0.1-0.24,0.25-0.15,0.43s0.23,0.23,0.43,0.13c0.19-0.1,0.24-0.24,0.15-0.42
						C73.45,69.76,73.32,69.71,73.12,69.81z"/>
					<path class="st4" d="M73.87,67.5L73.87,67.5c-0.1-0.2-0.24-0.25-0.43-0.16c-0.18,0.09-0.23,0.23-0.14,0.43
						c0.09,0.2,0.23,0.25,0.42,0.16C73.91,67.84,73.97,67.71,73.87,67.5z"/>
					<path class="st4" d="M69.63,63.89L69.63,63.89c-0.1-0.2-0.24-0.24-0.43-0.15c-0.18,0.09-0.23,0.23-0.13,0.43
						c0.1,0.19,0.24,0.24,0.42,0.15C69.68,64.22,69.73,64.08,69.63,63.89z"/>
					<path class="st4" d="M61.24,77.74L61.24,77.74c-0.2-0.1-0.34-0.05-0.43,0.13s-0.05,0.32,0.15,0.42
						c0.19,0.1,0.34,0.05,0.43-0.13C61.48,77.98,61.44,77.84,61.24,77.74z"/>
					<path class="st4" d="M62.5,89.47L62.5,89.47c-0.18,0.13-0.2,0.28-0.08,0.45s0.26,0.19,0.44,0.06c0.18-0.13,0.2-0.27,0.08-0.44
						C62.82,89.37,62.68,89.34,62.5,89.47z"/>
					<path class="st4" d="M56.72,80.07L56.72,80.07c-0.18-0.13-0.33-0.1-0.45,0.08c-0.12,0.17-0.09,0.31,0.09,0.44
						c0.18,0.12,0.33,0.1,0.44-0.07C56.92,80.34,56.9,80.2,56.72,80.07z"/>
					<path class="st4" d="M55.33,82.51L55.33,82.51c-0.22-0.03-0.34,0.06-0.37,0.27c-0.03,0.2,0.06,0.32,0.28,0.35
						c0.21,0.03,0.34-0.06,0.36-0.26C55.64,82.67,55.55,82.55,55.33,82.51z"/>
				</g>
			</g>
			<path class="st3" d="M87.21,77.91c-1.4,1.48-3,2.6-4.8,3.56c0.12,0.13,0.2,0.22,0.29,0.3c1.29,1.19,2.68,2.25,4.21,3.12
				c1.35,0.77,2.73,1.48,4.29,1.72c1.42,0.22,2.86-0.78,3.17-2.15c0.36-1.58-0.42-3.14-1.87-3.54c-1.84-0.51-3.37-1.52-4.84-2.67
				C87.51,78.14,87.37,78.03,87.21,77.91z"/>
			<path class="st3" d="M88.97,70.63c-0.02-0.36-0.16-0.49-0.51-0.56c-0.94-0.19-1.83-0.06-2.7,0.31c-1.06,0.46-1.94,1.17-2.76,1.97
				c-0.52,0.5-0.99,1.06-1.54,1.52c-0.76,0.64-1.59,1.16-2.45,1.6c-0.09,2.45-0.74,4.85-1.87,7.06c1.9-0.51,3.72-1.28,5.47-2.27
				c2.03-1.14,3.82-2.58,5.07-4.59C88.65,74.13,89.1,72.45,88.97,70.63z"/>
			<g>
				<path class="st4" d="M76.98,64.68L76.98,64.68c0.19,0.12,0.34,0.08,0.45-0.1c0.11-0.17,0.08-0.32-0.11-0.43
					c-0.18-0.11-0.33-0.08-0.44,0.09C76.76,64.42,76.79,64.56,76.98,64.68z"/>
				<path class="st4" d="M78.36,62.96L78.36,62.96c0,0.22,0.11,0.33,0.32,0.32c0.2,0,0.31-0.11,0.3-0.33c0-0.22-0.11-0.32-0.32-0.32
					C78.46,62.64,78.36,62.74,78.36,62.96z"/>
				<path class="st4" d="M84.79,76.27l0.01,0.01c0.34,0.16,0.58,0.07,0.74-0.25c0.15-0.32,0.07-0.56-0.28-0.73
					c-0.34-0.16-0.59-0.08-0.74,0.24C84.37,75.86,84.45,76.1,84.79,76.27z"/>
				<path class="st4" d="M81.55,77.84l0.01,0.01c0.17,0.33,0.42,0.41,0.74,0.24c0.32-0.16,0.39-0.41,0.22-0.75
					c-0.17-0.33-0.42-0.42-0.74-0.25C81.45,77.25,81.37,77.49,81.55,77.84z"/>
				<path class="st4" d="M85.65,73.41L85.65,73.41c0,0.22,0.11,0.33,0.32,0.32c0.2,0,0.31-0.11,0.3-0.33c0-0.22-0.11-0.32-0.32-0.32
					C85.75,73.09,85.64,73.19,85.65,73.41z"/>
				<path class="st4" d="M82.09,75.29L82.09,75.29c-0.13,0.18-0.11,0.33,0.05,0.45c0.16,0.12,0.31,0.1,0.44-0.07
					c0.13-0.17,0.11-0.32-0.05-0.45C82.37,75.1,82.23,75.12,82.09,75.29z"/>
				<path class="st4" d="M86.53,82.75h0.01c0.37,0.09,0.59-0.05,0.67-0.4c0.09-0.35-0.04-0.56-0.42-0.66
					c-0.37-0.09-0.59,0.04-0.68,0.38C86.03,82.43,86.15,82.65,86.53,82.75z"/>
				<path class="st4" d="M88.52,81.33L88.52,81.33c-0.13,0.18-0.11,0.33,0.05,0.45c0.16,0.12,0.31,0.1,0.44-0.07
					c0.13-0.17,0.11-0.32-0.05-0.45C88.8,81.14,88.65,81.15,88.52,81.33z"/>
				<path class="st4" d="M90.3,83.78L90.3,83.78c0.21,0.07,0.35,0,0.41-0.2c0.06-0.2,0-0.33-0.22-0.39c-0.21-0.07-0.34,0-0.4,0.2
					C90.02,83.58,90.09,83.71,90.3,83.78z"/>
				<path class="st4" d="M85.13,65.6l0.01,0.01c0.17,0.33,0.42,0.41,0.74,0.24c0.32-0.16,0.39-0.41,0.22-0.75
					c-0.17-0.33-0.42-0.42-0.74-0.25C85.03,65.02,84.95,65.25,85.13,65.6z"/>
				<path class="st4" d="M90.61,65.75L90.61,65.75c0.29,0.26,0.55,0.25,0.79-0.02c0.24-0.26,0.23-0.52-0.05-0.78
					c-0.28-0.26-0.54-0.25-0.78,0.01C90.33,65.23,90.33,65.48,90.61,65.75z"/>
				<path class="st4" d="M97.74,73.26L97.74,73.26c0.29,0.26,0.55,0.25,0.79-0.02c0.24-0.26,0.23-0.52-0.05-0.78
					c-0.28-0.26-0.54-0.25-0.78,0.01C97.46,72.74,97.46,73,97.74,73.26z"/>
				<path class="st4" d="M93.47,68.69L93.47,68.69c-0.26,0.29-0.24,0.55,0.03,0.79s0.52,0.22,0.78-0.07
					c0.25-0.28,0.24-0.54-0.03-0.78C93.98,68.4,93.73,68.4,93.47,68.69z"/>
				<path class="st4" d="M81.49,69.28L81.49,69.28c-0.27-0.28-0.53-0.28-0.8-0.03c-0.26,0.25-0.26,0.5,0,0.78
					c0.26,0.27,0.52,0.28,0.78,0.03C81.74,69.81,81.75,69.55,81.49,69.28z"/>
				<path class="st4" d="M81.92,67.39L81.92,67.39c0,0.22,0.11,0.33,0.32,0.32c0.2,0,0.31-0.11,0.3-0.33c0-0.22-0.11-0.32-0.32-0.32
					C82.03,67.06,81.92,67.17,81.92,67.39z"/>
				<path class="st4" d="M85.86,67.67L85.86,67.67c-0.22-0.06-0.34,0.02-0.4,0.22c-0.05,0.2,0.02,0.32,0.23,0.38
					c0.21,0.06,0.34-0.02,0.39-0.21C86.14,67.86,86.07,67.73,85.86,67.67z"/>
				<path class="st4" d="M90.07,67.25L90.07,67.25c-0.04-0.22-0.17-0.3-0.37-0.26c-0.2,0.04-0.28,0.16-0.24,0.38
					c0.04,0.21,0.16,0.3,0.36,0.26C90.03,67.58,90.12,67.46,90.07,67.25z"/>
				<path class="st4" d="M94.44,66.75L94.44,66.75c-0.22,0.01-0.33,0.12-0.32,0.32s0.11,0.31,0.33,0.3
					c0.22-0.01,0.32-0.11,0.32-0.32C94.76,66.85,94.66,66.74,94.44,66.75z"/>
				<path class="st4" d="M96.38,78.15L96.38,78.15c-0.22,0.01-0.33,0.12-0.32,0.32s0.11,0.31,0.33,0.3
					c0.22-0.01,0.32-0.11,0.32-0.32C96.71,78.25,96.61,78.15,96.38,78.15z"/>
				<path class="st4" d="M96.91,74.81L96.91,74.81c-0.17-0.14-0.32-0.12-0.45,0.04s-0.11,0.3,0.06,0.44s0.32,0.12,0.45-0.04
					C97.1,75.1,97.09,74.95,96.91,74.81z"/>
				<path class="st4" d="M99.66,75.98L99.66,75.98c0-0.22-0.11-0.33-0.32-0.33c-0.2,0-0.31,0.1-0.31,0.32s0.1,0.32,0.31,0.32
					C99.55,76.3,99.66,76.2,99.66,75.98z"/>
				<path class="st4" d="M97.25,69.65L97.25,69.65c0-0.22-0.11-0.33-0.32-0.32c-0.2,0-0.31,0.11-0.3,0.33
					c0,0.22,0.11,0.32,0.32,0.32C97.15,69.97,97.26,69.87,97.25,69.65z"/>
				<path class="st4" d="M83.33,90.12l0.01,0.01c0.18,0.33,0.43,0.4,0.75,0.22c0.31-0.17,0.38-0.42,0.19-0.75
					c-0.18-0.33-0.43-0.4-0.74-0.23C83.22,89.54,83.14,89.78,83.33,90.12z"/>
				<path class="st4" d="M76.72,89.03h0.01c0.37,0.06,0.58-0.1,0.63-0.46c0.05-0.35-0.1-0.56-0.48-0.61
					c-0.37-0.06-0.58,0.1-0.64,0.45C76.2,88.76,76.34,88.97,76.72,89.03z"/>
				<path class="st4" d="M79.91,87.81L79.91,87.81c0.31,0.24,0.56,0.2,0.79-0.08c0.22-0.28,0.19-0.53-0.12-0.77
					c-0.3-0.23-0.56-0.2-0.77,0.08C79.58,87.32,79.6,87.58,79.91,87.81z"/>
				<path class="st4" d="M82.72,87.97L82.72,87.97c0.21,0.07,0.35,0,0.41-0.2c0.06-0.2,0-0.33-0.22-0.39c-0.21-0.07-0.34,0-0.4,0.2
					C82.44,87.77,82.51,87.9,82.72,87.97z"/>
				<path class="st4" d="M79.27,90.49L79.27,90.49c0.22,0.02,0.34-0.08,0.35-0.29c0.02-0.2-0.08-0.32-0.3-0.33
					c-0.22-0.02-0.33,0.08-0.35,0.28C78.95,90.36,79.04,90.47,79.27,90.49z"/>
				<path class="st4" d="M86.23,88.79L86.23,88.79c0.21-0.08,0.26-0.22,0.18-0.42c-0.08-0.19-0.21-0.25-0.42-0.16
					c-0.2,0.08-0.26,0.22-0.18,0.41C85.89,88.81,86.02,88.87,86.23,88.79z"/>
			</g>
		</g>
	</g>
</g>
</svg>
