<svg width="121" height="182" viewBox="0 0 121 182" fill="none" xmlns="http://www.w3.org/2000/svg">
<mask id="mask0_1_104" style="mask-type:luminance" maskUnits="userSpaceOnUse" x="0" y="0" width="121" height="182">
<path d="M120.37 0H0V181.25H120.37V0Z" fill="white"/>
</mask>
<g mask="url(#mask0_1_104)">
<path d="M60.18 89.44C40.5 89.44 24.55 73.75 24.55 54.4C24.55 35.05 40.51 19.36 60.18 19.36C79.86 19.36 95.81 35.05 95.81 54.4C95.81 73.75 79.86 89.44 60.18 89.44ZM60.18 3.10999C28.66 3.10999 3.10999 25.28 3.10999 61.07C3.10999 96.86 58.87 175.94 58.87 175.94C58.87 175.94 117.26 96.86 117.26 61.07C117.26 25.28 91.7 3.10999 60.18 3.10999Z" fill="white"/>
</g>
<path d="M59.87 104.19C84.778 104.19 104.97 83.998 104.97 59.09C104.97 34.1819 84.778 13.99 59.87 13.99C34.9619 13.99 14.77 34.1819 14.77 59.09C14.77 83.998 34.9619 104.19 59.87 104.19Z" fill="white" stroke="#991B1D" stroke-width="2.3143" stroke-miterlimit="10"/>
<path d="M37.06 44.35L29.01 34.9L31.55 32.74C34.92 29.87 38.04 29.92 40.67 33.02C43.35 36.17 42.91 39.37 39.65 42.15L37.06 44.35ZM38.2 35.17C36.81 33.53 35.24 33.42 33.48 34.92L37.75 39.94C39.52 38.43 39.63 36.84 38.2 35.17Z" fill="#991B1D"/>
<path d="M47.46 23.26C55.87 20.75 59.44 33.48 51.25 35.92C43.06 38.36 39.05 25.77 47.46 23.26ZM50.24 32.66L50.31 32.64C52.44 32.01 53.14 30.65 52.54 28.6C51.94 26.59 50.63 25.87 48.45 26.52C46.32 27.15 45.57 28.49 46.17 30.5C46.77 32.55 48.06 33.31 50.24 32.66Z" fill="#991B1D"/>
<path d="M59.51 21.73L63.63 22.16C64.73 22.28 65.63 22.67 66.26 23.29C67.63 24.58 67.32 27.28 65.64 28.15C67.51 28.85 67.67 30.61 67.58 31.48C67.33 33.83 65.44 34.84 63.13 34.58L58.22 34.06L59.51 21.73ZM62.63 32.08L62.74 32.09C63.75 32.2 64.26 31.77 64.35 30.85C64.45 29.9 64.03 29.35 63.05 29.25L62.94 29.24C61.93 29.13 61.41 29.56 61.31 30.5C61.22 31.43 61.66 31.98 62.63 32.08ZM62.91 26.86L63 26.87C63.81 26.96 64.24 26.61 64.32 25.85C64.4 25.09 64.05 24.64 63.24 24.56L63.17 24.55C62.34 24.46 61.93 24.81 61.85 25.57C61.77 26.34 62.12 26.77 62.91 26.86Z" fill="#991B1D"/>
<path d="M71.96 34.54L70.87 36.7L67.98 35.25L73.56 24.16L77.21 25.99C78.86 26.82 81.49 28.5 79.8 31.86C78.19 35.07 75.53 34.34 74.59 33.99C74.52 36.26 75.81 36.93 76.78 35.25L79.16 36.45C78.86 37.04 78.45 37.54 77.96 37.97C76.81 38.96 75.38 39.14 74.07 38.48C72.88 37.89 72.17 36.56 71.96 34.54ZM74.84 31.18L74.94 31.23C75.91 31.72 76.58 31.5 77.02 30.61C77.47 29.71 77.25 29.01 76.31 28.54L76.22 28.49C75.25 28 74.58 28.22 74.14 29.11C73.67 30.02 73.9 30.71 74.84 31.18Z" fill="#991B1D"/>
<path d="M86.47 31.92L91.23 36.78L89.15 38.82L87.12 36.75C86.75 36.37 86.36 36.4 85.94 36.81C85.51 37.23 85.48 37.63 85.83 37.99L87.75 39.94L85.67 41.98L83.77 40.04C83.38 39.65 82.97 39.68 82.54 40.1C82.08 40.55 82.04 40.96 82.41 41.34L84.45 43.42L82.37 45.46L77.61 40.6L86.47 31.92Z" fill="#991B1D"/>
<path d="M35.6 75.68L38.52 78.04C40.13 79.34 42.29 81.48 39.98 84.35C37.64 87.26 34.97 85.72 33.99 84.93L32.92 84.07L30.45 87.15L27.99 85.17L35.6 75.68ZM35.38 82.67L35.46 82.74C36.29 83.4 36.97 83.33 37.58 82.57C38.2 81.8 38.1 81.07 37.32 80.45L37.24 80.38C36.41 79.72 35.73 79.79 35.12 80.55C34.5 81.32 34.58 82.03 35.38 82.67Z" fill="#991B1D"/>
<path d="M43.45 92.18L42.67 94.41L39.68 93.38L43.66 81.9L47.44 83.21C49.15 83.8 51.92 85.09 50.71 88.57C49.56 91.89 46.88 91.53 45.93 91.31C46.16 93.52 47.5 94 48.22 92.25L50.68 93.1C50.47 93.71 50.13 94.25 49.71 94.73C48.72 95.84 47.36 96.2 46 95.73C44.78 95.3 43.92 94.11 43.45 92.18ZM45.82 88.54L45.92 88.57C46.92 88.92 47.54 88.62 47.86 87.7C48.18 86.76 47.87 86.12 46.9 85.79L46.8 85.76C45.8 85.41 45.18 85.71 44.86 86.63C44.54 87.57 44.85 88.21 45.82 88.54Z" fill="#991B1D"/>
<path d="M54.55 85.1L61.21 85.21L61.16 88.06L58.33 88.01C57.81 88 57.56 88.29 57.55 88.87C57.54 89.46 57.8 89.76 58.28 89.77L60.96 89.82L60.91 92.67L58.25 92.63C57.71 92.62 57.44 92.93 57.43 93.52C57.42 94.15 57.67 94.46 58.2 94.47L61.05 94.52L61 97.37L54.34 97.26L54.55 85.1Z" fill="#991B1D"/>
<path d="M64.23 91.04C63.04 86.9 66.06 82.37 71.24 83.07L72.21 86.45C69.41 85.32 66.55 87.23 67.39 90.14C68.26 93.18 71.65 93.11 73.46 90.8L74.41 94.09C70.42 97.51 65.38 95.01 64.23 91.04Z" fill="#991B1D"/>
<path d="M72.63 81.86L75.33 80.14L80.32 87.97L83.24 86.11L84.78 88.53L79.17 92.11L72.63 81.86Z" fill="#991B1D"/>
<path d="M79.14 77.45L83.64 72.54L85.74 74.47L83.82 76.56C83.47 76.94 83.52 77.32 83.94 77.71C84.38 78.11 84.77 78.12 85.1 77.76L86.91 75.79L89.01 77.72L87.21 79.68C86.85 80.08 86.9 80.48 87.34 80.88C87.8 81.3 88.21 81.32 88.56 80.94L90.49 78.84L92.59 80.77L88.09 85.68L79.14 77.45Z" fill="#991B1D"/>
<path d="M64.4199 50.08C64.5299 50.07 64.6499 50.07 64.7599 50.06C65.0599 50.05 65.2199 49.95 65.3799 49.7C66.2599 48.33 67.3899 47.22 68.7999 46.41C69.4099 46.06 70.0499 45.77 70.7299 45.43C68.38 44.29 65.9499 43.94 63.4299 44.25C62.2799 44.39 61.1699 44.63 60.1299 45C61.8699 46.39 63.3499 48.1 64.4199 50.08Z" fill="#EB8C0F"/>
<path d="M88 57.58C87.72 53.74 85.9 50.75 82.82 48.54C79.47 46.13 75.76 45.16 71.67 46.22C68.71 46.99 66.28 49.24 65.28 51.99C65.42 52.37 65.56 52.75 65.67 53.14C66.05 54.43 66.25 55.73 66.3 57.02C67.38 56.43 68.42 55.77 69.26 54.82C69.55 54.49 69.9 54.2 70.22 53.89C72.24 51.96 74.53 51.08 77.28 52.18C81.3 53.79 83 57.01 81.7 61.24C81.5 61.88 81.23 62.5 80.98 63.14C81.02 63.17 81.07 63.21 81.11 63.25C82.72 64.53 83.17 66.55 82.24 68.28C81.31 69.99 79.28 70.77 77.36 70.06C76.14 69.61 74.98 69.01 73.79 68.49C73.59 68.4 73.35 68.34 73.14 68.36C69.79 68.72 66.6 68.19 63.56 66.76C62.5 68.42 61.16 69.94 59.58 71.26C64.13 74.06 69.17 74.91 74.46 74.1C79.22 73.37 82.97 70.95 85.58 66.87C87.38 64.04 88.24 60.95 88 57.58Z" fill="#EB8C0F"/>
<path d="M63.34 50.02C61.43 46.67 58.49 44.77 54.76 44.11C50.7 43.39 46.93 44.12 43.7 46.84C40.54 49.5 39.43 54.19 41.3 57.74C41.7 58.5 42.17 59.21 42.81 59.82C42.89 59.74 42.95 59.69 43 59.63C43.92 58.4 44.82 57.16 45.25 55.64C45.37 55.21 45.56 54.8 45.71 54.39C46.7 51.77 48.38 49.99 51.33 49.79C55.65 49.5 58.58 51.67 59.24 56.04C59.34 56.7 59.36 57.38 59.41 58.06C59.46 58.07 59.52 58.09 59.58 58.1C61.58 58.56 62.87 60.19 62.77 62.14C62.67 64.09 61.18 65.67 59.14 65.85C57.85 65.97 56.54 65.93 55.24 65.98C55.02 65.99 54.78 66.03 54.6 66.14C51.7 67.94 48.54 68.85 45.12 68.85C44.91 68.85 44.67 68.93 44.49 69.04C43.33 69.7 42.21 70.43 41.03 71.03C39.29 71.91 37.21 71.36 36.09 69.82C34.96 68.26 35.13 66.2 36.51 64.76C36.73 64.53 36.73 64.39 36.56 64.14C35.95 63.19 35.51 62.16 35.27 61.05C34.98 59.72 34.94 58.39 35.48 57.11C36.21 55.38 37.49 54.15 39.12 53.29C39.39 53.15 39.48 52.99 39.52 52.7C39.72 51.09 40.25 49.59 41.18 48.25C41.58 47.67 42.03 47.13 42.5 46.53C39.89 46.52 37.55 47.26 35.4 48.62C32.51 50.46 30.4 52.93 29.53 56.3C28.74 59.38 29.14 62.38 30.48 65.23C33 70.61 37.22 73.81 43.11 74.55C48.62 75.25 53.7 73.85 58.26 70.73C62.23 68.01 64.58 64.21 65.15 59.4C65.57 56.11 65.01 52.95 63.34 50.02Z" fill="#EB8C0F"/>
<path d="M50.21 50.98C49.28 51.21 48.53 51.71 47.91 52.43C47.16 53.31 46.67 54.33 46.28 55.4C46.03 56.08 45.85 56.78 45.55 57.44C44.56 59.61 42.99 61.33 41.23 62.89C40.27 63.74 39.19 64.4 38 64.89C36.57 65.48 35.98 67.14 36.56 68.7C37.08 70.09 38.68 70.79 40.25 70.36C40.78 70.11 41.32 69.89 41.83 69.61C44.89 67.91 47.36 65.55 49.37 62.7C50.71 60.79 51.7 58.72 51.96 56.37C52.15 54.56 51.83 52.86 50.93 51.27C50.74 50.96 50.56 50.9 50.21 50.98Z" fill="#EB8C0F"/>
<path d="M49.69 63.88C49.86 63.94 49.97 63.99 50.08 64.03C51.76 64.54 53.47 64.9 55.22 65.03C56.77 65.15 58.32 65.18 59.83 64.72C61.2 64.3 62.07 62.78 61.76 61.41C61.4 59.83 60.02 58.76 58.54 59.02C56.66 59.36 54.84 59.11 53.02 58.7C52.85 58.66 52.67 58.63 52.47 58.58C51.86 60.53 50.9 62.23 49.69 63.88Z" fill="#EB8C0F"/>
<path d="M34.97 54.5C35.36 54.5 35.54 54.31 35.54 53.95C35.54 53.59 35.36 53.41 34.98 53.41C34.6 53.41 34.42 53.59 34.42 53.95C34.41 54.32 34.59 54.5 34.97 54.5Z" fill="white"/>
<path d="M31.33 56.65C31.72 56.65 31.9 56.46 31.9 56.1C31.9 55.74 31.72 55.56 31.34 55.56C30.96 55.56 30.78 55.74 30.78 56.1C30.77 56.46 30.94 56.65 31.33 56.65Z" fill="white"/>
<path d="M36.98 50.19C37.29 50.42 37.55 50.38 37.77 50.09C37.98 49.81 37.95 49.55 37.64 49.32C37.34 49.09 37.08 49.13 36.87 49.41C36.64 49.71 36.67 49.96 36.98 50.19Z" fill="white"/>
<path d="M35.23 51.42C35.45 51.44 35.57 51.35 35.59 51.14C35.61 50.94 35.52 50.82 35.3 50.8C35.08 50.78 34.97 50.87 34.94 51.07C34.93 51.27 35.01 51.39 35.23 51.42Z" fill="white"/>
<path d="M32.92 53.86C33.14 53.88 33.26 53.79 33.28 53.58C33.3 53.38 33.21 53.26 32.99 53.24C32.77 53.22 32.66 53.31 32.63 53.51C32.62 53.71 32.7 53.83 32.92 53.86Z" fill="white"/>
<path d="M33.89 58.01C34 57.82 33.96 57.67 33.78 57.57C33.6 57.47 33.46 57.5 33.35 57.69C33.24 57.88 33.27 58.02 33.45 58.13C33.64 58.23 33.78 58.2 33.89 58.01Z" fill="white"/>
<path d="M31.38 61.47C31.6 61.43 31.69 61.31 31.65 61.11C31.62 60.91 31.5 60.82 31.28 60.86C31.07 60.89 30.98 61.01 31.01 61.22C31.04 61.42 31.16 61.51 31.38 61.47Z" fill="white"/>
<path d="M37.54 52.31C37.64 52.51 37.78 52.55 37.97 52.46C38.15 52.37 38.2 52.23 38.1 52.03C38 51.84 37.86 51.79 37.68 51.88C37.49 51.97 37.44 52.11 37.54 52.31Z" fill="white"/>
<path d="M48.96 57.19C49.35 57.19 49.53 57 49.53 56.64C49.53 56.28 49.35 56.1 48.97 56.1C48.59 56.1 48.41 56.28 48.41 56.64C48.4 57 48.57 57.19 48.96 57.19Z" fill="white"/>
<path d="M46.3 63.46C46.61 63.69 46.87 63.65 47.09 63.36C47.3 63.08 47.27 62.82 46.96 62.59C46.66 62.36 46.4 62.4 46.19 62.68C45.96 62.98 45.99 63.23 46.3 63.46Z" fill="white"/>
<path d="M52.5 70.58C52.24 70.87 52.25 71.13 52.52 71.37C52.78 71.61 53.04 71.6 53.3 71.32C53.56 71.04 53.55 70.78 53.29 70.54C53.02 70.3 52.77 70.3 52.5 70.58Z" fill="white"/>
<path d="M47.73 71.08C48.04 71.31 48.3 71.27 48.52 70.98C48.73 70.7 48.7 70.44 48.39 70.21C48.09 69.98 47.83 70.02 47.62 70.3C47.4 70.6 47.42 70.85 47.73 71.08Z" fill="white"/>
<path d="M46.91 58.61C46.87 58.83 46.95 58.95 47.15 58.99C47.35 59.03 47.47 58.95 47.52 58.73C47.56 58.52 47.48 58.39 47.28 58.35C47.08 58.32 46.96 58.39 46.91 58.61Z" fill="white"/>
<path d="M53.11 62.24H53.12C53.49 62.16 53.63 61.94 53.56 61.59C53.49 61.24 53.28 61.1 52.9 61.18C52.53 61.26 52.38 61.47 52.46 61.82C52.53 62.17 52.74 62.32 53.11 62.24Z" fill="white"/>
<path d="M54.71 63.53C54.83 63.72 54.97 63.75 55.15 63.65C55.32 63.54 55.36 63.4 55.25 63.21C55.14 63.02 54.99 62.99 54.82 63.09C54.63 63.2 54.59 63.34 54.71 63.53Z" fill="white"/>
<path d="M52.63 68.97C52.75 69.16 52.89 69.19 53.07 69.09C53.24 68.98 53.28 68.84 53.17 68.65C53.06 68.46 52.91 68.43 52.74 68.53C52.56 68.64 52.52 68.78 52.63 68.97Z" fill="white"/>
<path d="M56.88 60.91C57.1 60.97 57.22 60.89 57.28 60.69C57.33 60.49 57.26 60.37 57.05 60.31C56.84 60.25 56.71 60.33 56.66 60.52C56.6 60.72 56.67 60.85 56.88 60.91Z" fill="white"/>
<path d="M45.6 73.21C45.82 73.27 45.94 73.19 46 72.99C46.05 72.79 45.98 72.67 45.77 72.61C45.56 72.55 45.43 72.63 45.38 72.82C45.32 73.02 45.39 73.15 45.6 73.21Z" fill="white"/>
<path d="M56.2 69.78C56.42 69.84 56.54 69.76 56.6 69.56C56.65 69.36 56.58 69.24 56.37 69.18C56.16 69.12 56.03 69.2 55.98 69.39C55.92 69.59 55.99 69.72 56.2 69.78Z" fill="white"/>
<path d="M43.96 49.66C44.27 49.89 44.53 49.85 44.75 49.56C44.96 49.28 44.93 49.02 44.62 48.79C44.32 48.56 44.06 48.6 43.85 48.88C43.63 49.17 43.65 49.42 43.96 49.66Z" fill="white"/>
<path d="M49.02 48.78C49.4 48.74 49.56 48.53 49.52 48.17C49.48 47.82 49.28 47.66 48.9 47.7C48.53 47.74 48.36 47.95 48.4 48.3C48.44 48.67 48.63 48.83 49.02 48.78Z" fill="white"/>
<path d="M53.42 46.31H53.43C53.79 46.42 54.02 46.29 54.12 45.95C54.22 45.61 54.11 45.38 53.74 45.27C53.38 45.16 53.15 45.28 53.04 45.62C52.94 45.97 53.05 46.19 53.42 46.31Z" fill="white"/>
<path d="M57.38 49.48H57.39C57.75 49.59 57.98 49.46 58.08 49.12C58.18 48.78 58.07 48.55 57.7 48.44C57.34 48.33 57.11 48.45 57 48.79C56.9 49.14 57.01 49.37 57.38 49.48Z" fill="white"/>
<path d="M42.77 53.04C42.41 52.91 42.17 53.02 42.05 53.36C41.93 53.69 42.03 53.93 42.39 54.06C42.74 54.19 42.98 54.09 43.11 53.75C43.23 53.41 43.13 53.18 42.77 53.04Z" fill="white"/>
<path d="M44.23 51.77C44.33 51.97 44.47 52.01 44.66 51.92C44.84 51.83 44.89 51.69 44.79 51.49C44.69 51.3 44.55 51.25 44.37 51.34C44.18 51.43 44.13 51.57 44.23 51.77Z" fill="white"/>
<path d="M50.31 46.2C50.18 46.02 50.03 46 49.86 46.12C49.7 46.24 49.67 46.39 49.8 46.56C49.93 46.73 50.08 46.76 50.24 46.64C50.42 46.53 50.45 46.38 50.31 46.2Z" fill="white"/>
<path d="M47.37 46.16C47.16 46.09 47.02 46.16 46.96 46.36C46.9 46.56 46.97 46.69 47.18 46.75C47.39 46.81 47.52 46.75 47.58 46.55C47.65 46.36 47.59 46.23 47.37 46.16Z" fill="white"/>
<path d="M60.41 52.51C60.21 52.61 60.17 52.76 60.26 52.94C60.35 53.12 60.49 53.17 60.69 53.07C60.88 52.97 60.93 52.83 60.84 52.65C60.74 52.46 60.61 52.41 60.41 52.51Z" fill="white"/>
<path d="M61.16 50.2C61.06 50 60.92 49.95 60.73 50.04C60.55 50.13 60.5 50.27 60.59 50.47C60.68 50.67 60.82 50.72 61.01 50.63C61.2 50.54 61.26 50.41 61.16 50.2Z" fill="white"/>
<path d="M56.92 46.59C56.82 46.39 56.68 46.35 56.49 46.44C56.31 46.53 56.26 46.67 56.36 46.87C56.46 47.06 56.6 47.11 56.78 47.02C56.97 46.92 57.02 46.78 56.92 46.59Z" fill="white"/>
<path d="M48.53 60.44C48.33 60.34 48.19 60.39 48.1 60.57C48.01 60.75 48.05 60.89 48.25 60.99C48.44 61.09 48.59 61.04 48.68 60.86C48.77 60.68 48.73 60.54 48.53 60.44Z" fill="white"/>
<path d="M49.79 72.17C49.61 72.3 49.59 72.45 49.71 72.62C49.83 72.79 49.97 72.81 50.15 72.68C50.33 72.55 50.35 72.41 50.23 72.24C50.11 72.07 49.97 72.04 49.79 72.17Z" fill="white"/>
<path d="M44.01 62.77C43.83 62.64 43.68 62.67 43.56 62.85C43.44 63.02 43.47 63.16 43.65 63.29C43.83 63.41 43.98 63.39 44.09 63.22C44.21 63.04 44.19 62.9 44.01 62.77Z" fill="white"/>
<path d="M42.62 65.21C42.4 65.18 42.28 65.27 42.25 65.48C42.22 65.68 42.31 65.8 42.53 65.83C42.74 65.86 42.87 65.77 42.89 65.57C42.93 65.37 42.84 65.25 42.62 65.21Z" fill="white"/>
<path d="M74.5 60.61C73.1 62.09 71.5 63.21 69.7 64.17C69.82 64.3 69.9 64.39 69.99 64.47C71.28 65.66 72.67 66.72 74.2 67.59C75.55 68.36 76.93 69.07 78.49 69.31C79.91 69.53 81.35 68.53 81.66 67.16C82.02 65.58 81.24 64.02 79.79 63.62C77.95 63.11 76.42 62.1 74.95 60.95C74.8 60.84 74.66 60.73 74.5 60.61Z" fill="#EB8C0F"/>
<path d="M76.26 53.33C76.24 52.97 76.1 52.84 75.75 52.77C74.81 52.58 73.92 52.71 73.05 53.08C71.99 53.54 71.11 54.25 70.29 55.05C69.77 55.55 69.3 56.11 68.75 56.57C67.99 57.21 67.16 57.73 66.3 58.17C66.21 60.62 65.56 63.02 64.43 65.23C66.33 64.72 68.15 63.95 69.9 62.96C71.93 61.82 73.72 60.38 74.97 58.37C75.94 56.83 76.39 55.15 76.26 53.33Z" fill="#EB8C0F"/>
<path d="M64.2699 47.38C64.4599 47.5 64.6099 47.46 64.7199 47.28C64.8299 47.11 64.7999 46.96 64.6099 46.85C64.4299 46.74 64.2799 46.77 64.1699 46.94C64.0499 47.12 64.0799 47.26 64.2699 47.38Z" fill="white"/>
<path d="M65.65 45.66C65.65 45.88 65.76 45.99 65.97 45.98C66.17 45.98 66.28 45.87 66.27 45.65C66.27 45.43 66.16 45.33 65.95 45.33C65.75 45.34 65.65 45.44 65.65 45.66Z" fill="white"/>
<path d="M72.08 58.97L72.09 58.98C72.43 59.14 72.67 59.05 72.83 58.73C72.98 58.41 72.9 58.17 72.55 58C72.21 57.84 71.96 57.92 71.81 58.24C71.66 58.56 71.74 58.8 72.08 58.97Z" fill="white"/>
<path d="M68.84 60.54L68.85 60.55C69.02 60.88 69.27 60.96 69.59 60.79C69.91 60.63 69.98 60.38 69.81 60.04C69.64 59.71 69.39 59.62 69.07 59.79C68.74 59.95 68.66 60.19 68.84 60.54Z" fill="white"/>
<path d="M72.94 56.11C72.94 56.33 73.05 56.44 73.26 56.43C73.46 56.43 73.57 56.32 73.56 56.1C73.56 55.88 73.45 55.78 73.24 55.78C73.04 55.79 72.93 55.89 72.94 56.11Z" fill="white"/>
<path d="M69.3799 57.99C69.2499 58.17 69.27 58.32 69.43 58.44C69.59 58.56 69.74 58.54 69.87 58.37C70 58.2 69.9799 58.05 69.8199 57.92C69.6599 57.8 69.5199 57.82 69.3799 57.99Z" fill="white"/>
<path d="M73.8199 65.45H73.8299C74.1999 65.54 74.4199 65.4 74.4999 65.05C74.5899 64.7 74.4599 64.49 74.0799 64.39C73.7099 64.3 73.4899 64.43 73.3999 64.77C73.3199 65.13 73.4399 65.35 73.8199 65.45Z" fill="white"/>
<path d="M75.8099 64.03C75.6799 64.21 75.6999 64.36 75.8599 64.48C76.0199 64.6 76.1699 64.58 76.2999 64.41C76.4299 64.24 76.4099 64.09 76.2499 63.96C76.0899 63.84 75.9399 63.85 75.8099 64.03Z" fill="white"/>
<path d="M77.59 66.48C77.8 66.55 77.94 66.48 78 66.28C78.06 66.08 77.9999 65.95 77.7799 65.89C77.5699 65.82 77.4399 65.89 77.3799 66.09C77.3099 66.28 77.38 66.41 77.59 66.48Z" fill="white"/>
<path d="M72.4199 48.3L72.4299 48.31C72.5999 48.64 72.8499 48.72 73.1699 48.55C73.4899 48.39 73.5599 48.14 73.3899 47.8C73.2199 47.47 72.9699 47.38 72.6499 47.55C72.3199 47.72 72.2399 47.95 72.4199 48.3Z" fill="white"/>
<path d="M77.9 48.45C78.19 48.71 78.45 48.7 78.69 48.43C78.93 48.17 78.92 47.91 78.64 47.65C78.36 47.39 78.1 47.4 77.86 47.66C77.62 47.93 77.62 48.18 77.9 48.45Z" fill="white"/>
<path d="M85.03 55.96C85.32 56.22 85.58 56.21 85.82 55.94C86.06 55.68 86.05 55.42 85.77 55.16C85.49 54.9 85.23 54.91 84.99 55.17C84.75 55.44 84.75 55.7 85.03 55.96Z" fill="white"/>
<path d="M80.76 51.39C80.5 51.68 80.52 51.94 80.79 52.18C81.06 52.42 81.31 52.4 81.57 52.11C81.82 51.83 81.81 51.57 81.54 51.33C81.27 51.1 81.02 51.1 80.76 51.39Z" fill="white"/>
<path d="M68.78 51.98C68.51 51.7 68.25 51.7 67.98 51.95C67.72 52.2 67.72 52.45 67.98 52.73C68.24 53 68.5 53.01 68.76 52.76C69.03 52.51 69.04 52.25 68.78 51.98Z" fill="white"/>
<path d="M69.21 50.09C69.21 50.31 69.32 50.42 69.53 50.41C69.73 50.41 69.84 50.3 69.83 50.08C69.83 49.86 69.72 49.76 69.51 49.76C69.32 49.76 69.21 49.87 69.21 50.09Z" fill="white"/>
<path d="M73.1499 50.37C72.9299 50.31 72.8099 50.39 72.7499 50.59C72.6999 50.79 72.7699 50.91 72.9799 50.97C73.1899 51.03 73.3199 50.95 73.3699 50.76C73.4299 50.56 73.3599 50.43 73.1499 50.37Z" fill="white"/>
<path d="M77.36 49.95C77.32 49.73 77.19 49.65 76.99 49.69C76.79 49.73 76.71 49.85 76.75 50.07C76.79 50.28 76.91 50.37 77.11 50.33C77.32 50.28 77.41 50.16 77.36 49.95Z" fill="white"/>
<path d="M81.73 49.45C81.51 49.46 81.4 49.57 81.41 49.77C81.42 49.97 81.52 50.08 81.74 50.07C81.96 50.06 82.06 49.96 82.06 49.75C82.05 49.55 81.95 49.44 81.73 49.45Z" fill="white"/>
<path d="M83.67 60.85C83.45 60.86 83.34 60.97 83.35 61.17C83.36 61.37 83.46 61.48 83.68 61.47C83.9 61.46 84 61.36 84 61.15C84 60.95 83.9 60.85 83.67 60.85Z" fill="white"/>
<path d="M84.2 57.51C84.03 57.37 83.88 57.39 83.75 57.55C83.62 57.71 83.64 57.85 83.81 57.99C83.98 58.13 84.13 58.11 84.26 57.95C84.39 57.8 84.38 57.65 84.2 57.51Z" fill="white"/>
<path d="M86.95 58.68C86.95 58.46 86.8399 58.35 86.6299 58.35C86.4299 58.35 86.3199 58.45 86.3199 58.67C86.3199 58.89 86.4199 58.99 86.6299 58.99C86.8399 59 86.95 58.9 86.95 58.68Z" fill="white"/>
<path d="M84.5399 52.35C84.5399 52.13 84.4299 52.02 84.2199 52.03C84.0199 52.03 83.9099 52.14 83.9199 52.36C83.9199 52.58 84.0299 52.68 84.2399 52.68C84.4399 52.67 84.5499 52.57 84.5399 52.35Z" fill="white"/>
<path d="M70.6199 72.82L70.6299 72.83C70.8099 73.16 71.0599 73.23 71.3799 73.05C71.6899 72.88 71.7599 72.63 71.5699 72.3C71.3899 71.97 71.1399 71.9 70.8299 72.07C70.5099 72.24 70.4299 72.48 70.6199 72.82Z" fill="white"/>
<path d="M64.01 71.73H64.02C64.39 71.79 64.6 71.63 64.65 71.27C64.7 70.92 64.55 70.71 64.17 70.66C63.8 70.6 63.59 70.76 63.53 71.11C63.49 71.46 63.63 71.67 64.01 71.73Z" fill="white"/>
<path d="M67.2 70.51C67.51 70.75 67.76 70.71 67.99 70.43C68.21 70.15 68.18 69.9 67.87 69.66C67.57 69.43 67.31 69.46 67.1 69.74C66.87 70.02 66.89 70.28 67.2 70.51Z" fill="white"/>
<path d="M70.0099 70.67C70.2199 70.74 70.3599 70.67 70.4199 70.47C70.4799 70.27 70.4199 70.14 70.1999 70.08C69.9899 70.01 69.8599 70.08 69.7999 70.28C69.7299 70.47 69.7999 70.6 70.0099 70.67Z" fill="white"/>
<path d="M66.56 73.19C66.78 73.21 66.9 73.11 66.91 72.9C66.93 72.7 66.83 72.58 66.61 72.57C66.39 72.55 66.28 72.65 66.26 72.85C66.24 73.06 66.33 73.17 66.56 73.19Z" fill="white"/>
<path d="M73.52 71.49C73.73 71.41 73.78 71.27 73.7 71.07C73.62 70.88 73.49 70.82 73.28 70.91C73.08 70.99 73.02 71.13 73.1 71.32C73.18 71.51 73.31 71.57 73.52 71.49Z" fill="white"/>
</svg>
