<?xml version="1.0" encoding="utf-8"?>
<!-- Generator: Adobe Illustrator 27.7.0, SVG Export Plug-In . SVG Version: 6.00 Build 0)  -->
<svg version="1.1" id="Warstwa_1" xmlns="http://www.w3.org/2000/svg" xmlns:xlink="http://www.w3.org/1999/xlink" x="0px" y="0px"
	 viewBox="0 0 300.11 185.75" style="enable-background:new 0 0 300.11 185.75;" xml:space="preserve">
<style type="text/css">
	.st0{fill:#FAE4CC;}
</style>
<g>
	<g>
		<path class="st0" d="M281.56,83.83c-1.24-17.19-9.38-30.56-23.15-40.45c-15-10.76-31.59-15.1-49.86-10.37
			c-13.24,3.43-24.1,13.5-28.57,25.79c0.64,1.69,1.24,3.4,1.76,5.16c1.69,5.76,2.61,11.58,2.82,17.37
			c4.85-2.64,9.49-5.58,13.23-9.84c1.31-1.49,2.85-2.78,4.29-4.15c9.04-8.64,19.26-12.56,31.56-7.65
			c17.99,7.19,25.6,21.62,19.78,40.5c-0.88,2.86-2.11,5.62-3.21,8.49c0.19,0.15,0.39,0.33,0.6,0.49c7.18,5.71,9.21,14.78,5.03,22.47
			c-4.16,7.67-13.24,11.14-21.82,7.94c-5.44-2.03-10.63-4.7-15.96-7.02c-0.89-0.39-1.96-0.68-2.9-0.58
			c-14.98,1.62-29.25-0.76-42.86-7.14c-4.74,7.44-10.75,14.24-17.82,20.1c20.36,12.5,42.89,16.33,66.55,12.7
			c21.27-3.26,38.08-14.07,49.71-32.34C278.78,112.7,282.65,98.89,281.56,83.83z M195.56,62.27c-1.15,1.1-2.31,1.06-3.48-0.15
			c-1.2-1.24-1.17-2.38-0.02-3.48c1.17-1.12,2.33-1.12,3.5,0.1l0.04,0.04C196.79,60.02,196.72,61.15,195.56,62.27z M199,51.76
			c-0.93,0.02-1.42-0.44-1.44-1.41l0-0.03c-0.02-0.99,0.45-1.45,1.38-1.46c0.92-0.02,1.39,0.45,1.41,1.42
			C200.37,51.28,199.92,51.74,199,51.76z M216.18,53.34c-0.24,0.88-0.82,1.21-1.76,0.96c-0.96-0.26-1.28-0.83-1.04-1.71
			c0.24-0.9,0.82-1.24,1.75-0.99l0.03,0.01C216.12,51.86,216.42,52.44,216.18,53.34z M215.23,43.45c-1.44,0.75-2.55,0.41-3.33-1.08
			l-0.02-0.05c-0.8-1.53-0.41-2.6,1.03-3.35c1.41-0.73,2.52-0.36,3.29,1.13C216.99,41.64,216.64,42.72,215.23,43.45z M232.89,51.37
			c-0.9,0.17-1.45-0.21-1.63-1.17c-0.19-0.98,0.19-1.51,1.09-1.68c0.91-0.17,1.47,0.19,1.66,1.15l0.01,0.03
			C234.19,50.67,233.8,51.2,232.89,51.37z M239.96,42.91c-1.1,1.19-2.26,1.26-3.5,0.11l-0.04-0.04c-1.27-1.17-1.27-2.31-0.17-3.5
			c1.08-1.17,2.24-1.2,3.48-0.05C241,40.61,241.03,41.74,239.96,42.91z M252.83,59.4c-1.14,1.29-2.27,1.36-3.47,0.3
			c-1.21-1.07-1.31-2.23-0.19-3.49l0.04-0.04c1.14-1.29,2.28-1.32,3.49-0.25C253.89,56.98,253.94,58.14,252.83,59.4z M253.59,50.26
			c-0.99,0.02-1.46-0.43-1.48-1.34c-0.02-0.93,0.43-1.42,1.4-1.45l0.03,0c0.99-0.02,1.45,0.45,1.47,1.38
			C255.03,49.76,254.56,50.23,253.59,50.26z M177.18,145.07c-0.24,1.6-1.17,2.31-2.83,2.06l-0.05-0.01c-1.71-0.26-2.34-1.2-2.1-2.8
			c0.24-1.57,1.18-2.25,2.85-2C176.75,142.58,177.42,143.5,177.18,145.07z M185.7,153.62l-0.03,0c-0.99-0.07-1.4-0.59-1.33-1.51
			c0.07-0.91,0.58-1.34,1.55-1.27c0.99,0.07,1.41,0.57,1.34,1.48C187.17,153.25,186.67,153.7,185.7,153.62z M192.06,141.3
			c-0.99,1.28-2.15,1.44-3.48,0.4l-0.04-0.03c-1.36-1.06-1.46-2.19-0.46-3.47c0.98-1.26,2.13-1.38,3.46-0.35
			C192.9,138.92,193.03,140.04,192.06,141.3z M202.93,141.45c-0.28,0.89-0.87,1.2-1.8,0.91l-0.03-0.01
			c-0.95-0.3-1.22-0.89-0.94-1.78c0.28-0.87,0.88-1.17,1.8-0.88C202.91,139.99,203.21,140.58,202.93,141.45z M207.21,153.02
			c-1.41,0.79-2.54,0.49-3.36-0.99l-0.03-0.05c-0.84-1.51-0.48-2.59,0.93-3.37c1.39-0.77,2.5-0.44,3.32,1.04
			C208.92,151.16,208.6,152.25,207.21,153.02z M216.82,146.01l-0.03,0.01c-0.92,0.37-1.51,0.1-1.86-0.77
			c-0.35-0.85-0.08-1.46,0.82-1.83c0.92-0.37,1.52-0.12,1.86,0.73C217.97,145.02,217.72,145.64,216.82,146.01z M262.28,101.26
			c-0.99,0.02-1.46-0.43-1.49-1.34c-0.02-0.93,0.43-1.42,1.4-1.45l0.03,0c0.99-0.02,1.45,0.45,1.47,1.38
			C263.72,100.76,263.25,101.24,262.28,101.26z M264.82,85.53c-0.57,0.71-1.24,0.77-2,0.17c-0.77-0.62-0.84-1.27-0.26-1.99
			c0.58-0.73,1.25-0.81,2-0.2l0.02,0.02C265.36,84.15,265.4,84.8,264.82,85.53z M264.72,61.89c-0.92,0.02-1.39-0.45-1.41-1.42
			c-0.02-0.99,0.43-1.46,1.35-1.48c0.93-0.02,1.42,0.44,1.44,1.41l0,0.03C266.13,61.42,265.66,61.87,264.72,61.89z M271.84,76.5
			c-1.1,1.19-2.26,1.26-3.5,0.11l-0.04-0.04c-1.27-1.17-1.27-2.31-0.17-3.5c1.08-1.17,2.24-1.2,3.48-0.05
			C272.88,74.2,272.92,75.33,271.84,76.5z M276.87,88.76c0,0.99-0.48,1.43-1.41,1.43c-0.92,0-1.38-0.48-1.38-1.45
			c0-0.99,0.47-1.45,1.38-1.45c0.93,0,1.41,0.47,1.41,1.44V88.76z"/>
		<path class="st0" d="M132.91,23.58c-18.18-3.21-35.01,0.05-49.44,12.22C69.35,47.71,64.38,68.66,72.75,84.55
			c1.79,3.39,3.89,6.55,6.77,9.29c0.37-0.37,0.64-0.58,0.84-0.84c4.13-5.51,8.16-11.06,10.06-17.84c0.54-1.91,1.37-3.74,2.07-5.6
			c4.42-11.7,11.93-19.66,25.14-20.55c19.33-1.3,32.43,8.41,35.35,27.96c0.44,2.96,0.52,5.98,0.78,9.04
			c0.24,0.06,0.5,0.12,0.76,0.18c8.94,2.04,14.7,9.34,14.26,18.08c-0.43,8.71-7.11,15.78-16.23,16.6
			c-5.78,0.52-11.62,0.36-17.43,0.58c-0.97,0.04-2.06,0.23-2.87,0.73c-12.99,8.06-27.1,12.1-42.39,12.12c-0.95,0-2,0.35-2.84,0.83
			c-5.18,2.94-10.18,6.21-15.48,8.9c-7.78,3.94-17.08,1.49-22.08-5.42c-5.04-6.97-4.31-16.21,1.88-22.61
			c0.97-1.01,0.98-1.66,0.25-2.79c-2.74-4.25-4.68-8.86-5.77-13.8c-1.3-5.94-1.48-11.89,0.92-17.61
			c3.25-7.74,8.97-13.22,16.29-17.09c1.2-0.63,1.63-1.35,1.79-2.64c0.9-7.2,3.28-13.9,7.41-19.89c1.78-2.58,3.82-4.99,5.9-7.67
			c-11.67-0.04-22.16,3.26-31.74,9.36c-12.92,8.22-22.37,19.28-26.23,34.36c-3.53,13.76-1.73,27.18,4.23,39.95
			c11.25,24.08,30.14,38.35,56.5,41.69c24.63,3.11,47.37-3.14,67.75-17.08c17.76-12.14,28.24-29.15,30.83-50.66
			c1.79-14.86-0.7-28.98-8.19-42.09C162.72,35.06,149.6,26.53,132.91,23.58z M80.79,66.7c-0.56,1.49-1.62,1.96-3.2,1.37
			c-1.62-0.6-2.08-1.64-1.52-3.13c0.57-1.52,1.62-2.02,3.2-1.43l0.05,0.02C80.92,64.14,81.35,65.19,80.79,66.7z M87.75,58.51
			c-0.83,0.42-1.47,0.22-1.91-0.64l-0.01-0.03c-0.45-0.89-0.22-1.5,0.61-1.92c0.82-0.41,1.45-0.19,1.89,0.67
			C88.77,57.48,88.57,58.09,87.75,58.51z M88.14,47.96c-0.97,1.29-2.12,1.48-3.47,0.46l-0.04-0.03c-1.38-1.04-1.49-2.17-0.52-3.46
			c0.96-1.27,2.11-1.42,3.46-0.41C88.95,45.56,89.1,46.69,88.14,47.96z M100.84,34.54c-0.27,0.87-0.87,1.18-1.8,0.89
			c-0.95-0.3-1.25-0.88-0.97-1.75c0.28-0.89,0.87-1.21,1.79-0.92l0.03,0.01C100.84,33.06,101.11,33.65,100.84,34.54z M107.29,44.5
			l-0.05,0.01c-1.71,0.21-2.58-0.53-2.77-2.14c-0.19-1.58,0.54-2.48,2.22-2.68c1.71-0.21,2.6,0.5,2.79,2.08
			C109.67,43.37,108.96,44.29,107.29,44.5z M112.76,34.95c-0.74,0.54-1.4,0.43-1.97-0.35c-0.59-0.8-0.49-1.44,0.25-1.99
			c0.75-0.55,1.41-0.46,1.99,0.32l0.02,0.02C113.63,33.76,113.51,34.4,112.76,34.95z M130.08,31.82c-0.47,1.55-1.49,2.11-3.1,1.62
			l-0.05-0.02c-1.65-0.51-2.14-1.53-1.67-3.08c0.47-1.52,1.5-2.05,3.11-1.56C130.03,29.3,130.55,30.3,130.08,31.82z M141.96,36.59
			c-0.82,0.41-1.45,0.19-1.89-0.67c-0.45-0.89-0.24-1.5,0.58-1.92c0.83-0.42,1.47-0.22,1.91,0.64l0.01,0.03
			C143.02,35.56,142.79,36.17,141.96,36.59z M147.8,46.02c-0.47,1.55-1.49,2.11-3.1,1.62l-0.05-0.02c-1.65-0.51-2.14-1.53-1.67-3.08
			c0.47-1.52,1.5-2.05,3.11-1.56C147.74,43.49,148.26,44.5,147.8,46.02z M159.44,63.66c-0.88,0.45-1.5,0.25-1.92-0.57
			c-0.42-0.83-0.23-1.47,0.64-1.91l0.03-0.01c0.88-0.45,1.5-0.22,1.92,0.6C160.52,62.58,160.31,63.22,159.44,63.66z M160.89,52.76
			c-0.83,0.4-1.45,0.16-1.87-0.71c-0.43-0.9-0.21-1.51,0.62-1.91c0.84-0.4,1.47-0.19,1.89,0.69l0.01,0.03
			C161.98,51.75,161.73,52.35,160.89,52.76z M28.39,101.24l-0.03,0.01c-0.98,0.16-1.49-0.24-1.64-1.16c-0.15-0.9,0.25-1.44,1.21-1.6
			c0.98-0.16,1.51,0.23,1.65,1.13C29.73,100.53,29.35,101.08,28.39,101.24z M28.18,79.67h-0.05c-1.73,0-2.49-0.84-2.49-2.45
			c0-1.59,0.84-2.4,2.52-2.4c1.73,0,2.52,0.81,2.52,2.4C30.67,78.83,29.86,79.67,28.18,79.67z M35.3,67.18l-0.03,0
			c-0.99-0.11-1.38-0.63-1.27-1.56c0.1-0.91,0.63-1.32,1.59-1.22c0.99,0.11,1.39,0.62,1.29,1.53C36.78,66.86,36.26,67.29,35.3,67.18
			z M39.61,85.73l-0.02,0.03c-0.5,0.86-1.14,0.99-1.95,0.52c-0.79-0.47-0.94-1.12-0.45-1.95c0.5-0.86,1.14-1.01,1.93-0.55
			C39.93,84.25,40.11,84.89,39.61,85.73z M58.43,59c0.45,0.89,0.24,1.5-0.58,1.92c-0.83,0.42-1.47,0.22-1.91-0.64l-0.01-0.03
			c-0.45-0.89-0.22-1.5,0.61-1.92C57.36,57.92,57.99,58.14,58.43,59z M52.88,47.33c0.96-1.27,2.11-1.42,3.46-0.41
			c1.38,1.04,1.53,2.16,0.58,3.43c-0.97,1.29-2.12,1.48-3.47,0.46l-0.04-0.03C52.02,49.76,51.91,48.63,52.88,47.33z M45.92,53.49
			c0.99,0.11,1.39,0.62,1.29,1.53c-0.1,0.93-0.62,1.35-1.58,1.25l-0.03,0c-0.99-0.11-1.38-0.63-1.27-1.56
			C44.43,53.8,44.96,53.39,45.92,53.49z M44.43,70.07c-1.73,0-2.49-0.84-2.49-2.45c0-1.59,0.84-2.4,2.52-2.4
			c1.73,0,2.52,0.81,2.52,2.4c0,1.62-0.81,2.45-2.49,2.45H44.43z M93.76,152.75c-0.24,0.9-0.82,1.24-1.75,0.99l-0.03-0.01
			c-0.96-0.26-1.26-0.84-1.02-1.74c0.24-0.88,0.82-1.21,1.76-0.95C93.67,151.3,94,151.87,93.76,152.75z M123.86,132.82
			c0.78-0.48,1.43-0.31,1.93,0.52c0.52,0.85,0.36,1.48-0.43,1.96c-0.8,0.48-1.45,0.34-1.95-0.49l-0.02-0.03
			C122.88,133.93,123.07,133.3,123.86,132.82z M105,143.78c-0.97,1.29-2.12,1.48-3.47,0.47l-0.04-0.03
			c-1.38-1.04-1.49-2.17-0.52-3.46c0.96-1.27,2.11-1.42,3.46-0.41C105.81,141.39,105.96,142.51,105,143.78z M112.32,151.37
			c-0.81,0.58-1.45,0.47-1.98-0.27c-0.54-0.76-0.45-1.42,0.34-1.99l0.03-0.02c0.81-0.58,1.45-0.45,1.99,0.31
			C113.23,150.14,113.11,150.8,112.32,151.37z M126.39,145.28c-1.17,1.27-2.3,1.31-3.47,0.23c-1.19-1.1-1.26-2.26-0.11-3.5
			l0.04-0.04c1.17-1.27,2.31-1.27,3.5-0.17C127.5,142.88,127.53,144.04,126.39,145.28z M141.16,137.42
			c-0.24,0.9-0.82,1.24-1.75,0.99l-0.03-0.01c-0.96-0.26-1.26-0.84-1.02-1.74c0.24-0.88,0.82-1.21,1.76-0.95
			C141.08,135.97,141.4,136.54,141.16,137.42z"/>
		<path class="st0" d="M229.06,64.82c-0.11-1.6-0.72-2.19-2.27-2.51c-4.21-0.87-8.19-0.29-12.06,1.41
			c-4.73,2.07-8.68,5.24-12.34,8.82c-2.31,2.25-4.41,4.74-6.88,6.8c-3.42,2.85-7.09,5.18-10.95,7.15
			c-0.4,10.96-3.31,21.69-8.35,31.56c8.49-2.3,16.64-5.72,24.47-10.13c9.09-5.11,17.1-11.52,22.68-20.53
			C227.63,80.48,229.63,72.98,229.06,64.82z M199.22,98.18c-1.44,0.75-2.55,0.41-3.33-1.08l-0.02-0.05c-0.8-1.53-0.41-2.6,1.03-3.35
			c1.41-0.73,2.52-0.37,3.29,1.13C200.98,96.36,200.63,97.44,199.22,98.18z M200.53,87.38c-0.6,0.79-1.25,0.88-1.98,0.32
			c-0.74-0.56-0.85-1.22-0.26-2l0.02-0.02c0.6-0.79,1.25-0.86,1.99-0.29C201.03,85.94,201.12,86.61,200.53,87.38z M213.75,88.92
			c-0.7,1.46-1.79,1.86-3.31,1.13l-0.05-0.02c-1.56-0.75-1.89-1.83-1.19-3.29c0.69-1.43,1.79-1.8,3.31-1.07
			C214.07,86.41,214.44,87.49,213.75,88.92z M215.65,78.69c-0.93,0.02-1.42-0.44-1.44-1.41l0-0.03c-0.02-0.99,0.45-1.45,1.38-1.46
			c0.92-0.02,1.39,0.45,1.41,1.42C217.02,78.2,216.57,78.67,215.65,78.69z"/>
		<path class="st0" d="M112.59,54.32c-4.17,1.04-7.51,3.28-10.27,6.49c-3.37,3.91-5.56,8.49-7.31,13.29
			c-1.1,3.03-1.93,6.18-3.26,9.1c-4.42,9.69-11.46,17.38-19.32,24.35c-4.28,3.8-9.1,6.74-14.45,8.95
			c-6.39,2.64-9.05,10.08-6.44,17.05c2.32,6.2,9.47,9.35,16.49,7.43c2.35-1.11,4.78-2.09,7.05-3.34c13.7-7.6,24.75-18.14,33.7-30.91
			c5.98-8.54,10.43-17.78,11.57-28.32c0.87-8.07-0.58-15.7-4.62-22.81C114.92,54.21,114.12,53.94,112.59,54.32z M79.87,119.57
			c-0.13,0.91-0.67,1.3-1.63,1.16c-0.98-0.14-1.37-0.67-1.24-1.57c0.13-0.92,0.66-1.33,1.62-1.19l0.03,0
			C79.63,118.11,80,118.65,79.87,119.57z M85.24,109.03c-0.52,0.76-1.18,0.87-1.98,0.32c-0.82-0.56-0.94-1.2-0.42-1.96
			c0.53-0.77,1.18-0.9,1.98-0.36l0.03,0.02C85.67,107.62,85.76,108.26,85.24,109.03z M98.59,109.7c-0.97,1.29-2.12,1.48-3.47,0.47
			l-0.04-0.03c-1.38-1.04-1.49-2.17-0.52-3.46c0.96-1.27,2.11-1.42,3.46-0.41C99.39,107.3,99.54,108.42,98.59,109.7z M100.56,89.02
			c-0.2,0.97-0.74,1.33-1.64,1.15c-0.91-0.18-1.29-0.74-1.1-1.69l0.01-0.03c0.2-0.97,0.76-1.31,1.67-1.13
			C100.4,87.5,100.76,88.07,100.56,89.02z M105.73,98.52c-0.41,0.82-1.05,1.02-1.92,0.58c-0.89-0.45-1.09-1.07-0.68-1.89
			c0.42-0.83,1.05-1.05,1.92-0.62l0.03,0.01C105.97,97.06,106.15,97.69,105.73,98.52z M107.03,82.1h-0.05
			c-1.73,0-2.49-0.84-2.49-2.45c0-1.59,0.84-2.4,2.52-2.4c1.73,0,2.52,0.81,2.52,2.4C109.52,81.26,108.71,82.1,107.03,82.1z"/>
		<path class="st0" d="M149.84,90.3c-8.39,1.51-16.53,0.38-24.68-1.41c-0.78-0.17-1.56-0.33-2.46-0.52
			c-2.77,8.65-7.07,16.28-12.47,23.66c0.75,0.29,1.25,0.5,1.76,0.66c7.51,2.29,15.17,3.87,23,4.46c6.93,0.52,13.86,0.69,20.61-1.37
			c6.12-1.87,10.02-8.67,8.62-14.8C162.62,93.9,156.46,89.11,149.84,90.3z M125.61,104.65l-0.05,0.01c-1.69,0.35-2.61-0.32-2.94-1.9
			c-0.32-1.56,0.34-2.52,1.99-2.86c1.69-0.35,2.63,0.28,2.95,1.84C127.88,103.33,127.26,104.31,125.61,104.65z M134.66,110.94
			c-0.8,0.48-1.45,0.34-1.95-0.49l-0.02-0.03c-0.52-0.85-0.33-1.48,0.46-1.96c0.78-0.48,1.43-0.31,1.93,0.52
			C135.6,109.84,135.44,110.47,134.66,110.94z M144.2,97.74c-0.24,0.9-0.82,1.24-1.75,0.99l-0.03-0.01
			c-0.96-0.26-1.26-0.84-1.02-1.74c0.24-0.88,0.82-1.21,1.76-0.95C144.12,96.29,144.44,96.86,144.2,97.74z"/>
		<path class="st0" d="M244.81,110.86c-8.21-2.27-15.07-6.81-21.64-11.95c-0.63-0.49-1.26-0.97-1.99-1.53
			c-6.24,6.61-13.42,11.62-21.47,15.94c0.56,0.58,0.9,0.99,1.3,1.36c5.78,5.32,12,10.05,18.81,13.97c6.02,3.46,12.2,6.62,19.17,7.68
			c6.33,0.96,12.78-3.48,14.18-9.61C254.78,119.64,251.29,112.66,244.81,110.86z M221.22,117.24c-0.39,1.57-1.38,2.19-3.02,1.78
			l-0.05-0.01c-1.67-0.42-2.22-1.42-1.83-2.99c0.39-1.54,1.39-2.13,3.03-1.72C221.03,114.72,221.6,115.7,221.22,117.24z
			 M229.26,114.38c-0.6,0.79-1.25,0.88-1.98,0.32c-0.74-0.56-0.85-1.22-0.26-2l0.02-0.02c0.6-0.79,1.25-0.86,1.99-0.29
			C229.76,112.94,229.84,113.6,229.26,114.38z M236.83,122.74c-0.28,0.89-0.87,1.2-1.8,0.91l-0.03-0.01
			c-0.95-0.3-1.22-0.89-0.94-1.78c0.28-0.87,0.88-1.17,1.8-0.88C236.81,121.28,237.11,121.87,236.83,122.74z"/>
		<path class="st0" d="M195.67,33.9c2.72-1.56,5.6-2.84,8.64-4.37c-10.5-5.08-21.39-6.64-32.66-5.29
			c-5.16,0.62-10.1,1.72-14.77,3.35c7.87,6.19,14.46,13.84,19.25,22.72c0.5-0.04,1.01-0.06,1.51-0.08c1.36-0.05,2.05-0.51,2.75-1.6
			C184.31,42.52,189.35,37.52,195.67,33.9z M177.44,37.8c-0.49,0.79-1.14,0.95-1.96,0.44l-0.03-0.02c-0.84-0.52-0.97-1.17-0.47-1.96
			c0.48-0.78,1.14-0.92,1.96-0.41C177.78,36.38,177.92,37.02,177.44,37.8z M183.06,31.96c-0.93,0.02-1.42-0.44-1.44-1.41l0-0.03
			c-0.02-0.99,0.45-1.45,1.38-1.46c0.92-0.02,1.39,0.45,1.41,1.42C184.43,31.48,183.98,31.94,183.06,31.96z"/>
	</g>
</g>
</svg>
