<?xml version="1.0" encoding="utf-8"?>
<!-- Generator: Adobe Illustrator 27.7.0, SVG Export Plug-In . SVG Version: 6.00 Build 0)  -->
<svg version="1.1" id="Tryb_izolacji" xmlns="http://www.w3.org/2000/svg" xmlns:xlink="http://www.w3.org/1999/xlink" x="0px"
	 y="0px" viewBox="0 0 182.21 181.55" style="enable-background:new 0 0 182.21 181.55;" xml:space="preserve">
<style type="text/css">
	.st0{fill:#FFFFFF;}
</style>
<path class="st0" d="M162.08,46.44c-8.56-14.96-21.68-23.49-38.37-26.45c-18.18-3.21-35.01,0.05-49.44,12.22
	C60.15,44.12,55.18,65.08,63.55,80.96c1.79,3.39,3.89,6.55,6.77,9.29c0.37-0.37,0.64-0.58,0.84-0.84
	c4.13-5.51,8.16-11.06,10.06-17.84c0.54-1.91,1.37-3.74,2.07-5.6c4.42-11.7,11.93-19.66,25.14-20.55
	c19.33-1.3,32.43,8.41,35.35,27.96c0.44,2.96,0.52,5.98,0.78,9.04c0.24,0.06,0.5,0.12,0.76,0.18c8.94,2.04,14.7,9.34,14.26,18.08
	c-0.43,8.71-7.11,15.78-16.23,16.6c-5.78,0.52-11.62,0.36-17.43,0.58c-0.97,0.04-2.06,0.23-2.87,0.73
	c-12.99,8.06-27.1,12.1-42.39,12.12c-0.95,0-2,0.35-2.84,0.83c-5.18,2.94-10.18,6.21-15.48,8.9c-7.78,3.94-17.08,1.49-22.08-5.42
	c-5.04-6.97-4.31-16.21,1.88-22.61c0.97-1.01,0.98-1.66,0.25-2.79c-2.74-4.25-4.68-8.86-5.77-13.8c-1.3-5.94-1.48-11.89,0.92-17.61
	c3.25-7.74,8.97-13.22,16.29-17.09c1.2-0.63,1.63-1.35,1.79-2.64c0.9-7.2,3.28-13.9,7.41-19.89c1.78-2.58,3.82-4.99,5.9-7.67
	c-11.67-0.04-22.16,3.26-31.74,9.36c-12.92,8.22-22.37,19.28-26.23,34.36c-3.53,13.76-1.73,27.18,4.23,39.95
	c11.25,24.08,30.14,38.35,56.5,41.69c24.63,3.11,47.37-3.14,67.75-17.08c17.76-12.14,28.24-29.15,30.83-50.66
	C172.06,73.67,169.57,59.54,162.08,46.44z M71.59,63.11c-0.56,1.49-1.62,1.96-3.2,1.37c-1.62-0.6-2.08-1.64-1.52-3.13
	c0.57-1.52,1.62-2.02,3.2-1.43l0.05,0.02C71.72,60.55,72.15,61.6,71.59,63.11z M78.55,54.92c-0.83,0.42-1.47,0.22-1.91-0.64
	l-0.01-0.03c-0.45-0.89-0.22-1.5,0.61-1.92c0.82-0.41,1.45-0.19,1.89,0.67C79.57,53.89,79.36,54.51,78.55,54.92z M78.94,44.37
	c-0.97,1.29-2.12,1.48-3.47,0.46l-0.04-0.03c-1.38-1.04-1.49-2.17-0.52-3.46c0.96-1.27,2.11-1.42,3.46-0.41
	C79.75,41.98,79.9,43.1,78.94,44.37z M91.64,30.95c-0.27,0.87-0.87,1.18-1.8,0.89c-0.95-0.3-1.25-0.88-0.97-1.75
	c0.28-0.89,0.87-1.21,1.79-0.92l0.03,0.01C91.64,29.47,91.91,30.06,91.64,30.95z M98.09,40.91l-0.05,0.01
	c-1.71,0.21-2.58-0.53-2.77-2.14c-0.19-1.58,0.54-2.48,2.22-2.68c1.71-0.21,2.6,0.5,2.79,2.08C100.47,39.78,99.76,40.71,98.09,40.91
	z M103.56,31.36c-0.74,0.54-1.4,0.43-1.97-0.35c-0.59-0.8-0.49-1.44,0.25-1.99c0.75-0.55,1.41-0.46,1.99,0.32l0.02,0.02
	C104.43,30.17,104.31,30.81,103.56,31.36z M120.88,28.24c-0.47,1.55-1.49,2.11-3.1,1.62l-0.05-0.02c-1.65-0.51-2.14-1.53-1.67-3.08
	c0.47-1.52,1.5-2.05,3.11-1.56C120.83,25.71,121.35,26.71,120.88,28.24z M132.76,33c-0.82,0.41-1.45,0.19-1.89-0.67
	c-0.45-0.89-0.24-1.5,0.58-1.92c0.83-0.42,1.47-0.22,1.91,0.64l0.01,0.03C133.82,31.97,133.59,32.58,132.76,33z M138.6,42.43
	c-0.47,1.55-1.49,2.11-3.1,1.62l-0.05-0.02c-1.65-0.51-2.14-1.53-1.67-3.08c0.47-1.52,1.5-2.05,3.11-1.56
	C138.54,39.9,139.06,40.91,138.6,42.43z M150.24,60.07c-0.88,0.45-1.5,0.25-1.92-0.57c-0.42-0.83-0.23-1.47,0.64-1.91l0.03-0.01
	c0.88-0.45,1.5-0.22,1.92,0.6C151.32,59,151.11,59.63,150.24,60.07z M151.69,49.17c-0.83,0.4-1.45,0.16-1.87-0.71
	c-0.43-0.9-0.21-1.51,0.62-1.91c0.84-0.4,1.47-0.19,1.89,0.69l0.01,0.03C152.78,48.16,152.53,48.77,151.69,49.17z M19.19,97.65
	l-0.03,0c-0.98,0.16-1.49-0.24-1.64-1.16c-0.15-0.9,0.25-1.44,1.21-1.6c0.98-0.16,1.51,0.23,1.65,1.13
	C20.53,96.95,20.15,97.49,19.19,97.65z M18.98,76.08h-0.05c-1.73,0-2.49-0.84-2.49-2.45c0-1.59,0.84-2.4,2.52-2.4
	c1.73,0,2.52,0.81,2.52,2.4C21.47,75.24,20.66,76.08,18.98,76.08z M26.1,63.6l-0.03,0c-0.99-0.11-1.38-0.63-1.27-1.56
	c0.1-0.91,0.63-1.32,1.59-1.22c0.99,0.11,1.39,0.62,1.29,1.53C27.58,63.27,27.06,63.7,26.1,63.6z M30.41,82.14l-0.02,0.03
	c-0.5,0.86-1.14,0.99-1.95,0.52c-0.79-0.47-0.94-1.12-0.45-1.95c0.5-0.86,1.14-1.01,1.93-0.55C30.73,80.66,30.91,81.3,30.41,82.14z
	 M49.23,55.42c0.45,0.89,0.24,1.5-0.58,1.92c-0.83,0.42-1.47,0.22-1.91-0.64l-0.01-0.03c-0.45-0.89-0.22-1.5,0.61-1.92
	C48.16,54.33,48.79,54.55,49.23,55.42z M43.68,43.74c0.96-1.27,2.11-1.42,3.46-0.41c1.38,1.04,1.53,2.16,0.58,3.43
	c-0.97,1.29-2.12,1.48-3.47,0.46L44.2,47.2C42.82,46.17,42.71,45.04,43.68,43.74z M36.72,49.91c0.99,0.11,1.39,0.62,1.29,1.53
	c-0.1,0.93-0.62,1.35-1.58,1.25l-0.03,0c-0.99-0.11-1.38-0.63-1.27-1.56C35.23,50.21,35.76,49.8,36.72,49.91z M35.23,66.48
	c-1.73,0-2.49-0.84-2.49-2.45c0-1.59,0.84-2.4,2.52-2.4c1.73,0,2.52,0.81,2.52,2.4c0,1.62-0.81,2.45-2.49,2.45H35.23z M84.56,149.16
	c-0.24,0.9-0.82,1.24-1.75,0.99l-0.03-0.01c-0.96-0.26-1.26-0.84-1.02-1.74c0.24-0.88,0.82-1.21,1.76-0.95
	C84.47,147.71,84.79,148.28,84.56,149.16z M114.66,129.23c0.78-0.48,1.43-0.31,1.93,0.52c0.52,0.85,0.36,1.48-0.43,1.96
	c-0.8,0.48-1.45,0.34-1.95-0.49l-0.02-0.03C113.68,130.34,113.87,129.72,114.66,129.23z M95.8,140.2c-0.97,1.29-2.12,1.48-3.47,0.47
	l-0.04-0.03c-1.38-1.04-1.49-2.17-0.52-3.46c0.96-1.27,2.11-1.42,3.46-0.41C96.61,137.8,96.76,138.92,95.8,140.2z M103.12,147.78
	c-0.81,0.58-1.45,0.47-1.98-0.27c-0.54-0.76-0.45-1.42,0.34-1.99l0.03-0.02c0.81-0.58,1.45-0.45,1.99,0.31
	C104.03,146.55,103.91,147.21,103.12,147.78z M117.18,141.69c-1.17,1.27-2.3,1.31-3.47,0.23c-1.19-1.1-1.26-2.26-0.11-3.5l0.04-0.04
	c1.17-1.27,2.31-1.27,3.5-0.17C118.3,139.29,118.33,140.46,117.18,141.69z M131.96,133.83c-0.24,0.9-0.82,1.24-1.75,0.99l-0.03-0.01
	c-0.96-0.26-1.26-0.84-1.02-1.74c0.24-0.88,0.82-1.21,1.76-0.95C131.88,132.38,132.2,132.95,131.96,133.83z"/>
<path class="st0" d="M103.39,50.73c-4.17,1.04-7.51,3.28-10.27,6.49c-3.37,3.91-5.56,8.49-7.31,13.29c-1.1,3.03-1.93,6.18-3.26,9.1
	C78.12,89.3,71.09,97,63.22,103.97c-4.28,3.8-9.1,6.74-14.45,8.95c-6.39,2.64-9.05,10.08-6.44,17.05c2.32,6.2,9.47,9.35,16.49,7.43
	c2.35-1.11,4.78-2.09,7.05-3.34c13.7-7.6,24.75-18.14,33.7-30.91c5.98-8.54,10.43-17.78,11.57-28.32c0.87-8.07-0.58-15.7-4.62-22.81
	C105.72,50.62,104.92,50.35,103.39,50.73z M70.67,115.98c-0.13,0.91-0.67,1.3-1.63,1.16c-0.98-0.14-1.37-0.67-1.24-1.57
	c0.13-0.92,0.66-1.33,1.62-1.19l0.03,0C70.43,114.52,70.8,115.06,70.67,115.98z M76.04,105.44c-0.52,0.76-1.18,0.87-1.98,0.32
	c-0.82-0.56-0.94-1.2-0.42-1.96c0.53-0.77,1.18-0.9,1.98-0.36l0.03,0.02C76.47,104.03,76.56,104.68,76.04,105.44z M89.39,106.11
	c-0.97,1.29-2.12,1.48-3.47,0.47l-0.04-0.03c-1.38-1.04-1.49-2.17-0.52-3.46c0.96-1.27,2.11-1.42,3.46-0.41
	C90.19,103.71,90.34,104.83,89.39,106.11z M91.36,85.43c-0.2,0.97-0.74,1.33-1.64,1.15c-0.91-0.18-1.29-0.74-1.1-1.69l0.01-0.03
	c0.2-0.97,0.76-1.31,1.67-1.13C91.2,83.91,91.56,84.48,91.36,85.43z M96.53,94.93c-0.41,0.82-1.05,1.02-1.92,0.58
	c-0.89-0.45-1.09-1.07-0.68-1.89c0.42-0.83,1.05-1.05,1.92-0.62l0.03,0.01C96.77,93.47,96.95,94.1,96.53,94.93z M97.83,78.51h-0.05
	c-1.73,0-2.49-0.84-2.49-2.45c0-1.59,0.84-2.4,2.52-2.4c1.73,0,2.52,0.81,2.52,2.4C100.32,77.67,99.51,78.51,97.83,78.51z"/>
<path class="st0" d="M155.04,97.39c-1.61-7.08-7.78-11.86-14.39-10.68c-8.39,1.51-16.53,0.38-24.68-1.41
	c-0.78-0.17-1.56-0.33-2.46-0.52c-2.77,8.65-7.07,16.28-12.47,23.66c0.75,0.29,1.25,0.5,1.76,0.66c7.51,2.29,15.17,3.87,23,4.46
	c6.93,0.52,13.86,0.69,20.61-1.37C152.53,110.31,156.43,103.52,155.04,97.39z M116.41,101.06l-0.05,0.01
	c-1.69,0.35-2.61-0.32-2.94-1.9c-0.32-1.56,0.34-2.52,1.99-2.86c1.69-0.35,2.63,0.28,2.95,1.84
	C118.68,99.74,118.06,100.72,116.41,101.06z M125.46,107.36c-0.8,0.48-1.45,0.34-1.95-0.49l-0.02-0.03
	c-0.52-0.85-0.33-1.48,0.46-1.96c0.78-0.48,1.43-0.31,1.93,0.52C126.4,106.25,126.24,106.88,125.46,107.36z M135,94.16
	c-0.24,0.9-0.82,1.24-1.75,0.99l-0.03-0.01c-0.96-0.26-1.26-0.84-1.02-1.74c0.24-0.88,0.82-1.21,1.76-0.95
	C134.92,92.7,135.24,93.27,135,94.16z"/>
</svg>
