<?xml version="1.0" encoding="UTF-8"?>
<svg xmlns="http://www.w3.org/2000/svg" xmlns:xlink="http://www.w3.org/1999/xlink" version="1.1" viewBox="0 0 15.6 15.6">
  <defs>
    <style>
      .cls-1 {
        fill: none;
      }

      .cls-2 {
        fill: #fff;
      }

      .cls-3 {
        fill: #971d25;
      }

      .cls-4 {
        clip-path: url(#clippath);
      }
    </style>
    <clipPath id="clippath">
      <rect class="cls-1" y="0" width="15.6" height="15.6"/>
    </clipPath>
  </defs>
  <!-- Generator: Adobe Illustrator 28.7.1, SVG Export Plug-In . SVG Version: 1.2.0 Build 142)  -->
  <g>
    <g id="Warstwa_1">
      <g class="cls-4">
        <path class="cls-3" d="M11.6,15.6H3.9c-2.2,0-3.9-1.8-3.9-3.9V3.9C0,1.8,1.8,0,3.9,0h7.7C13.8,0,15.6,1.8,15.6,3.9v7.7c0,2.2-1.8,3.9-3.9,3.9"/>
      </g>
      <path class="cls-2" d="M12.9,4.9c-1.3,0-2.3-1-2.3-2.3h0v-.2h-1.8v7.4c0,.7-.5,1.3-1.2,1.5-.1,0-.3,0-.4,0-.9,0-1.6-.7-1.6-1.6s.7-1.6,1.6-1.6.3,0,.4,0v-1.9c-.1,0-.3,0-.4,0-1.9,0-3.4,1.5-3.4,3.4s1.5,3.4,3.4,3.4.3,0,.4,0c.5,0,1-.2,1.4-.5,1-.6,1.6-1.7,1.6-2.9v-4c.5.6,1.2,1,2.1,1s.4,0,.5,0v-1.8c0,0-.2,0-.2,0"/>
    </g>
  </g>
</svg>