<?xml version="1.0" encoding="UTF-8"?>
<svg xmlns="http://www.w3.org/2000/svg" xmlns:xlink="http://www.w3.org/1999/xlink" version="1.1" viewBox="0 0 15.6 15.6">
  <defs>
    <style>
      .cls-1 {
        fill: none;
      }

      .cls-2 {
        fill: #fff;
      }

      .cls-3 {
        fill: #971d25;
      }

      .cls-4 {
        clip-path: url(#clippath);
      }
    </style>
    <clipPath id="clippath">
      <rect class="cls-1" y="0" width="15.6" height="15.6"/>
    </clipPath>
  </defs>
  <!-- Generator: Adobe Illustrator 28.7.1, SVG Export Plug-In . SVG Version: 1.2.0 Build 142)  -->
  <g>
    <g id="Warstwa_1">
      <g class="cls-4">
        <path class="cls-3" d="M11.6,15.6H3.9c-2.2,0-3.9-1.8-3.9-3.9V3.9C0,1.8,1.8,0,3.9,0h7.7C13.8,0,15.6,1.8,15.6,3.9v7.7c0,2.2-1.8,3.9-3.9,3.9"/>
      </g>
      <path class="cls-2" d="M10,5.2h-4.7c-1,0-1.8.8-1.8,1.8v2.2c0,1,.8,1.8,1.8,1.8h4.7c1,0,1.8-.8,1.8-1.8v-2.2c0-1-.8-1.8-1.8-1.8ZM9,8.3l-2.1,1.1c-.2,0-.3,0-.3-.2v-2.1c0-.2.2-.3.3-.2l2.1,1c.2,0,.2.3,0,.4Z"/>
    </g>
  </g>
</svg>